%TF.GenerationSoftware,KiCad,Pcbnew,9.0.4*%
%TF.CreationDate,2025-08-21T19:00:16-05:00*%
%TF.ProjectId,ptFlex,7074466c-6578-42e6-9b69-6361645f7063,rev?*%
%TF.SameCoordinates,Original*%
%TF.FileFunction,Legend,Top*%
%TF.FilePolarity,Positive*%
%FSLAX46Y46*%
G04 Gerber Fmt 4.6, Leading zero omitted, Abs format (unit mm)*
G04 Created by KiCad (PCBNEW 9.0.4) date 2025-08-21 19:00:16*
%MOMM*%
%LPD*%
G01*
G04 APERTURE LIST*
%ADD10C,0.100000*%
%ADD11C,0.150000*%
%ADD12C,0.120000*%
%ADD13C,0.450000*%
%ADD14C,0.127000*%
G04 APERTURE END LIST*
D10*
X153000000Y-103500000D02*
X154500000Y-103500000D01*
X153800000Y-103100000D02*
X154800000Y-103100000D01*
X145350000Y-90600000D02*
X145350000Y-88500000D01*
X141650000Y-90600000D02*
X145350000Y-90600000D01*
X145350000Y-88500000D02*
X141650000Y-88500000D01*
X141650000Y-88500000D02*
X141650000Y-90600000D01*
X153800000Y-103100000D02*
X152800000Y-103100000D01*
X163900000Y-117100000D02*
X162900000Y-117100000D01*
X163400000Y-116100000D01*
X163900000Y-117100000D01*
G36*
X163900000Y-117100000D02*
G01*
X162900000Y-117100000D01*
X163400000Y-116100000D01*
X163900000Y-117100000D01*
G37*
X153400000Y-103900000D02*
X154150000Y-103900000D01*
X153800000Y-102600000D02*
X153800000Y-103100000D01*
D11*
X153665350Y-60069819D02*
X153474874Y-60069819D01*
X153474874Y-60069819D02*
X153379636Y-60117438D01*
X153379636Y-60117438D02*
X153332017Y-60165057D01*
X153332017Y-60165057D02*
X153236779Y-60307914D01*
X153236779Y-60307914D02*
X153189160Y-60498390D01*
X153189160Y-60498390D02*
X153189160Y-60879342D01*
X153189160Y-60879342D02*
X153236779Y-60974580D01*
X153236779Y-60974580D02*
X153284398Y-61022200D01*
X153284398Y-61022200D02*
X153379636Y-61069819D01*
X153379636Y-61069819D02*
X153570112Y-61069819D01*
X153570112Y-61069819D02*
X153665350Y-61022200D01*
X153665350Y-61022200D02*
X153712969Y-60974580D01*
X153712969Y-60974580D02*
X153760588Y-60879342D01*
X153760588Y-60879342D02*
X153760588Y-60641247D01*
X153760588Y-60641247D02*
X153712969Y-60546009D01*
X153712969Y-60546009D02*
X153665350Y-60498390D01*
X153665350Y-60498390D02*
X153570112Y-60450771D01*
X153570112Y-60450771D02*
X153379636Y-60450771D01*
X153379636Y-60450771D02*
X153284398Y-60498390D01*
X153284398Y-60498390D02*
X153236779Y-60546009D01*
X153236779Y-60546009D02*
X153189160Y-60641247D01*
X154189160Y-60974580D02*
X154236779Y-61022200D01*
X154236779Y-61022200D02*
X154189160Y-61069819D01*
X154189160Y-61069819D02*
X154141541Y-61022200D01*
X154141541Y-61022200D02*
X154189160Y-60974580D01*
X154189160Y-60974580D02*
X154189160Y-61069819D01*
X155141540Y-60069819D02*
X154665350Y-60069819D01*
X154665350Y-60069819D02*
X154617731Y-60546009D01*
X154617731Y-60546009D02*
X154665350Y-60498390D01*
X154665350Y-60498390D02*
X154760588Y-60450771D01*
X154760588Y-60450771D02*
X154998683Y-60450771D01*
X154998683Y-60450771D02*
X155093921Y-60498390D01*
X155093921Y-60498390D02*
X155141540Y-60546009D01*
X155141540Y-60546009D02*
X155189159Y-60641247D01*
X155189159Y-60641247D02*
X155189159Y-60879342D01*
X155189159Y-60879342D02*
X155141540Y-60974580D01*
X155141540Y-60974580D02*
X155093921Y-61022200D01*
X155093921Y-61022200D02*
X154998683Y-61069819D01*
X154998683Y-61069819D02*
X154760588Y-61069819D01*
X154760588Y-61069819D02*
X154665350Y-61022200D01*
X154665350Y-61022200D02*
X154617731Y-60974580D01*
X155617731Y-60688866D02*
X156379636Y-60688866D01*
X157379635Y-61069819D02*
X156808207Y-61069819D01*
X157093921Y-61069819D02*
X157093921Y-60069819D01*
X157093921Y-60069819D02*
X156998683Y-60212676D01*
X156998683Y-60212676D02*
X156903445Y-60307914D01*
X156903445Y-60307914D02*
X156808207Y-60355533D01*
X158236778Y-60403152D02*
X158236778Y-61069819D01*
X157998683Y-60022200D02*
X157760588Y-60736485D01*
X157760588Y-60736485D02*
X158379635Y-60736485D01*
X158617731Y-60069819D02*
X158951064Y-61069819D01*
X158951064Y-61069819D02*
X159284397Y-60069819D01*
X159617731Y-61069819D02*
X159617731Y-60069819D01*
X159617731Y-60069819D02*
X159855826Y-60069819D01*
X159855826Y-60069819D02*
X159998683Y-60117438D01*
X159998683Y-60117438D02*
X160093921Y-60212676D01*
X160093921Y-60212676D02*
X160141540Y-60307914D01*
X160141540Y-60307914D02*
X160189159Y-60498390D01*
X160189159Y-60498390D02*
X160189159Y-60641247D01*
X160189159Y-60641247D02*
X160141540Y-60831723D01*
X160141540Y-60831723D02*
X160093921Y-60926961D01*
X160093921Y-60926961D02*
X159998683Y-61022200D01*
X159998683Y-61022200D02*
X159855826Y-61069819D01*
X159855826Y-61069819D02*
X159617731Y-61069819D01*
X161189159Y-60974580D02*
X161141540Y-61022200D01*
X161141540Y-61022200D02*
X160998683Y-61069819D01*
X160998683Y-61069819D02*
X160903445Y-61069819D01*
X160903445Y-61069819D02*
X160760588Y-61022200D01*
X160760588Y-61022200D02*
X160665350Y-60926961D01*
X160665350Y-60926961D02*
X160617731Y-60831723D01*
X160617731Y-60831723D02*
X160570112Y-60641247D01*
X160570112Y-60641247D02*
X160570112Y-60498390D01*
X160570112Y-60498390D02*
X160617731Y-60307914D01*
X160617731Y-60307914D02*
X160665350Y-60212676D01*
X160665350Y-60212676D02*
X160760588Y-60117438D01*
X160760588Y-60117438D02*
X160903445Y-60069819D01*
X160903445Y-60069819D02*
X160998683Y-60069819D01*
X160998683Y-60069819D02*
X161141540Y-60117438D01*
X161141540Y-60117438D02*
X161189159Y-60165057D01*
X117977505Y-108968200D02*
X118120362Y-109015819D01*
X118120362Y-109015819D02*
X118358457Y-109015819D01*
X118358457Y-109015819D02*
X118453695Y-108968200D01*
X118453695Y-108968200D02*
X118501314Y-108920580D01*
X118501314Y-108920580D02*
X118548933Y-108825342D01*
X118548933Y-108825342D02*
X118548933Y-108730104D01*
X118548933Y-108730104D02*
X118501314Y-108634866D01*
X118501314Y-108634866D02*
X118453695Y-108587247D01*
X118453695Y-108587247D02*
X118358457Y-108539628D01*
X118358457Y-108539628D02*
X118167981Y-108492009D01*
X118167981Y-108492009D02*
X118072743Y-108444390D01*
X118072743Y-108444390D02*
X118025124Y-108396771D01*
X118025124Y-108396771D02*
X117977505Y-108301533D01*
X117977505Y-108301533D02*
X117977505Y-108206295D01*
X117977505Y-108206295D02*
X118025124Y-108111057D01*
X118025124Y-108111057D02*
X118072743Y-108063438D01*
X118072743Y-108063438D02*
X118167981Y-108015819D01*
X118167981Y-108015819D02*
X118406076Y-108015819D01*
X118406076Y-108015819D02*
X118548933Y-108063438D01*
X118834648Y-108349152D02*
X119215600Y-108349152D01*
X118977505Y-108015819D02*
X118977505Y-108872961D01*
X118977505Y-108872961D02*
X119025124Y-108968200D01*
X119025124Y-108968200D02*
X119120362Y-109015819D01*
X119120362Y-109015819D02*
X119215600Y-109015819D01*
X119977505Y-109015819D02*
X119977505Y-108492009D01*
X119977505Y-108492009D02*
X119929886Y-108396771D01*
X119929886Y-108396771D02*
X119834648Y-108349152D01*
X119834648Y-108349152D02*
X119644172Y-108349152D01*
X119644172Y-108349152D02*
X119548934Y-108396771D01*
X119977505Y-108968200D02*
X119882267Y-109015819D01*
X119882267Y-109015819D02*
X119644172Y-109015819D01*
X119644172Y-109015819D02*
X119548934Y-108968200D01*
X119548934Y-108968200D02*
X119501315Y-108872961D01*
X119501315Y-108872961D02*
X119501315Y-108777723D01*
X119501315Y-108777723D02*
X119548934Y-108682485D01*
X119548934Y-108682485D02*
X119644172Y-108634866D01*
X119644172Y-108634866D02*
X119882267Y-108634866D01*
X119882267Y-108634866D02*
X119977505Y-108587247D01*
X120310839Y-108349152D02*
X120691791Y-108349152D01*
X120453696Y-108015819D02*
X120453696Y-108872961D01*
X120453696Y-108872961D02*
X120501315Y-108968200D01*
X120501315Y-108968200D02*
X120596553Y-109015819D01*
X120596553Y-109015819D02*
X120691791Y-109015819D01*
X121453696Y-108349152D02*
X121453696Y-109015819D01*
X121025125Y-108349152D02*
X121025125Y-108872961D01*
X121025125Y-108872961D02*
X121072744Y-108968200D01*
X121072744Y-108968200D02*
X121167982Y-109015819D01*
X121167982Y-109015819D02*
X121310839Y-109015819D01*
X121310839Y-109015819D02*
X121406077Y-108968200D01*
X121406077Y-108968200D02*
X121453696Y-108920580D01*
X121882268Y-108968200D02*
X121977506Y-109015819D01*
X121977506Y-109015819D02*
X122167982Y-109015819D01*
X122167982Y-109015819D02*
X122263220Y-108968200D01*
X122263220Y-108968200D02*
X122310839Y-108872961D01*
X122310839Y-108872961D02*
X122310839Y-108825342D01*
X122310839Y-108825342D02*
X122263220Y-108730104D01*
X122263220Y-108730104D02*
X122167982Y-108682485D01*
X122167982Y-108682485D02*
X122025125Y-108682485D01*
X122025125Y-108682485D02*
X121929887Y-108634866D01*
X121929887Y-108634866D02*
X121882268Y-108539628D01*
X121882268Y-108539628D02*
X121882268Y-108492009D01*
X121882268Y-108492009D02*
X121929887Y-108396771D01*
X121929887Y-108396771D02*
X122025125Y-108349152D01*
X122025125Y-108349152D02*
X122167982Y-108349152D01*
X122167982Y-108349152D02*
X122263220Y-108396771D01*
X125153494Y-142893619D02*
X125105875Y-142988857D01*
X125105875Y-142988857D02*
X125105875Y-143131714D01*
X125105875Y-143131714D02*
X125153494Y-143274571D01*
X125153494Y-143274571D02*
X125248732Y-143369809D01*
X125248732Y-143369809D02*
X125343970Y-143417428D01*
X125343970Y-143417428D02*
X125534446Y-143465047D01*
X125534446Y-143465047D02*
X125677303Y-143465047D01*
X125677303Y-143465047D02*
X125867779Y-143417428D01*
X125867779Y-143417428D02*
X125963017Y-143369809D01*
X125963017Y-143369809D02*
X126058256Y-143274571D01*
X126058256Y-143274571D02*
X126105875Y-143131714D01*
X126105875Y-143131714D02*
X126105875Y-143036476D01*
X126105875Y-143036476D02*
X126058256Y-142893619D01*
X126058256Y-142893619D02*
X126010636Y-142846000D01*
X126010636Y-142846000D02*
X125677303Y-142846000D01*
X125677303Y-142846000D02*
X125677303Y-143036476D01*
X126105875Y-142417428D02*
X125105875Y-142417428D01*
X125105875Y-142417428D02*
X125105875Y-142036476D01*
X125105875Y-142036476D02*
X125153494Y-141941238D01*
X125153494Y-141941238D02*
X125201113Y-141893619D01*
X125201113Y-141893619D02*
X125296351Y-141846000D01*
X125296351Y-141846000D02*
X125439208Y-141846000D01*
X125439208Y-141846000D02*
X125534446Y-141893619D01*
X125534446Y-141893619D02*
X125582065Y-141941238D01*
X125582065Y-141941238D02*
X125629684Y-142036476D01*
X125629684Y-142036476D02*
X125629684Y-142417428D01*
X126058256Y-141465047D02*
X126105875Y-141322190D01*
X126105875Y-141322190D02*
X126105875Y-141084095D01*
X126105875Y-141084095D02*
X126058256Y-140988857D01*
X126058256Y-140988857D02*
X126010636Y-140941238D01*
X126010636Y-140941238D02*
X125915398Y-140893619D01*
X125915398Y-140893619D02*
X125820160Y-140893619D01*
X125820160Y-140893619D02*
X125724922Y-140941238D01*
X125724922Y-140941238D02*
X125677303Y-140988857D01*
X125677303Y-140988857D02*
X125629684Y-141084095D01*
X125629684Y-141084095D02*
X125582065Y-141274571D01*
X125582065Y-141274571D02*
X125534446Y-141369809D01*
X125534446Y-141369809D02*
X125486827Y-141417428D01*
X125486827Y-141417428D02*
X125391589Y-141465047D01*
X125391589Y-141465047D02*
X125296351Y-141465047D01*
X125296351Y-141465047D02*
X125201113Y-141417428D01*
X125201113Y-141417428D02*
X125153494Y-141369809D01*
X125153494Y-141369809D02*
X125105875Y-141274571D01*
X125105875Y-141274571D02*
X125105875Y-141036476D01*
X125105875Y-141036476D02*
X125153494Y-140893619D01*
X125820160Y-139750761D02*
X125820160Y-139274571D01*
X126105875Y-139845999D02*
X125105875Y-139512666D01*
X125105875Y-139512666D02*
X126105875Y-139179333D01*
X125439208Y-138845999D02*
X126105875Y-138845999D01*
X125534446Y-138845999D02*
X125486827Y-138798380D01*
X125486827Y-138798380D02*
X125439208Y-138703142D01*
X125439208Y-138703142D02*
X125439208Y-138560285D01*
X125439208Y-138560285D02*
X125486827Y-138465047D01*
X125486827Y-138465047D02*
X125582065Y-138417428D01*
X125582065Y-138417428D02*
X126105875Y-138417428D01*
X125439208Y-138084094D02*
X125439208Y-137703142D01*
X125105875Y-137941237D02*
X125963017Y-137941237D01*
X125963017Y-137941237D02*
X126058256Y-137893618D01*
X126058256Y-137893618D02*
X126105875Y-137798380D01*
X126105875Y-137798380D02*
X126105875Y-137703142D01*
X126058256Y-136988856D02*
X126105875Y-137084094D01*
X126105875Y-137084094D02*
X126105875Y-137274570D01*
X126105875Y-137274570D02*
X126058256Y-137369808D01*
X126058256Y-137369808D02*
X125963017Y-137417427D01*
X125963017Y-137417427D02*
X125582065Y-137417427D01*
X125582065Y-137417427D02*
X125486827Y-137369808D01*
X125486827Y-137369808D02*
X125439208Y-137274570D01*
X125439208Y-137274570D02*
X125439208Y-137084094D01*
X125439208Y-137084094D02*
X125486827Y-136988856D01*
X125486827Y-136988856D02*
X125582065Y-136941237D01*
X125582065Y-136941237D02*
X125677303Y-136941237D01*
X125677303Y-136941237D02*
X125772541Y-137417427D01*
X125439208Y-136512665D02*
X126105875Y-136512665D01*
X125534446Y-136512665D02*
X125486827Y-136465046D01*
X125486827Y-136465046D02*
X125439208Y-136369808D01*
X125439208Y-136369808D02*
X125439208Y-136226951D01*
X125439208Y-136226951D02*
X125486827Y-136131713D01*
X125486827Y-136131713D02*
X125582065Y-136084094D01*
X125582065Y-136084094D02*
X126105875Y-136084094D01*
X125439208Y-135607903D02*
X126105875Y-135607903D01*
X125534446Y-135607903D02*
X125486827Y-135560284D01*
X125486827Y-135560284D02*
X125439208Y-135465046D01*
X125439208Y-135465046D02*
X125439208Y-135322189D01*
X125439208Y-135322189D02*
X125486827Y-135226951D01*
X125486827Y-135226951D02*
X125582065Y-135179332D01*
X125582065Y-135179332D02*
X126105875Y-135179332D01*
X126105875Y-134274570D02*
X125582065Y-134274570D01*
X125582065Y-134274570D02*
X125486827Y-134322189D01*
X125486827Y-134322189D02*
X125439208Y-134417427D01*
X125439208Y-134417427D02*
X125439208Y-134607903D01*
X125439208Y-134607903D02*
X125486827Y-134703141D01*
X126058256Y-134274570D02*
X126105875Y-134369808D01*
X126105875Y-134369808D02*
X126105875Y-134607903D01*
X126105875Y-134607903D02*
X126058256Y-134703141D01*
X126058256Y-134703141D02*
X125963017Y-134750760D01*
X125963017Y-134750760D02*
X125867779Y-134750760D01*
X125867779Y-134750760D02*
X125772541Y-134703141D01*
X125772541Y-134703141D02*
X125724922Y-134607903D01*
X125724922Y-134607903D02*
X125724922Y-134369808D01*
X125724922Y-134369808D02*
X125677303Y-134274570D01*
X127715819Y-142441237D02*
X126715819Y-142441237D01*
X126715819Y-142441237D02*
X127715819Y-141869809D01*
X127715819Y-141869809D02*
X126715819Y-141869809D01*
X126715819Y-141203142D02*
X126715819Y-141012666D01*
X126715819Y-141012666D02*
X126763438Y-140917428D01*
X126763438Y-140917428D02*
X126858676Y-140822190D01*
X126858676Y-140822190D02*
X127049152Y-140774571D01*
X127049152Y-140774571D02*
X127382485Y-140774571D01*
X127382485Y-140774571D02*
X127572961Y-140822190D01*
X127572961Y-140822190D02*
X127668200Y-140917428D01*
X127668200Y-140917428D02*
X127715819Y-141012666D01*
X127715819Y-141012666D02*
X127715819Y-141203142D01*
X127715819Y-141203142D02*
X127668200Y-141298380D01*
X127668200Y-141298380D02*
X127572961Y-141393618D01*
X127572961Y-141393618D02*
X127382485Y-141441237D01*
X127382485Y-141441237D02*
X127049152Y-141441237D01*
X127049152Y-141441237D02*
X126858676Y-141393618D01*
X126858676Y-141393618D02*
X126763438Y-141298380D01*
X126763438Y-141298380D02*
X126715819Y-141203142D01*
X127620580Y-139012666D02*
X127668200Y-139060285D01*
X127668200Y-139060285D02*
X127715819Y-139203142D01*
X127715819Y-139203142D02*
X127715819Y-139298380D01*
X127715819Y-139298380D02*
X127668200Y-139441237D01*
X127668200Y-139441237D02*
X127572961Y-139536475D01*
X127572961Y-139536475D02*
X127477723Y-139584094D01*
X127477723Y-139584094D02*
X127287247Y-139631713D01*
X127287247Y-139631713D02*
X127144390Y-139631713D01*
X127144390Y-139631713D02*
X126953914Y-139584094D01*
X126953914Y-139584094D02*
X126858676Y-139536475D01*
X126858676Y-139536475D02*
X126763438Y-139441237D01*
X126763438Y-139441237D02*
X126715819Y-139298380D01*
X126715819Y-139298380D02*
X126715819Y-139203142D01*
X126715819Y-139203142D02*
X126763438Y-139060285D01*
X126763438Y-139060285D02*
X126811057Y-139012666D01*
X126715819Y-138393618D02*
X126715819Y-138203142D01*
X126715819Y-138203142D02*
X126763438Y-138107904D01*
X126763438Y-138107904D02*
X126858676Y-138012666D01*
X126858676Y-138012666D02*
X127049152Y-137965047D01*
X127049152Y-137965047D02*
X127382485Y-137965047D01*
X127382485Y-137965047D02*
X127572961Y-138012666D01*
X127572961Y-138012666D02*
X127668200Y-138107904D01*
X127668200Y-138107904D02*
X127715819Y-138203142D01*
X127715819Y-138203142D02*
X127715819Y-138393618D01*
X127715819Y-138393618D02*
X127668200Y-138488856D01*
X127668200Y-138488856D02*
X127572961Y-138584094D01*
X127572961Y-138584094D02*
X127382485Y-138631713D01*
X127382485Y-138631713D02*
X127049152Y-138631713D01*
X127049152Y-138631713D02*
X126858676Y-138584094D01*
X126858676Y-138584094D02*
X126763438Y-138488856D01*
X126763438Y-138488856D02*
X126715819Y-138393618D01*
X126715819Y-137679332D02*
X127715819Y-137345999D01*
X127715819Y-137345999D02*
X126715819Y-137012666D01*
X127192009Y-136679332D02*
X127192009Y-136345999D01*
X127715819Y-136203142D02*
X127715819Y-136679332D01*
X127715819Y-136679332D02*
X126715819Y-136679332D01*
X126715819Y-136679332D02*
X126715819Y-136203142D01*
X127715819Y-135203142D02*
X127239628Y-135536475D01*
X127715819Y-135774570D02*
X126715819Y-135774570D01*
X126715819Y-135774570D02*
X126715819Y-135393618D01*
X126715819Y-135393618D02*
X126763438Y-135298380D01*
X126763438Y-135298380D02*
X126811057Y-135250761D01*
X126811057Y-135250761D02*
X126906295Y-135203142D01*
X126906295Y-135203142D02*
X127049152Y-135203142D01*
X127049152Y-135203142D02*
X127144390Y-135250761D01*
X127144390Y-135250761D02*
X127192009Y-135298380D01*
X127192009Y-135298380D02*
X127239628Y-135393618D01*
X127239628Y-135393618D02*
X127239628Y-135774570D01*
X119110840Y-110515819D02*
X119777506Y-111515819D01*
X119777506Y-110515819D02*
X119110840Y-111515819D01*
X120158459Y-111515819D02*
X120158459Y-110849152D01*
X120158459Y-110944390D02*
X120206078Y-110896771D01*
X120206078Y-110896771D02*
X120301316Y-110849152D01*
X120301316Y-110849152D02*
X120444173Y-110849152D01*
X120444173Y-110849152D02*
X120539411Y-110896771D01*
X120539411Y-110896771D02*
X120587030Y-110992009D01*
X120587030Y-110992009D02*
X120587030Y-111515819D01*
X120587030Y-110992009D02*
X120634649Y-110896771D01*
X120634649Y-110896771D02*
X120729887Y-110849152D01*
X120729887Y-110849152D02*
X120872744Y-110849152D01*
X120872744Y-110849152D02*
X120967983Y-110896771D01*
X120967983Y-110896771D02*
X121015602Y-110992009D01*
X121015602Y-110992009D02*
X121015602Y-111515819D01*
X121491792Y-111515819D02*
X121491792Y-110849152D01*
X121491792Y-110515819D02*
X121444173Y-110563438D01*
X121444173Y-110563438D02*
X121491792Y-110611057D01*
X121491792Y-110611057D02*
X121539411Y-110563438D01*
X121539411Y-110563438D02*
X121491792Y-110515819D01*
X121491792Y-110515819D02*
X121491792Y-110611057D01*
X121825125Y-110849152D02*
X122206077Y-110849152D01*
X121967982Y-110515819D02*
X121967982Y-111372961D01*
X121967982Y-111372961D02*
X122015601Y-111468200D01*
X122015601Y-111468200D02*
X122110839Y-111515819D01*
X122110839Y-111515819D02*
X122206077Y-111515819D01*
X146386779Y-103719819D02*
X146386779Y-102719819D01*
X146386779Y-102719819D02*
X146767731Y-102719819D01*
X146767731Y-102719819D02*
X146862969Y-102767438D01*
X146862969Y-102767438D02*
X146910588Y-102815057D01*
X146910588Y-102815057D02*
X146958207Y-102910295D01*
X146958207Y-102910295D02*
X146958207Y-103053152D01*
X146958207Y-103053152D02*
X146910588Y-103148390D01*
X146910588Y-103148390D02*
X146862969Y-103196009D01*
X146862969Y-103196009D02*
X146767731Y-103243628D01*
X146767731Y-103243628D02*
X146386779Y-103243628D01*
X147386779Y-103719819D02*
X147386779Y-103053152D01*
X147386779Y-103243628D02*
X147434398Y-103148390D01*
X147434398Y-103148390D02*
X147482017Y-103100771D01*
X147482017Y-103100771D02*
X147577255Y-103053152D01*
X147577255Y-103053152D02*
X147672493Y-103053152D01*
X148148684Y-103719819D02*
X148053446Y-103672200D01*
X148053446Y-103672200D02*
X148005827Y-103624580D01*
X148005827Y-103624580D02*
X147958208Y-103529342D01*
X147958208Y-103529342D02*
X147958208Y-103243628D01*
X147958208Y-103243628D02*
X148005827Y-103148390D01*
X148005827Y-103148390D02*
X148053446Y-103100771D01*
X148053446Y-103100771D02*
X148148684Y-103053152D01*
X148148684Y-103053152D02*
X148291541Y-103053152D01*
X148291541Y-103053152D02*
X148386779Y-103100771D01*
X148386779Y-103100771D02*
X148434398Y-103148390D01*
X148434398Y-103148390D02*
X148482017Y-103243628D01*
X148482017Y-103243628D02*
X148482017Y-103529342D01*
X148482017Y-103529342D02*
X148434398Y-103624580D01*
X148434398Y-103624580D02*
X148386779Y-103672200D01*
X148386779Y-103672200D02*
X148291541Y-103719819D01*
X148291541Y-103719819D02*
X148148684Y-103719819D01*
X149339160Y-103053152D02*
X149339160Y-103862676D01*
X149339160Y-103862676D02*
X149291541Y-103957914D01*
X149291541Y-103957914D02*
X149243922Y-104005533D01*
X149243922Y-104005533D02*
X149148684Y-104053152D01*
X149148684Y-104053152D02*
X149005827Y-104053152D01*
X149005827Y-104053152D02*
X148910589Y-104005533D01*
X149339160Y-103672200D02*
X149243922Y-103719819D01*
X149243922Y-103719819D02*
X149053446Y-103719819D01*
X149053446Y-103719819D02*
X148958208Y-103672200D01*
X148958208Y-103672200D02*
X148910589Y-103624580D01*
X148910589Y-103624580D02*
X148862970Y-103529342D01*
X148862970Y-103529342D02*
X148862970Y-103243628D01*
X148862970Y-103243628D02*
X148910589Y-103148390D01*
X148910589Y-103148390D02*
X148958208Y-103100771D01*
X148958208Y-103100771D02*
X149053446Y-103053152D01*
X149053446Y-103053152D02*
X149243922Y-103053152D01*
X149243922Y-103053152D02*
X149339160Y-103100771D01*
X149815351Y-103719819D02*
X149815351Y-103053152D01*
X149815351Y-103243628D02*
X149862970Y-103148390D01*
X149862970Y-103148390D02*
X149910589Y-103100771D01*
X149910589Y-103100771D02*
X150005827Y-103053152D01*
X150005827Y-103053152D02*
X150101065Y-103053152D01*
X150862970Y-103719819D02*
X150862970Y-103196009D01*
X150862970Y-103196009D02*
X150815351Y-103100771D01*
X150815351Y-103100771D02*
X150720113Y-103053152D01*
X150720113Y-103053152D02*
X150529637Y-103053152D01*
X150529637Y-103053152D02*
X150434399Y-103100771D01*
X150862970Y-103672200D02*
X150767732Y-103719819D01*
X150767732Y-103719819D02*
X150529637Y-103719819D01*
X150529637Y-103719819D02*
X150434399Y-103672200D01*
X150434399Y-103672200D02*
X150386780Y-103576961D01*
X150386780Y-103576961D02*
X150386780Y-103481723D01*
X150386780Y-103481723D02*
X150434399Y-103386485D01*
X150434399Y-103386485D02*
X150529637Y-103338866D01*
X150529637Y-103338866D02*
X150767732Y-103338866D01*
X150767732Y-103338866D02*
X150862970Y-103291247D01*
X151339161Y-103719819D02*
X151339161Y-103053152D01*
X151339161Y-103148390D02*
X151386780Y-103100771D01*
X151386780Y-103100771D02*
X151482018Y-103053152D01*
X151482018Y-103053152D02*
X151624875Y-103053152D01*
X151624875Y-103053152D02*
X151720113Y-103100771D01*
X151720113Y-103100771D02*
X151767732Y-103196009D01*
X151767732Y-103196009D02*
X151767732Y-103719819D01*
X151767732Y-103196009D02*
X151815351Y-103100771D01*
X151815351Y-103100771D02*
X151910589Y-103053152D01*
X151910589Y-103053152D02*
X152053446Y-103053152D01*
X152053446Y-103053152D02*
X152148685Y-103100771D01*
X152148685Y-103100771D02*
X152196304Y-103196009D01*
X152196304Y-103196009D02*
X152196304Y-103719819D01*
X161203445Y-130065057D02*
X161108207Y-130017438D01*
X161108207Y-130017438D02*
X161012969Y-129922200D01*
X161012969Y-129922200D02*
X160870112Y-129779342D01*
X160870112Y-129779342D02*
X160774874Y-129731723D01*
X160774874Y-129731723D02*
X160679636Y-129731723D01*
X160727255Y-129969819D02*
X160632017Y-129922200D01*
X160632017Y-129922200D02*
X160536779Y-129826961D01*
X160536779Y-129826961D02*
X160489160Y-129636485D01*
X160489160Y-129636485D02*
X160489160Y-129303152D01*
X160489160Y-129303152D02*
X160536779Y-129112676D01*
X160536779Y-129112676D02*
X160632017Y-129017438D01*
X160632017Y-129017438D02*
X160727255Y-128969819D01*
X160727255Y-128969819D02*
X160917731Y-128969819D01*
X160917731Y-128969819D02*
X161012969Y-129017438D01*
X161012969Y-129017438D02*
X161108207Y-129112676D01*
X161108207Y-129112676D02*
X161155826Y-129303152D01*
X161155826Y-129303152D02*
X161155826Y-129636485D01*
X161155826Y-129636485D02*
X161108207Y-129826961D01*
X161108207Y-129826961D02*
X161012969Y-129922200D01*
X161012969Y-129922200D02*
X160917731Y-129969819D01*
X160917731Y-129969819D02*
X160727255Y-129969819D01*
X161489160Y-129303152D02*
X161679636Y-129969819D01*
X161679636Y-129969819D02*
X161870112Y-129493628D01*
X161870112Y-129493628D02*
X162060588Y-129969819D01*
X162060588Y-129969819D02*
X162251064Y-129303152D01*
X162632017Y-129969819D02*
X162632017Y-129303152D01*
X162632017Y-128969819D02*
X162584398Y-129017438D01*
X162584398Y-129017438D02*
X162632017Y-129065057D01*
X162632017Y-129065057D02*
X162679636Y-129017438D01*
X162679636Y-129017438D02*
X162632017Y-128969819D01*
X162632017Y-128969819D02*
X162632017Y-129065057D01*
X163108207Y-129969819D02*
X163108207Y-129303152D01*
X163108207Y-128969819D02*
X163060588Y-129017438D01*
X163060588Y-129017438D02*
X163108207Y-129065057D01*
X163108207Y-129065057D02*
X163155826Y-129017438D01*
X163155826Y-129017438D02*
X163108207Y-128969819D01*
X163108207Y-128969819D02*
X163108207Y-129065057D01*
X164012968Y-129922200D02*
X163917730Y-129969819D01*
X163917730Y-129969819D02*
X163727254Y-129969819D01*
X163727254Y-129969819D02*
X163632016Y-129922200D01*
X163632016Y-129922200D02*
X163584397Y-129874580D01*
X163584397Y-129874580D02*
X163536778Y-129779342D01*
X163536778Y-129779342D02*
X163536778Y-129493628D01*
X163536778Y-129493628D02*
X163584397Y-129398390D01*
X163584397Y-129398390D02*
X163632016Y-129350771D01*
X163632016Y-129350771D02*
X163727254Y-129303152D01*
X163727254Y-129303152D02*
X163917730Y-129303152D01*
X163917730Y-129303152D02*
X164012968Y-129350771D01*
X141486779Y-88069819D02*
X141486779Y-87069819D01*
X141486779Y-87069819D02*
X141867731Y-87069819D01*
X141867731Y-87069819D02*
X141962969Y-87117438D01*
X141962969Y-87117438D02*
X142010588Y-87165057D01*
X142010588Y-87165057D02*
X142058207Y-87260295D01*
X142058207Y-87260295D02*
X142058207Y-87403152D01*
X142058207Y-87403152D02*
X142010588Y-87498390D01*
X142010588Y-87498390D02*
X141962969Y-87546009D01*
X141962969Y-87546009D02*
X141867731Y-87593628D01*
X141867731Y-87593628D02*
X141486779Y-87593628D01*
X142629636Y-88069819D02*
X142534398Y-88022200D01*
X142534398Y-88022200D02*
X142486779Y-87974580D01*
X142486779Y-87974580D02*
X142439160Y-87879342D01*
X142439160Y-87879342D02*
X142439160Y-87593628D01*
X142439160Y-87593628D02*
X142486779Y-87498390D01*
X142486779Y-87498390D02*
X142534398Y-87450771D01*
X142534398Y-87450771D02*
X142629636Y-87403152D01*
X142629636Y-87403152D02*
X142772493Y-87403152D01*
X142772493Y-87403152D02*
X142867731Y-87450771D01*
X142867731Y-87450771D02*
X142915350Y-87498390D01*
X142915350Y-87498390D02*
X142962969Y-87593628D01*
X142962969Y-87593628D02*
X142962969Y-87879342D01*
X142962969Y-87879342D02*
X142915350Y-87974580D01*
X142915350Y-87974580D02*
X142867731Y-88022200D01*
X142867731Y-88022200D02*
X142772493Y-88069819D01*
X142772493Y-88069819D02*
X142629636Y-88069819D01*
X143296303Y-87403152D02*
X143486779Y-88069819D01*
X143486779Y-88069819D02*
X143677255Y-87593628D01*
X143677255Y-87593628D02*
X143867731Y-88069819D01*
X143867731Y-88069819D02*
X144058207Y-87403152D01*
X144820112Y-88022200D02*
X144724874Y-88069819D01*
X144724874Y-88069819D02*
X144534398Y-88069819D01*
X144534398Y-88069819D02*
X144439160Y-88022200D01*
X144439160Y-88022200D02*
X144391541Y-87926961D01*
X144391541Y-87926961D02*
X144391541Y-87546009D01*
X144391541Y-87546009D02*
X144439160Y-87450771D01*
X144439160Y-87450771D02*
X144534398Y-87403152D01*
X144534398Y-87403152D02*
X144724874Y-87403152D01*
X144724874Y-87403152D02*
X144820112Y-87450771D01*
X144820112Y-87450771D02*
X144867731Y-87546009D01*
X144867731Y-87546009D02*
X144867731Y-87641247D01*
X144867731Y-87641247D02*
X144391541Y-87736485D01*
X145296303Y-88069819D02*
X145296303Y-87403152D01*
X145296303Y-87593628D02*
X145343922Y-87498390D01*
X145343922Y-87498390D02*
X145391541Y-87450771D01*
X145391541Y-87450771D02*
X145486779Y-87403152D01*
X145486779Y-87403152D02*
X145582017Y-87403152D01*
X159436779Y-117169819D02*
X159436779Y-116169819D01*
X160484397Y-117074580D02*
X160436778Y-117122200D01*
X160436778Y-117122200D02*
X160293921Y-117169819D01*
X160293921Y-117169819D02*
X160198683Y-117169819D01*
X160198683Y-117169819D02*
X160055826Y-117122200D01*
X160055826Y-117122200D02*
X159960588Y-117026961D01*
X159960588Y-117026961D02*
X159912969Y-116931723D01*
X159912969Y-116931723D02*
X159865350Y-116741247D01*
X159865350Y-116741247D02*
X159865350Y-116598390D01*
X159865350Y-116598390D02*
X159912969Y-116407914D01*
X159912969Y-116407914D02*
X159960588Y-116312676D01*
X159960588Y-116312676D02*
X160055826Y-116217438D01*
X160055826Y-116217438D02*
X160198683Y-116169819D01*
X160198683Y-116169819D02*
X160293921Y-116169819D01*
X160293921Y-116169819D02*
X160436778Y-116217438D01*
X160436778Y-116217438D02*
X160484397Y-116265057D01*
X160865350Y-117122200D02*
X161008207Y-117169819D01*
X161008207Y-117169819D02*
X161246302Y-117169819D01*
X161246302Y-117169819D02*
X161341540Y-117122200D01*
X161341540Y-117122200D02*
X161389159Y-117074580D01*
X161389159Y-117074580D02*
X161436778Y-116979342D01*
X161436778Y-116979342D02*
X161436778Y-116884104D01*
X161436778Y-116884104D02*
X161389159Y-116788866D01*
X161389159Y-116788866D02*
X161341540Y-116741247D01*
X161341540Y-116741247D02*
X161246302Y-116693628D01*
X161246302Y-116693628D02*
X161055826Y-116646009D01*
X161055826Y-116646009D02*
X160960588Y-116598390D01*
X160960588Y-116598390D02*
X160912969Y-116550771D01*
X160912969Y-116550771D02*
X160865350Y-116455533D01*
X160865350Y-116455533D02*
X160865350Y-116360295D01*
X160865350Y-116360295D02*
X160912969Y-116265057D01*
X160912969Y-116265057D02*
X160960588Y-116217438D01*
X160960588Y-116217438D02*
X161055826Y-116169819D01*
X161055826Y-116169819D02*
X161293921Y-116169819D01*
X161293921Y-116169819D02*
X161436778Y-116217438D01*
X161865350Y-117169819D02*
X161865350Y-116169819D01*
X161865350Y-116169819D02*
X162246302Y-116169819D01*
X162246302Y-116169819D02*
X162341540Y-116217438D01*
X162341540Y-116217438D02*
X162389159Y-116265057D01*
X162389159Y-116265057D02*
X162436778Y-116360295D01*
X162436778Y-116360295D02*
X162436778Y-116503152D01*
X162436778Y-116503152D02*
X162389159Y-116598390D01*
X162389159Y-116598390D02*
X162341540Y-116646009D01*
X162341540Y-116646009D02*
X162246302Y-116693628D01*
X162246302Y-116693628D02*
X161865350Y-116693628D01*
X152857142Y-96600819D02*
X152523809Y-96124628D01*
X152285714Y-96600819D02*
X152285714Y-95600819D01*
X152285714Y-95600819D02*
X152666666Y-95600819D01*
X152666666Y-95600819D02*
X152761904Y-95648438D01*
X152761904Y-95648438D02*
X152809523Y-95696057D01*
X152809523Y-95696057D02*
X152857142Y-95791295D01*
X152857142Y-95791295D02*
X152857142Y-95934152D01*
X152857142Y-95934152D02*
X152809523Y-96029390D01*
X152809523Y-96029390D02*
X152761904Y-96077009D01*
X152761904Y-96077009D02*
X152666666Y-96124628D01*
X152666666Y-96124628D02*
X152285714Y-96124628D01*
X153809523Y-96600819D02*
X153238095Y-96600819D01*
X153523809Y-96600819D02*
X153523809Y-95600819D01*
X153523809Y-95600819D02*
X153428571Y-95743676D01*
X153428571Y-95743676D02*
X153333333Y-95838914D01*
X153333333Y-95838914D02*
X153238095Y-95886533D01*
X154761904Y-96600819D02*
X154190476Y-96600819D01*
X154476190Y-96600819D02*
X154476190Y-95600819D01*
X154476190Y-95600819D02*
X154380952Y-95743676D01*
X154380952Y-95743676D02*
X154285714Y-95838914D01*
X154285714Y-95838914D02*
X154190476Y-95886533D01*
X118115104Y-142465047D02*
X118115104Y-141988857D01*
X118400819Y-142560285D02*
X117400819Y-142226952D01*
X117400819Y-142226952D02*
X118400819Y-141893619D01*
X118400819Y-141560285D02*
X117400819Y-141560285D01*
X117400819Y-141560285D02*
X118400819Y-140988857D01*
X118400819Y-140988857D02*
X117400819Y-140988857D01*
X117400819Y-140655523D02*
X117400819Y-140084095D01*
X118400819Y-140369809D02*
X117400819Y-140369809D01*
X118400819Y-139226952D02*
X118400819Y-139798380D01*
X118400819Y-139512666D02*
X117400819Y-139512666D01*
X117400819Y-139512666D02*
X117543676Y-139607904D01*
X117543676Y-139607904D02*
X117638914Y-139703142D01*
X117638914Y-139703142D02*
X117686533Y-139798380D01*
X139707142Y-96554819D02*
X139373809Y-96078628D01*
X139135714Y-96554819D02*
X139135714Y-95554819D01*
X139135714Y-95554819D02*
X139516666Y-95554819D01*
X139516666Y-95554819D02*
X139611904Y-95602438D01*
X139611904Y-95602438D02*
X139659523Y-95650057D01*
X139659523Y-95650057D02*
X139707142Y-95745295D01*
X139707142Y-95745295D02*
X139707142Y-95888152D01*
X139707142Y-95888152D02*
X139659523Y-95983390D01*
X139659523Y-95983390D02*
X139611904Y-96031009D01*
X139611904Y-96031009D02*
X139516666Y-96078628D01*
X139516666Y-96078628D02*
X139135714Y-96078628D01*
X140659523Y-96554819D02*
X140088095Y-96554819D01*
X140373809Y-96554819D02*
X140373809Y-95554819D01*
X140373809Y-95554819D02*
X140278571Y-95697676D01*
X140278571Y-95697676D02*
X140183333Y-95792914D01*
X140183333Y-95792914D02*
X140088095Y-95840533D01*
X141516666Y-95888152D02*
X141516666Y-96554819D01*
X141278571Y-95507200D02*
X141040476Y-96221485D01*
X141040476Y-96221485D02*
X141659523Y-96221485D01*
X159833333Y-98854152D02*
X159500000Y-98377961D01*
X159261905Y-98854152D02*
X159261905Y-97854152D01*
X159261905Y-97854152D02*
X159642857Y-97854152D01*
X159642857Y-97854152D02*
X159738095Y-97901771D01*
X159738095Y-97901771D02*
X159785714Y-97949390D01*
X159785714Y-97949390D02*
X159833333Y-98044628D01*
X159833333Y-98044628D02*
X159833333Y-98187485D01*
X159833333Y-98187485D02*
X159785714Y-98282723D01*
X159785714Y-98282723D02*
X159738095Y-98330342D01*
X159738095Y-98330342D02*
X159642857Y-98377961D01*
X159642857Y-98377961D02*
X159261905Y-98377961D01*
X160309524Y-98854152D02*
X160500000Y-98854152D01*
X160500000Y-98854152D02*
X160595238Y-98806533D01*
X160595238Y-98806533D02*
X160642857Y-98758913D01*
X160642857Y-98758913D02*
X160738095Y-98616056D01*
X160738095Y-98616056D02*
X160785714Y-98425580D01*
X160785714Y-98425580D02*
X160785714Y-98044628D01*
X160785714Y-98044628D02*
X160738095Y-97949390D01*
X160738095Y-97949390D02*
X160690476Y-97901771D01*
X160690476Y-97901771D02*
X160595238Y-97854152D01*
X160595238Y-97854152D02*
X160404762Y-97854152D01*
X160404762Y-97854152D02*
X160309524Y-97901771D01*
X160309524Y-97901771D02*
X160261905Y-97949390D01*
X160261905Y-97949390D02*
X160214286Y-98044628D01*
X160214286Y-98044628D02*
X160214286Y-98282723D01*
X160214286Y-98282723D02*
X160261905Y-98377961D01*
X160261905Y-98377961D02*
X160309524Y-98425580D01*
X160309524Y-98425580D02*
X160404762Y-98473199D01*
X160404762Y-98473199D02*
X160595238Y-98473199D01*
X160595238Y-98473199D02*
X160690476Y-98425580D01*
X160690476Y-98425580D02*
X160738095Y-98377961D01*
X160738095Y-98377961D02*
X160785714Y-98282723D01*
X133153142Y-127100819D02*
X132819809Y-126624628D01*
X132581714Y-127100819D02*
X132581714Y-126100819D01*
X132581714Y-126100819D02*
X132962666Y-126100819D01*
X132962666Y-126100819D02*
X133057904Y-126148438D01*
X133057904Y-126148438D02*
X133105523Y-126196057D01*
X133105523Y-126196057D02*
X133153142Y-126291295D01*
X133153142Y-126291295D02*
X133153142Y-126434152D01*
X133153142Y-126434152D02*
X133105523Y-126529390D01*
X133105523Y-126529390D02*
X133057904Y-126577009D01*
X133057904Y-126577009D02*
X132962666Y-126624628D01*
X132962666Y-126624628D02*
X132581714Y-126624628D01*
X133534095Y-126196057D02*
X133581714Y-126148438D01*
X133581714Y-126148438D02*
X133676952Y-126100819D01*
X133676952Y-126100819D02*
X133915047Y-126100819D01*
X133915047Y-126100819D02*
X134010285Y-126148438D01*
X134010285Y-126148438D02*
X134057904Y-126196057D01*
X134057904Y-126196057D02*
X134105523Y-126291295D01*
X134105523Y-126291295D02*
X134105523Y-126386533D01*
X134105523Y-126386533D02*
X134057904Y-126529390D01*
X134057904Y-126529390D02*
X133486476Y-127100819D01*
X133486476Y-127100819D02*
X134105523Y-127100819D01*
X134724571Y-126100819D02*
X134819809Y-126100819D01*
X134819809Y-126100819D02*
X134915047Y-126148438D01*
X134915047Y-126148438D02*
X134962666Y-126196057D01*
X134962666Y-126196057D02*
X135010285Y-126291295D01*
X135010285Y-126291295D02*
X135057904Y-126481771D01*
X135057904Y-126481771D02*
X135057904Y-126719866D01*
X135057904Y-126719866D02*
X135010285Y-126910342D01*
X135010285Y-126910342D02*
X134962666Y-127005580D01*
X134962666Y-127005580D02*
X134915047Y-127053200D01*
X134915047Y-127053200D02*
X134819809Y-127100819D01*
X134819809Y-127100819D02*
X134724571Y-127100819D01*
X134724571Y-127100819D02*
X134629333Y-127053200D01*
X134629333Y-127053200D02*
X134581714Y-127005580D01*
X134581714Y-127005580D02*
X134534095Y-126910342D01*
X134534095Y-126910342D02*
X134486476Y-126719866D01*
X134486476Y-126719866D02*
X134486476Y-126481771D01*
X134486476Y-126481771D02*
X134534095Y-126291295D01*
X134534095Y-126291295D02*
X134581714Y-126196057D01*
X134581714Y-126196057D02*
X134629333Y-126148438D01*
X134629333Y-126148438D02*
X134724571Y-126100819D01*
X133157142Y-122059580D02*
X133109523Y-122107200D01*
X133109523Y-122107200D02*
X132966666Y-122154819D01*
X132966666Y-122154819D02*
X132871428Y-122154819D01*
X132871428Y-122154819D02*
X132728571Y-122107200D01*
X132728571Y-122107200D02*
X132633333Y-122011961D01*
X132633333Y-122011961D02*
X132585714Y-121916723D01*
X132585714Y-121916723D02*
X132538095Y-121726247D01*
X132538095Y-121726247D02*
X132538095Y-121583390D01*
X132538095Y-121583390D02*
X132585714Y-121392914D01*
X132585714Y-121392914D02*
X132633333Y-121297676D01*
X132633333Y-121297676D02*
X132728571Y-121202438D01*
X132728571Y-121202438D02*
X132871428Y-121154819D01*
X132871428Y-121154819D02*
X132966666Y-121154819D01*
X132966666Y-121154819D02*
X133109523Y-121202438D01*
X133109523Y-121202438D02*
X133157142Y-121250057D01*
X134109523Y-122154819D02*
X133538095Y-122154819D01*
X133823809Y-122154819D02*
X133823809Y-121154819D01*
X133823809Y-121154819D02*
X133728571Y-121297676D01*
X133728571Y-121297676D02*
X133633333Y-121392914D01*
X133633333Y-121392914D02*
X133538095Y-121440533D01*
X135014285Y-121154819D02*
X134538095Y-121154819D01*
X134538095Y-121154819D02*
X134490476Y-121631009D01*
X134490476Y-121631009D02*
X134538095Y-121583390D01*
X134538095Y-121583390D02*
X134633333Y-121535771D01*
X134633333Y-121535771D02*
X134871428Y-121535771D01*
X134871428Y-121535771D02*
X134966666Y-121583390D01*
X134966666Y-121583390D02*
X135014285Y-121631009D01*
X135014285Y-121631009D02*
X135061904Y-121726247D01*
X135061904Y-121726247D02*
X135061904Y-121964342D01*
X135061904Y-121964342D02*
X135014285Y-122059580D01*
X135014285Y-122059580D02*
X134966666Y-122107200D01*
X134966666Y-122107200D02*
X134871428Y-122154819D01*
X134871428Y-122154819D02*
X134633333Y-122154819D01*
X134633333Y-122154819D02*
X134538095Y-122107200D01*
X134538095Y-122107200D02*
X134490476Y-122059580D01*
X142703142Y-143905580D02*
X142655523Y-143953200D01*
X142655523Y-143953200D02*
X142512666Y-144000819D01*
X142512666Y-144000819D02*
X142417428Y-144000819D01*
X142417428Y-144000819D02*
X142274571Y-143953200D01*
X142274571Y-143953200D02*
X142179333Y-143857961D01*
X142179333Y-143857961D02*
X142131714Y-143762723D01*
X142131714Y-143762723D02*
X142084095Y-143572247D01*
X142084095Y-143572247D02*
X142084095Y-143429390D01*
X142084095Y-143429390D02*
X142131714Y-143238914D01*
X142131714Y-143238914D02*
X142179333Y-143143676D01*
X142179333Y-143143676D02*
X142274571Y-143048438D01*
X142274571Y-143048438D02*
X142417428Y-143000819D01*
X142417428Y-143000819D02*
X142512666Y-143000819D01*
X142512666Y-143000819D02*
X142655523Y-143048438D01*
X142655523Y-143048438D02*
X142703142Y-143096057D01*
X143655523Y-144000819D02*
X143084095Y-144000819D01*
X143369809Y-144000819D02*
X143369809Y-143000819D01*
X143369809Y-143000819D02*
X143274571Y-143143676D01*
X143274571Y-143143676D02*
X143179333Y-143238914D01*
X143179333Y-143238914D02*
X143084095Y-143286533D01*
X144274571Y-143000819D02*
X144369809Y-143000819D01*
X144369809Y-143000819D02*
X144465047Y-143048438D01*
X144465047Y-143048438D02*
X144512666Y-143096057D01*
X144512666Y-143096057D02*
X144560285Y-143191295D01*
X144560285Y-143191295D02*
X144607904Y-143381771D01*
X144607904Y-143381771D02*
X144607904Y-143619866D01*
X144607904Y-143619866D02*
X144560285Y-143810342D01*
X144560285Y-143810342D02*
X144512666Y-143905580D01*
X144512666Y-143905580D02*
X144465047Y-143953200D01*
X144465047Y-143953200D02*
X144369809Y-144000819D01*
X144369809Y-144000819D02*
X144274571Y-144000819D01*
X144274571Y-144000819D02*
X144179333Y-143953200D01*
X144179333Y-143953200D02*
X144131714Y-143905580D01*
X144131714Y-143905580D02*
X144084095Y-143810342D01*
X144084095Y-143810342D02*
X144036476Y-143619866D01*
X144036476Y-143619866D02*
X144036476Y-143381771D01*
X144036476Y-143381771D02*
X144084095Y-143191295D01*
X144084095Y-143191295D02*
X144131714Y-143096057D01*
X144131714Y-143096057D02*
X144179333Y-143048438D01*
X144179333Y-143048438D02*
X144274571Y-143000819D01*
X126361905Y-111500819D02*
X126361905Y-110500819D01*
X126361905Y-110500819D02*
X126600000Y-110500819D01*
X126600000Y-110500819D02*
X126742857Y-110548438D01*
X126742857Y-110548438D02*
X126838095Y-110643676D01*
X126838095Y-110643676D02*
X126885714Y-110738914D01*
X126885714Y-110738914D02*
X126933333Y-110929390D01*
X126933333Y-110929390D02*
X126933333Y-111072247D01*
X126933333Y-111072247D02*
X126885714Y-111262723D01*
X126885714Y-111262723D02*
X126838095Y-111357961D01*
X126838095Y-111357961D02*
X126742857Y-111453200D01*
X126742857Y-111453200D02*
X126600000Y-111500819D01*
X126600000Y-111500819D02*
X126361905Y-111500819D01*
X127314286Y-110596057D02*
X127361905Y-110548438D01*
X127361905Y-110548438D02*
X127457143Y-110500819D01*
X127457143Y-110500819D02*
X127695238Y-110500819D01*
X127695238Y-110500819D02*
X127790476Y-110548438D01*
X127790476Y-110548438D02*
X127838095Y-110596057D01*
X127838095Y-110596057D02*
X127885714Y-110691295D01*
X127885714Y-110691295D02*
X127885714Y-110786533D01*
X127885714Y-110786533D02*
X127838095Y-110929390D01*
X127838095Y-110929390D02*
X127266667Y-111500819D01*
X127266667Y-111500819D02*
X127885714Y-111500819D01*
X133303142Y-132149293D02*
X132969809Y-131673102D01*
X132731714Y-132149293D02*
X132731714Y-131149293D01*
X132731714Y-131149293D02*
X133112666Y-131149293D01*
X133112666Y-131149293D02*
X133207904Y-131196912D01*
X133207904Y-131196912D02*
X133255523Y-131244531D01*
X133255523Y-131244531D02*
X133303142Y-131339769D01*
X133303142Y-131339769D02*
X133303142Y-131482626D01*
X133303142Y-131482626D02*
X133255523Y-131577864D01*
X133255523Y-131577864D02*
X133207904Y-131625483D01*
X133207904Y-131625483D02*
X133112666Y-131673102D01*
X133112666Y-131673102D02*
X132731714Y-131673102D01*
X134255523Y-132149293D02*
X133684095Y-132149293D01*
X133969809Y-132149293D02*
X133969809Y-131149293D01*
X133969809Y-131149293D02*
X133874571Y-131292150D01*
X133874571Y-131292150D02*
X133779333Y-131387388D01*
X133779333Y-131387388D02*
X133684095Y-131435007D01*
X134826952Y-131577864D02*
X134731714Y-131530245D01*
X134731714Y-131530245D02*
X134684095Y-131482626D01*
X134684095Y-131482626D02*
X134636476Y-131387388D01*
X134636476Y-131387388D02*
X134636476Y-131339769D01*
X134636476Y-131339769D02*
X134684095Y-131244531D01*
X134684095Y-131244531D02*
X134731714Y-131196912D01*
X134731714Y-131196912D02*
X134826952Y-131149293D01*
X134826952Y-131149293D02*
X135017428Y-131149293D01*
X135017428Y-131149293D02*
X135112666Y-131196912D01*
X135112666Y-131196912D02*
X135160285Y-131244531D01*
X135160285Y-131244531D02*
X135207904Y-131339769D01*
X135207904Y-131339769D02*
X135207904Y-131387388D01*
X135207904Y-131387388D02*
X135160285Y-131482626D01*
X135160285Y-131482626D02*
X135112666Y-131530245D01*
X135112666Y-131530245D02*
X135017428Y-131577864D01*
X135017428Y-131577864D02*
X134826952Y-131577864D01*
X134826952Y-131577864D02*
X134731714Y-131625483D01*
X134731714Y-131625483D02*
X134684095Y-131673102D01*
X134684095Y-131673102D02*
X134636476Y-131768340D01*
X134636476Y-131768340D02*
X134636476Y-131958816D01*
X134636476Y-131958816D02*
X134684095Y-132054054D01*
X134684095Y-132054054D02*
X134731714Y-132101674D01*
X134731714Y-132101674D02*
X134826952Y-132149293D01*
X134826952Y-132149293D02*
X135017428Y-132149293D01*
X135017428Y-132149293D02*
X135112666Y-132101674D01*
X135112666Y-132101674D02*
X135160285Y-132054054D01*
X135160285Y-132054054D02*
X135207904Y-131958816D01*
X135207904Y-131958816D02*
X135207904Y-131768340D01*
X135207904Y-131768340D02*
X135160285Y-131673102D01*
X135160285Y-131673102D02*
X135112666Y-131625483D01*
X135112666Y-131625483D02*
X135017428Y-131577864D01*
X142559580Y-61992857D02*
X142607200Y-62040476D01*
X142607200Y-62040476D02*
X142654819Y-62183333D01*
X142654819Y-62183333D02*
X142654819Y-62278571D01*
X142654819Y-62278571D02*
X142607200Y-62421428D01*
X142607200Y-62421428D02*
X142511961Y-62516666D01*
X142511961Y-62516666D02*
X142416723Y-62564285D01*
X142416723Y-62564285D02*
X142226247Y-62611904D01*
X142226247Y-62611904D02*
X142083390Y-62611904D01*
X142083390Y-62611904D02*
X141892914Y-62564285D01*
X141892914Y-62564285D02*
X141797676Y-62516666D01*
X141797676Y-62516666D02*
X141702438Y-62421428D01*
X141702438Y-62421428D02*
X141654819Y-62278571D01*
X141654819Y-62278571D02*
X141654819Y-62183333D01*
X141654819Y-62183333D02*
X141702438Y-62040476D01*
X141702438Y-62040476D02*
X141750057Y-61992857D01*
X141750057Y-61611904D02*
X141702438Y-61564285D01*
X141702438Y-61564285D02*
X141654819Y-61469047D01*
X141654819Y-61469047D02*
X141654819Y-61230952D01*
X141654819Y-61230952D02*
X141702438Y-61135714D01*
X141702438Y-61135714D02*
X141750057Y-61088095D01*
X141750057Y-61088095D02*
X141845295Y-61040476D01*
X141845295Y-61040476D02*
X141940533Y-61040476D01*
X141940533Y-61040476D02*
X142083390Y-61088095D01*
X142083390Y-61088095D02*
X142654819Y-61659523D01*
X142654819Y-61659523D02*
X142654819Y-61040476D01*
X142654819Y-60088095D02*
X142654819Y-60659523D01*
X142654819Y-60373809D02*
X141654819Y-60373809D01*
X141654819Y-60373809D02*
X141797676Y-60469047D01*
X141797676Y-60469047D02*
X141892914Y-60564285D01*
X141892914Y-60564285D02*
X141940533Y-60659523D01*
X146057142Y-96498913D02*
X146009523Y-96546533D01*
X146009523Y-96546533D02*
X145866666Y-96594152D01*
X145866666Y-96594152D02*
X145771428Y-96594152D01*
X145771428Y-96594152D02*
X145628571Y-96546533D01*
X145628571Y-96546533D02*
X145533333Y-96451294D01*
X145533333Y-96451294D02*
X145485714Y-96356056D01*
X145485714Y-96356056D02*
X145438095Y-96165580D01*
X145438095Y-96165580D02*
X145438095Y-96022723D01*
X145438095Y-96022723D02*
X145485714Y-95832247D01*
X145485714Y-95832247D02*
X145533333Y-95737009D01*
X145533333Y-95737009D02*
X145628571Y-95641771D01*
X145628571Y-95641771D02*
X145771428Y-95594152D01*
X145771428Y-95594152D02*
X145866666Y-95594152D01*
X145866666Y-95594152D02*
X146009523Y-95641771D01*
X146009523Y-95641771D02*
X146057142Y-95689390D01*
X147009523Y-96594152D02*
X146438095Y-96594152D01*
X146723809Y-96594152D02*
X146723809Y-95594152D01*
X146723809Y-95594152D02*
X146628571Y-95737009D01*
X146628571Y-95737009D02*
X146533333Y-95832247D01*
X146533333Y-95832247D02*
X146438095Y-95879866D01*
X147580952Y-96022723D02*
X147485714Y-95975104D01*
X147485714Y-95975104D02*
X147438095Y-95927485D01*
X147438095Y-95927485D02*
X147390476Y-95832247D01*
X147390476Y-95832247D02*
X147390476Y-95784628D01*
X147390476Y-95784628D02*
X147438095Y-95689390D01*
X147438095Y-95689390D02*
X147485714Y-95641771D01*
X147485714Y-95641771D02*
X147580952Y-95594152D01*
X147580952Y-95594152D02*
X147771428Y-95594152D01*
X147771428Y-95594152D02*
X147866666Y-95641771D01*
X147866666Y-95641771D02*
X147914285Y-95689390D01*
X147914285Y-95689390D02*
X147961904Y-95784628D01*
X147961904Y-95784628D02*
X147961904Y-95832247D01*
X147961904Y-95832247D02*
X147914285Y-95927485D01*
X147914285Y-95927485D02*
X147866666Y-95975104D01*
X147866666Y-95975104D02*
X147771428Y-96022723D01*
X147771428Y-96022723D02*
X147580952Y-96022723D01*
X147580952Y-96022723D02*
X147485714Y-96070342D01*
X147485714Y-96070342D02*
X147438095Y-96117961D01*
X147438095Y-96117961D02*
X147390476Y-96213199D01*
X147390476Y-96213199D02*
X147390476Y-96403675D01*
X147390476Y-96403675D02*
X147438095Y-96498913D01*
X147438095Y-96498913D02*
X147485714Y-96546533D01*
X147485714Y-96546533D02*
X147580952Y-96594152D01*
X147580952Y-96594152D02*
X147771428Y-96594152D01*
X147771428Y-96594152D02*
X147866666Y-96546533D01*
X147866666Y-96546533D02*
X147914285Y-96498913D01*
X147914285Y-96498913D02*
X147961904Y-96403675D01*
X147961904Y-96403675D02*
X147961904Y-96213199D01*
X147961904Y-96213199D02*
X147914285Y-96117961D01*
X147914285Y-96117961D02*
X147866666Y-96070342D01*
X147866666Y-96070342D02*
X147771428Y-96022723D01*
X141962333Y-82124580D02*
X141914714Y-82172200D01*
X141914714Y-82172200D02*
X141771857Y-82219819D01*
X141771857Y-82219819D02*
X141676619Y-82219819D01*
X141676619Y-82219819D02*
X141533762Y-82172200D01*
X141533762Y-82172200D02*
X141438524Y-82076961D01*
X141438524Y-82076961D02*
X141390905Y-81981723D01*
X141390905Y-81981723D02*
X141343286Y-81791247D01*
X141343286Y-81791247D02*
X141343286Y-81648390D01*
X141343286Y-81648390D02*
X141390905Y-81457914D01*
X141390905Y-81457914D02*
X141438524Y-81362676D01*
X141438524Y-81362676D02*
X141533762Y-81267438D01*
X141533762Y-81267438D02*
X141676619Y-81219819D01*
X141676619Y-81219819D02*
X141771857Y-81219819D01*
X141771857Y-81219819D02*
X141914714Y-81267438D01*
X141914714Y-81267438D02*
X141962333Y-81315057D01*
X142295667Y-81219819D02*
X142914714Y-81219819D01*
X142914714Y-81219819D02*
X142581381Y-81600771D01*
X142581381Y-81600771D02*
X142724238Y-81600771D01*
X142724238Y-81600771D02*
X142819476Y-81648390D01*
X142819476Y-81648390D02*
X142867095Y-81696009D01*
X142867095Y-81696009D02*
X142914714Y-81791247D01*
X142914714Y-81791247D02*
X142914714Y-82029342D01*
X142914714Y-82029342D02*
X142867095Y-82124580D01*
X142867095Y-82124580D02*
X142819476Y-82172200D01*
X142819476Y-82172200D02*
X142724238Y-82219819D01*
X142724238Y-82219819D02*
X142438524Y-82219819D01*
X142438524Y-82219819D02*
X142343286Y-82172200D01*
X142343286Y-82172200D02*
X142295667Y-82124580D01*
X152857142Y-92054819D02*
X152523809Y-91578628D01*
X152285714Y-92054819D02*
X152285714Y-91054819D01*
X152285714Y-91054819D02*
X152666666Y-91054819D01*
X152666666Y-91054819D02*
X152761904Y-91102438D01*
X152761904Y-91102438D02*
X152809523Y-91150057D01*
X152809523Y-91150057D02*
X152857142Y-91245295D01*
X152857142Y-91245295D02*
X152857142Y-91388152D01*
X152857142Y-91388152D02*
X152809523Y-91483390D01*
X152809523Y-91483390D02*
X152761904Y-91531009D01*
X152761904Y-91531009D02*
X152666666Y-91578628D01*
X152666666Y-91578628D02*
X152285714Y-91578628D01*
X153809523Y-92054819D02*
X153238095Y-92054819D01*
X153523809Y-92054819D02*
X153523809Y-91054819D01*
X153523809Y-91054819D02*
X153428571Y-91197676D01*
X153428571Y-91197676D02*
X153333333Y-91292914D01*
X153333333Y-91292914D02*
X153238095Y-91340533D01*
X154190476Y-91150057D02*
X154238095Y-91102438D01*
X154238095Y-91102438D02*
X154333333Y-91054819D01*
X154333333Y-91054819D02*
X154571428Y-91054819D01*
X154571428Y-91054819D02*
X154666666Y-91102438D01*
X154666666Y-91102438D02*
X154714285Y-91150057D01*
X154714285Y-91150057D02*
X154761904Y-91245295D01*
X154761904Y-91245295D02*
X154761904Y-91340533D01*
X154761904Y-91340533D02*
X154714285Y-91483390D01*
X154714285Y-91483390D02*
X154142857Y-92054819D01*
X154142857Y-92054819D02*
X154761904Y-92054819D01*
X159154333Y-134025819D02*
X158821000Y-133549628D01*
X158582905Y-134025819D02*
X158582905Y-133025819D01*
X158582905Y-133025819D02*
X158963857Y-133025819D01*
X158963857Y-133025819D02*
X159059095Y-133073438D01*
X159059095Y-133073438D02*
X159106714Y-133121057D01*
X159106714Y-133121057D02*
X159154333Y-133216295D01*
X159154333Y-133216295D02*
X159154333Y-133359152D01*
X159154333Y-133359152D02*
X159106714Y-133454390D01*
X159106714Y-133454390D02*
X159059095Y-133502009D01*
X159059095Y-133502009D02*
X158963857Y-133549628D01*
X158963857Y-133549628D02*
X158582905Y-133549628D01*
X159487667Y-133025819D02*
X160154333Y-133025819D01*
X160154333Y-133025819D02*
X159725762Y-134025819D01*
X144152287Y-124444531D02*
X144057049Y-124396912D01*
X144057049Y-124396912D02*
X143961811Y-124301674D01*
X143961811Y-124301674D02*
X143818954Y-124158816D01*
X143818954Y-124158816D02*
X143723716Y-124111197D01*
X143723716Y-124111197D02*
X143628478Y-124111197D01*
X143676097Y-124349293D02*
X143580859Y-124301674D01*
X143580859Y-124301674D02*
X143485621Y-124206435D01*
X143485621Y-124206435D02*
X143438002Y-124015959D01*
X143438002Y-124015959D02*
X143438002Y-123682626D01*
X143438002Y-123682626D02*
X143485621Y-123492150D01*
X143485621Y-123492150D02*
X143580859Y-123396912D01*
X143580859Y-123396912D02*
X143676097Y-123349293D01*
X143676097Y-123349293D02*
X143866573Y-123349293D01*
X143866573Y-123349293D02*
X143961811Y-123396912D01*
X143961811Y-123396912D02*
X144057049Y-123492150D01*
X144057049Y-123492150D02*
X144104668Y-123682626D01*
X144104668Y-123682626D02*
X144104668Y-124015959D01*
X144104668Y-124015959D02*
X144057049Y-124206435D01*
X144057049Y-124206435D02*
X143961811Y-124301674D01*
X143961811Y-124301674D02*
X143866573Y-124349293D01*
X143866573Y-124349293D02*
X143676097Y-124349293D01*
X145009430Y-123349293D02*
X144533240Y-123349293D01*
X144533240Y-123349293D02*
X144485621Y-123825483D01*
X144485621Y-123825483D02*
X144533240Y-123777864D01*
X144533240Y-123777864D02*
X144628478Y-123730245D01*
X144628478Y-123730245D02*
X144866573Y-123730245D01*
X144866573Y-123730245D02*
X144961811Y-123777864D01*
X144961811Y-123777864D02*
X145009430Y-123825483D01*
X145009430Y-123825483D02*
X145057049Y-123920721D01*
X145057049Y-123920721D02*
X145057049Y-124158816D01*
X145057049Y-124158816D02*
X145009430Y-124254054D01*
X145009430Y-124254054D02*
X144961811Y-124301674D01*
X144961811Y-124301674D02*
X144866573Y-124349293D01*
X144866573Y-124349293D02*
X144628478Y-124349293D01*
X144628478Y-124349293D02*
X144533240Y-124301674D01*
X144533240Y-124301674D02*
X144485621Y-124254054D01*
X148184095Y-117050819D02*
X148184095Y-117860342D01*
X148184095Y-117860342D02*
X148231714Y-117955580D01*
X148231714Y-117955580D02*
X148279333Y-118003200D01*
X148279333Y-118003200D02*
X148374571Y-118050819D01*
X148374571Y-118050819D02*
X148565047Y-118050819D01*
X148565047Y-118050819D02*
X148660285Y-118003200D01*
X148660285Y-118003200D02*
X148707904Y-117955580D01*
X148707904Y-117955580D02*
X148755523Y-117860342D01*
X148755523Y-117860342D02*
X148755523Y-117050819D01*
X149136476Y-117050819D02*
X149755523Y-117050819D01*
X149755523Y-117050819D02*
X149422190Y-117431771D01*
X149422190Y-117431771D02*
X149565047Y-117431771D01*
X149565047Y-117431771D02*
X149660285Y-117479390D01*
X149660285Y-117479390D02*
X149707904Y-117527009D01*
X149707904Y-117527009D02*
X149755523Y-117622247D01*
X149755523Y-117622247D02*
X149755523Y-117860342D01*
X149755523Y-117860342D02*
X149707904Y-117955580D01*
X149707904Y-117955580D02*
X149660285Y-118003200D01*
X149660285Y-118003200D02*
X149565047Y-118050819D01*
X149565047Y-118050819D02*
X149279333Y-118050819D01*
X149279333Y-118050819D02*
X149184095Y-118003200D01*
X149184095Y-118003200D02*
X149136476Y-117955580D01*
X133203142Y-129849293D02*
X132869809Y-129373102D01*
X132631714Y-129849293D02*
X132631714Y-128849293D01*
X132631714Y-128849293D02*
X133012666Y-128849293D01*
X133012666Y-128849293D02*
X133107904Y-128896912D01*
X133107904Y-128896912D02*
X133155523Y-128944531D01*
X133155523Y-128944531D02*
X133203142Y-129039769D01*
X133203142Y-129039769D02*
X133203142Y-129182626D01*
X133203142Y-129182626D02*
X133155523Y-129277864D01*
X133155523Y-129277864D02*
X133107904Y-129325483D01*
X133107904Y-129325483D02*
X133012666Y-129373102D01*
X133012666Y-129373102D02*
X132631714Y-129373102D01*
X134155523Y-129849293D02*
X133584095Y-129849293D01*
X133869809Y-129849293D02*
X133869809Y-128849293D01*
X133869809Y-128849293D02*
X133774571Y-128992150D01*
X133774571Y-128992150D02*
X133679333Y-129087388D01*
X133679333Y-129087388D02*
X133584095Y-129135007D01*
X134631714Y-129849293D02*
X134822190Y-129849293D01*
X134822190Y-129849293D02*
X134917428Y-129801674D01*
X134917428Y-129801674D02*
X134965047Y-129754054D01*
X134965047Y-129754054D02*
X135060285Y-129611197D01*
X135060285Y-129611197D02*
X135107904Y-129420721D01*
X135107904Y-129420721D02*
X135107904Y-129039769D01*
X135107904Y-129039769D02*
X135060285Y-128944531D01*
X135060285Y-128944531D02*
X135012666Y-128896912D01*
X135012666Y-128896912D02*
X134917428Y-128849293D01*
X134917428Y-128849293D02*
X134726952Y-128849293D01*
X134726952Y-128849293D02*
X134631714Y-128896912D01*
X134631714Y-128896912D02*
X134584095Y-128944531D01*
X134584095Y-128944531D02*
X134536476Y-129039769D01*
X134536476Y-129039769D02*
X134536476Y-129277864D01*
X134536476Y-129277864D02*
X134584095Y-129373102D01*
X134584095Y-129373102D02*
X134631714Y-129420721D01*
X134631714Y-129420721D02*
X134726952Y-129468340D01*
X134726952Y-129468340D02*
X134917428Y-129468340D01*
X134917428Y-129468340D02*
X135012666Y-129420721D01*
X135012666Y-129420721D02*
X135060285Y-129373102D01*
X135060285Y-129373102D02*
X135107904Y-129277864D01*
X142158333Y-78624580D02*
X142110714Y-78672200D01*
X142110714Y-78672200D02*
X141967857Y-78719819D01*
X141967857Y-78719819D02*
X141872619Y-78719819D01*
X141872619Y-78719819D02*
X141729762Y-78672200D01*
X141729762Y-78672200D02*
X141634524Y-78576961D01*
X141634524Y-78576961D02*
X141586905Y-78481723D01*
X141586905Y-78481723D02*
X141539286Y-78291247D01*
X141539286Y-78291247D02*
X141539286Y-78148390D01*
X141539286Y-78148390D02*
X141586905Y-77957914D01*
X141586905Y-77957914D02*
X141634524Y-77862676D01*
X141634524Y-77862676D02*
X141729762Y-77767438D01*
X141729762Y-77767438D02*
X141872619Y-77719819D01*
X141872619Y-77719819D02*
X141967857Y-77719819D01*
X141967857Y-77719819D02*
X142110714Y-77767438D01*
X142110714Y-77767438D02*
X142158333Y-77815057D01*
X143110714Y-78719819D02*
X142539286Y-78719819D01*
X142825000Y-78719819D02*
X142825000Y-77719819D01*
X142825000Y-77719819D02*
X142729762Y-77862676D01*
X142729762Y-77862676D02*
X142634524Y-77957914D01*
X142634524Y-77957914D02*
X142539286Y-78005533D01*
X132400819Y-143307904D02*
X133210342Y-143307904D01*
X133210342Y-143307904D02*
X133305580Y-143260285D01*
X133305580Y-143260285D02*
X133353200Y-143212666D01*
X133353200Y-143212666D02*
X133400819Y-143117428D01*
X133400819Y-143117428D02*
X133400819Y-142926952D01*
X133400819Y-142926952D02*
X133353200Y-142831714D01*
X133353200Y-142831714D02*
X133305580Y-142784095D01*
X133305580Y-142784095D02*
X133210342Y-142736476D01*
X133210342Y-142736476D02*
X132400819Y-142736476D01*
X132496057Y-142307904D02*
X132448438Y-142260285D01*
X132448438Y-142260285D02*
X132400819Y-142165047D01*
X132400819Y-142165047D02*
X132400819Y-141926952D01*
X132400819Y-141926952D02*
X132448438Y-141831714D01*
X132448438Y-141831714D02*
X132496057Y-141784095D01*
X132496057Y-141784095D02*
X132591295Y-141736476D01*
X132591295Y-141736476D02*
X132686533Y-141736476D01*
X132686533Y-141736476D02*
X132829390Y-141784095D01*
X132829390Y-141784095D02*
X133400819Y-142355523D01*
X133400819Y-142355523D02*
X133400819Y-141736476D01*
X159833333Y-94258913D02*
X159785714Y-94306533D01*
X159785714Y-94306533D02*
X159642857Y-94354152D01*
X159642857Y-94354152D02*
X159547619Y-94354152D01*
X159547619Y-94354152D02*
X159404762Y-94306533D01*
X159404762Y-94306533D02*
X159309524Y-94211294D01*
X159309524Y-94211294D02*
X159261905Y-94116056D01*
X159261905Y-94116056D02*
X159214286Y-93925580D01*
X159214286Y-93925580D02*
X159214286Y-93782723D01*
X159214286Y-93782723D02*
X159261905Y-93592247D01*
X159261905Y-93592247D02*
X159309524Y-93497009D01*
X159309524Y-93497009D02*
X159404762Y-93401771D01*
X159404762Y-93401771D02*
X159547619Y-93354152D01*
X159547619Y-93354152D02*
X159642857Y-93354152D01*
X159642857Y-93354152D02*
X159785714Y-93401771D01*
X159785714Y-93401771D02*
X159833333Y-93449390D01*
X160214286Y-93449390D02*
X160261905Y-93401771D01*
X160261905Y-93401771D02*
X160357143Y-93354152D01*
X160357143Y-93354152D02*
X160595238Y-93354152D01*
X160595238Y-93354152D02*
X160690476Y-93401771D01*
X160690476Y-93401771D02*
X160738095Y-93449390D01*
X160738095Y-93449390D02*
X160785714Y-93544628D01*
X160785714Y-93544628D02*
X160785714Y-93639866D01*
X160785714Y-93639866D02*
X160738095Y-93782723D01*
X160738095Y-93782723D02*
X160166667Y-94354152D01*
X160166667Y-94354152D02*
X160785714Y-94354152D01*
X145384819Y-100833333D02*
X146099104Y-100833333D01*
X146099104Y-100833333D02*
X146241961Y-100880952D01*
X146241961Y-100880952D02*
X146337200Y-100976190D01*
X146337200Y-100976190D02*
X146384819Y-101119047D01*
X146384819Y-101119047D02*
X146384819Y-101214285D01*
X145480057Y-100404761D02*
X145432438Y-100357142D01*
X145432438Y-100357142D02*
X145384819Y-100261904D01*
X145384819Y-100261904D02*
X145384819Y-100023809D01*
X145384819Y-100023809D02*
X145432438Y-99928571D01*
X145432438Y-99928571D02*
X145480057Y-99880952D01*
X145480057Y-99880952D02*
X145575295Y-99833333D01*
X145575295Y-99833333D02*
X145670533Y-99833333D01*
X145670533Y-99833333D02*
X145813390Y-99880952D01*
X145813390Y-99880952D02*
X146384819Y-100452380D01*
X146384819Y-100452380D02*
X146384819Y-99833333D01*
X123203142Y-113705580D02*
X123155523Y-113753200D01*
X123155523Y-113753200D02*
X123012666Y-113800819D01*
X123012666Y-113800819D02*
X122917428Y-113800819D01*
X122917428Y-113800819D02*
X122774571Y-113753200D01*
X122774571Y-113753200D02*
X122679333Y-113657961D01*
X122679333Y-113657961D02*
X122631714Y-113562723D01*
X122631714Y-113562723D02*
X122584095Y-113372247D01*
X122584095Y-113372247D02*
X122584095Y-113229390D01*
X122584095Y-113229390D02*
X122631714Y-113038914D01*
X122631714Y-113038914D02*
X122679333Y-112943676D01*
X122679333Y-112943676D02*
X122774571Y-112848438D01*
X122774571Y-112848438D02*
X122917428Y-112800819D01*
X122917428Y-112800819D02*
X123012666Y-112800819D01*
X123012666Y-112800819D02*
X123155523Y-112848438D01*
X123155523Y-112848438D02*
X123203142Y-112896057D01*
X124155523Y-113800819D02*
X123584095Y-113800819D01*
X123869809Y-113800819D02*
X123869809Y-112800819D01*
X123869809Y-112800819D02*
X123774571Y-112943676D01*
X123774571Y-112943676D02*
X123679333Y-113038914D01*
X123679333Y-113038914D02*
X123584095Y-113086533D01*
X125012666Y-113134152D02*
X125012666Y-113800819D01*
X124774571Y-112753200D02*
X124536476Y-113467485D01*
X124536476Y-113467485D02*
X125155523Y-113467485D01*
X146057142Y-92070819D02*
X145723809Y-91594628D01*
X145485714Y-92070819D02*
X145485714Y-91070819D01*
X145485714Y-91070819D02*
X145866666Y-91070819D01*
X145866666Y-91070819D02*
X145961904Y-91118438D01*
X145961904Y-91118438D02*
X146009523Y-91166057D01*
X146009523Y-91166057D02*
X146057142Y-91261295D01*
X146057142Y-91261295D02*
X146057142Y-91404152D01*
X146057142Y-91404152D02*
X146009523Y-91499390D01*
X146009523Y-91499390D02*
X145961904Y-91547009D01*
X145961904Y-91547009D02*
X145866666Y-91594628D01*
X145866666Y-91594628D02*
X145485714Y-91594628D01*
X147009523Y-92070819D02*
X146438095Y-92070819D01*
X146723809Y-92070819D02*
X146723809Y-91070819D01*
X146723809Y-91070819D02*
X146628571Y-91213676D01*
X146628571Y-91213676D02*
X146533333Y-91308914D01*
X146533333Y-91308914D02*
X146438095Y-91356533D01*
X147628571Y-91070819D02*
X147723809Y-91070819D01*
X147723809Y-91070819D02*
X147819047Y-91118438D01*
X147819047Y-91118438D02*
X147866666Y-91166057D01*
X147866666Y-91166057D02*
X147914285Y-91261295D01*
X147914285Y-91261295D02*
X147961904Y-91451771D01*
X147961904Y-91451771D02*
X147961904Y-91689866D01*
X147961904Y-91689866D02*
X147914285Y-91880342D01*
X147914285Y-91880342D02*
X147866666Y-91975580D01*
X147866666Y-91975580D02*
X147819047Y-92023200D01*
X147819047Y-92023200D02*
X147723809Y-92070819D01*
X147723809Y-92070819D02*
X147628571Y-92070819D01*
X147628571Y-92070819D02*
X147533333Y-92023200D01*
X147533333Y-92023200D02*
X147485714Y-91975580D01*
X147485714Y-91975580D02*
X147438095Y-91880342D01*
X147438095Y-91880342D02*
X147390476Y-91689866D01*
X147390476Y-91689866D02*
X147390476Y-91451771D01*
X147390476Y-91451771D02*
X147438095Y-91261295D01*
X147438095Y-91261295D02*
X147485714Y-91166057D01*
X147485714Y-91166057D02*
X147533333Y-91118438D01*
X147533333Y-91118438D02*
X147628571Y-91070819D01*
X145388319Y-125712666D02*
X144912128Y-126045999D01*
X145388319Y-126284094D02*
X144388319Y-126284094D01*
X144388319Y-126284094D02*
X144388319Y-125903142D01*
X144388319Y-125903142D02*
X144435938Y-125807904D01*
X144435938Y-125807904D02*
X144483557Y-125760285D01*
X144483557Y-125760285D02*
X144578795Y-125712666D01*
X144578795Y-125712666D02*
X144721652Y-125712666D01*
X144721652Y-125712666D02*
X144816890Y-125760285D01*
X144816890Y-125760285D02*
X144864509Y-125807904D01*
X144864509Y-125807904D02*
X144912128Y-125903142D01*
X144912128Y-125903142D02*
X144912128Y-126284094D01*
X144388319Y-124807904D02*
X144388319Y-125284094D01*
X144388319Y-125284094D02*
X144864509Y-125331713D01*
X144864509Y-125331713D02*
X144816890Y-125284094D01*
X144816890Y-125284094D02*
X144769271Y-125188856D01*
X144769271Y-125188856D02*
X144769271Y-124950761D01*
X144769271Y-124950761D02*
X144816890Y-124855523D01*
X144816890Y-124855523D02*
X144864509Y-124807904D01*
X144864509Y-124807904D02*
X144959747Y-124760285D01*
X144959747Y-124760285D02*
X145197842Y-124760285D01*
X145197842Y-124760285D02*
X145293080Y-124807904D01*
X145293080Y-124807904D02*
X145340700Y-124855523D01*
X145340700Y-124855523D02*
X145388319Y-124950761D01*
X145388319Y-124950761D02*
X145388319Y-125188856D01*
X145388319Y-125188856D02*
X145340700Y-125284094D01*
X145340700Y-125284094D02*
X145293080Y-125331713D01*
X118003142Y-113705580D02*
X117955523Y-113753200D01*
X117955523Y-113753200D02*
X117812666Y-113800819D01*
X117812666Y-113800819D02*
X117717428Y-113800819D01*
X117717428Y-113800819D02*
X117574571Y-113753200D01*
X117574571Y-113753200D02*
X117479333Y-113657961D01*
X117479333Y-113657961D02*
X117431714Y-113562723D01*
X117431714Y-113562723D02*
X117384095Y-113372247D01*
X117384095Y-113372247D02*
X117384095Y-113229390D01*
X117384095Y-113229390D02*
X117431714Y-113038914D01*
X117431714Y-113038914D02*
X117479333Y-112943676D01*
X117479333Y-112943676D02*
X117574571Y-112848438D01*
X117574571Y-112848438D02*
X117717428Y-112800819D01*
X117717428Y-112800819D02*
X117812666Y-112800819D01*
X117812666Y-112800819D02*
X117955523Y-112848438D01*
X117955523Y-112848438D02*
X118003142Y-112896057D01*
X118955523Y-113800819D02*
X118384095Y-113800819D01*
X118669809Y-113800819D02*
X118669809Y-112800819D01*
X118669809Y-112800819D02*
X118574571Y-112943676D01*
X118574571Y-112943676D02*
X118479333Y-113038914D01*
X118479333Y-113038914D02*
X118384095Y-113086533D01*
X119431714Y-113800819D02*
X119622190Y-113800819D01*
X119622190Y-113800819D02*
X119717428Y-113753200D01*
X119717428Y-113753200D02*
X119765047Y-113705580D01*
X119765047Y-113705580D02*
X119860285Y-113562723D01*
X119860285Y-113562723D02*
X119907904Y-113372247D01*
X119907904Y-113372247D02*
X119907904Y-112991295D01*
X119907904Y-112991295D02*
X119860285Y-112896057D01*
X119860285Y-112896057D02*
X119812666Y-112848438D01*
X119812666Y-112848438D02*
X119717428Y-112800819D01*
X119717428Y-112800819D02*
X119526952Y-112800819D01*
X119526952Y-112800819D02*
X119431714Y-112848438D01*
X119431714Y-112848438D02*
X119384095Y-112896057D01*
X119384095Y-112896057D02*
X119336476Y-112991295D01*
X119336476Y-112991295D02*
X119336476Y-113229390D01*
X119336476Y-113229390D02*
X119384095Y-113324628D01*
X119384095Y-113324628D02*
X119431714Y-113372247D01*
X119431714Y-113372247D02*
X119526952Y-113419866D01*
X119526952Y-113419866D02*
X119717428Y-113419866D01*
X119717428Y-113419866D02*
X119812666Y-113372247D01*
X119812666Y-113372247D02*
X119860285Y-113324628D01*
X119860285Y-113324628D02*
X119907904Y-113229390D01*
X142108333Y-84424580D02*
X142060714Y-84472200D01*
X142060714Y-84472200D02*
X141917857Y-84519819D01*
X141917857Y-84519819D02*
X141822619Y-84519819D01*
X141822619Y-84519819D02*
X141679762Y-84472200D01*
X141679762Y-84472200D02*
X141584524Y-84376961D01*
X141584524Y-84376961D02*
X141536905Y-84281723D01*
X141536905Y-84281723D02*
X141489286Y-84091247D01*
X141489286Y-84091247D02*
X141489286Y-83948390D01*
X141489286Y-83948390D02*
X141536905Y-83757914D01*
X141536905Y-83757914D02*
X141584524Y-83662676D01*
X141584524Y-83662676D02*
X141679762Y-83567438D01*
X141679762Y-83567438D02*
X141822619Y-83519819D01*
X141822619Y-83519819D02*
X141917857Y-83519819D01*
X141917857Y-83519819D02*
X142060714Y-83567438D01*
X142060714Y-83567438D02*
X142108333Y-83615057D01*
X142679762Y-83948390D02*
X142584524Y-83900771D01*
X142584524Y-83900771D02*
X142536905Y-83853152D01*
X142536905Y-83853152D02*
X142489286Y-83757914D01*
X142489286Y-83757914D02*
X142489286Y-83710295D01*
X142489286Y-83710295D02*
X142536905Y-83615057D01*
X142536905Y-83615057D02*
X142584524Y-83567438D01*
X142584524Y-83567438D02*
X142679762Y-83519819D01*
X142679762Y-83519819D02*
X142870238Y-83519819D01*
X142870238Y-83519819D02*
X142965476Y-83567438D01*
X142965476Y-83567438D02*
X143013095Y-83615057D01*
X143013095Y-83615057D02*
X143060714Y-83710295D01*
X143060714Y-83710295D02*
X143060714Y-83757914D01*
X143060714Y-83757914D02*
X143013095Y-83853152D01*
X143013095Y-83853152D02*
X142965476Y-83900771D01*
X142965476Y-83900771D02*
X142870238Y-83948390D01*
X142870238Y-83948390D02*
X142679762Y-83948390D01*
X142679762Y-83948390D02*
X142584524Y-83996009D01*
X142584524Y-83996009D02*
X142536905Y-84043628D01*
X142536905Y-84043628D02*
X142489286Y-84138866D01*
X142489286Y-84138866D02*
X142489286Y-84329342D01*
X142489286Y-84329342D02*
X142536905Y-84424580D01*
X142536905Y-84424580D02*
X142584524Y-84472200D01*
X142584524Y-84472200D02*
X142679762Y-84519819D01*
X142679762Y-84519819D02*
X142870238Y-84519819D01*
X142870238Y-84519819D02*
X142965476Y-84472200D01*
X142965476Y-84472200D02*
X143013095Y-84424580D01*
X143013095Y-84424580D02*
X143060714Y-84329342D01*
X143060714Y-84329342D02*
X143060714Y-84138866D01*
X143060714Y-84138866D02*
X143013095Y-84043628D01*
X143013095Y-84043628D02*
X142965476Y-83996009D01*
X142965476Y-83996009D02*
X142870238Y-83948390D01*
X133150761Y-119096057D02*
X133055523Y-119048438D01*
X133055523Y-119048438D02*
X132960285Y-118953200D01*
X132960285Y-118953200D02*
X132817428Y-118810342D01*
X132817428Y-118810342D02*
X132722190Y-118762723D01*
X132722190Y-118762723D02*
X132626952Y-118762723D01*
X132674571Y-119000819D02*
X132579333Y-118953200D01*
X132579333Y-118953200D02*
X132484095Y-118857961D01*
X132484095Y-118857961D02*
X132436476Y-118667485D01*
X132436476Y-118667485D02*
X132436476Y-118334152D01*
X132436476Y-118334152D02*
X132484095Y-118143676D01*
X132484095Y-118143676D02*
X132579333Y-118048438D01*
X132579333Y-118048438D02*
X132674571Y-118000819D01*
X132674571Y-118000819D02*
X132865047Y-118000819D01*
X132865047Y-118000819D02*
X132960285Y-118048438D01*
X132960285Y-118048438D02*
X133055523Y-118143676D01*
X133055523Y-118143676D02*
X133103142Y-118334152D01*
X133103142Y-118334152D02*
X133103142Y-118667485D01*
X133103142Y-118667485D02*
X133055523Y-118857961D01*
X133055523Y-118857961D02*
X132960285Y-118953200D01*
X132960285Y-118953200D02*
X132865047Y-119000819D01*
X132865047Y-119000819D02*
X132674571Y-119000819D01*
X133436476Y-118000819D02*
X134055523Y-118000819D01*
X134055523Y-118000819D02*
X133722190Y-118381771D01*
X133722190Y-118381771D02*
X133865047Y-118381771D01*
X133865047Y-118381771D02*
X133960285Y-118429390D01*
X133960285Y-118429390D02*
X134007904Y-118477009D01*
X134007904Y-118477009D02*
X134055523Y-118572247D01*
X134055523Y-118572247D02*
X134055523Y-118810342D01*
X134055523Y-118810342D02*
X134007904Y-118905580D01*
X134007904Y-118905580D02*
X133960285Y-118953200D01*
X133960285Y-118953200D02*
X133865047Y-119000819D01*
X133865047Y-119000819D02*
X133579333Y-119000819D01*
X133579333Y-119000819D02*
X133484095Y-118953200D01*
X133484095Y-118953200D02*
X133436476Y-118905580D01*
X161628142Y-138099330D02*
X161580523Y-138146950D01*
X161580523Y-138146950D02*
X161437666Y-138194569D01*
X161437666Y-138194569D02*
X161342428Y-138194569D01*
X161342428Y-138194569D02*
X161199571Y-138146950D01*
X161199571Y-138146950D02*
X161104333Y-138051711D01*
X161104333Y-138051711D02*
X161056714Y-137956473D01*
X161056714Y-137956473D02*
X161009095Y-137765997D01*
X161009095Y-137765997D02*
X161009095Y-137623140D01*
X161009095Y-137623140D02*
X161056714Y-137432664D01*
X161056714Y-137432664D02*
X161104333Y-137337426D01*
X161104333Y-137337426D02*
X161199571Y-137242188D01*
X161199571Y-137242188D02*
X161342428Y-137194569D01*
X161342428Y-137194569D02*
X161437666Y-137194569D01*
X161437666Y-137194569D02*
X161580523Y-137242188D01*
X161580523Y-137242188D02*
X161628142Y-137289807D01*
X162580523Y-138194569D02*
X162009095Y-138194569D01*
X162294809Y-138194569D02*
X162294809Y-137194569D01*
X162294809Y-137194569D02*
X162199571Y-137337426D01*
X162199571Y-137337426D02*
X162104333Y-137432664D01*
X162104333Y-137432664D02*
X162009095Y-137480283D01*
X162913857Y-137194569D02*
X163532904Y-137194569D01*
X163532904Y-137194569D02*
X163199571Y-137575521D01*
X163199571Y-137575521D02*
X163342428Y-137575521D01*
X163342428Y-137575521D02*
X163437666Y-137623140D01*
X163437666Y-137623140D02*
X163485285Y-137670759D01*
X163485285Y-137670759D02*
X163532904Y-137765997D01*
X163532904Y-137765997D02*
X163532904Y-138004092D01*
X163532904Y-138004092D02*
X163485285Y-138099330D01*
X163485285Y-138099330D02*
X163437666Y-138146950D01*
X163437666Y-138146950D02*
X163342428Y-138194569D01*
X163342428Y-138194569D02*
X163056714Y-138194569D01*
X163056714Y-138194569D02*
X162961476Y-138146950D01*
X162961476Y-138146950D02*
X162913857Y-138099330D01*
X136092095Y-106508819D02*
X136092095Y-107318342D01*
X136092095Y-107318342D02*
X136139714Y-107413580D01*
X136139714Y-107413580D02*
X136187333Y-107461200D01*
X136187333Y-107461200D02*
X136282571Y-107508819D01*
X136282571Y-107508819D02*
X136473047Y-107508819D01*
X136473047Y-107508819D02*
X136568285Y-107461200D01*
X136568285Y-107461200D02*
X136615904Y-107413580D01*
X136615904Y-107413580D02*
X136663523Y-107318342D01*
X136663523Y-107318342D02*
X136663523Y-106508819D01*
X137615904Y-106508819D02*
X137139714Y-106508819D01*
X137139714Y-106508819D02*
X137092095Y-106985009D01*
X137092095Y-106985009D02*
X137139714Y-106937390D01*
X137139714Y-106937390D02*
X137234952Y-106889771D01*
X137234952Y-106889771D02*
X137473047Y-106889771D01*
X137473047Y-106889771D02*
X137568285Y-106937390D01*
X137568285Y-106937390D02*
X137615904Y-106985009D01*
X137615904Y-106985009D02*
X137663523Y-107080247D01*
X137663523Y-107080247D02*
X137663523Y-107318342D01*
X137663523Y-107318342D02*
X137615904Y-107413580D01*
X137615904Y-107413580D02*
X137568285Y-107461200D01*
X137568285Y-107461200D02*
X137473047Y-107508819D01*
X137473047Y-107508819D02*
X137234952Y-107508819D01*
X137234952Y-107508819D02*
X137139714Y-107461200D01*
X137139714Y-107461200D02*
X137092095Y-107413580D01*
X140407200Y-82466666D02*
X140454819Y-82323809D01*
X140454819Y-82323809D02*
X140454819Y-82085714D01*
X140454819Y-82085714D02*
X140407200Y-81990476D01*
X140407200Y-81990476D02*
X140359580Y-81942857D01*
X140359580Y-81942857D02*
X140264342Y-81895238D01*
X140264342Y-81895238D02*
X140169104Y-81895238D01*
X140169104Y-81895238D02*
X140073866Y-81942857D01*
X140073866Y-81942857D02*
X140026247Y-81990476D01*
X140026247Y-81990476D02*
X139978628Y-82085714D01*
X139978628Y-82085714D02*
X139931009Y-82276190D01*
X139931009Y-82276190D02*
X139883390Y-82371428D01*
X139883390Y-82371428D02*
X139835771Y-82419047D01*
X139835771Y-82419047D02*
X139740533Y-82466666D01*
X139740533Y-82466666D02*
X139645295Y-82466666D01*
X139645295Y-82466666D02*
X139550057Y-82419047D01*
X139550057Y-82419047D02*
X139502438Y-82371428D01*
X139502438Y-82371428D02*
X139454819Y-82276190D01*
X139454819Y-82276190D02*
X139454819Y-82038095D01*
X139454819Y-82038095D02*
X139502438Y-81895238D01*
X140169104Y-81514285D02*
X140169104Y-81038095D01*
X140454819Y-81609523D02*
X139454819Y-81276190D01*
X139454819Y-81276190D02*
X140454819Y-80942857D01*
X139883390Y-80466666D02*
X139835771Y-80561904D01*
X139835771Y-80561904D02*
X139788152Y-80609523D01*
X139788152Y-80609523D02*
X139692914Y-80657142D01*
X139692914Y-80657142D02*
X139645295Y-80657142D01*
X139645295Y-80657142D02*
X139550057Y-80609523D01*
X139550057Y-80609523D02*
X139502438Y-80561904D01*
X139502438Y-80561904D02*
X139454819Y-80466666D01*
X139454819Y-80466666D02*
X139454819Y-80276190D01*
X139454819Y-80276190D02*
X139502438Y-80180952D01*
X139502438Y-80180952D02*
X139550057Y-80133333D01*
X139550057Y-80133333D02*
X139645295Y-80085714D01*
X139645295Y-80085714D02*
X139692914Y-80085714D01*
X139692914Y-80085714D02*
X139788152Y-80133333D01*
X139788152Y-80133333D02*
X139835771Y-80180952D01*
X139835771Y-80180952D02*
X139883390Y-80276190D01*
X139883390Y-80276190D02*
X139883390Y-80466666D01*
X139883390Y-80466666D02*
X139931009Y-80561904D01*
X139931009Y-80561904D02*
X139978628Y-80609523D01*
X139978628Y-80609523D02*
X140073866Y-80657142D01*
X140073866Y-80657142D02*
X140264342Y-80657142D01*
X140264342Y-80657142D02*
X140359580Y-80609523D01*
X140359580Y-80609523D02*
X140407200Y-80561904D01*
X140407200Y-80561904D02*
X140454819Y-80466666D01*
X140454819Y-80466666D02*
X140454819Y-80276190D01*
X140454819Y-80276190D02*
X140407200Y-80180952D01*
X140407200Y-80180952D02*
X140359580Y-80133333D01*
X140359580Y-80133333D02*
X140264342Y-80085714D01*
X140264342Y-80085714D02*
X140073866Y-80085714D01*
X140073866Y-80085714D02*
X139978628Y-80133333D01*
X139978628Y-80133333D02*
X139931009Y-80180952D01*
X139931009Y-80180952D02*
X139883390Y-80276190D01*
X140454819Y-79133333D02*
X140454819Y-79704761D01*
X140454819Y-79419047D02*
X139454819Y-79419047D01*
X139454819Y-79419047D02*
X139597676Y-79514285D01*
X139597676Y-79514285D02*
X139692914Y-79609523D01*
X139692914Y-79609523D02*
X139740533Y-79704761D01*
X139883390Y-78561904D02*
X139835771Y-78657142D01*
X139835771Y-78657142D02*
X139788152Y-78704761D01*
X139788152Y-78704761D02*
X139692914Y-78752380D01*
X139692914Y-78752380D02*
X139645295Y-78752380D01*
X139645295Y-78752380D02*
X139550057Y-78704761D01*
X139550057Y-78704761D02*
X139502438Y-78657142D01*
X139502438Y-78657142D02*
X139454819Y-78561904D01*
X139454819Y-78561904D02*
X139454819Y-78371428D01*
X139454819Y-78371428D02*
X139502438Y-78276190D01*
X139502438Y-78276190D02*
X139550057Y-78228571D01*
X139550057Y-78228571D02*
X139645295Y-78180952D01*
X139645295Y-78180952D02*
X139692914Y-78180952D01*
X139692914Y-78180952D02*
X139788152Y-78228571D01*
X139788152Y-78228571D02*
X139835771Y-78276190D01*
X139835771Y-78276190D02*
X139883390Y-78371428D01*
X139883390Y-78371428D02*
X139883390Y-78561904D01*
X139883390Y-78561904D02*
X139931009Y-78657142D01*
X139931009Y-78657142D02*
X139978628Y-78704761D01*
X139978628Y-78704761D02*
X140073866Y-78752380D01*
X140073866Y-78752380D02*
X140264342Y-78752380D01*
X140264342Y-78752380D02*
X140359580Y-78704761D01*
X140359580Y-78704761D02*
X140407200Y-78657142D01*
X140407200Y-78657142D02*
X140454819Y-78561904D01*
X140454819Y-78561904D02*
X140454819Y-78371428D01*
X140454819Y-78371428D02*
X140407200Y-78276190D01*
X140407200Y-78276190D02*
X140359580Y-78228571D01*
X140359580Y-78228571D02*
X140264342Y-78180952D01*
X140264342Y-78180952D02*
X140073866Y-78180952D01*
X140073866Y-78180952D02*
X139978628Y-78228571D01*
X139978628Y-78228571D02*
X139931009Y-78276190D01*
X139931009Y-78276190D02*
X139883390Y-78371428D01*
X140407200Y-77799999D02*
X140454819Y-77657142D01*
X140454819Y-77657142D02*
X140454819Y-77419047D01*
X140454819Y-77419047D02*
X140407200Y-77323809D01*
X140407200Y-77323809D02*
X140359580Y-77276190D01*
X140359580Y-77276190D02*
X140264342Y-77228571D01*
X140264342Y-77228571D02*
X140169104Y-77228571D01*
X140169104Y-77228571D02*
X140073866Y-77276190D01*
X140073866Y-77276190D02*
X140026247Y-77323809D01*
X140026247Y-77323809D02*
X139978628Y-77419047D01*
X139978628Y-77419047D02*
X139931009Y-77609523D01*
X139931009Y-77609523D02*
X139883390Y-77704761D01*
X139883390Y-77704761D02*
X139835771Y-77752380D01*
X139835771Y-77752380D02*
X139740533Y-77799999D01*
X139740533Y-77799999D02*
X139645295Y-77799999D01*
X139645295Y-77799999D02*
X139550057Y-77752380D01*
X139550057Y-77752380D02*
X139502438Y-77704761D01*
X139502438Y-77704761D02*
X139454819Y-77609523D01*
X139454819Y-77609523D02*
X139454819Y-77371428D01*
X139454819Y-77371428D02*
X139502438Y-77228571D01*
X140073866Y-76799999D02*
X140073866Y-76038095D01*
X139454819Y-75704761D02*
X140454819Y-75371428D01*
X140454819Y-75371428D02*
X139454819Y-75038095D01*
X159933333Y-92054152D02*
X159600000Y-91577961D01*
X159361905Y-92054152D02*
X159361905Y-91054152D01*
X159361905Y-91054152D02*
X159742857Y-91054152D01*
X159742857Y-91054152D02*
X159838095Y-91101771D01*
X159838095Y-91101771D02*
X159885714Y-91149390D01*
X159885714Y-91149390D02*
X159933333Y-91244628D01*
X159933333Y-91244628D02*
X159933333Y-91387485D01*
X159933333Y-91387485D02*
X159885714Y-91482723D01*
X159885714Y-91482723D02*
X159838095Y-91530342D01*
X159838095Y-91530342D02*
X159742857Y-91577961D01*
X159742857Y-91577961D02*
X159361905Y-91577961D01*
X160885714Y-92054152D02*
X160314286Y-92054152D01*
X160600000Y-92054152D02*
X160600000Y-91054152D01*
X160600000Y-91054152D02*
X160504762Y-91197009D01*
X160504762Y-91197009D02*
X160409524Y-91292247D01*
X160409524Y-91292247D02*
X160314286Y-91339866D01*
X142703142Y-141305580D02*
X142655523Y-141353200D01*
X142655523Y-141353200D02*
X142512666Y-141400819D01*
X142512666Y-141400819D02*
X142417428Y-141400819D01*
X142417428Y-141400819D02*
X142274571Y-141353200D01*
X142274571Y-141353200D02*
X142179333Y-141257961D01*
X142179333Y-141257961D02*
X142131714Y-141162723D01*
X142131714Y-141162723D02*
X142084095Y-140972247D01*
X142084095Y-140972247D02*
X142084095Y-140829390D01*
X142084095Y-140829390D02*
X142131714Y-140638914D01*
X142131714Y-140638914D02*
X142179333Y-140543676D01*
X142179333Y-140543676D02*
X142274571Y-140448438D01*
X142274571Y-140448438D02*
X142417428Y-140400819D01*
X142417428Y-140400819D02*
X142512666Y-140400819D01*
X142512666Y-140400819D02*
X142655523Y-140448438D01*
X142655523Y-140448438D02*
X142703142Y-140496057D01*
X143655523Y-141400819D02*
X143084095Y-141400819D01*
X143369809Y-141400819D02*
X143369809Y-140400819D01*
X143369809Y-140400819D02*
X143274571Y-140543676D01*
X143274571Y-140543676D02*
X143179333Y-140638914D01*
X143179333Y-140638914D02*
X143084095Y-140686533D01*
X144607904Y-141400819D02*
X144036476Y-141400819D01*
X144322190Y-141400819D02*
X144322190Y-140400819D01*
X144322190Y-140400819D02*
X144226952Y-140543676D01*
X144226952Y-140543676D02*
X144131714Y-140638914D01*
X144131714Y-140638914D02*
X144036476Y-140686533D01*
X129950819Y-124157904D02*
X130760342Y-124157904D01*
X130760342Y-124157904D02*
X130855580Y-124110285D01*
X130855580Y-124110285D02*
X130903200Y-124062666D01*
X130903200Y-124062666D02*
X130950819Y-123967428D01*
X130950819Y-123967428D02*
X130950819Y-123776952D01*
X130950819Y-123776952D02*
X130903200Y-123681714D01*
X130903200Y-123681714D02*
X130855580Y-123634095D01*
X130855580Y-123634095D02*
X130760342Y-123586476D01*
X130760342Y-123586476D02*
X129950819Y-123586476D01*
X130284152Y-122681714D02*
X130950819Y-122681714D01*
X129903200Y-122919809D02*
X130617485Y-123157904D01*
X130617485Y-123157904D02*
X130617485Y-122538857D01*
X136403754Y-66739456D02*
X136067037Y-67076174D01*
X136067037Y-67076174D02*
X135359930Y-66369067D01*
X135966022Y-65897662D02*
X135966022Y-65830319D01*
X135966022Y-65830319D02*
X135999693Y-65729303D01*
X135999693Y-65729303D02*
X136168052Y-65560945D01*
X136168052Y-65560945D02*
X136269067Y-65527273D01*
X136269067Y-65527273D02*
X136336411Y-65527273D01*
X136336411Y-65527273D02*
X136437426Y-65560945D01*
X136437426Y-65560945D02*
X136504770Y-65628288D01*
X136504770Y-65628288D02*
X136572113Y-65762975D01*
X136572113Y-65762975D02*
X136572113Y-66571097D01*
X136572113Y-66571097D02*
X137009846Y-66133364D01*
X127703142Y-113800819D02*
X127369809Y-113324628D01*
X127131714Y-113800819D02*
X127131714Y-112800819D01*
X127131714Y-112800819D02*
X127512666Y-112800819D01*
X127512666Y-112800819D02*
X127607904Y-112848438D01*
X127607904Y-112848438D02*
X127655523Y-112896057D01*
X127655523Y-112896057D02*
X127703142Y-112991295D01*
X127703142Y-112991295D02*
X127703142Y-113134152D01*
X127703142Y-113134152D02*
X127655523Y-113229390D01*
X127655523Y-113229390D02*
X127607904Y-113277009D01*
X127607904Y-113277009D02*
X127512666Y-113324628D01*
X127512666Y-113324628D02*
X127131714Y-113324628D01*
X128655523Y-113800819D02*
X128084095Y-113800819D01*
X128369809Y-113800819D02*
X128369809Y-112800819D01*
X128369809Y-112800819D02*
X128274571Y-112943676D01*
X128274571Y-112943676D02*
X128179333Y-113038914D01*
X128179333Y-113038914D02*
X128084095Y-113086533D01*
X128988857Y-112800819D02*
X129655523Y-112800819D01*
X129655523Y-112800819D02*
X129226952Y-113800819D01*
X131759580Y-61942857D02*
X131807200Y-61990476D01*
X131807200Y-61990476D02*
X131854819Y-62133333D01*
X131854819Y-62133333D02*
X131854819Y-62228571D01*
X131854819Y-62228571D02*
X131807200Y-62371428D01*
X131807200Y-62371428D02*
X131711961Y-62466666D01*
X131711961Y-62466666D02*
X131616723Y-62514285D01*
X131616723Y-62514285D02*
X131426247Y-62561904D01*
X131426247Y-62561904D02*
X131283390Y-62561904D01*
X131283390Y-62561904D02*
X131092914Y-62514285D01*
X131092914Y-62514285D02*
X130997676Y-62466666D01*
X130997676Y-62466666D02*
X130902438Y-62371428D01*
X130902438Y-62371428D02*
X130854819Y-62228571D01*
X130854819Y-62228571D02*
X130854819Y-62133333D01*
X130854819Y-62133333D02*
X130902438Y-61990476D01*
X130902438Y-61990476D02*
X130950057Y-61942857D01*
X130950057Y-61561904D02*
X130902438Y-61514285D01*
X130902438Y-61514285D02*
X130854819Y-61419047D01*
X130854819Y-61419047D02*
X130854819Y-61180952D01*
X130854819Y-61180952D02*
X130902438Y-61085714D01*
X130902438Y-61085714D02*
X130950057Y-61038095D01*
X130950057Y-61038095D02*
X131045295Y-60990476D01*
X131045295Y-60990476D02*
X131140533Y-60990476D01*
X131140533Y-60990476D02*
X131283390Y-61038095D01*
X131283390Y-61038095D02*
X131854819Y-61609523D01*
X131854819Y-61609523D02*
X131854819Y-60990476D01*
X130854819Y-60657142D02*
X130854819Y-60038095D01*
X130854819Y-60038095D02*
X131235771Y-60371428D01*
X131235771Y-60371428D02*
X131235771Y-60228571D01*
X131235771Y-60228571D02*
X131283390Y-60133333D01*
X131283390Y-60133333D02*
X131331009Y-60085714D01*
X131331009Y-60085714D02*
X131426247Y-60038095D01*
X131426247Y-60038095D02*
X131664342Y-60038095D01*
X131664342Y-60038095D02*
X131759580Y-60085714D01*
X131759580Y-60085714D02*
X131807200Y-60133333D01*
X131807200Y-60133333D02*
X131854819Y-60228571D01*
X131854819Y-60228571D02*
X131854819Y-60514285D01*
X131854819Y-60514285D02*
X131807200Y-60609523D01*
X131807200Y-60609523D02*
X131759580Y-60657142D01*
X140679333Y-116950819D02*
X140346000Y-116474628D01*
X140107905Y-116950819D02*
X140107905Y-115950819D01*
X140107905Y-115950819D02*
X140488857Y-115950819D01*
X140488857Y-115950819D02*
X140584095Y-115998438D01*
X140584095Y-115998438D02*
X140631714Y-116046057D01*
X140631714Y-116046057D02*
X140679333Y-116141295D01*
X140679333Y-116141295D02*
X140679333Y-116284152D01*
X140679333Y-116284152D02*
X140631714Y-116379390D01*
X140631714Y-116379390D02*
X140584095Y-116427009D01*
X140584095Y-116427009D02*
X140488857Y-116474628D01*
X140488857Y-116474628D02*
X140107905Y-116474628D01*
X141250762Y-116379390D02*
X141155524Y-116331771D01*
X141155524Y-116331771D02*
X141107905Y-116284152D01*
X141107905Y-116284152D02*
X141060286Y-116188914D01*
X141060286Y-116188914D02*
X141060286Y-116141295D01*
X141060286Y-116141295D02*
X141107905Y-116046057D01*
X141107905Y-116046057D02*
X141155524Y-115998438D01*
X141155524Y-115998438D02*
X141250762Y-115950819D01*
X141250762Y-115950819D02*
X141441238Y-115950819D01*
X141441238Y-115950819D02*
X141536476Y-115998438D01*
X141536476Y-115998438D02*
X141584095Y-116046057D01*
X141584095Y-116046057D02*
X141631714Y-116141295D01*
X141631714Y-116141295D02*
X141631714Y-116188914D01*
X141631714Y-116188914D02*
X141584095Y-116284152D01*
X141584095Y-116284152D02*
X141536476Y-116331771D01*
X141536476Y-116331771D02*
X141441238Y-116379390D01*
X141441238Y-116379390D02*
X141250762Y-116379390D01*
X141250762Y-116379390D02*
X141155524Y-116427009D01*
X141155524Y-116427009D02*
X141107905Y-116474628D01*
X141107905Y-116474628D02*
X141060286Y-116569866D01*
X141060286Y-116569866D02*
X141060286Y-116760342D01*
X141060286Y-116760342D02*
X141107905Y-116855580D01*
X141107905Y-116855580D02*
X141155524Y-116903200D01*
X141155524Y-116903200D02*
X141250762Y-116950819D01*
X141250762Y-116950819D02*
X141441238Y-116950819D01*
X141441238Y-116950819D02*
X141536476Y-116903200D01*
X141536476Y-116903200D02*
X141584095Y-116855580D01*
X141584095Y-116855580D02*
X141631714Y-116760342D01*
X141631714Y-116760342D02*
X141631714Y-116569866D01*
X141631714Y-116569866D02*
X141584095Y-116474628D01*
X141584095Y-116474628D02*
X141536476Y-116427009D01*
X141536476Y-116427009D02*
X141441238Y-116379390D01*
X127859580Y-61842857D02*
X127907200Y-61890476D01*
X127907200Y-61890476D02*
X127954819Y-62033333D01*
X127954819Y-62033333D02*
X127954819Y-62128571D01*
X127954819Y-62128571D02*
X127907200Y-62271428D01*
X127907200Y-62271428D02*
X127811961Y-62366666D01*
X127811961Y-62366666D02*
X127716723Y-62414285D01*
X127716723Y-62414285D02*
X127526247Y-62461904D01*
X127526247Y-62461904D02*
X127383390Y-62461904D01*
X127383390Y-62461904D02*
X127192914Y-62414285D01*
X127192914Y-62414285D02*
X127097676Y-62366666D01*
X127097676Y-62366666D02*
X127002438Y-62271428D01*
X127002438Y-62271428D02*
X126954819Y-62128571D01*
X126954819Y-62128571D02*
X126954819Y-62033333D01*
X126954819Y-62033333D02*
X127002438Y-61890476D01*
X127002438Y-61890476D02*
X127050057Y-61842857D01*
X127050057Y-61461904D02*
X127002438Y-61414285D01*
X127002438Y-61414285D02*
X126954819Y-61319047D01*
X126954819Y-61319047D02*
X126954819Y-61080952D01*
X126954819Y-61080952D02*
X127002438Y-60985714D01*
X127002438Y-60985714D02*
X127050057Y-60938095D01*
X127050057Y-60938095D02*
X127145295Y-60890476D01*
X127145295Y-60890476D02*
X127240533Y-60890476D01*
X127240533Y-60890476D02*
X127383390Y-60938095D01*
X127383390Y-60938095D02*
X127954819Y-61509523D01*
X127954819Y-61509523D02*
X127954819Y-60890476D01*
X127288152Y-60033333D02*
X127954819Y-60033333D01*
X126907200Y-60271428D02*
X127621485Y-60509523D01*
X127621485Y-60509523D02*
X127621485Y-59890476D01*
X133579333Y-111400819D02*
X133246000Y-110924628D01*
X133007905Y-111400819D02*
X133007905Y-110400819D01*
X133007905Y-110400819D02*
X133388857Y-110400819D01*
X133388857Y-110400819D02*
X133484095Y-110448438D01*
X133484095Y-110448438D02*
X133531714Y-110496057D01*
X133531714Y-110496057D02*
X133579333Y-110591295D01*
X133579333Y-110591295D02*
X133579333Y-110734152D01*
X133579333Y-110734152D02*
X133531714Y-110829390D01*
X133531714Y-110829390D02*
X133484095Y-110877009D01*
X133484095Y-110877009D02*
X133388857Y-110924628D01*
X133388857Y-110924628D02*
X133007905Y-110924628D01*
X133912667Y-110400819D02*
X134531714Y-110400819D01*
X134531714Y-110400819D02*
X134198381Y-110781771D01*
X134198381Y-110781771D02*
X134341238Y-110781771D01*
X134341238Y-110781771D02*
X134436476Y-110829390D01*
X134436476Y-110829390D02*
X134484095Y-110877009D01*
X134484095Y-110877009D02*
X134531714Y-110972247D01*
X134531714Y-110972247D02*
X134531714Y-111210342D01*
X134531714Y-111210342D02*
X134484095Y-111305580D01*
X134484095Y-111305580D02*
X134436476Y-111353200D01*
X134436476Y-111353200D02*
X134341238Y-111400819D01*
X134341238Y-111400819D02*
X134055524Y-111400819D01*
X134055524Y-111400819D02*
X133960286Y-111353200D01*
X133960286Y-111353200D02*
X133912667Y-111305580D01*
X159833333Y-96554152D02*
X159500000Y-96077961D01*
X159261905Y-96554152D02*
X159261905Y-95554152D01*
X159261905Y-95554152D02*
X159642857Y-95554152D01*
X159642857Y-95554152D02*
X159738095Y-95601771D01*
X159738095Y-95601771D02*
X159785714Y-95649390D01*
X159785714Y-95649390D02*
X159833333Y-95744628D01*
X159833333Y-95744628D02*
X159833333Y-95887485D01*
X159833333Y-95887485D02*
X159785714Y-95982723D01*
X159785714Y-95982723D02*
X159738095Y-96030342D01*
X159738095Y-96030342D02*
X159642857Y-96077961D01*
X159642857Y-96077961D02*
X159261905Y-96077961D01*
X160214286Y-95649390D02*
X160261905Y-95601771D01*
X160261905Y-95601771D02*
X160357143Y-95554152D01*
X160357143Y-95554152D02*
X160595238Y-95554152D01*
X160595238Y-95554152D02*
X160690476Y-95601771D01*
X160690476Y-95601771D02*
X160738095Y-95649390D01*
X160738095Y-95649390D02*
X160785714Y-95744628D01*
X160785714Y-95744628D02*
X160785714Y-95839866D01*
X160785714Y-95839866D02*
X160738095Y-95982723D01*
X160738095Y-95982723D02*
X160166667Y-96554152D01*
X160166667Y-96554152D02*
X160785714Y-96554152D01*
X139557142Y-90054819D02*
X139223809Y-89578628D01*
X138985714Y-90054819D02*
X138985714Y-89054819D01*
X138985714Y-89054819D02*
X139366666Y-89054819D01*
X139366666Y-89054819D02*
X139461904Y-89102438D01*
X139461904Y-89102438D02*
X139509523Y-89150057D01*
X139509523Y-89150057D02*
X139557142Y-89245295D01*
X139557142Y-89245295D02*
X139557142Y-89388152D01*
X139557142Y-89388152D02*
X139509523Y-89483390D01*
X139509523Y-89483390D02*
X139461904Y-89531009D01*
X139461904Y-89531009D02*
X139366666Y-89578628D01*
X139366666Y-89578628D02*
X138985714Y-89578628D01*
X140509523Y-90054819D02*
X139938095Y-90054819D01*
X140223809Y-90054819D02*
X140223809Y-89054819D01*
X140223809Y-89054819D02*
X140128571Y-89197676D01*
X140128571Y-89197676D02*
X140033333Y-89292914D01*
X140033333Y-89292914D02*
X139938095Y-89340533D01*
X141366666Y-89054819D02*
X141176190Y-89054819D01*
X141176190Y-89054819D02*
X141080952Y-89102438D01*
X141080952Y-89102438D02*
X141033333Y-89150057D01*
X141033333Y-89150057D02*
X140938095Y-89292914D01*
X140938095Y-89292914D02*
X140890476Y-89483390D01*
X140890476Y-89483390D02*
X140890476Y-89864342D01*
X140890476Y-89864342D02*
X140938095Y-89959580D01*
X140938095Y-89959580D02*
X140985714Y-90007200D01*
X140985714Y-90007200D02*
X141080952Y-90054819D01*
X141080952Y-90054819D02*
X141271428Y-90054819D01*
X141271428Y-90054819D02*
X141366666Y-90007200D01*
X141366666Y-90007200D02*
X141414285Y-89959580D01*
X141414285Y-89959580D02*
X141461904Y-89864342D01*
X141461904Y-89864342D02*
X141461904Y-89626247D01*
X141461904Y-89626247D02*
X141414285Y-89531009D01*
X141414285Y-89531009D02*
X141366666Y-89483390D01*
X141366666Y-89483390D02*
X141271428Y-89435771D01*
X141271428Y-89435771D02*
X141080952Y-89435771D01*
X141080952Y-89435771D02*
X140985714Y-89483390D01*
X140985714Y-89483390D02*
X140938095Y-89531009D01*
X140938095Y-89531009D02*
X140890476Y-89626247D01*
X139657142Y-136859580D02*
X139609523Y-136907200D01*
X139609523Y-136907200D02*
X139466666Y-136954819D01*
X139466666Y-136954819D02*
X139371428Y-136954819D01*
X139371428Y-136954819D02*
X139228571Y-136907200D01*
X139228571Y-136907200D02*
X139133333Y-136811961D01*
X139133333Y-136811961D02*
X139085714Y-136716723D01*
X139085714Y-136716723D02*
X139038095Y-136526247D01*
X139038095Y-136526247D02*
X139038095Y-136383390D01*
X139038095Y-136383390D02*
X139085714Y-136192914D01*
X139085714Y-136192914D02*
X139133333Y-136097676D01*
X139133333Y-136097676D02*
X139228571Y-136002438D01*
X139228571Y-136002438D02*
X139371428Y-135954819D01*
X139371428Y-135954819D02*
X139466666Y-135954819D01*
X139466666Y-135954819D02*
X139609523Y-136002438D01*
X139609523Y-136002438D02*
X139657142Y-136050057D01*
X140609523Y-136954819D02*
X140038095Y-136954819D01*
X140323809Y-136954819D02*
X140323809Y-135954819D01*
X140323809Y-135954819D02*
X140228571Y-136097676D01*
X140228571Y-136097676D02*
X140133333Y-136192914D01*
X140133333Y-136192914D02*
X140038095Y-136240533D01*
X140990476Y-136050057D02*
X141038095Y-136002438D01*
X141038095Y-136002438D02*
X141133333Y-135954819D01*
X141133333Y-135954819D02*
X141371428Y-135954819D01*
X141371428Y-135954819D02*
X141466666Y-136002438D01*
X141466666Y-136002438D02*
X141514285Y-136050057D01*
X141514285Y-136050057D02*
X141561904Y-136145295D01*
X141561904Y-136145295D02*
X141561904Y-136240533D01*
X141561904Y-136240533D02*
X141514285Y-136383390D01*
X141514285Y-136383390D02*
X140942857Y-136954819D01*
X140942857Y-136954819D02*
X141561904Y-136954819D01*
X155007142Y-109197080D02*
X154959523Y-109244700D01*
X154959523Y-109244700D02*
X154816666Y-109292319D01*
X154816666Y-109292319D02*
X154721428Y-109292319D01*
X154721428Y-109292319D02*
X154578571Y-109244700D01*
X154578571Y-109244700D02*
X154483333Y-109149461D01*
X154483333Y-109149461D02*
X154435714Y-109054223D01*
X154435714Y-109054223D02*
X154388095Y-108863747D01*
X154388095Y-108863747D02*
X154388095Y-108720890D01*
X154388095Y-108720890D02*
X154435714Y-108530414D01*
X154435714Y-108530414D02*
X154483333Y-108435176D01*
X154483333Y-108435176D02*
X154578571Y-108339938D01*
X154578571Y-108339938D02*
X154721428Y-108292319D01*
X154721428Y-108292319D02*
X154816666Y-108292319D01*
X154816666Y-108292319D02*
X154959523Y-108339938D01*
X154959523Y-108339938D02*
X155007142Y-108387557D01*
X155388095Y-108387557D02*
X155435714Y-108339938D01*
X155435714Y-108339938D02*
X155530952Y-108292319D01*
X155530952Y-108292319D02*
X155769047Y-108292319D01*
X155769047Y-108292319D02*
X155864285Y-108339938D01*
X155864285Y-108339938D02*
X155911904Y-108387557D01*
X155911904Y-108387557D02*
X155959523Y-108482795D01*
X155959523Y-108482795D02*
X155959523Y-108578033D01*
X155959523Y-108578033D02*
X155911904Y-108720890D01*
X155911904Y-108720890D02*
X155340476Y-109292319D01*
X155340476Y-109292319D02*
X155959523Y-109292319D01*
X156864285Y-108292319D02*
X156388095Y-108292319D01*
X156388095Y-108292319D02*
X156340476Y-108768509D01*
X156340476Y-108768509D02*
X156388095Y-108720890D01*
X156388095Y-108720890D02*
X156483333Y-108673271D01*
X156483333Y-108673271D02*
X156721428Y-108673271D01*
X156721428Y-108673271D02*
X156816666Y-108720890D01*
X156816666Y-108720890D02*
X156864285Y-108768509D01*
X156864285Y-108768509D02*
X156911904Y-108863747D01*
X156911904Y-108863747D02*
X156911904Y-109101842D01*
X156911904Y-109101842D02*
X156864285Y-109197080D01*
X156864285Y-109197080D02*
X156816666Y-109244700D01*
X156816666Y-109244700D02*
X156721428Y-109292319D01*
X156721428Y-109292319D02*
X156483333Y-109292319D01*
X156483333Y-109292319D02*
X156388095Y-109244700D01*
X156388095Y-109244700D02*
X156340476Y-109197080D01*
X143254761Y-99943807D02*
X143159523Y-99896188D01*
X143159523Y-99896188D02*
X143064285Y-99800950D01*
X143064285Y-99800950D02*
X142921428Y-99658092D01*
X142921428Y-99658092D02*
X142826190Y-99610473D01*
X142826190Y-99610473D02*
X142730952Y-99610473D01*
X142778571Y-99848569D02*
X142683333Y-99800950D01*
X142683333Y-99800950D02*
X142588095Y-99705711D01*
X142588095Y-99705711D02*
X142540476Y-99515235D01*
X142540476Y-99515235D02*
X142540476Y-99181902D01*
X142540476Y-99181902D02*
X142588095Y-98991426D01*
X142588095Y-98991426D02*
X142683333Y-98896188D01*
X142683333Y-98896188D02*
X142778571Y-98848569D01*
X142778571Y-98848569D02*
X142969047Y-98848569D01*
X142969047Y-98848569D02*
X143064285Y-98896188D01*
X143064285Y-98896188D02*
X143159523Y-98991426D01*
X143159523Y-98991426D02*
X143207142Y-99181902D01*
X143207142Y-99181902D02*
X143207142Y-99515235D01*
X143207142Y-99515235D02*
X143159523Y-99705711D01*
X143159523Y-99705711D02*
X143064285Y-99800950D01*
X143064285Y-99800950D02*
X142969047Y-99848569D01*
X142969047Y-99848569D02*
X142778571Y-99848569D01*
X143588095Y-98943807D02*
X143635714Y-98896188D01*
X143635714Y-98896188D02*
X143730952Y-98848569D01*
X143730952Y-98848569D02*
X143969047Y-98848569D01*
X143969047Y-98848569D02*
X144064285Y-98896188D01*
X144064285Y-98896188D02*
X144111904Y-98943807D01*
X144111904Y-98943807D02*
X144159523Y-99039045D01*
X144159523Y-99039045D02*
X144159523Y-99134283D01*
X144159523Y-99134283D02*
X144111904Y-99277140D01*
X144111904Y-99277140D02*
X143540476Y-99848569D01*
X143540476Y-99848569D02*
X144159523Y-99848569D01*
X146579117Y-144557332D02*
X146579117Y-143551899D01*
X146579117Y-143551899D02*
X146962139Y-143551899D01*
X146962139Y-143551899D02*
X147057895Y-143599777D01*
X147057895Y-143599777D02*
X147105773Y-143647655D01*
X147105773Y-143647655D02*
X147153650Y-143743410D01*
X147153650Y-143743410D02*
X147153650Y-143887044D01*
X147153650Y-143887044D02*
X147105773Y-143982799D01*
X147105773Y-143982799D02*
X147057895Y-144030677D01*
X147057895Y-144030677D02*
X146962139Y-144078555D01*
X146962139Y-144078555D02*
X146579117Y-144078555D01*
X147488795Y-143551899D02*
X148159083Y-143551899D01*
X148159083Y-143551899D02*
X147488795Y-144557332D01*
X147488795Y-144557332D02*
X148159083Y-144557332D01*
X149068761Y-144557332D02*
X148494228Y-144557332D01*
X148781494Y-144557332D02*
X148781494Y-143551899D01*
X148781494Y-143551899D02*
X148685739Y-143695533D01*
X148685739Y-143695533D02*
X148589983Y-143791288D01*
X148589983Y-143791288D02*
X148494228Y-143839166D01*
X159418051Y-138274080D02*
X160181948Y-138274080D01*
X145517547Y-138274188D02*
X146282452Y-138274188D01*
X145899999Y-138656640D02*
X145899999Y-137891736D01*
X149838095Y-78354819D02*
X149838095Y-79164342D01*
X149838095Y-79164342D02*
X149885714Y-79259580D01*
X149885714Y-79259580D02*
X149933333Y-79307200D01*
X149933333Y-79307200D02*
X150028571Y-79354819D01*
X150028571Y-79354819D02*
X150219047Y-79354819D01*
X150219047Y-79354819D02*
X150314285Y-79307200D01*
X150314285Y-79307200D02*
X150361904Y-79259580D01*
X150361904Y-79259580D02*
X150409523Y-79164342D01*
X150409523Y-79164342D02*
X150409523Y-78354819D01*
X151409523Y-79354819D02*
X150838095Y-79354819D01*
X151123809Y-79354819D02*
X151123809Y-78354819D01*
X151123809Y-78354819D02*
X151028571Y-78497676D01*
X151028571Y-78497676D02*
X150933333Y-78592914D01*
X150933333Y-78592914D02*
X150838095Y-78640533D01*
X132279333Y-138605580D02*
X132231714Y-138653200D01*
X132231714Y-138653200D02*
X132088857Y-138700819D01*
X132088857Y-138700819D02*
X131993619Y-138700819D01*
X131993619Y-138700819D02*
X131850762Y-138653200D01*
X131850762Y-138653200D02*
X131755524Y-138557961D01*
X131755524Y-138557961D02*
X131707905Y-138462723D01*
X131707905Y-138462723D02*
X131660286Y-138272247D01*
X131660286Y-138272247D02*
X131660286Y-138129390D01*
X131660286Y-138129390D02*
X131707905Y-137938914D01*
X131707905Y-137938914D02*
X131755524Y-137843676D01*
X131755524Y-137843676D02*
X131850762Y-137748438D01*
X131850762Y-137748438D02*
X131993619Y-137700819D01*
X131993619Y-137700819D02*
X132088857Y-137700819D01*
X132088857Y-137700819D02*
X132231714Y-137748438D01*
X132231714Y-137748438D02*
X132279333Y-137796057D01*
X132755524Y-138700819D02*
X132946000Y-138700819D01*
X132946000Y-138700819D02*
X133041238Y-138653200D01*
X133041238Y-138653200D02*
X133088857Y-138605580D01*
X133088857Y-138605580D02*
X133184095Y-138462723D01*
X133184095Y-138462723D02*
X133231714Y-138272247D01*
X133231714Y-138272247D02*
X133231714Y-137891295D01*
X133231714Y-137891295D02*
X133184095Y-137796057D01*
X133184095Y-137796057D02*
X133136476Y-137748438D01*
X133136476Y-137748438D02*
X133041238Y-137700819D01*
X133041238Y-137700819D02*
X132850762Y-137700819D01*
X132850762Y-137700819D02*
X132755524Y-137748438D01*
X132755524Y-137748438D02*
X132707905Y-137796057D01*
X132707905Y-137796057D02*
X132660286Y-137891295D01*
X132660286Y-137891295D02*
X132660286Y-138129390D01*
X132660286Y-138129390D02*
X132707905Y-138224628D01*
X132707905Y-138224628D02*
X132755524Y-138272247D01*
X132755524Y-138272247D02*
X132850762Y-138319866D01*
X132850762Y-138319866D02*
X133041238Y-138319866D01*
X133041238Y-138319866D02*
X133136476Y-138272247D01*
X133136476Y-138272247D02*
X133184095Y-138224628D01*
X133184095Y-138224628D02*
X133231714Y-138129390D01*
X152757142Y-94355580D02*
X152709523Y-94403200D01*
X152709523Y-94403200D02*
X152566666Y-94450819D01*
X152566666Y-94450819D02*
X152471428Y-94450819D01*
X152471428Y-94450819D02*
X152328571Y-94403200D01*
X152328571Y-94403200D02*
X152233333Y-94307961D01*
X152233333Y-94307961D02*
X152185714Y-94212723D01*
X152185714Y-94212723D02*
X152138095Y-94022247D01*
X152138095Y-94022247D02*
X152138095Y-93879390D01*
X152138095Y-93879390D02*
X152185714Y-93688914D01*
X152185714Y-93688914D02*
X152233333Y-93593676D01*
X152233333Y-93593676D02*
X152328571Y-93498438D01*
X152328571Y-93498438D02*
X152471428Y-93450819D01*
X152471428Y-93450819D02*
X152566666Y-93450819D01*
X152566666Y-93450819D02*
X152709523Y-93498438D01*
X152709523Y-93498438D02*
X152757142Y-93546057D01*
X153709523Y-94450819D02*
X153138095Y-94450819D01*
X153423809Y-94450819D02*
X153423809Y-93450819D01*
X153423809Y-93450819D02*
X153328571Y-93593676D01*
X153328571Y-93593676D02*
X153233333Y-93688914D01*
X153233333Y-93688914D02*
X153138095Y-93736533D01*
X154042857Y-93450819D02*
X154709523Y-93450819D01*
X154709523Y-93450819D02*
X154280952Y-94450819D01*
X133103142Y-125000819D02*
X132769809Y-124524628D01*
X132531714Y-125000819D02*
X132531714Y-124000819D01*
X132531714Y-124000819D02*
X132912666Y-124000819D01*
X132912666Y-124000819D02*
X133007904Y-124048438D01*
X133007904Y-124048438D02*
X133055523Y-124096057D01*
X133055523Y-124096057D02*
X133103142Y-124191295D01*
X133103142Y-124191295D02*
X133103142Y-124334152D01*
X133103142Y-124334152D02*
X133055523Y-124429390D01*
X133055523Y-124429390D02*
X133007904Y-124477009D01*
X133007904Y-124477009D02*
X132912666Y-124524628D01*
X132912666Y-124524628D02*
X132531714Y-124524628D01*
X133484095Y-124096057D02*
X133531714Y-124048438D01*
X133531714Y-124048438D02*
X133626952Y-124000819D01*
X133626952Y-124000819D02*
X133865047Y-124000819D01*
X133865047Y-124000819D02*
X133960285Y-124048438D01*
X133960285Y-124048438D02*
X134007904Y-124096057D01*
X134007904Y-124096057D02*
X134055523Y-124191295D01*
X134055523Y-124191295D02*
X134055523Y-124286533D01*
X134055523Y-124286533D02*
X134007904Y-124429390D01*
X134007904Y-124429390D02*
X133436476Y-125000819D01*
X133436476Y-125000819D02*
X134055523Y-125000819D01*
X135007904Y-125000819D02*
X134436476Y-125000819D01*
X134722190Y-125000819D02*
X134722190Y-124000819D01*
X134722190Y-124000819D02*
X134626952Y-124143676D01*
X134626952Y-124143676D02*
X134531714Y-124238914D01*
X134531714Y-124238914D02*
X134436476Y-124286533D01*
X137660543Y-66503754D02*
X137323825Y-66167037D01*
X137323825Y-66167037D02*
X138030932Y-65459930D01*
X138266635Y-67109846D02*
X137862574Y-66705785D01*
X138064604Y-66907815D02*
X138771711Y-66200709D01*
X138771711Y-66200709D02*
X138603352Y-66234380D01*
X138603352Y-66234380D02*
X138468665Y-66234380D01*
X138468665Y-66234380D02*
X138367650Y-66200709D01*
X117459104Y-64079047D02*
X117459104Y-63602857D01*
X117744819Y-64174285D02*
X116744819Y-63840952D01*
X116744819Y-63840952D02*
X117744819Y-63507619D01*
X117744819Y-63174285D02*
X116744819Y-63174285D01*
X116744819Y-63174285D02*
X117744819Y-62602857D01*
X117744819Y-62602857D02*
X116744819Y-62602857D01*
X116744819Y-62269523D02*
X116744819Y-61698095D01*
X117744819Y-61983809D02*
X116744819Y-61983809D01*
X116840057Y-61412380D02*
X116792438Y-61364761D01*
X116792438Y-61364761D02*
X116744819Y-61269523D01*
X116744819Y-61269523D02*
X116744819Y-61031428D01*
X116744819Y-61031428D02*
X116792438Y-60936190D01*
X116792438Y-60936190D02*
X116840057Y-60888571D01*
X116840057Y-60888571D02*
X116935295Y-60840952D01*
X116935295Y-60840952D02*
X117030533Y-60840952D01*
X117030533Y-60840952D02*
X117173390Y-60888571D01*
X117173390Y-60888571D02*
X117744819Y-61459999D01*
X117744819Y-61459999D02*
X117744819Y-60840952D01*
X137569809Y-116424628D02*
X137569809Y-116900819D01*
X137236476Y-115900819D02*
X137569809Y-116424628D01*
X137569809Y-116424628D02*
X137903142Y-115900819D01*
X138760285Y-116900819D02*
X138188857Y-116900819D01*
X138474571Y-116900819D02*
X138474571Y-115900819D01*
X138474571Y-115900819D02*
X138379333Y-116043676D01*
X138379333Y-116043676D02*
X138284095Y-116138914D01*
X138284095Y-116138914D02*
X138188857Y-116186533D01*
X136450819Y-115336476D02*
X136450819Y-115907904D01*
X136450819Y-115622190D02*
X135450819Y-115622190D01*
X135450819Y-115622190D02*
X135593676Y-115717428D01*
X135593676Y-115717428D02*
X135688914Y-115812666D01*
X135688914Y-115812666D02*
X135736533Y-115907904D01*
X135450819Y-114479333D02*
X135450819Y-114669809D01*
X135450819Y-114669809D02*
X135498438Y-114765047D01*
X135498438Y-114765047D02*
X135546057Y-114812666D01*
X135546057Y-114812666D02*
X135688914Y-114907904D01*
X135688914Y-114907904D02*
X135879390Y-114955523D01*
X135879390Y-114955523D02*
X136260342Y-114955523D01*
X136260342Y-114955523D02*
X136355580Y-114907904D01*
X136355580Y-114907904D02*
X136403200Y-114860285D01*
X136403200Y-114860285D02*
X136450819Y-114765047D01*
X136450819Y-114765047D02*
X136450819Y-114574571D01*
X136450819Y-114574571D02*
X136403200Y-114479333D01*
X136403200Y-114479333D02*
X136355580Y-114431714D01*
X136355580Y-114431714D02*
X136260342Y-114384095D01*
X136260342Y-114384095D02*
X136022247Y-114384095D01*
X136022247Y-114384095D02*
X135927009Y-114431714D01*
X135927009Y-114431714D02*
X135879390Y-114479333D01*
X135879390Y-114479333D02*
X135831771Y-114574571D01*
X135831771Y-114574571D02*
X135831771Y-114765047D01*
X135831771Y-114765047D02*
X135879390Y-114860285D01*
X135879390Y-114860285D02*
X135927009Y-114907904D01*
X135927009Y-114907904D02*
X136022247Y-114955523D01*
X136450819Y-113955523D02*
X135450819Y-113955523D01*
X135450819Y-113955523D02*
X136165104Y-113622190D01*
X136165104Y-113622190D02*
X135450819Y-113288857D01*
X135450819Y-113288857D02*
X136450819Y-113288857D01*
X136450819Y-112812666D02*
X135450819Y-112812666D01*
X135927009Y-112812666D02*
X135927009Y-112241238D01*
X136450819Y-112241238D02*
X135450819Y-112241238D01*
X135784152Y-111860285D02*
X135784152Y-111336476D01*
X135784152Y-111336476D02*
X136450819Y-111860285D01*
X136450819Y-111860285D02*
X136450819Y-111336476D01*
X129664527Y-66149770D02*
X129327809Y-65813053D01*
X129327809Y-65813053D02*
X130034916Y-65105946D01*
X130539993Y-65611022D02*
X130977725Y-66048755D01*
X130977725Y-66048755D02*
X130472649Y-66082427D01*
X130472649Y-66082427D02*
X130573664Y-66183442D01*
X130573664Y-66183442D02*
X130607336Y-66284457D01*
X130607336Y-66284457D02*
X130607336Y-66351801D01*
X130607336Y-66351801D02*
X130573664Y-66452816D01*
X130573664Y-66452816D02*
X130405306Y-66621175D01*
X130405306Y-66621175D02*
X130304290Y-66654847D01*
X130304290Y-66654847D02*
X130236947Y-66654847D01*
X130236947Y-66654847D02*
X130135932Y-66621175D01*
X130135932Y-66621175D02*
X129933901Y-66419144D01*
X129933901Y-66419144D02*
X129900229Y-66318129D01*
X129900229Y-66318129D02*
X129900229Y-66250786D01*
X163266666Y-62554819D02*
X163266666Y-63269104D01*
X163266666Y-63269104D02*
X163219047Y-63411961D01*
X163219047Y-63411961D02*
X163123809Y-63507200D01*
X163123809Y-63507200D02*
X162980952Y-63554819D01*
X162980952Y-63554819D02*
X162885714Y-63554819D01*
X164266666Y-63554819D02*
X163695238Y-63554819D01*
X163980952Y-63554819D02*
X163980952Y-62554819D01*
X163980952Y-62554819D02*
X163885714Y-62697676D01*
X163885714Y-62697676D02*
X163790476Y-62792914D01*
X163790476Y-62792914D02*
X163695238Y-62840533D01*
X142059580Y-75666666D02*
X142107200Y-75714285D01*
X142107200Y-75714285D02*
X142154819Y-75857142D01*
X142154819Y-75857142D02*
X142154819Y-75952380D01*
X142154819Y-75952380D02*
X142107200Y-76095237D01*
X142107200Y-76095237D02*
X142011961Y-76190475D01*
X142011961Y-76190475D02*
X141916723Y-76238094D01*
X141916723Y-76238094D02*
X141726247Y-76285713D01*
X141726247Y-76285713D02*
X141583390Y-76285713D01*
X141583390Y-76285713D02*
X141392914Y-76238094D01*
X141392914Y-76238094D02*
X141297676Y-76190475D01*
X141297676Y-76190475D02*
X141202438Y-76095237D01*
X141202438Y-76095237D02*
X141154819Y-75952380D01*
X141154819Y-75952380D02*
X141154819Y-75857142D01*
X141154819Y-75857142D02*
X141202438Y-75714285D01*
X141202438Y-75714285D02*
X141250057Y-75666666D01*
X141488152Y-74809523D02*
X142154819Y-74809523D01*
X141107200Y-75047618D02*
X141821485Y-75285713D01*
X141821485Y-75285713D02*
X141821485Y-74666666D01*
X149933333Y-131959580D02*
X149885714Y-132007200D01*
X149885714Y-132007200D02*
X149742857Y-132054819D01*
X149742857Y-132054819D02*
X149647619Y-132054819D01*
X149647619Y-132054819D02*
X149504762Y-132007200D01*
X149504762Y-132007200D02*
X149409524Y-131911961D01*
X149409524Y-131911961D02*
X149361905Y-131816723D01*
X149361905Y-131816723D02*
X149314286Y-131626247D01*
X149314286Y-131626247D02*
X149314286Y-131483390D01*
X149314286Y-131483390D02*
X149361905Y-131292914D01*
X149361905Y-131292914D02*
X149409524Y-131197676D01*
X149409524Y-131197676D02*
X149504762Y-131102438D01*
X149504762Y-131102438D02*
X149647619Y-131054819D01*
X149647619Y-131054819D02*
X149742857Y-131054819D01*
X149742857Y-131054819D02*
X149885714Y-131102438D01*
X149885714Y-131102438D02*
X149933333Y-131150057D01*
X150266667Y-131054819D02*
X150933333Y-131054819D01*
X150933333Y-131054819D02*
X150504762Y-132054819D01*
X133579333Y-109100819D02*
X133246000Y-108624628D01*
X133007905Y-109100819D02*
X133007905Y-108100819D01*
X133007905Y-108100819D02*
X133388857Y-108100819D01*
X133388857Y-108100819D02*
X133484095Y-108148438D01*
X133484095Y-108148438D02*
X133531714Y-108196057D01*
X133531714Y-108196057D02*
X133579333Y-108291295D01*
X133579333Y-108291295D02*
X133579333Y-108434152D01*
X133579333Y-108434152D02*
X133531714Y-108529390D01*
X133531714Y-108529390D02*
X133484095Y-108577009D01*
X133484095Y-108577009D02*
X133388857Y-108624628D01*
X133388857Y-108624628D02*
X133007905Y-108624628D01*
X134436476Y-108434152D02*
X134436476Y-109100819D01*
X134198381Y-108053200D02*
X133960286Y-108767485D01*
X133960286Y-108767485D02*
X134579333Y-108767485D01*
X161526666Y-103714819D02*
X161526666Y-104429104D01*
X161526666Y-104429104D02*
X161479047Y-104571961D01*
X161479047Y-104571961D02*
X161383809Y-104667200D01*
X161383809Y-104667200D02*
X161240952Y-104714819D01*
X161240952Y-104714819D02*
X161145714Y-104714819D01*
X162431428Y-104048152D02*
X162431428Y-104714819D01*
X162193333Y-103667200D02*
X161955238Y-104381485D01*
X161955238Y-104381485D02*
X162574285Y-104381485D01*
X126361905Y-109100819D02*
X126361905Y-108100819D01*
X126361905Y-108100819D02*
X126600000Y-108100819D01*
X126600000Y-108100819D02*
X126742857Y-108148438D01*
X126742857Y-108148438D02*
X126838095Y-108243676D01*
X126838095Y-108243676D02*
X126885714Y-108338914D01*
X126885714Y-108338914D02*
X126933333Y-108529390D01*
X126933333Y-108529390D02*
X126933333Y-108672247D01*
X126933333Y-108672247D02*
X126885714Y-108862723D01*
X126885714Y-108862723D02*
X126838095Y-108957961D01*
X126838095Y-108957961D02*
X126742857Y-109053200D01*
X126742857Y-109053200D02*
X126600000Y-109100819D01*
X126600000Y-109100819D02*
X126361905Y-109100819D01*
X127266667Y-108100819D02*
X127885714Y-108100819D01*
X127885714Y-108100819D02*
X127552381Y-108481771D01*
X127552381Y-108481771D02*
X127695238Y-108481771D01*
X127695238Y-108481771D02*
X127790476Y-108529390D01*
X127790476Y-108529390D02*
X127838095Y-108577009D01*
X127838095Y-108577009D02*
X127885714Y-108672247D01*
X127885714Y-108672247D02*
X127885714Y-108910342D01*
X127885714Y-108910342D02*
X127838095Y-109005580D01*
X127838095Y-109005580D02*
X127790476Y-109053200D01*
X127790476Y-109053200D02*
X127695238Y-109100819D01*
X127695238Y-109100819D02*
X127409524Y-109100819D01*
X127409524Y-109100819D02*
X127314286Y-109053200D01*
X127314286Y-109053200D02*
X127266667Y-109005580D01*
X159700819Y-142207904D02*
X160510342Y-142207904D01*
X160510342Y-142207904D02*
X160605580Y-142160285D01*
X160605580Y-142160285D02*
X160653200Y-142112666D01*
X160653200Y-142112666D02*
X160700819Y-142017428D01*
X160700819Y-142017428D02*
X160700819Y-141826952D01*
X160700819Y-141826952D02*
X160653200Y-141731714D01*
X160653200Y-141731714D02*
X160605580Y-141684095D01*
X160605580Y-141684095D02*
X160510342Y-141636476D01*
X160510342Y-141636476D02*
X159700819Y-141636476D01*
X159700819Y-140731714D02*
X159700819Y-140922190D01*
X159700819Y-140922190D02*
X159748438Y-141017428D01*
X159748438Y-141017428D02*
X159796057Y-141065047D01*
X159796057Y-141065047D02*
X159938914Y-141160285D01*
X159938914Y-141160285D02*
X160129390Y-141207904D01*
X160129390Y-141207904D02*
X160510342Y-141207904D01*
X160510342Y-141207904D02*
X160605580Y-141160285D01*
X160605580Y-141160285D02*
X160653200Y-141112666D01*
X160653200Y-141112666D02*
X160700819Y-141017428D01*
X160700819Y-141017428D02*
X160700819Y-140826952D01*
X160700819Y-140826952D02*
X160653200Y-140731714D01*
X160653200Y-140731714D02*
X160605580Y-140684095D01*
X160605580Y-140684095D02*
X160510342Y-140636476D01*
X160510342Y-140636476D02*
X160272247Y-140636476D01*
X160272247Y-140636476D02*
X160177009Y-140684095D01*
X160177009Y-140684095D02*
X160129390Y-140731714D01*
X160129390Y-140731714D02*
X160081771Y-140826952D01*
X160081771Y-140826952D02*
X160081771Y-141017428D01*
X160081771Y-141017428D02*
X160129390Y-141112666D01*
X160129390Y-141112666D02*
X160177009Y-141160285D01*
X160177009Y-141160285D02*
X160272247Y-141207904D01*
X155487333Y-115163580D02*
X155439714Y-115211200D01*
X155439714Y-115211200D02*
X155296857Y-115258819D01*
X155296857Y-115258819D02*
X155201619Y-115258819D01*
X155201619Y-115258819D02*
X155058762Y-115211200D01*
X155058762Y-115211200D02*
X154963524Y-115115961D01*
X154963524Y-115115961D02*
X154915905Y-115020723D01*
X154915905Y-115020723D02*
X154868286Y-114830247D01*
X154868286Y-114830247D02*
X154868286Y-114687390D01*
X154868286Y-114687390D02*
X154915905Y-114496914D01*
X154915905Y-114496914D02*
X154963524Y-114401676D01*
X154963524Y-114401676D02*
X155058762Y-114306438D01*
X155058762Y-114306438D02*
X155201619Y-114258819D01*
X155201619Y-114258819D02*
X155296857Y-114258819D01*
X155296857Y-114258819D02*
X155439714Y-114306438D01*
X155439714Y-114306438D02*
X155487333Y-114354057D01*
X156392095Y-114258819D02*
X155915905Y-114258819D01*
X155915905Y-114258819D02*
X155868286Y-114735009D01*
X155868286Y-114735009D02*
X155915905Y-114687390D01*
X155915905Y-114687390D02*
X156011143Y-114639771D01*
X156011143Y-114639771D02*
X156249238Y-114639771D01*
X156249238Y-114639771D02*
X156344476Y-114687390D01*
X156344476Y-114687390D02*
X156392095Y-114735009D01*
X156392095Y-114735009D02*
X156439714Y-114830247D01*
X156439714Y-114830247D02*
X156439714Y-115068342D01*
X156439714Y-115068342D02*
X156392095Y-115163580D01*
X156392095Y-115163580D02*
X156344476Y-115211200D01*
X156344476Y-115211200D02*
X156249238Y-115258819D01*
X156249238Y-115258819D02*
X156011143Y-115258819D01*
X156011143Y-115258819D02*
X155915905Y-115211200D01*
X155915905Y-115211200D02*
X155868286Y-115163580D01*
X146057142Y-94377486D02*
X145723809Y-93901295D01*
X145485714Y-94377486D02*
X145485714Y-93377486D01*
X145485714Y-93377486D02*
X145866666Y-93377486D01*
X145866666Y-93377486D02*
X145961904Y-93425105D01*
X145961904Y-93425105D02*
X146009523Y-93472724D01*
X146009523Y-93472724D02*
X146057142Y-93567962D01*
X146057142Y-93567962D02*
X146057142Y-93710819D01*
X146057142Y-93710819D02*
X146009523Y-93806057D01*
X146009523Y-93806057D02*
X145961904Y-93853676D01*
X145961904Y-93853676D02*
X145866666Y-93901295D01*
X145866666Y-93901295D02*
X145485714Y-93901295D01*
X147009523Y-94377486D02*
X146438095Y-94377486D01*
X146723809Y-94377486D02*
X146723809Y-93377486D01*
X146723809Y-93377486D02*
X146628571Y-93520343D01*
X146628571Y-93520343D02*
X146533333Y-93615581D01*
X146533333Y-93615581D02*
X146438095Y-93663200D01*
X147342857Y-93377486D02*
X147961904Y-93377486D01*
X147961904Y-93377486D02*
X147628571Y-93758438D01*
X147628571Y-93758438D02*
X147771428Y-93758438D01*
X147771428Y-93758438D02*
X147866666Y-93806057D01*
X147866666Y-93806057D02*
X147914285Y-93853676D01*
X147914285Y-93853676D02*
X147961904Y-93948914D01*
X147961904Y-93948914D02*
X147961904Y-94187009D01*
X147961904Y-94187009D02*
X147914285Y-94282247D01*
X147914285Y-94282247D02*
X147866666Y-94329867D01*
X147866666Y-94329867D02*
X147771428Y-94377486D01*
X147771428Y-94377486D02*
X147485714Y-94377486D01*
X147485714Y-94377486D02*
X147390476Y-94329867D01*
X147390476Y-94329867D02*
X147342857Y-94282247D01*
X159154333Y-131725819D02*
X158821000Y-131249628D01*
X158582905Y-131725819D02*
X158582905Y-130725819D01*
X158582905Y-130725819D02*
X158963857Y-130725819D01*
X158963857Y-130725819D02*
X159059095Y-130773438D01*
X159059095Y-130773438D02*
X159106714Y-130821057D01*
X159106714Y-130821057D02*
X159154333Y-130916295D01*
X159154333Y-130916295D02*
X159154333Y-131059152D01*
X159154333Y-131059152D02*
X159106714Y-131154390D01*
X159106714Y-131154390D02*
X159059095Y-131202009D01*
X159059095Y-131202009D02*
X158963857Y-131249628D01*
X158963857Y-131249628D02*
X158582905Y-131249628D01*
X160011476Y-130725819D02*
X159821000Y-130725819D01*
X159821000Y-130725819D02*
X159725762Y-130773438D01*
X159725762Y-130773438D02*
X159678143Y-130821057D01*
X159678143Y-130821057D02*
X159582905Y-130963914D01*
X159582905Y-130963914D02*
X159535286Y-131154390D01*
X159535286Y-131154390D02*
X159535286Y-131535342D01*
X159535286Y-131535342D02*
X159582905Y-131630580D01*
X159582905Y-131630580D02*
X159630524Y-131678200D01*
X159630524Y-131678200D02*
X159725762Y-131725819D01*
X159725762Y-131725819D02*
X159916238Y-131725819D01*
X159916238Y-131725819D02*
X160011476Y-131678200D01*
X160011476Y-131678200D02*
X160059095Y-131630580D01*
X160059095Y-131630580D02*
X160106714Y-131535342D01*
X160106714Y-131535342D02*
X160106714Y-131297247D01*
X160106714Y-131297247D02*
X160059095Y-131202009D01*
X160059095Y-131202009D02*
X160011476Y-131154390D01*
X160011476Y-131154390D02*
X159916238Y-131106771D01*
X159916238Y-131106771D02*
X159725762Y-131106771D01*
X159725762Y-131106771D02*
X159630524Y-131154390D01*
X159630524Y-131154390D02*
X159582905Y-131202009D01*
X159582905Y-131202009D02*
X159535286Y-131297247D01*
X139557142Y-94454819D02*
X139223809Y-93978628D01*
X138985714Y-94454819D02*
X138985714Y-93454819D01*
X138985714Y-93454819D02*
X139366666Y-93454819D01*
X139366666Y-93454819D02*
X139461904Y-93502438D01*
X139461904Y-93502438D02*
X139509523Y-93550057D01*
X139509523Y-93550057D02*
X139557142Y-93645295D01*
X139557142Y-93645295D02*
X139557142Y-93788152D01*
X139557142Y-93788152D02*
X139509523Y-93883390D01*
X139509523Y-93883390D02*
X139461904Y-93931009D01*
X139461904Y-93931009D02*
X139366666Y-93978628D01*
X139366666Y-93978628D02*
X138985714Y-93978628D01*
X140509523Y-94454819D02*
X139938095Y-94454819D01*
X140223809Y-94454819D02*
X140223809Y-93454819D01*
X140223809Y-93454819D02*
X140128571Y-93597676D01*
X140128571Y-93597676D02*
X140033333Y-93692914D01*
X140033333Y-93692914D02*
X139938095Y-93740533D01*
X141414285Y-93454819D02*
X140938095Y-93454819D01*
X140938095Y-93454819D02*
X140890476Y-93931009D01*
X140890476Y-93931009D02*
X140938095Y-93883390D01*
X140938095Y-93883390D02*
X141033333Y-93835771D01*
X141033333Y-93835771D02*
X141271428Y-93835771D01*
X141271428Y-93835771D02*
X141366666Y-93883390D01*
X141366666Y-93883390D02*
X141414285Y-93931009D01*
X141414285Y-93931009D02*
X141461904Y-94026247D01*
X141461904Y-94026247D02*
X141461904Y-94264342D01*
X141461904Y-94264342D02*
X141414285Y-94359580D01*
X141414285Y-94359580D02*
X141366666Y-94407200D01*
X141366666Y-94407200D02*
X141271428Y-94454819D01*
X141271428Y-94454819D02*
X141033333Y-94454819D01*
X141033333Y-94454819D02*
X140938095Y-94407200D01*
X140938095Y-94407200D02*
X140890476Y-94359580D01*
X139633333Y-108159580D02*
X139585714Y-108207200D01*
X139585714Y-108207200D02*
X139442857Y-108254819D01*
X139442857Y-108254819D02*
X139347619Y-108254819D01*
X139347619Y-108254819D02*
X139204762Y-108207200D01*
X139204762Y-108207200D02*
X139109524Y-108111961D01*
X139109524Y-108111961D02*
X139061905Y-108016723D01*
X139061905Y-108016723D02*
X139014286Y-107826247D01*
X139014286Y-107826247D02*
X139014286Y-107683390D01*
X139014286Y-107683390D02*
X139061905Y-107492914D01*
X139061905Y-107492914D02*
X139109524Y-107397676D01*
X139109524Y-107397676D02*
X139204762Y-107302438D01*
X139204762Y-107302438D02*
X139347619Y-107254819D01*
X139347619Y-107254819D02*
X139442857Y-107254819D01*
X139442857Y-107254819D02*
X139585714Y-107302438D01*
X139585714Y-107302438D02*
X139633333Y-107350057D01*
X140490476Y-107254819D02*
X140300000Y-107254819D01*
X140300000Y-107254819D02*
X140204762Y-107302438D01*
X140204762Y-107302438D02*
X140157143Y-107350057D01*
X140157143Y-107350057D02*
X140061905Y-107492914D01*
X140061905Y-107492914D02*
X140014286Y-107683390D01*
X140014286Y-107683390D02*
X140014286Y-108064342D01*
X140014286Y-108064342D02*
X140061905Y-108159580D01*
X140061905Y-108159580D02*
X140109524Y-108207200D01*
X140109524Y-108207200D02*
X140204762Y-108254819D01*
X140204762Y-108254819D02*
X140395238Y-108254819D01*
X140395238Y-108254819D02*
X140490476Y-108207200D01*
X140490476Y-108207200D02*
X140538095Y-108159580D01*
X140538095Y-108159580D02*
X140585714Y-108064342D01*
X140585714Y-108064342D02*
X140585714Y-107826247D01*
X140585714Y-107826247D02*
X140538095Y-107731009D01*
X140538095Y-107731009D02*
X140490476Y-107683390D01*
X140490476Y-107683390D02*
X140395238Y-107635771D01*
X140395238Y-107635771D02*
X140204762Y-107635771D01*
X140204762Y-107635771D02*
X140109524Y-107683390D01*
X140109524Y-107683390D02*
X140061905Y-107731009D01*
X140061905Y-107731009D02*
X140014286Y-107826247D01*
X151107905Y-129700819D02*
X151107905Y-128700819D01*
X151107905Y-128700819D02*
X151346000Y-128700819D01*
X151346000Y-128700819D02*
X151488857Y-128748438D01*
X151488857Y-128748438D02*
X151584095Y-128843676D01*
X151584095Y-128843676D02*
X151631714Y-128938914D01*
X151631714Y-128938914D02*
X151679333Y-129129390D01*
X151679333Y-129129390D02*
X151679333Y-129272247D01*
X151679333Y-129272247D02*
X151631714Y-129462723D01*
X151631714Y-129462723D02*
X151584095Y-129557961D01*
X151584095Y-129557961D02*
X151488857Y-129653200D01*
X151488857Y-129653200D02*
X151346000Y-129700819D01*
X151346000Y-129700819D02*
X151107905Y-129700819D01*
X152536476Y-129034152D02*
X152536476Y-129700819D01*
X152298381Y-128653200D02*
X152060286Y-129367485D01*
X152060286Y-129367485D02*
X152679333Y-129367485D01*
X144415905Y-67008819D02*
X144415905Y-66008819D01*
X144415905Y-66008819D02*
X144654000Y-66008819D01*
X144654000Y-66008819D02*
X144796857Y-66056438D01*
X144796857Y-66056438D02*
X144892095Y-66151676D01*
X144892095Y-66151676D02*
X144939714Y-66246914D01*
X144939714Y-66246914D02*
X144987333Y-66437390D01*
X144987333Y-66437390D02*
X144987333Y-66580247D01*
X144987333Y-66580247D02*
X144939714Y-66770723D01*
X144939714Y-66770723D02*
X144892095Y-66865961D01*
X144892095Y-66865961D02*
X144796857Y-66961200D01*
X144796857Y-66961200D02*
X144654000Y-67008819D01*
X144654000Y-67008819D02*
X144415905Y-67008819D01*
X145939714Y-67008819D02*
X145368286Y-67008819D01*
X145654000Y-67008819D02*
X145654000Y-66008819D01*
X145654000Y-66008819D02*
X145558762Y-66151676D01*
X145558762Y-66151676D02*
X145463524Y-66246914D01*
X145463524Y-66246914D02*
X145368286Y-66294533D01*
X143902287Y-129443005D02*
X143807049Y-129395386D01*
X143807049Y-129395386D02*
X143711811Y-129300148D01*
X143711811Y-129300148D02*
X143568954Y-129157290D01*
X143568954Y-129157290D02*
X143473716Y-129109671D01*
X143473716Y-129109671D02*
X143378478Y-129109671D01*
X143426097Y-129347767D02*
X143330859Y-129300148D01*
X143330859Y-129300148D02*
X143235621Y-129204909D01*
X143235621Y-129204909D02*
X143188002Y-129014433D01*
X143188002Y-129014433D02*
X143188002Y-128681100D01*
X143188002Y-128681100D02*
X143235621Y-128490624D01*
X143235621Y-128490624D02*
X143330859Y-128395386D01*
X143330859Y-128395386D02*
X143426097Y-128347767D01*
X143426097Y-128347767D02*
X143616573Y-128347767D01*
X143616573Y-128347767D02*
X143711811Y-128395386D01*
X143711811Y-128395386D02*
X143807049Y-128490624D01*
X143807049Y-128490624D02*
X143854668Y-128681100D01*
X143854668Y-128681100D02*
X143854668Y-129014433D01*
X143854668Y-129014433D02*
X143807049Y-129204909D01*
X143807049Y-129204909D02*
X143711811Y-129300148D01*
X143711811Y-129300148D02*
X143616573Y-129347767D01*
X143616573Y-129347767D02*
X143426097Y-129347767D01*
X144711811Y-128681100D02*
X144711811Y-129347767D01*
X144473716Y-128300148D02*
X144235621Y-129014433D01*
X144235621Y-129014433D02*
X144854668Y-129014433D01*
X154959580Y-126642857D02*
X155007200Y-126690476D01*
X155007200Y-126690476D02*
X155054819Y-126833333D01*
X155054819Y-126833333D02*
X155054819Y-126928571D01*
X155054819Y-126928571D02*
X155007200Y-127071428D01*
X155007200Y-127071428D02*
X154911961Y-127166666D01*
X154911961Y-127166666D02*
X154816723Y-127214285D01*
X154816723Y-127214285D02*
X154626247Y-127261904D01*
X154626247Y-127261904D02*
X154483390Y-127261904D01*
X154483390Y-127261904D02*
X154292914Y-127214285D01*
X154292914Y-127214285D02*
X154197676Y-127166666D01*
X154197676Y-127166666D02*
X154102438Y-127071428D01*
X154102438Y-127071428D02*
X154054819Y-126928571D01*
X154054819Y-126928571D02*
X154054819Y-126833333D01*
X154054819Y-126833333D02*
X154102438Y-126690476D01*
X154102438Y-126690476D02*
X154150057Y-126642857D01*
X155054819Y-125690476D02*
X155054819Y-126261904D01*
X155054819Y-125976190D02*
X154054819Y-125976190D01*
X154054819Y-125976190D02*
X154197676Y-126071428D01*
X154197676Y-126071428D02*
X154292914Y-126166666D01*
X154292914Y-126166666D02*
X154340533Y-126261904D01*
X154054819Y-124833333D02*
X154054819Y-125023809D01*
X154054819Y-125023809D02*
X154102438Y-125119047D01*
X154102438Y-125119047D02*
X154150057Y-125166666D01*
X154150057Y-125166666D02*
X154292914Y-125261904D01*
X154292914Y-125261904D02*
X154483390Y-125309523D01*
X154483390Y-125309523D02*
X154864342Y-125309523D01*
X154864342Y-125309523D02*
X154959580Y-125261904D01*
X154959580Y-125261904D02*
X155007200Y-125214285D01*
X155007200Y-125214285D02*
X155054819Y-125119047D01*
X155054819Y-125119047D02*
X155054819Y-124928571D01*
X155054819Y-124928571D02*
X155007200Y-124833333D01*
X155007200Y-124833333D02*
X154959580Y-124785714D01*
X154959580Y-124785714D02*
X154864342Y-124738095D01*
X154864342Y-124738095D02*
X154626247Y-124738095D01*
X154626247Y-124738095D02*
X154531009Y-124785714D01*
X154531009Y-124785714D02*
X154483390Y-124833333D01*
X154483390Y-124833333D02*
X154435771Y-124928571D01*
X154435771Y-124928571D02*
X154435771Y-125119047D01*
X154435771Y-125119047D02*
X154483390Y-125214285D01*
X154483390Y-125214285D02*
X154531009Y-125261904D01*
X154531009Y-125261904D02*
X154626247Y-125309523D01*
X135659580Y-61942857D02*
X135707200Y-61990476D01*
X135707200Y-61990476D02*
X135754819Y-62133333D01*
X135754819Y-62133333D02*
X135754819Y-62228571D01*
X135754819Y-62228571D02*
X135707200Y-62371428D01*
X135707200Y-62371428D02*
X135611961Y-62466666D01*
X135611961Y-62466666D02*
X135516723Y-62514285D01*
X135516723Y-62514285D02*
X135326247Y-62561904D01*
X135326247Y-62561904D02*
X135183390Y-62561904D01*
X135183390Y-62561904D02*
X134992914Y-62514285D01*
X134992914Y-62514285D02*
X134897676Y-62466666D01*
X134897676Y-62466666D02*
X134802438Y-62371428D01*
X134802438Y-62371428D02*
X134754819Y-62228571D01*
X134754819Y-62228571D02*
X134754819Y-62133333D01*
X134754819Y-62133333D02*
X134802438Y-61990476D01*
X134802438Y-61990476D02*
X134850057Y-61942857D01*
X134850057Y-61561904D02*
X134802438Y-61514285D01*
X134802438Y-61514285D02*
X134754819Y-61419047D01*
X134754819Y-61419047D02*
X134754819Y-61180952D01*
X134754819Y-61180952D02*
X134802438Y-61085714D01*
X134802438Y-61085714D02*
X134850057Y-61038095D01*
X134850057Y-61038095D02*
X134945295Y-60990476D01*
X134945295Y-60990476D02*
X135040533Y-60990476D01*
X135040533Y-60990476D02*
X135183390Y-61038095D01*
X135183390Y-61038095D02*
X135754819Y-61609523D01*
X135754819Y-61609523D02*
X135754819Y-60990476D01*
X134850057Y-60609523D02*
X134802438Y-60561904D01*
X134802438Y-60561904D02*
X134754819Y-60466666D01*
X134754819Y-60466666D02*
X134754819Y-60228571D01*
X134754819Y-60228571D02*
X134802438Y-60133333D01*
X134802438Y-60133333D02*
X134850057Y-60085714D01*
X134850057Y-60085714D02*
X134945295Y-60038095D01*
X134945295Y-60038095D02*
X135040533Y-60038095D01*
X135040533Y-60038095D02*
X135183390Y-60085714D01*
X135183390Y-60085714D02*
X135754819Y-60657142D01*
X135754819Y-60657142D02*
X135754819Y-60038095D01*
X151788261Y-124196057D02*
X151693023Y-124148438D01*
X151693023Y-124148438D02*
X151597785Y-124053200D01*
X151597785Y-124053200D02*
X151454928Y-123910342D01*
X151454928Y-123910342D02*
X151359690Y-123862723D01*
X151359690Y-123862723D02*
X151264452Y-123862723D01*
X151312071Y-124100819D02*
X151216833Y-124053200D01*
X151216833Y-124053200D02*
X151121595Y-123957961D01*
X151121595Y-123957961D02*
X151073976Y-123767485D01*
X151073976Y-123767485D02*
X151073976Y-123434152D01*
X151073976Y-123434152D02*
X151121595Y-123243676D01*
X151121595Y-123243676D02*
X151216833Y-123148438D01*
X151216833Y-123148438D02*
X151312071Y-123100819D01*
X151312071Y-123100819D02*
X151502547Y-123100819D01*
X151502547Y-123100819D02*
X151597785Y-123148438D01*
X151597785Y-123148438D02*
X151693023Y-123243676D01*
X151693023Y-123243676D02*
X151740642Y-123434152D01*
X151740642Y-123434152D02*
X151740642Y-123767485D01*
X151740642Y-123767485D02*
X151693023Y-123957961D01*
X151693023Y-123957961D02*
X151597785Y-124053200D01*
X151597785Y-124053200D02*
X151502547Y-124100819D01*
X151502547Y-124100819D02*
X151312071Y-124100819D01*
X152693023Y-124100819D02*
X152121595Y-124100819D01*
X152407309Y-124100819D02*
X152407309Y-123100819D01*
X152407309Y-123100819D02*
X152312071Y-123243676D01*
X152312071Y-123243676D02*
X152216833Y-123338914D01*
X152216833Y-123338914D02*
X152121595Y-123386533D01*
X158895666Y-127908819D02*
X158895666Y-128623104D01*
X158895666Y-128623104D02*
X158848047Y-128765961D01*
X158848047Y-128765961D02*
X158752809Y-128861200D01*
X158752809Y-128861200D02*
X158609952Y-128908819D01*
X158609952Y-128908819D02*
X158514714Y-128908819D01*
X159276619Y-127908819D02*
X159895666Y-127908819D01*
X159895666Y-127908819D02*
X159562333Y-128289771D01*
X159562333Y-128289771D02*
X159705190Y-128289771D01*
X159705190Y-128289771D02*
X159800428Y-128337390D01*
X159800428Y-128337390D02*
X159848047Y-128385009D01*
X159848047Y-128385009D02*
X159895666Y-128480247D01*
X159895666Y-128480247D02*
X159895666Y-128718342D01*
X159895666Y-128718342D02*
X159848047Y-128813580D01*
X159848047Y-128813580D02*
X159800428Y-128861200D01*
X159800428Y-128861200D02*
X159705190Y-128908819D01*
X159705190Y-128908819D02*
X159419476Y-128908819D01*
X159419476Y-128908819D02*
X159324238Y-128861200D01*
X159324238Y-128861200D02*
X159276619Y-128813580D01*
X120503142Y-118805580D02*
X120455523Y-118853200D01*
X120455523Y-118853200D02*
X120312666Y-118900819D01*
X120312666Y-118900819D02*
X120217428Y-118900819D01*
X120217428Y-118900819D02*
X120074571Y-118853200D01*
X120074571Y-118853200D02*
X119979333Y-118757961D01*
X119979333Y-118757961D02*
X119931714Y-118662723D01*
X119931714Y-118662723D02*
X119884095Y-118472247D01*
X119884095Y-118472247D02*
X119884095Y-118329390D01*
X119884095Y-118329390D02*
X119931714Y-118138914D01*
X119931714Y-118138914D02*
X119979333Y-118043676D01*
X119979333Y-118043676D02*
X120074571Y-117948438D01*
X120074571Y-117948438D02*
X120217428Y-117900819D01*
X120217428Y-117900819D02*
X120312666Y-117900819D01*
X120312666Y-117900819D02*
X120455523Y-117948438D01*
X120455523Y-117948438D02*
X120503142Y-117996057D01*
X120884095Y-117996057D02*
X120931714Y-117948438D01*
X120931714Y-117948438D02*
X121026952Y-117900819D01*
X121026952Y-117900819D02*
X121265047Y-117900819D01*
X121265047Y-117900819D02*
X121360285Y-117948438D01*
X121360285Y-117948438D02*
X121407904Y-117996057D01*
X121407904Y-117996057D02*
X121455523Y-118091295D01*
X121455523Y-118091295D02*
X121455523Y-118186533D01*
X121455523Y-118186533D02*
X121407904Y-118329390D01*
X121407904Y-118329390D02*
X120836476Y-118900819D01*
X120836476Y-118900819D02*
X121455523Y-118900819D01*
X122074571Y-117900819D02*
X122169809Y-117900819D01*
X122169809Y-117900819D02*
X122265047Y-117948438D01*
X122265047Y-117948438D02*
X122312666Y-117996057D01*
X122312666Y-117996057D02*
X122360285Y-118091295D01*
X122360285Y-118091295D02*
X122407904Y-118281771D01*
X122407904Y-118281771D02*
X122407904Y-118519866D01*
X122407904Y-118519866D02*
X122360285Y-118710342D01*
X122360285Y-118710342D02*
X122312666Y-118805580D01*
X122312666Y-118805580D02*
X122265047Y-118853200D01*
X122265047Y-118853200D02*
X122169809Y-118900819D01*
X122169809Y-118900819D02*
X122074571Y-118900819D01*
X122074571Y-118900819D02*
X121979333Y-118853200D01*
X121979333Y-118853200D02*
X121931714Y-118805580D01*
X121931714Y-118805580D02*
X121884095Y-118710342D01*
X121884095Y-118710342D02*
X121836476Y-118519866D01*
X121836476Y-118519866D02*
X121836476Y-118281771D01*
X121836476Y-118281771D02*
X121884095Y-118091295D01*
X121884095Y-118091295D02*
X121931714Y-117996057D01*
X121931714Y-117996057D02*
X121979333Y-117948438D01*
X121979333Y-117948438D02*
X122074571Y-117900819D01*
D12*
%TO.C,R11*%
X156823064Y-95411000D02*
X156368936Y-95411000D01*
X156823064Y-96881000D02*
X156368936Y-96881000D01*
D10*
%TO.C,ANT1*%
X119146000Y-135346000D02*
X122146000Y-135346000D01*
X119146000Y-145346000D02*
X119146000Y-135346000D01*
X122146000Y-135346000D02*
X122146000Y-145346000D01*
X122146000Y-145346000D02*
X119146000Y-145346000D01*
D12*
%TO.C,R14*%
X143172936Y-95365000D02*
X143627064Y-95365000D01*
X143172936Y-96835000D02*
X143627064Y-96835000D01*
%TO.C,R9*%
X162418936Y-97664333D02*
X162873064Y-97664333D01*
X162418936Y-99134333D02*
X162873064Y-99134333D01*
%TO.C,R20*%
X136818936Y-125911000D02*
X137273064Y-125911000D01*
X136818936Y-127381000D02*
X137273064Y-127381000D01*
%TO.C,C15*%
X137361252Y-121065000D02*
X136838748Y-121065000D01*
X137361252Y-122535000D02*
X136838748Y-122535000D01*
%TO.C,C10*%
X140284748Y-142811000D02*
X140807252Y-142811000D01*
X140284748Y-144281000D02*
X140807252Y-144281000D01*
%TO.C,D2*%
X122715000Y-110086000D02*
X122715000Y-112006000D01*
X122715000Y-112006000D02*
X125400000Y-112006000D01*
X125400000Y-110086000D02*
X122715000Y-110086000D01*
%TO.C,R18*%
X136818936Y-130811000D02*
X137273064Y-130811000D01*
X136818936Y-132281000D02*
X137273064Y-132281000D01*
%TO.C,C21*%
X139565000Y-61088748D02*
X139565000Y-61611252D01*
X141035000Y-61088748D02*
X141035000Y-61611252D01*
%TO.C,C18*%
X150107252Y-95404333D02*
X149584748Y-95404333D01*
X150107252Y-96874333D02*
X149584748Y-96874333D01*
%TO.C,C3*%
X145286252Y-80930000D02*
X144763748Y-80930000D01*
X145286252Y-82400000D02*
X144763748Y-82400000D01*
%TO.C,R12*%
X156368936Y-90911000D02*
X156823064Y-90911000D01*
X156368936Y-92381000D02*
X156823064Y-92381000D01*
%TO.C,R7*%
X162093936Y-132836000D02*
X162548064Y-132836000D01*
X162093936Y-134306000D02*
X162548064Y-134306000D01*
%TO.C,Q5*%
X142060026Y-123836000D02*
X141410026Y-123836000D01*
X142060026Y-123836000D02*
X142710026Y-123836000D01*
X142060026Y-126956000D02*
X141410026Y-126956000D01*
X142060026Y-126956000D02*
X142710026Y-126956000D01*
X140897526Y-123886000D02*
X140657526Y-123556000D01*
X141137526Y-123556000D01*
X140897526Y-123886000D01*
G36*
X140897526Y-123886000D02*
G01*
X140657526Y-123556000D01*
X141137526Y-123556000D01*
X140897526Y-123886000D01*
G37*
%TO.C,U3*%
X144736000Y-107536000D02*
X144736000Y-107811000D01*
X144736000Y-114756000D02*
X144736000Y-114481000D01*
X145011000Y-107536000D02*
X144736000Y-107536000D01*
X145011000Y-114756000D02*
X144736000Y-114756000D01*
X151681000Y-107536000D02*
X151956000Y-107536000D01*
X151681000Y-114756000D02*
X151956000Y-114756000D01*
X151956000Y-107536000D02*
X151956000Y-107811000D01*
X151956000Y-114756000D02*
X151956000Y-114481000D01*
X144146000Y-107811000D02*
X143806000Y-107341000D01*
X144486000Y-107341000D01*
X144146000Y-107811000D01*
G36*
X144146000Y-107811000D02*
G01*
X143806000Y-107341000D01*
X144486000Y-107341000D01*
X144146000Y-107811000D01*
G37*
%TO.C,R19*%
X137273064Y-128662526D02*
X136818936Y-128662526D01*
X137273064Y-130132526D02*
X136818936Y-130132526D01*
%TO.C,C1*%
X145286252Y-77230000D02*
X144763748Y-77230000D01*
X145286252Y-78700000D02*
X144763748Y-78700000D01*
%TO.C,U2*%
X135746000Y-141036000D02*
X134946000Y-141036000D01*
X135746000Y-141036000D02*
X136546000Y-141036000D01*
X135746000Y-144156000D02*
X134946000Y-144156000D01*
X135746000Y-144156000D02*
X136546000Y-144156000D01*
X134446000Y-141086000D02*
X134206000Y-140756000D01*
X134686000Y-140756000D01*
X134446000Y-141086000D01*
G36*
X134446000Y-141086000D02*
G01*
X134206000Y-140756000D01*
X134686000Y-140756000D01*
X134446000Y-141086000D01*
G37*
%TO.C,C2*%
X162384748Y-93111000D02*
X162907252Y-93111000D01*
X162384748Y-94581000D02*
X162907252Y-94581000D01*
%TO.C,J2*%
X146880000Y-101880000D02*
X146880000Y-100500000D01*
X148260000Y-101880000D02*
X146880000Y-101880000D01*
X149530000Y-99120000D02*
X154720000Y-99120000D01*
X149530000Y-101880000D02*
X149530000Y-99120000D01*
X149530000Y-101880000D02*
X154720000Y-101880000D01*
X154720000Y-101880000D02*
X154720000Y-99120000D01*
%TO.C,C14*%
X123211000Y-116119752D02*
X123211000Y-115597248D01*
X124681000Y-116119752D02*
X124681000Y-115597248D01*
%TO.C,R10*%
X150073064Y-90881000D02*
X149618936Y-90881000D01*
X150073064Y-92351000D02*
X149618936Y-92351000D01*
%TO.C,R5*%
X145848500Y-125773064D02*
X145848500Y-125318936D01*
X147318500Y-125773064D02*
X147318500Y-125318936D01*
%TO.C,C19*%
X118111000Y-116107252D02*
X118111000Y-115584748D01*
X119581000Y-116107252D02*
X119581000Y-115584748D01*
%TO.C,C8*%
X145286252Y-83330000D02*
X144763748Y-83330000D01*
X145286252Y-84800000D02*
X144763748Y-84800000D01*
%TO.C,Q3*%
X132271000Y-114348500D02*
X131621000Y-114348500D01*
X132271000Y-114348500D02*
X132921000Y-114348500D01*
X132271000Y-117468500D02*
X131621000Y-117468500D01*
X132271000Y-117468500D02*
X132921000Y-117468500D01*
X131108500Y-114398500D02*
X130868500Y-114068500D01*
X131348500Y-114068500D01*
X131108500Y-114398500D01*
G36*
X131108500Y-114398500D02*
G01*
X130868500Y-114068500D01*
X131348500Y-114068500D01*
X131108500Y-114398500D01*
G37*
%TO.C,C13*%
X162059748Y-135136000D02*
X162582252Y-135136000D01*
X162059748Y-136606000D02*
X162582252Y-136606000D01*
D10*
%TO.C,U5*%
X118000000Y-68500000D02*
X138800000Y-68500000D01*
X118000000Y-105600000D02*
X118000000Y-68500000D01*
X138700000Y-105600000D02*
X118000000Y-105600000D01*
X138800000Y-68500000D02*
X138800000Y-105600000D01*
D13*
X120225000Y-107200000D02*
G75*
G02*
X119775000Y-107200000I-225000J0D01*
G01*
X119775000Y-107200000D02*
G75*
G02*
X120225000Y-107200000I225000J0D01*
G01*
D12*
%TO.C,R1*%
X162418936Y-90834333D02*
X162873064Y-90834333D01*
X162418936Y-92304333D02*
X162873064Y-92304333D01*
%TO.C,C11*%
X140284748Y-140161000D02*
X140807252Y-140161000D01*
X140284748Y-141631000D02*
X140807252Y-141631000D01*
D10*
%TO.C,U4*%
X118446000Y-120346000D02*
X118946000Y-120346000D01*
X118446000Y-130046000D02*
X118446000Y-120346000D01*
X118946000Y-130046000D02*
X118446000Y-130046000D01*
X128946000Y-120346000D02*
X129446000Y-120346000D01*
X129446000Y-120346000D02*
X129446000Y-130046000D01*
X129446000Y-130046000D02*
X128946000Y-130046000D01*
D13*
X130671000Y-121346000D02*
G75*
G02*
X130221000Y-121346000I-225000J0D01*
G01*
X130221000Y-121346000D02*
G75*
G02*
X130671000Y-121346000I225000J0D01*
G01*
D12*
%TO.C,L2*%
X135086596Y-64171445D02*
X134521445Y-64736596D01*
X135878555Y-64963404D02*
X135313404Y-65528555D01*
%TO.C,R17*%
X127711000Y-116085564D02*
X127711000Y-115631436D01*
X129181000Y-116085564D02*
X129181000Y-115631436D01*
%TO.C,C23*%
X132465000Y-61088748D02*
X132465000Y-61611252D01*
X133935000Y-61088748D02*
X133935000Y-61611252D01*
%TO.C,R8*%
X140161000Y-113618936D02*
X140161000Y-114073064D01*
X141631000Y-113618936D02*
X141631000Y-114073064D01*
%TO.C,C24*%
X128565000Y-61088748D02*
X128565000Y-61611252D01*
X130035000Y-61088748D02*
X130035000Y-61611252D01*
%TO.C,R3*%
X131173064Y-110311000D02*
X130718936Y-110311000D01*
X131173064Y-111781000D02*
X130718936Y-111781000D01*
%TO.C,R2*%
X162873064Y-95387666D02*
X162418936Y-95387666D01*
X162873064Y-96857666D02*
X162418936Y-96857666D01*
%TO.C,R16*%
X143777064Y-88865000D02*
X143322936Y-88865000D01*
X143777064Y-90335000D02*
X143322936Y-90335000D01*
%TO.C,C12*%
X140284748Y-137511000D02*
X140807252Y-137511000D01*
X140284748Y-138981000D02*
X140807252Y-138981000D01*
%TO.C,C25*%
X155338748Y-109965000D02*
X155861252Y-109965000D01*
X155338748Y-111435000D02*
X155861252Y-111435000D01*
%TO.C,Q2*%
X141700000Y-99240000D02*
X141050000Y-99240000D01*
X141700000Y-99240000D02*
X142350000Y-99240000D01*
X141700000Y-102360000D02*
X141050000Y-102360000D01*
X141700000Y-102360000D02*
X142350000Y-102360000D01*
X140537500Y-99290000D02*
X140297500Y-98960000D01*
X140777500Y-98960000D01*
X140537500Y-99290000D01*
G36*
X140537500Y-99290000D02*
G01*
X140297500Y-98960000D01*
X140777500Y-98960000D01*
X140537500Y-99290000D01*
G37*
D14*
%TO.C,PZ1*%
X158800000Y-138300000D02*
G75*
G02*
X146800000Y-138300000I-6000000J0D01*
G01*
X146800000Y-138300000D02*
G75*
G02*
X158800000Y-138300000I6000000J0D01*
G01*
D12*
%TO.C,U1*%
X153750000Y-78725000D02*
X153750000Y-80535000D01*
X153750000Y-89125000D02*
X153750000Y-87315000D01*
X155115000Y-78725000D02*
X153750000Y-78725000D01*
X155115000Y-89125000D02*
X153750000Y-89125000D01*
X150925000Y-80575000D02*
X150585000Y-80105000D01*
X151265000Y-80105000D01*
X150925000Y-80575000D01*
G36*
X150925000Y-80575000D02*
G01*
X150585000Y-80105000D01*
X151265000Y-80105000D01*
X150925000Y-80575000D01*
G37*
%TO.C,C9*%
X134984748Y-137511000D02*
X135507252Y-137511000D01*
X134984748Y-138981000D02*
X135507252Y-138981000D01*
%TO.C,C17*%
X156334748Y-93211000D02*
X156857252Y-93211000D01*
X156334748Y-94681000D02*
X156857252Y-94681000D01*
%TO.C,R21*%
X137273064Y-123661000D02*
X136818936Y-123661000D01*
X137273064Y-125131000D02*
X136818936Y-125131000D01*
%TO.C,L1*%
X139086596Y-65528555D02*
X138521445Y-64963404D01*
X139878555Y-64736596D02*
X139313404Y-64171445D01*
%TO.C,ANT2*%
X118634800Y-63460000D02*
X118634800Y-61460000D01*
X121140000Y-58954800D02*
X123140000Y-58954800D01*
X123140000Y-65965200D02*
X121140000Y-65965200D01*
X125645200Y-61460000D02*
X125645200Y-63460000D01*
%TO.C,Y1*%
X136946000Y-111846000D02*
X138946000Y-111846000D01*
X136946000Y-112646000D02*
X136946000Y-111846000D01*
X136946000Y-115446000D02*
X136946000Y-114446000D01*
X136946000Y-115646000D02*
X138946000Y-115646000D01*
X138946000Y-111846000D02*
X139346000Y-111846000D01*
X138946000Y-115446000D02*
X136946000Y-115446000D01*
X138946000Y-115446000D02*
X139346000Y-115446000D01*
X138946000Y-115646000D02*
X139346000Y-115646000D01*
X139346000Y-111846000D02*
X139346000Y-112646000D01*
X139346000Y-114446000D02*
X139346000Y-115446000D01*
X139346000Y-114446000D02*
X139746000Y-114446000D01*
%TO.C,L3*%
X131086596Y-65528555D02*
X130521445Y-64963404D01*
X131878555Y-64736596D02*
X131313404Y-64171445D01*
%TO.C,J1*%
X150590000Y-65040000D02*
X150590000Y-74160000D01*
X152900000Y-65040000D02*
X150590000Y-65040000D01*
X152900000Y-74160000D02*
X150590000Y-74160000D01*
X158900000Y-65040000D02*
X155900000Y-65040000D01*
X158900000Y-74160000D02*
X155900000Y-74160000D01*
X160320000Y-76860000D02*
X161660000Y-76860000D01*
X161660000Y-76860000D02*
X161660000Y-74960000D01*
X162200000Y-65040000D02*
X162200000Y-74160000D01*
X162200000Y-66600000D02*
X157400000Y-66600000D01*
X162200000Y-72600000D02*
X157400000Y-72600000D01*
X165510000Y-65040000D02*
X161900000Y-65040000D01*
X165510000Y-65040000D02*
X165510000Y-74160000D01*
X165510000Y-74160000D02*
X161900000Y-74160000D01*
X157400000Y-72600000D02*
G75*
G02*
X157400000Y-66600000I0J3000000D01*
G01*
%TO.C,C4*%
X140965000Y-72538748D02*
X140965000Y-73061252D01*
X142435000Y-72538748D02*
X142435000Y-73061252D01*
%TO.C,C7*%
X146938748Y-130965000D02*
X147461252Y-130965000D01*
X146938748Y-132435000D02*
X147461252Y-132435000D01*
%TO.C,R4*%
X131173064Y-107911000D02*
X130718936Y-107911000D01*
X131173064Y-109381000D02*
X130718936Y-109381000D01*
%TO.C,J4*%
X159280000Y-113620000D02*
X159280000Y-105780000D01*
X161930000Y-110970000D02*
X161930000Y-113620000D01*
X161930000Y-113620000D02*
X159280000Y-113620000D01*
X164580000Y-105780000D02*
X159280000Y-105780000D01*
X164580000Y-110970000D02*
X161930000Y-110970000D01*
X164580000Y-110970000D02*
X164580000Y-105780000D01*
X164580000Y-112240000D02*
X164580000Y-113620000D01*
X164580000Y-113620000D02*
X163200000Y-113620000D01*
%TO.C,D3*%
X122715000Y-107686000D02*
X122715000Y-109606000D01*
X122715000Y-109606000D02*
X125400000Y-109606000D01*
X125400000Y-107686000D02*
X122715000Y-107686000D01*
D10*
%TO.C,U6*%
X161096000Y-142996000D02*
X161096000Y-142846000D01*
X161096000Y-143006000D02*
X161246000Y-143006000D01*
X163646000Y-140296000D02*
X163796000Y-140296000D01*
X163796000Y-140296000D02*
X163796000Y-140446000D01*
X163796000Y-142996000D02*
X163646000Y-142996000D01*
X163796000Y-142996000D02*
X163796000Y-142846000D01*
D12*
X161096000Y-140296000D02*
X160736000Y-140296000D01*
X161096000Y-139936000D01*
X161096000Y-140296000D01*
G36*
X161096000Y-140296000D02*
G01*
X160736000Y-140296000D01*
X161096000Y-139936000D01*
X161096000Y-140296000D01*
G37*
%TO.C,C5*%
X155338748Y-112365000D02*
X155861252Y-112365000D01*
X155338748Y-113835000D02*
X155861252Y-113835000D01*
%TO.C,R13*%
X149618936Y-93187667D02*
X150073064Y-93187667D01*
X149618936Y-94657667D02*
X150073064Y-94657667D01*
%TO.C,R6*%
X162093936Y-130536000D02*
X162548064Y-130536000D01*
X162093936Y-132006000D02*
X162548064Y-132006000D01*
%TO.C,R15*%
X143172936Y-93165000D02*
X143627064Y-93165000D01*
X143172936Y-94635000D02*
X143627064Y-94635000D01*
%TO.C,C6*%
X140107252Y-108861000D02*
X139584748Y-108861000D01*
X140107252Y-110331000D02*
X139584748Y-110331000D01*
%TO.C,D4*%
X145523500Y-128246000D02*
X145523500Y-130246000D01*
X145523500Y-128246000D02*
X149533500Y-128246000D01*
X145523500Y-130246000D02*
X149533500Y-130246000D01*
%TO.C,D1*%
X143650000Y-74610000D02*
X143650000Y-69100000D01*
X143650000Y-74610000D02*
X146950000Y-74610000D01*
X146950000Y-74610000D02*
X146950000Y-69100000D01*
%TO.C,Q4*%
X142060026Y-128787526D02*
X141410026Y-128787526D01*
X142060026Y-128787526D02*
X142710026Y-128787526D01*
X142060026Y-131907526D02*
X141410026Y-131907526D01*
X142060026Y-131907526D02*
X142710026Y-131907526D01*
X140897526Y-128837526D02*
X140657526Y-128507526D01*
X141137526Y-128507526D01*
X140897526Y-128837526D01*
G36*
X140897526Y-128837526D02*
G01*
X140657526Y-128507526D01*
X141137526Y-128507526D01*
X140897526Y-128837526D01*
G37*
%TO.C,C16*%
X155765000Y-125838748D02*
X155765000Y-126361252D01*
X157235000Y-125838748D02*
X157235000Y-126361252D01*
%TO.C,C22*%
X136465000Y-61088748D02*
X136465000Y-61611252D01*
X137935000Y-61088748D02*
X137935000Y-61611252D01*
%TO.C,Q1*%
X150046000Y-123986000D02*
X149396000Y-123986000D01*
X150046000Y-123986000D02*
X150696000Y-123986000D01*
X150046000Y-127106000D02*
X149396000Y-127106000D01*
X150046000Y-127106000D02*
X150696000Y-127106000D01*
X148883500Y-124036000D02*
X148643500Y-123706000D01*
X149123500Y-123706000D01*
X148883500Y-124036000D01*
G36*
X148883500Y-124036000D02*
G01*
X148643500Y-123706000D01*
X149123500Y-123706000D01*
X148883500Y-124036000D01*
G37*
%TO.C,J3*%
X160415000Y-121590000D02*
X160415000Y-122640000D01*
X160415000Y-126760000D02*
X159425000Y-126760000D01*
X160415000Y-127810000D02*
X160415000Y-126760000D01*
X162915000Y-121590000D02*
X160415000Y-121590000D01*
X162915000Y-127810000D02*
X160415000Y-127810000D01*
X164885000Y-126640000D02*
X164885000Y-122760000D01*
%TO.C,C20*%
X120611000Y-116119752D02*
X120611000Y-115597248D01*
X122081000Y-116119752D02*
X122081000Y-115597248D01*
%TD*%
M02*
