%TF.GenerationSoftware,KiCad,Pcbnew,9.0.4*%
%TF.CreationDate,2025-08-21T19:00:16-05:00*%
%TF.ProjectId,ptFlex,7074466c-6578-42e6-9b69-6361645f7063,rev?*%
%TF.SameCoordinates,Original*%
%TF.FileFunction,Legend,Bot*%
%TF.FilePolarity,Positive*%
%FSLAX46Y46*%
G04 Gerber Fmt 4.6, Leading zero omitted, Abs format (unit mm)*
G04 Created by KiCad (PCBNEW 9.0.4) date 2025-08-21 19:00:16*
%MOMM*%
%LPD*%
G01*
G04 APERTURE LIST*
%ADD10C,0.150000*%
G04 APERTURE END LIST*
D10*
X162185715Y-60183264D02*
X162185715Y-61183264D01*
X162185715Y-60230883D02*
X162090477Y-60183264D01*
X162090477Y-60183264D02*
X161900001Y-60183264D01*
X161900001Y-60183264D02*
X161804763Y-60230883D01*
X161804763Y-60230883D02*
X161757144Y-60278502D01*
X161757144Y-60278502D02*
X161709525Y-60373740D01*
X161709525Y-60373740D02*
X161709525Y-60659454D01*
X161709525Y-60659454D02*
X161757144Y-60754692D01*
X161757144Y-60754692D02*
X161804763Y-60802312D01*
X161804763Y-60802312D02*
X161900001Y-60849931D01*
X161900001Y-60849931D02*
X162090477Y-60849931D01*
X162090477Y-60849931D02*
X162185715Y-60802312D01*
X161423810Y-60183264D02*
X161042858Y-60183264D01*
X161280953Y-59849931D02*
X161280953Y-60707073D01*
X161280953Y-60707073D02*
X161233334Y-60802312D01*
X161233334Y-60802312D02*
X161138096Y-60849931D01*
X161138096Y-60849931D02*
X161042858Y-60849931D01*
X160376191Y-60326121D02*
X160709524Y-60326121D01*
X160709524Y-60849931D02*
X160709524Y-59849931D01*
X160709524Y-59849931D02*
X160233334Y-59849931D01*
X159709524Y-60849931D02*
X159804762Y-60802312D01*
X159804762Y-60802312D02*
X159852381Y-60707073D01*
X159852381Y-60707073D02*
X159852381Y-59849931D01*
X158947619Y-60802312D02*
X159042857Y-60849931D01*
X159042857Y-60849931D02*
X159233333Y-60849931D01*
X159233333Y-60849931D02*
X159328571Y-60802312D01*
X159328571Y-60802312D02*
X159376190Y-60707073D01*
X159376190Y-60707073D02*
X159376190Y-60326121D01*
X159376190Y-60326121D02*
X159328571Y-60230883D01*
X159328571Y-60230883D02*
X159233333Y-60183264D01*
X159233333Y-60183264D02*
X159042857Y-60183264D01*
X159042857Y-60183264D02*
X158947619Y-60230883D01*
X158947619Y-60230883D02*
X158900000Y-60326121D01*
X158900000Y-60326121D02*
X158900000Y-60421359D01*
X158900000Y-60421359D02*
X159376190Y-60516597D01*
X158566666Y-60849931D02*
X158042857Y-60183264D01*
X158566666Y-60183264D02*
X158042857Y-60849931D01*
X157042856Y-59849931D02*
X156471428Y-59849931D01*
X156757142Y-60849931D02*
X156757142Y-59849931D01*
X156138094Y-60849931D02*
X156138094Y-60183264D01*
X156138094Y-60373740D02*
X156090475Y-60278502D01*
X156090475Y-60278502D02*
X156042856Y-60230883D01*
X156042856Y-60230883D02*
X155947618Y-60183264D01*
X155947618Y-60183264D02*
X155852380Y-60183264D01*
X155090475Y-60849931D02*
X155090475Y-60326121D01*
X155090475Y-60326121D02*
X155138094Y-60230883D01*
X155138094Y-60230883D02*
X155233332Y-60183264D01*
X155233332Y-60183264D02*
X155423808Y-60183264D01*
X155423808Y-60183264D02*
X155519046Y-60230883D01*
X155090475Y-60802312D02*
X155185713Y-60849931D01*
X155185713Y-60849931D02*
X155423808Y-60849931D01*
X155423808Y-60849931D02*
X155519046Y-60802312D01*
X155519046Y-60802312D02*
X155566665Y-60707073D01*
X155566665Y-60707073D02*
X155566665Y-60611835D01*
X155566665Y-60611835D02*
X155519046Y-60516597D01*
X155519046Y-60516597D02*
X155423808Y-60468978D01*
X155423808Y-60468978D02*
X155185713Y-60468978D01*
X155185713Y-60468978D02*
X155090475Y-60421359D01*
X154185713Y-60802312D02*
X154280951Y-60849931D01*
X154280951Y-60849931D02*
X154471427Y-60849931D01*
X154471427Y-60849931D02*
X154566665Y-60802312D01*
X154566665Y-60802312D02*
X154614284Y-60754692D01*
X154614284Y-60754692D02*
X154661903Y-60659454D01*
X154661903Y-60659454D02*
X154661903Y-60373740D01*
X154661903Y-60373740D02*
X154614284Y-60278502D01*
X154614284Y-60278502D02*
X154566665Y-60230883D01*
X154566665Y-60230883D02*
X154471427Y-60183264D01*
X154471427Y-60183264D02*
X154280951Y-60183264D01*
X154280951Y-60183264D02*
X154185713Y-60230883D01*
X153757141Y-60849931D02*
X153757141Y-59849931D01*
X153661903Y-60468978D02*
X153376189Y-60849931D01*
X153376189Y-60183264D02*
X153757141Y-60564216D01*
X152566665Y-60802312D02*
X152661903Y-60849931D01*
X152661903Y-60849931D02*
X152852379Y-60849931D01*
X152852379Y-60849931D02*
X152947617Y-60802312D01*
X152947617Y-60802312D02*
X152995236Y-60707073D01*
X152995236Y-60707073D02*
X152995236Y-60326121D01*
X152995236Y-60326121D02*
X152947617Y-60230883D01*
X152947617Y-60230883D02*
X152852379Y-60183264D01*
X152852379Y-60183264D02*
X152661903Y-60183264D01*
X152661903Y-60183264D02*
X152566665Y-60230883D01*
X152566665Y-60230883D02*
X152519046Y-60326121D01*
X152519046Y-60326121D02*
X152519046Y-60421359D01*
X152519046Y-60421359D02*
X152995236Y-60516597D01*
X152090474Y-60849931D02*
X152090474Y-60183264D01*
X152090474Y-60373740D02*
X152042855Y-60278502D01*
X152042855Y-60278502D02*
X151995236Y-60230883D01*
X151995236Y-60230883D02*
X151899998Y-60183264D01*
X151899998Y-60183264D02*
X151804760Y-60183264D01*
X150709521Y-60468978D02*
X149947617Y-60468978D01*
X148804759Y-60183264D02*
X148566664Y-60849931D01*
X148566664Y-60849931D02*
X148328569Y-60183264D01*
X147995235Y-59945169D02*
X147947616Y-59897550D01*
X147947616Y-59897550D02*
X147852378Y-59849931D01*
X147852378Y-59849931D02*
X147614283Y-59849931D01*
X147614283Y-59849931D02*
X147519045Y-59897550D01*
X147519045Y-59897550D02*
X147471426Y-59945169D01*
X147471426Y-59945169D02*
X147423807Y-60040407D01*
X147423807Y-60040407D02*
X147423807Y-60135645D01*
X147423807Y-60135645D02*
X147471426Y-60278502D01*
X147471426Y-60278502D02*
X148042854Y-60849931D01*
X148042854Y-60849931D02*
X147423807Y-60849931D01*
X146995235Y-60754692D02*
X146947616Y-60802312D01*
X146947616Y-60802312D02*
X146995235Y-60849931D01*
X146995235Y-60849931D02*
X147042854Y-60802312D01*
X147042854Y-60802312D02*
X146995235Y-60754692D01*
X146995235Y-60754692D02*
X146995235Y-60849931D01*
X146328569Y-59849931D02*
X146233331Y-59849931D01*
X146233331Y-59849931D02*
X146138093Y-59897550D01*
X146138093Y-59897550D02*
X146090474Y-59945169D01*
X146090474Y-59945169D02*
X146042855Y-60040407D01*
X146042855Y-60040407D02*
X145995236Y-60230883D01*
X145995236Y-60230883D02*
X145995236Y-60468978D01*
X145995236Y-60468978D02*
X146042855Y-60659454D01*
X146042855Y-60659454D02*
X146090474Y-60754692D01*
X146090474Y-60754692D02*
X146138093Y-60802312D01*
X146138093Y-60802312D02*
X146233331Y-60849931D01*
X146233331Y-60849931D02*
X146328569Y-60849931D01*
X146328569Y-60849931D02*
X146423807Y-60802312D01*
X146423807Y-60802312D02*
X146471426Y-60754692D01*
X146471426Y-60754692D02*
X146519045Y-60659454D01*
X146519045Y-60659454D02*
X146566664Y-60468978D01*
X146566664Y-60468978D02*
X146566664Y-60230883D01*
X146566664Y-60230883D02*
X146519045Y-60040407D01*
X146519045Y-60040407D02*
X146471426Y-59945169D01*
X146471426Y-59945169D02*
X146423807Y-59897550D01*
X146423807Y-59897550D02*
X146328569Y-59849931D01*
X145566664Y-60754692D02*
X145519045Y-60802312D01*
X145519045Y-60802312D02*
X145566664Y-60849931D01*
X145566664Y-60849931D02*
X145614283Y-60802312D01*
X145614283Y-60802312D02*
X145566664Y-60754692D01*
X145566664Y-60754692D02*
X145566664Y-60849931D01*
X144566665Y-60849931D02*
X145138093Y-60849931D01*
X144852379Y-60849931D02*
X144852379Y-59849931D01*
X144852379Y-59849931D02*
X144947617Y-59992788D01*
X144947617Y-59992788D02*
X145042855Y-60088026D01*
X145042855Y-60088026D02*
X145138093Y-60135645D01*
X163566667Y-62364636D02*
X163614286Y-62412256D01*
X163614286Y-62412256D02*
X163757143Y-62459875D01*
X163757143Y-62459875D02*
X163852381Y-62459875D01*
X163852381Y-62459875D02*
X163995238Y-62412256D01*
X163995238Y-62412256D02*
X164090476Y-62317017D01*
X164090476Y-62317017D02*
X164138095Y-62221779D01*
X164138095Y-62221779D02*
X164185714Y-62031303D01*
X164185714Y-62031303D02*
X164185714Y-61888446D01*
X164185714Y-61888446D02*
X164138095Y-61697970D01*
X164138095Y-61697970D02*
X164090476Y-61602732D01*
X164090476Y-61602732D02*
X163995238Y-61507494D01*
X163995238Y-61507494D02*
X163852381Y-61459875D01*
X163852381Y-61459875D02*
X163757143Y-61459875D01*
X163757143Y-61459875D02*
X163614286Y-61507494D01*
X163614286Y-61507494D02*
X163566667Y-61555113D01*
X162709524Y-61793208D02*
X162709524Y-62459875D01*
X163138095Y-61793208D02*
X163138095Y-62317017D01*
X163138095Y-62317017D02*
X163090476Y-62412256D01*
X163090476Y-62412256D02*
X162995238Y-62459875D01*
X162995238Y-62459875D02*
X162852381Y-62459875D01*
X162852381Y-62459875D02*
X162757143Y-62412256D01*
X162757143Y-62412256D02*
X162709524Y-62364636D01*
X162280952Y-62412256D02*
X162185714Y-62459875D01*
X162185714Y-62459875D02*
X161995238Y-62459875D01*
X161995238Y-62459875D02*
X161900000Y-62412256D01*
X161900000Y-62412256D02*
X161852381Y-62317017D01*
X161852381Y-62317017D02*
X161852381Y-62269398D01*
X161852381Y-62269398D02*
X161900000Y-62174160D01*
X161900000Y-62174160D02*
X161995238Y-62126541D01*
X161995238Y-62126541D02*
X162138095Y-62126541D01*
X162138095Y-62126541D02*
X162233333Y-62078922D01*
X162233333Y-62078922D02*
X162280952Y-61983684D01*
X162280952Y-61983684D02*
X162280952Y-61936065D01*
X162280952Y-61936065D02*
X162233333Y-61840827D01*
X162233333Y-61840827D02*
X162138095Y-61793208D01*
X162138095Y-61793208D02*
X161995238Y-61793208D01*
X161995238Y-61793208D02*
X161900000Y-61840827D01*
X161566666Y-61793208D02*
X161185714Y-61793208D01*
X161423809Y-61459875D02*
X161423809Y-62317017D01*
X161423809Y-62317017D02*
X161376190Y-62412256D01*
X161376190Y-62412256D02*
X161280952Y-62459875D01*
X161280952Y-62459875D02*
X161185714Y-62459875D01*
X160709523Y-62459875D02*
X160804761Y-62412256D01*
X160804761Y-62412256D02*
X160852380Y-62364636D01*
X160852380Y-62364636D02*
X160899999Y-62269398D01*
X160899999Y-62269398D02*
X160899999Y-61983684D01*
X160899999Y-61983684D02*
X160852380Y-61888446D01*
X160852380Y-61888446D02*
X160804761Y-61840827D01*
X160804761Y-61840827D02*
X160709523Y-61793208D01*
X160709523Y-61793208D02*
X160566666Y-61793208D01*
X160566666Y-61793208D02*
X160471428Y-61840827D01*
X160471428Y-61840827D02*
X160423809Y-61888446D01*
X160423809Y-61888446D02*
X160376190Y-61983684D01*
X160376190Y-61983684D02*
X160376190Y-62269398D01*
X160376190Y-62269398D02*
X160423809Y-62364636D01*
X160423809Y-62364636D02*
X160471428Y-62412256D01*
X160471428Y-62412256D02*
X160566666Y-62459875D01*
X160566666Y-62459875D02*
X160709523Y-62459875D01*
X159947618Y-62459875D02*
X159947618Y-61793208D01*
X159947618Y-61888446D02*
X159899999Y-61840827D01*
X159899999Y-61840827D02*
X159804761Y-61793208D01*
X159804761Y-61793208D02*
X159661904Y-61793208D01*
X159661904Y-61793208D02*
X159566666Y-61840827D01*
X159566666Y-61840827D02*
X159519047Y-61936065D01*
X159519047Y-61936065D02*
X159519047Y-62459875D01*
X159519047Y-61936065D02*
X159471428Y-61840827D01*
X159471428Y-61840827D02*
X159376190Y-61793208D01*
X159376190Y-61793208D02*
X159233333Y-61793208D01*
X159233333Y-61793208D02*
X159138094Y-61840827D01*
X159138094Y-61840827D02*
X159090475Y-61936065D01*
X159090475Y-61936065D02*
X159090475Y-62459875D01*
X157852380Y-62459875D02*
X157852380Y-61459875D01*
X157852380Y-61459875D02*
X157614285Y-61459875D01*
X157614285Y-61459875D02*
X157471428Y-61507494D01*
X157471428Y-61507494D02*
X157376190Y-61602732D01*
X157376190Y-61602732D02*
X157328571Y-61697970D01*
X157328571Y-61697970D02*
X157280952Y-61888446D01*
X157280952Y-61888446D02*
X157280952Y-62031303D01*
X157280952Y-62031303D02*
X157328571Y-62221779D01*
X157328571Y-62221779D02*
X157376190Y-62317017D01*
X157376190Y-62317017D02*
X157471428Y-62412256D01*
X157471428Y-62412256D02*
X157614285Y-62459875D01*
X157614285Y-62459875D02*
X157852380Y-62459875D01*
X156852380Y-62459875D02*
X156852380Y-61793208D01*
X156852380Y-61459875D02*
X156899999Y-61507494D01*
X156899999Y-61507494D02*
X156852380Y-61555113D01*
X156852380Y-61555113D02*
X156804761Y-61507494D01*
X156804761Y-61507494D02*
X156852380Y-61459875D01*
X156852380Y-61459875D02*
X156852380Y-61555113D01*
X155947619Y-61793208D02*
X155947619Y-62602732D01*
X155947619Y-62602732D02*
X155995238Y-62697970D01*
X155995238Y-62697970D02*
X156042857Y-62745589D01*
X156042857Y-62745589D02*
X156138095Y-62793208D01*
X156138095Y-62793208D02*
X156280952Y-62793208D01*
X156280952Y-62793208D02*
X156376190Y-62745589D01*
X155947619Y-62412256D02*
X156042857Y-62459875D01*
X156042857Y-62459875D02*
X156233333Y-62459875D01*
X156233333Y-62459875D02*
X156328571Y-62412256D01*
X156328571Y-62412256D02*
X156376190Y-62364636D01*
X156376190Y-62364636D02*
X156423809Y-62269398D01*
X156423809Y-62269398D02*
X156423809Y-61983684D01*
X156423809Y-61983684D02*
X156376190Y-61888446D01*
X156376190Y-61888446D02*
X156328571Y-61840827D01*
X156328571Y-61840827D02*
X156233333Y-61793208D01*
X156233333Y-61793208D02*
X156042857Y-61793208D01*
X156042857Y-61793208D02*
X155947619Y-61840827D01*
X155471428Y-62459875D02*
X155471428Y-61793208D01*
X155471428Y-61459875D02*
X155519047Y-61507494D01*
X155519047Y-61507494D02*
X155471428Y-61555113D01*
X155471428Y-61555113D02*
X155423809Y-61507494D01*
X155423809Y-61507494D02*
X155471428Y-61459875D01*
X155471428Y-61459875D02*
X155471428Y-61555113D01*
X155138095Y-61793208D02*
X154757143Y-61793208D01*
X154995238Y-61459875D02*
X154995238Y-62317017D01*
X154995238Y-62317017D02*
X154947619Y-62412256D01*
X154947619Y-62412256D02*
X154852381Y-62459875D01*
X154852381Y-62459875D02*
X154757143Y-62459875D01*
X153995238Y-62459875D02*
X153995238Y-61936065D01*
X153995238Y-61936065D02*
X154042857Y-61840827D01*
X154042857Y-61840827D02*
X154138095Y-61793208D01*
X154138095Y-61793208D02*
X154328571Y-61793208D01*
X154328571Y-61793208D02*
X154423809Y-61840827D01*
X153995238Y-62412256D02*
X154090476Y-62459875D01*
X154090476Y-62459875D02*
X154328571Y-62459875D01*
X154328571Y-62459875D02*
X154423809Y-62412256D01*
X154423809Y-62412256D02*
X154471428Y-62317017D01*
X154471428Y-62317017D02*
X154471428Y-62221779D01*
X154471428Y-62221779D02*
X154423809Y-62126541D01*
X154423809Y-62126541D02*
X154328571Y-62078922D01*
X154328571Y-62078922D02*
X154090476Y-62078922D01*
X154090476Y-62078922D02*
X153995238Y-62031303D01*
X153376190Y-62459875D02*
X153471428Y-62412256D01*
X153471428Y-62412256D02*
X153519047Y-62317017D01*
X153519047Y-62317017D02*
X153519047Y-61459875D01*
X152280951Y-62412256D02*
X152138094Y-62459875D01*
X152138094Y-62459875D02*
X151899999Y-62459875D01*
X151899999Y-62459875D02*
X151804761Y-62412256D01*
X151804761Y-62412256D02*
X151757142Y-62364636D01*
X151757142Y-62364636D02*
X151709523Y-62269398D01*
X151709523Y-62269398D02*
X151709523Y-62174160D01*
X151709523Y-62174160D02*
X151757142Y-62078922D01*
X151757142Y-62078922D02*
X151804761Y-62031303D01*
X151804761Y-62031303D02*
X151899999Y-61983684D01*
X151899999Y-61983684D02*
X152090475Y-61936065D01*
X152090475Y-61936065D02*
X152185713Y-61888446D01*
X152185713Y-61888446D02*
X152233332Y-61840827D01*
X152233332Y-61840827D02*
X152280951Y-61745589D01*
X152280951Y-61745589D02*
X152280951Y-61650351D01*
X152280951Y-61650351D02*
X152233332Y-61555113D01*
X152233332Y-61555113D02*
X152185713Y-61507494D01*
X152185713Y-61507494D02*
X152090475Y-61459875D01*
X152090475Y-61459875D02*
X151852380Y-61459875D01*
X151852380Y-61459875D02*
X151709523Y-61507494D01*
X150899999Y-62412256D02*
X150995237Y-62459875D01*
X150995237Y-62459875D02*
X151185713Y-62459875D01*
X151185713Y-62459875D02*
X151280951Y-62412256D01*
X151280951Y-62412256D02*
X151328570Y-62317017D01*
X151328570Y-62317017D02*
X151328570Y-61936065D01*
X151328570Y-61936065D02*
X151280951Y-61840827D01*
X151280951Y-61840827D02*
X151185713Y-61793208D01*
X151185713Y-61793208D02*
X150995237Y-61793208D01*
X150995237Y-61793208D02*
X150899999Y-61840827D01*
X150899999Y-61840827D02*
X150852380Y-61936065D01*
X150852380Y-61936065D02*
X150852380Y-62031303D01*
X150852380Y-62031303D02*
X151328570Y-62126541D01*
X150423808Y-62459875D02*
X150423808Y-61793208D01*
X150423808Y-61983684D02*
X150376189Y-61888446D01*
X150376189Y-61888446D02*
X150328570Y-61840827D01*
X150328570Y-61840827D02*
X150233332Y-61793208D01*
X150233332Y-61793208D02*
X150138094Y-61793208D01*
X149899998Y-61793208D02*
X149661903Y-62459875D01*
X149661903Y-62459875D02*
X149423808Y-61793208D01*
X149042855Y-62459875D02*
X149042855Y-61793208D01*
X149042855Y-61459875D02*
X149090474Y-61507494D01*
X149090474Y-61507494D02*
X149042855Y-61555113D01*
X149042855Y-61555113D02*
X148995236Y-61507494D01*
X148995236Y-61507494D02*
X149042855Y-61459875D01*
X149042855Y-61459875D02*
X149042855Y-61555113D01*
X148138094Y-62412256D02*
X148233332Y-62459875D01*
X148233332Y-62459875D02*
X148423808Y-62459875D01*
X148423808Y-62459875D02*
X148519046Y-62412256D01*
X148519046Y-62412256D02*
X148566665Y-62364636D01*
X148566665Y-62364636D02*
X148614284Y-62269398D01*
X148614284Y-62269398D02*
X148614284Y-61983684D01*
X148614284Y-61983684D02*
X148566665Y-61888446D01*
X148566665Y-61888446D02*
X148519046Y-61840827D01*
X148519046Y-61840827D02*
X148423808Y-61793208D01*
X148423808Y-61793208D02*
X148233332Y-61793208D01*
X148233332Y-61793208D02*
X148138094Y-61840827D01*
X147328570Y-62412256D02*
X147423808Y-62459875D01*
X147423808Y-62459875D02*
X147614284Y-62459875D01*
X147614284Y-62459875D02*
X147709522Y-62412256D01*
X147709522Y-62412256D02*
X147757141Y-62317017D01*
X147757141Y-62317017D02*
X147757141Y-61936065D01*
X147757141Y-61936065D02*
X147709522Y-61840827D01*
X147709522Y-61840827D02*
X147614284Y-61793208D01*
X147614284Y-61793208D02*
X147423808Y-61793208D01*
X147423808Y-61793208D02*
X147328570Y-61840827D01*
X147328570Y-61840827D02*
X147280951Y-61936065D01*
X147280951Y-61936065D02*
X147280951Y-62031303D01*
X147280951Y-62031303D02*
X147757141Y-62126541D01*
X146899998Y-62412256D02*
X146804760Y-62459875D01*
X146804760Y-62459875D02*
X146614284Y-62459875D01*
X146614284Y-62459875D02*
X146519046Y-62412256D01*
X146519046Y-62412256D02*
X146471427Y-62317017D01*
X146471427Y-62317017D02*
X146471427Y-62269398D01*
X146471427Y-62269398D02*
X146519046Y-62174160D01*
X146519046Y-62174160D02*
X146614284Y-62126541D01*
X146614284Y-62126541D02*
X146757141Y-62126541D01*
X146757141Y-62126541D02*
X146852379Y-62078922D01*
X146852379Y-62078922D02*
X146899998Y-61983684D01*
X146899998Y-61983684D02*
X146899998Y-61936065D01*
X146899998Y-61936065D02*
X146852379Y-61840827D01*
X146852379Y-61840827D02*
X146757141Y-61793208D01*
X146757141Y-61793208D02*
X146614284Y-61793208D01*
X146614284Y-61793208D02*
X146519046Y-61840827D01*
X145995236Y-62412256D02*
X145995236Y-62459875D01*
X145995236Y-62459875D02*
X146042855Y-62555113D01*
X146042855Y-62555113D02*
X146090474Y-62602732D01*
X144328570Y-62459875D02*
X144804760Y-62459875D01*
X144804760Y-62459875D02*
X144804760Y-61459875D01*
X143519046Y-62459875D02*
X143995236Y-62459875D01*
X143995236Y-62459875D02*
X143995236Y-61459875D01*
X142614284Y-62364636D02*
X142661903Y-62412256D01*
X142661903Y-62412256D02*
X142804760Y-62459875D01*
X142804760Y-62459875D02*
X142899998Y-62459875D01*
X142899998Y-62459875D02*
X143042855Y-62412256D01*
X143042855Y-62412256D02*
X143138093Y-62317017D01*
X143138093Y-62317017D02*
X143185712Y-62221779D01*
X143185712Y-62221779D02*
X143233331Y-62031303D01*
X143233331Y-62031303D02*
X143233331Y-61888446D01*
X143233331Y-61888446D02*
X143185712Y-61697970D01*
X143185712Y-61697970D02*
X143138093Y-61602732D01*
X143138093Y-61602732D02*
X143042855Y-61507494D01*
X143042855Y-61507494D02*
X142899998Y-61459875D01*
X142899998Y-61459875D02*
X142804760Y-61459875D01*
X142804760Y-61459875D02*
X142661903Y-61507494D01*
X142661903Y-61507494D02*
X142614284Y-61555113D01*
X161019046Y-63403152D02*
X160828570Y-64069819D01*
X160828570Y-64069819D02*
X160638094Y-63593628D01*
X160638094Y-63593628D02*
X160447618Y-64069819D01*
X160447618Y-64069819D02*
X160257142Y-63403152D01*
X159971427Y-63403152D02*
X159780951Y-64069819D01*
X159780951Y-64069819D02*
X159590475Y-63593628D01*
X159590475Y-63593628D02*
X159399999Y-64069819D01*
X159399999Y-64069819D02*
X159209523Y-63403152D01*
X158923808Y-63403152D02*
X158733332Y-64069819D01*
X158733332Y-64069819D02*
X158542856Y-63593628D01*
X158542856Y-63593628D02*
X158352380Y-64069819D01*
X158352380Y-64069819D02*
X158161904Y-63403152D01*
X157780951Y-63974580D02*
X157733332Y-64022200D01*
X157733332Y-64022200D02*
X157780951Y-64069819D01*
X157780951Y-64069819D02*
X157828570Y-64022200D01*
X157828570Y-64022200D02*
X157780951Y-63974580D01*
X157780951Y-63974580D02*
X157780951Y-64069819D01*
X156876190Y-64022200D02*
X156971428Y-64069819D01*
X156971428Y-64069819D02*
X157161904Y-64069819D01*
X157161904Y-64069819D02*
X157257142Y-64022200D01*
X157257142Y-64022200D02*
X157304761Y-63974580D01*
X157304761Y-63974580D02*
X157352380Y-63879342D01*
X157352380Y-63879342D02*
X157352380Y-63593628D01*
X157352380Y-63593628D02*
X157304761Y-63498390D01*
X157304761Y-63498390D02*
X157257142Y-63450771D01*
X157257142Y-63450771D02*
X157161904Y-63403152D01*
X157161904Y-63403152D02*
X156971428Y-63403152D01*
X156971428Y-63403152D02*
X156876190Y-63450771D01*
X156019047Y-63403152D02*
X156019047Y-64069819D01*
X156447618Y-63403152D02*
X156447618Y-63926961D01*
X156447618Y-63926961D02*
X156399999Y-64022200D01*
X156399999Y-64022200D02*
X156304761Y-64069819D01*
X156304761Y-64069819D02*
X156161904Y-64069819D01*
X156161904Y-64069819D02*
X156066666Y-64022200D01*
X156066666Y-64022200D02*
X156019047Y-63974580D01*
X155590475Y-64022200D02*
X155495237Y-64069819D01*
X155495237Y-64069819D02*
X155304761Y-64069819D01*
X155304761Y-64069819D02*
X155209523Y-64022200D01*
X155209523Y-64022200D02*
X155161904Y-63926961D01*
X155161904Y-63926961D02*
X155161904Y-63879342D01*
X155161904Y-63879342D02*
X155209523Y-63784104D01*
X155209523Y-63784104D02*
X155304761Y-63736485D01*
X155304761Y-63736485D02*
X155447618Y-63736485D01*
X155447618Y-63736485D02*
X155542856Y-63688866D01*
X155542856Y-63688866D02*
X155590475Y-63593628D01*
X155590475Y-63593628D02*
X155590475Y-63546009D01*
X155590475Y-63546009D02*
X155542856Y-63450771D01*
X155542856Y-63450771D02*
X155447618Y-63403152D01*
X155447618Y-63403152D02*
X155304761Y-63403152D01*
X155304761Y-63403152D02*
X155209523Y-63450771D01*
X154876189Y-63403152D02*
X154495237Y-63403152D01*
X154733332Y-63069819D02*
X154733332Y-63926961D01*
X154733332Y-63926961D02*
X154685713Y-64022200D01*
X154685713Y-64022200D02*
X154590475Y-64069819D01*
X154590475Y-64069819D02*
X154495237Y-64069819D01*
X154019046Y-64069819D02*
X154114284Y-64022200D01*
X154114284Y-64022200D02*
X154161903Y-63974580D01*
X154161903Y-63974580D02*
X154209522Y-63879342D01*
X154209522Y-63879342D02*
X154209522Y-63593628D01*
X154209522Y-63593628D02*
X154161903Y-63498390D01*
X154161903Y-63498390D02*
X154114284Y-63450771D01*
X154114284Y-63450771D02*
X154019046Y-63403152D01*
X154019046Y-63403152D02*
X153876189Y-63403152D01*
X153876189Y-63403152D02*
X153780951Y-63450771D01*
X153780951Y-63450771D02*
X153733332Y-63498390D01*
X153733332Y-63498390D02*
X153685713Y-63593628D01*
X153685713Y-63593628D02*
X153685713Y-63879342D01*
X153685713Y-63879342D02*
X153733332Y-63974580D01*
X153733332Y-63974580D02*
X153780951Y-64022200D01*
X153780951Y-64022200D02*
X153876189Y-64069819D01*
X153876189Y-64069819D02*
X154019046Y-64069819D01*
X153257141Y-64069819D02*
X153257141Y-63403152D01*
X153257141Y-63498390D02*
X153209522Y-63450771D01*
X153209522Y-63450771D02*
X153114284Y-63403152D01*
X153114284Y-63403152D02*
X152971427Y-63403152D01*
X152971427Y-63403152D02*
X152876189Y-63450771D01*
X152876189Y-63450771D02*
X152828570Y-63546009D01*
X152828570Y-63546009D02*
X152828570Y-64069819D01*
X152828570Y-63546009D02*
X152780951Y-63450771D01*
X152780951Y-63450771D02*
X152685713Y-63403152D01*
X152685713Y-63403152D02*
X152542856Y-63403152D01*
X152542856Y-63403152D02*
X152447617Y-63450771D01*
X152447617Y-63450771D02*
X152399998Y-63546009D01*
X152399998Y-63546009D02*
X152399998Y-64069819D01*
X151923808Y-63688866D02*
X151161904Y-63688866D01*
X150257142Y-64069819D02*
X150257142Y-63069819D01*
X150257142Y-64022200D02*
X150352380Y-64069819D01*
X150352380Y-64069819D02*
X150542856Y-64069819D01*
X150542856Y-64069819D02*
X150638094Y-64022200D01*
X150638094Y-64022200D02*
X150685713Y-63974580D01*
X150685713Y-63974580D02*
X150733332Y-63879342D01*
X150733332Y-63879342D02*
X150733332Y-63593628D01*
X150733332Y-63593628D02*
X150685713Y-63498390D01*
X150685713Y-63498390D02*
X150638094Y-63450771D01*
X150638094Y-63450771D02*
X150542856Y-63403152D01*
X150542856Y-63403152D02*
X150352380Y-63403152D01*
X150352380Y-63403152D02*
X150257142Y-63450771D01*
X149828570Y-64022200D02*
X149733332Y-64069819D01*
X149733332Y-64069819D02*
X149542856Y-64069819D01*
X149542856Y-64069819D02*
X149447618Y-64022200D01*
X149447618Y-64022200D02*
X149399999Y-63926961D01*
X149399999Y-63926961D02*
X149399999Y-63879342D01*
X149399999Y-63879342D02*
X149447618Y-63784104D01*
X149447618Y-63784104D02*
X149542856Y-63736485D01*
X149542856Y-63736485D02*
X149685713Y-63736485D01*
X149685713Y-63736485D02*
X149780951Y-63688866D01*
X149780951Y-63688866D02*
X149828570Y-63593628D01*
X149828570Y-63593628D02*
X149828570Y-63546009D01*
X149828570Y-63546009D02*
X149780951Y-63450771D01*
X149780951Y-63450771D02*
X149685713Y-63403152D01*
X149685713Y-63403152D02*
X149542856Y-63403152D01*
X149542856Y-63403152D02*
X149447618Y-63450771D01*
X148971427Y-63974580D02*
X148923808Y-64022200D01*
X148923808Y-64022200D02*
X148971427Y-64069819D01*
X148971427Y-64069819D02*
X149019046Y-64022200D01*
X149019046Y-64022200D02*
X148971427Y-63974580D01*
X148971427Y-63974580D02*
X148971427Y-64069819D01*
X148066666Y-64022200D02*
X148161904Y-64069819D01*
X148161904Y-64069819D02*
X148352380Y-64069819D01*
X148352380Y-64069819D02*
X148447618Y-64022200D01*
X148447618Y-64022200D02*
X148495237Y-63974580D01*
X148495237Y-63974580D02*
X148542856Y-63879342D01*
X148542856Y-63879342D02*
X148542856Y-63593628D01*
X148542856Y-63593628D02*
X148495237Y-63498390D01*
X148495237Y-63498390D02*
X148447618Y-63450771D01*
X148447618Y-63450771D02*
X148352380Y-63403152D01*
X148352380Y-63403152D02*
X148161904Y-63403152D01*
X148161904Y-63403152D02*
X148066666Y-63450771D01*
X147495237Y-64069819D02*
X147590475Y-64022200D01*
X147590475Y-64022200D02*
X147638094Y-63974580D01*
X147638094Y-63974580D02*
X147685713Y-63879342D01*
X147685713Y-63879342D02*
X147685713Y-63593628D01*
X147685713Y-63593628D02*
X147638094Y-63498390D01*
X147638094Y-63498390D02*
X147590475Y-63450771D01*
X147590475Y-63450771D02*
X147495237Y-63403152D01*
X147495237Y-63403152D02*
X147352380Y-63403152D01*
X147352380Y-63403152D02*
X147257142Y-63450771D01*
X147257142Y-63450771D02*
X147209523Y-63498390D01*
X147209523Y-63498390D02*
X147161904Y-63593628D01*
X147161904Y-63593628D02*
X147161904Y-63879342D01*
X147161904Y-63879342D02*
X147209523Y-63974580D01*
X147209523Y-63974580D02*
X147257142Y-64022200D01*
X147257142Y-64022200D02*
X147352380Y-64069819D01*
X147352380Y-64069819D02*
X147495237Y-64069819D01*
X146733332Y-64069819D02*
X146733332Y-63403152D01*
X146733332Y-63498390D02*
X146685713Y-63450771D01*
X146685713Y-63450771D02*
X146590475Y-63403152D01*
X146590475Y-63403152D02*
X146447618Y-63403152D01*
X146447618Y-63403152D02*
X146352380Y-63450771D01*
X146352380Y-63450771D02*
X146304761Y-63546009D01*
X146304761Y-63546009D02*
X146304761Y-64069819D01*
X146304761Y-63546009D02*
X146257142Y-63450771D01*
X146257142Y-63450771D02*
X146161904Y-63403152D01*
X146161904Y-63403152D02*
X146019047Y-63403152D01*
X146019047Y-63403152D02*
X145923808Y-63450771D01*
X145923808Y-63450771D02*
X145876189Y-63546009D01*
X145876189Y-63546009D02*
X145876189Y-64069819D01*
M02*
