%TF.GenerationSoftware,KiCad,Pcbnew,9.0.0*%
%TF.CreationDate,2025-06-23T20:21:27-05:00*%
%TF.ProjectId,ptFlex,7074466c-6578-42e6-9b69-6361645f7063,rev?*%
%TF.SameCoordinates,Original*%
%TF.FileFunction,Legend,Top*%
%TF.FilePolarity,Positive*%
%FSLAX46Y46*%
G04 Gerber Fmt 4.6, Leading zero omitted, Abs format (unit mm)*
G04 Created by KiCad (PCBNEW 9.0.0) date 2025-06-23 20:21:27*
%MOMM*%
%LPD*%
G01*
G04 APERTURE LIST*
%ADD10C,0.100000*%
%ADD11C,0.200000*%
%ADD12C,0.150000*%
%ADD13C,0.127000*%
%ADD14C,0.120000*%
%ADD15C,0.450000*%
G04 APERTURE END LIST*
D10*
X156410000Y-103950000D02*
X157910000Y-103950000D01*
X157210000Y-103550000D02*
X158210000Y-103550000D01*
X151700000Y-88100000D02*
X151700000Y-86000000D01*
D11*
X150060000Y-102550000D02*
X158060000Y-102550000D01*
D10*
X148000000Y-88100000D02*
X151700000Y-88100000D01*
X151700000Y-86000000D02*
X148000000Y-86000000D01*
X148000000Y-86000000D02*
X148000000Y-88100000D01*
X157210000Y-103550000D02*
X156210000Y-103550000D01*
X164046000Y-115846000D02*
X163046000Y-115846000D01*
X163546000Y-114846000D01*
X164046000Y-115846000D01*
G36*
X164046000Y-115846000D02*
G01*
X163046000Y-115846000D01*
X163546000Y-114846000D01*
X164046000Y-115846000D01*
G37*
X156810000Y-104350000D02*
X157560000Y-104350000D01*
X157210000Y-103050000D02*
X157210000Y-103550000D01*
D12*
X153711350Y-69915819D02*
X153520874Y-69915819D01*
X153520874Y-69915819D02*
X153425636Y-69963438D01*
X153425636Y-69963438D02*
X153378017Y-70011057D01*
X153378017Y-70011057D02*
X153282779Y-70153914D01*
X153282779Y-70153914D02*
X153235160Y-70344390D01*
X153235160Y-70344390D02*
X153235160Y-70725342D01*
X153235160Y-70725342D02*
X153282779Y-70820580D01*
X153282779Y-70820580D02*
X153330398Y-70868200D01*
X153330398Y-70868200D02*
X153425636Y-70915819D01*
X153425636Y-70915819D02*
X153616112Y-70915819D01*
X153616112Y-70915819D02*
X153711350Y-70868200D01*
X153711350Y-70868200D02*
X153758969Y-70820580D01*
X153758969Y-70820580D02*
X153806588Y-70725342D01*
X153806588Y-70725342D02*
X153806588Y-70487247D01*
X153806588Y-70487247D02*
X153758969Y-70392009D01*
X153758969Y-70392009D02*
X153711350Y-70344390D01*
X153711350Y-70344390D02*
X153616112Y-70296771D01*
X153616112Y-70296771D02*
X153425636Y-70296771D01*
X153425636Y-70296771D02*
X153330398Y-70344390D01*
X153330398Y-70344390D02*
X153282779Y-70392009D01*
X153282779Y-70392009D02*
X153235160Y-70487247D01*
X154235160Y-70820580D02*
X154282779Y-70868200D01*
X154282779Y-70868200D02*
X154235160Y-70915819D01*
X154235160Y-70915819D02*
X154187541Y-70868200D01*
X154187541Y-70868200D02*
X154235160Y-70820580D01*
X154235160Y-70820580D02*
X154235160Y-70915819D01*
X155187540Y-69915819D02*
X154711350Y-69915819D01*
X154711350Y-69915819D02*
X154663731Y-70392009D01*
X154663731Y-70392009D02*
X154711350Y-70344390D01*
X154711350Y-70344390D02*
X154806588Y-70296771D01*
X154806588Y-70296771D02*
X155044683Y-70296771D01*
X155044683Y-70296771D02*
X155139921Y-70344390D01*
X155139921Y-70344390D02*
X155187540Y-70392009D01*
X155187540Y-70392009D02*
X155235159Y-70487247D01*
X155235159Y-70487247D02*
X155235159Y-70725342D01*
X155235159Y-70725342D02*
X155187540Y-70820580D01*
X155187540Y-70820580D02*
X155139921Y-70868200D01*
X155139921Y-70868200D02*
X155044683Y-70915819D01*
X155044683Y-70915819D02*
X154806588Y-70915819D01*
X154806588Y-70915819D02*
X154711350Y-70868200D01*
X154711350Y-70868200D02*
X154663731Y-70820580D01*
X155663731Y-70534866D02*
X156425636Y-70534866D01*
X157425635Y-70915819D02*
X156854207Y-70915819D01*
X157139921Y-70915819D02*
X157139921Y-69915819D01*
X157139921Y-69915819D02*
X157044683Y-70058676D01*
X157044683Y-70058676D02*
X156949445Y-70153914D01*
X156949445Y-70153914D02*
X156854207Y-70201533D01*
X158282778Y-70249152D02*
X158282778Y-70915819D01*
X158044683Y-69868200D02*
X157806588Y-70582485D01*
X157806588Y-70582485D02*
X158425635Y-70582485D01*
X158663731Y-69915819D02*
X158997064Y-70915819D01*
X158997064Y-70915819D02*
X159330397Y-69915819D01*
X159663731Y-70915819D02*
X159663731Y-69915819D01*
X159663731Y-69915819D02*
X159901826Y-69915819D01*
X159901826Y-69915819D02*
X160044683Y-69963438D01*
X160044683Y-69963438D02*
X160139921Y-70058676D01*
X160139921Y-70058676D02*
X160187540Y-70153914D01*
X160187540Y-70153914D02*
X160235159Y-70344390D01*
X160235159Y-70344390D02*
X160235159Y-70487247D01*
X160235159Y-70487247D02*
X160187540Y-70677723D01*
X160187540Y-70677723D02*
X160139921Y-70772961D01*
X160139921Y-70772961D02*
X160044683Y-70868200D01*
X160044683Y-70868200D02*
X159901826Y-70915819D01*
X159901826Y-70915819D02*
X159663731Y-70915819D01*
X161235159Y-70820580D02*
X161187540Y-70868200D01*
X161187540Y-70868200D02*
X161044683Y-70915819D01*
X161044683Y-70915819D02*
X160949445Y-70915819D01*
X160949445Y-70915819D02*
X160806588Y-70868200D01*
X160806588Y-70868200D02*
X160711350Y-70772961D01*
X160711350Y-70772961D02*
X160663731Y-70677723D01*
X160663731Y-70677723D02*
X160616112Y-70487247D01*
X160616112Y-70487247D02*
X160616112Y-70344390D01*
X160616112Y-70344390D02*
X160663731Y-70153914D01*
X160663731Y-70153914D02*
X160711350Y-70058676D01*
X160711350Y-70058676D02*
X160806588Y-69963438D01*
X160806588Y-69963438D02*
X160949445Y-69915819D01*
X160949445Y-69915819D02*
X161044683Y-69915819D01*
X161044683Y-69915819D02*
X161187540Y-69963438D01*
X161187540Y-69963438D02*
X161235159Y-70011057D01*
X144160284Y-48529264D02*
X144160284Y-49529264D01*
X144160284Y-48576883D02*
X144255522Y-48529264D01*
X144255522Y-48529264D02*
X144445998Y-48529264D01*
X144445998Y-48529264D02*
X144541236Y-48576883D01*
X144541236Y-48576883D02*
X144588855Y-48624502D01*
X144588855Y-48624502D02*
X144636474Y-48719740D01*
X144636474Y-48719740D02*
X144636474Y-49005454D01*
X144636474Y-49005454D02*
X144588855Y-49100692D01*
X144588855Y-49100692D02*
X144541236Y-49148312D01*
X144541236Y-49148312D02*
X144445998Y-49195931D01*
X144445998Y-49195931D02*
X144255522Y-49195931D01*
X144255522Y-49195931D02*
X144160284Y-49148312D01*
X144922189Y-48529264D02*
X145303141Y-48529264D01*
X145065046Y-48195931D02*
X145065046Y-49053073D01*
X145065046Y-49053073D02*
X145112665Y-49148312D01*
X145112665Y-49148312D02*
X145207903Y-49195931D01*
X145207903Y-49195931D02*
X145303141Y-49195931D01*
X145969808Y-48672121D02*
X145636475Y-48672121D01*
X145636475Y-49195931D02*
X145636475Y-48195931D01*
X145636475Y-48195931D02*
X146112665Y-48195931D01*
X146636475Y-49195931D02*
X146541237Y-49148312D01*
X146541237Y-49148312D02*
X146493618Y-49053073D01*
X146493618Y-49053073D02*
X146493618Y-48195931D01*
X147398380Y-49148312D02*
X147303142Y-49195931D01*
X147303142Y-49195931D02*
X147112666Y-49195931D01*
X147112666Y-49195931D02*
X147017428Y-49148312D01*
X147017428Y-49148312D02*
X146969809Y-49053073D01*
X146969809Y-49053073D02*
X146969809Y-48672121D01*
X146969809Y-48672121D02*
X147017428Y-48576883D01*
X147017428Y-48576883D02*
X147112666Y-48529264D01*
X147112666Y-48529264D02*
X147303142Y-48529264D01*
X147303142Y-48529264D02*
X147398380Y-48576883D01*
X147398380Y-48576883D02*
X147445999Y-48672121D01*
X147445999Y-48672121D02*
X147445999Y-48767359D01*
X147445999Y-48767359D02*
X146969809Y-48862597D01*
X147779333Y-49195931D02*
X148303142Y-48529264D01*
X147779333Y-48529264D02*
X148303142Y-49195931D01*
X149303143Y-48195931D02*
X149874571Y-48195931D01*
X149588857Y-49195931D02*
X149588857Y-48195931D01*
X150207905Y-49195931D02*
X150207905Y-48529264D01*
X150207905Y-48719740D02*
X150255524Y-48624502D01*
X150255524Y-48624502D02*
X150303143Y-48576883D01*
X150303143Y-48576883D02*
X150398381Y-48529264D01*
X150398381Y-48529264D02*
X150493619Y-48529264D01*
X151255524Y-49195931D02*
X151255524Y-48672121D01*
X151255524Y-48672121D02*
X151207905Y-48576883D01*
X151207905Y-48576883D02*
X151112667Y-48529264D01*
X151112667Y-48529264D02*
X150922191Y-48529264D01*
X150922191Y-48529264D02*
X150826953Y-48576883D01*
X151255524Y-49148312D02*
X151160286Y-49195931D01*
X151160286Y-49195931D02*
X150922191Y-49195931D01*
X150922191Y-49195931D02*
X150826953Y-49148312D01*
X150826953Y-49148312D02*
X150779334Y-49053073D01*
X150779334Y-49053073D02*
X150779334Y-48957835D01*
X150779334Y-48957835D02*
X150826953Y-48862597D01*
X150826953Y-48862597D02*
X150922191Y-48814978D01*
X150922191Y-48814978D02*
X151160286Y-48814978D01*
X151160286Y-48814978D02*
X151255524Y-48767359D01*
X152160286Y-49148312D02*
X152065048Y-49195931D01*
X152065048Y-49195931D02*
X151874572Y-49195931D01*
X151874572Y-49195931D02*
X151779334Y-49148312D01*
X151779334Y-49148312D02*
X151731715Y-49100692D01*
X151731715Y-49100692D02*
X151684096Y-49005454D01*
X151684096Y-49005454D02*
X151684096Y-48719740D01*
X151684096Y-48719740D02*
X151731715Y-48624502D01*
X151731715Y-48624502D02*
X151779334Y-48576883D01*
X151779334Y-48576883D02*
X151874572Y-48529264D01*
X151874572Y-48529264D02*
X152065048Y-48529264D01*
X152065048Y-48529264D02*
X152160286Y-48576883D01*
X152588858Y-49195931D02*
X152588858Y-48195931D01*
X152684096Y-48814978D02*
X152969810Y-49195931D01*
X152969810Y-48529264D02*
X152588858Y-48910216D01*
X153779334Y-49148312D02*
X153684096Y-49195931D01*
X153684096Y-49195931D02*
X153493620Y-49195931D01*
X153493620Y-49195931D02*
X153398382Y-49148312D01*
X153398382Y-49148312D02*
X153350763Y-49053073D01*
X153350763Y-49053073D02*
X153350763Y-48672121D01*
X153350763Y-48672121D02*
X153398382Y-48576883D01*
X153398382Y-48576883D02*
X153493620Y-48529264D01*
X153493620Y-48529264D02*
X153684096Y-48529264D01*
X153684096Y-48529264D02*
X153779334Y-48576883D01*
X153779334Y-48576883D02*
X153826953Y-48672121D01*
X153826953Y-48672121D02*
X153826953Y-48767359D01*
X153826953Y-48767359D02*
X153350763Y-48862597D01*
X154255525Y-49195931D02*
X154255525Y-48529264D01*
X154255525Y-48719740D02*
X154303144Y-48624502D01*
X154303144Y-48624502D02*
X154350763Y-48576883D01*
X154350763Y-48576883D02*
X154446001Y-48529264D01*
X154446001Y-48529264D02*
X154541239Y-48529264D01*
X155636478Y-48814978D02*
X156398383Y-48814978D01*
X157541240Y-48529264D02*
X157779335Y-49195931D01*
X157779335Y-49195931D02*
X158017430Y-48529264D01*
X158350764Y-48291169D02*
X158398383Y-48243550D01*
X158398383Y-48243550D02*
X158493621Y-48195931D01*
X158493621Y-48195931D02*
X158731716Y-48195931D01*
X158731716Y-48195931D02*
X158826954Y-48243550D01*
X158826954Y-48243550D02*
X158874573Y-48291169D01*
X158874573Y-48291169D02*
X158922192Y-48386407D01*
X158922192Y-48386407D02*
X158922192Y-48481645D01*
X158922192Y-48481645D02*
X158874573Y-48624502D01*
X158874573Y-48624502D02*
X158303145Y-49195931D01*
X158303145Y-49195931D02*
X158922192Y-49195931D01*
X159350764Y-49100692D02*
X159398383Y-49148312D01*
X159398383Y-49148312D02*
X159350764Y-49195931D01*
X159350764Y-49195931D02*
X159303145Y-49148312D01*
X159303145Y-49148312D02*
X159350764Y-49100692D01*
X159350764Y-49100692D02*
X159350764Y-49195931D01*
X160017430Y-48195931D02*
X160112668Y-48195931D01*
X160112668Y-48195931D02*
X160207906Y-48243550D01*
X160207906Y-48243550D02*
X160255525Y-48291169D01*
X160255525Y-48291169D02*
X160303144Y-48386407D01*
X160303144Y-48386407D02*
X160350763Y-48576883D01*
X160350763Y-48576883D02*
X160350763Y-48814978D01*
X160350763Y-48814978D02*
X160303144Y-49005454D01*
X160303144Y-49005454D02*
X160255525Y-49100692D01*
X160255525Y-49100692D02*
X160207906Y-49148312D01*
X160207906Y-49148312D02*
X160112668Y-49195931D01*
X160112668Y-49195931D02*
X160017430Y-49195931D01*
X160017430Y-49195931D02*
X159922192Y-49148312D01*
X159922192Y-49148312D02*
X159874573Y-49100692D01*
X159874573Y-49100692D02*
X159826954Y-49005454D01*
X159826954Y-49005454D02*
X159779335Y-48814978D01*
X159779335Y-48814978D02*
X159779335Y-48576883D01*
X159779335Y-48576883D02*
X159826954Y-48386407D01*
X159826954Y-48386407D02*
X159874573Y-48291169D01*
X159874573Y-48291169D02*
X159922192Y-48243550D01*
X159922192Y-48243550D02*
X160017430Y-48195931D01*
X160779335Y-49100692D02*
X160826954Y-49148312D01*
X160826954Y-49148312D02*
X160779335Y-49195931D01*
X160779335Y-49195931D02*
X160731716Y-49148312D01*
X160731716Y-49148312D02*
X160779335Y-49100692D01*
X160779335Y-49100692D02*
X160779335Y-49195931D01*
X161446001Y-48195931D02*
X161541239Y-48195931D01*
X161541239Y-48195931D02*
X161636477Y-48243550D01*
X161636477Y-48243550D02*
X161684096Y-48291169D01*
X161684096Y-48291169D02*
X161731715Y-48386407D01*
X161731715Y-48386407D02*
X161779334Y-48576883D01*
X161779334Y-48576883D02*
X161779334Y-48814978D01*
X161779334Y-48814978D02*
X161731715Y-49005454D01*
X161731715Y-49005454D02*
X161684096Y-49100692D01*
X161684096Y-49100692D02*
X161636477Y-49148312D01*
X161636477Y-49148312D02*
X161541239Y-49195931D01*
X161541239Y-49195931D02*
X161446001Y-49195931D01*
X161446001Y-49195931D02*
X161350763Y-49148312D01*
X161350763Y-49148312D02*
X161303144Y-49100692D01*
X161303144Y-49100692D02*
X161255525Y-49005454D01*
X161255525Y-49005454D02*
X161207906Y-48814978D01*
X161207906Y-48814978D02*
X161207906Y-48576883D01*
X161207906Y-48576883D02*
X161255525Y-48386407D01*
X161255525Y-48386407D02*
X161303144Y-48291169D01*
X161303144Y-48291169D02*
X161350763Y-48243550D01*
X161350763Y-48243550D02*
X161446001Y-48195931D01*
X142779332Y-50710636D02*
X142731713Y-50758256D01*
X142731713Y-50758256D02*
X142588856Y-50805875D01*
X142588856Y-50805875D02*
X142493618Y-50805875D01*
X142493618Y-50805875D02*
X142350761Y-50758256D01*
X142350761Y-50758256D02*
X142255523Y-50663017D01*
X142255523Y-50663017D02*
X142207904Y-50567779D01*
X142207904Y-50567779D02*
X142160285Y-50377303D01*
X142160285Y-50377303D02*
X142160285Y-50234446D01*
X142160285Y-50234446D02*
X142207904Y-50043970D01*
X142207904Y-50043970D02*
X142255523Y-49948732D01*
X142255523Y-49948732D02*
X142350761Y-49853494D01*
X142350761Y-49853494D02*
X142493618Y-49805875D01*
X142493618Y-49805875D02*
X142588856Y-49805875D01*
X142588856Y-49805875D02*
X142731713Y-49853494D01*
X142731713Y-49853494D02*
X142779332Y-49901113D01*
X143636475Y-50139208D02*
X143636475Y-50805875D01*
X143207904Y-50139208D02*
X143207904Y-50663017D01*
X143207904Y-50663017D02*
X143255523Y-50758256D01*
X143255523Y-50758256D02*
X143350761Y-50805875D01*
X143350761Y-50805875D02*
X143493618Y-50805875D01*
X143493618Y-50805875D02*
X143588856Y-50758256D01*
X143588856Y-50758256D02*
X143636475Y-50710636D01*
X144065047Y-50758256D02*
X144160285Y-50805875D01*
X144160285Y-50805875D02*
X144350761Y-50805875D01*
X144350761Y-50805875D02*
X144445999Y-50758256D01*
X144445999Y-50758256D02*
X144493618Y-50663017D01*
X144493618Y-50663017D02*
X144493618Y-50615398D01*
X144493618Y-50615398D02*
X144445999Y-50520160D01*
X144445999Y-50520160D02*
X144350761Y-50472541D01*
X144350761Y-50472541D02*
X144207904Y-50472541D01*
X144207904Y-50472541D02*
X144112666Y-50424922D01*
X144112666Y-50424922D02*
X144065047Y-50329684D01*
X144065047Y-50329684D02*
X144065047Y-50282065D01*
X144065047Y-50282065D02*
X144112666Y-50186827D01*
X144112666Y-50186827D02*
X144207904Y-50139208D01*
X144207904Y-50139208D02*
X144350761Y-50139208D01*
X144350761Y-50139208D02*
X144445999Y-50186827D01*
X144779333Y-50139208D02*
X145160285Y-50139208D01*
X144922190Y-49805875D02*
X144922190Y-50663017D01*
X144922190Y-50663017D02*
X144969809Y-50758256D01*
X144969809Y-50758256D02*
X145065047Y-50805875D01*
X145065047Y-50805875D02*
X145160285Y-50805875D01*
X145636476Y-50805875D02*
X145541238Y-50758256D01*
X145541238Y-50758256D02*
X145493619Y-50710636D01*
X145493619Y-50710636D02*
X145446000Y-50615398D01*
X145446000Y-50615398D02*
X145446000Y-50329684D01*
X145446000Y-50329684D02*
X145493619Y-50234446D01*
X145493619Y-50234446D02*
X145541238Y-50186827D01*
X145541238Y-50186827D02*
X145636476Y-50139208D01*
X145636476Y-50139208D02*
X145779333Y-50139208D01*
X145779333Y-50139208D02*
X145874571Y-50186827D01*
X145874571Y-50186827D02*
X145922190Y-50234446D01*
X145922190Y-50234446D02*
X145969809Y-50329684D01*
X145969809Y-50329684D02*
X145969809Y-50615398D01*
X145969809Y-50615398D02*
X145922190Y-50710636D01*
X145922190Y-50710636D02*
X145874571Y-50758256D01*
X145874571Y-50758256D02*
X145779333Y-50805875D01*
X145779333Y-50805875D02*
X145636476Y-50805875D01*
X146398381Y-50805875D02*
X146398381Y-50139208D01*
X146398381Y-50234446D02*
X146446000Y-50186827D01*
X146446000Y-50186827D02*
X146541238Y-50139208D01*
X146541238Y-50139208D02*
X146684095Y-50139208D01*
X146684095Y-50139208D02*
X146779333Y-50186827D01*
X146779333Y-50186827D02*
X146826952Y-50282065D01*
X146826952Y-50282065D02*
X146826952Y-50805875D01*
X146826952Y-50282065D02*
X146874571Y-50186827D01*
X146874571Y-50186827D02*
X146969809Y-50139208D01*
X146969809Y-50139208D02*
X147112666Y-50139208D01*
X147112666Y-50139208D02*
X147207905Y-50186827D01*
X147207905Y-50186827D02*
X147255524Y-50282065D01*
X147255524Y-50282065D02*
X147255524Y-50805875D01*
X148493619Y-50805875D02*
X148493619Y-49805875D01*
X148493619Y-49805875D02*
X148731714Y-49805875D01*
X148731714Y-49805875D02*
X148874571Y-49853494D01*
X148874571Y-49853494D02*
X148969809Y-49948732D01*
X148969809Y-49948732D02*
X149017428Y-50043970D01*
X149017428Y-50043970D02*
X149065047Y-50234446D01*
X149065047Y-50234446D02*
X149065047Y-50377303D01*
X149065047Y-50377303D02*
X149017428Y-50567779D01*
X149017428Y-50567779D02*
X148969809Y-50663017D01*
X148969809Y-50663017D02*
X148874571Y-50758256D01*
X148874571Y-50758256D02*
X148731714Y-50805875D01*
X148731714Y-50805875D02*
X148493619Y-50805875D01*
X149493619Y-50805875D02*
X149493619Y-50139208D01*
X149493619Y-49805875D02*
X149446000Y-49853494D01*
X149446000Y-49853494D02*
X149493619Y-49901113D01*
X149493619Y-49901113D02*
X149541238Y-49853494D01*
X149541238Y-49853494D02*
X149493619Y-49805875D01*
X149493619Y-49805875D02*
X149493619Y-49901113D01*
X150398380Y-50139208D02*
X150398380Y-50948732D01*
X150398380Y-50948732D02*
X150350761Y-51043970D01*
X150350761Y-51043970D02*
X150303142Y-51091589D01*
X150303142Y-51091589D02*
X150207904Y-51139208D01*
X150207904Y-51139208D02*
X150065047Y-51139208D01*
X150065047Y-51139208D02*
X149969809Y-51091589D01*
X150398380Y-50758256D02*
X150303142Y-50805875D01*
X150303142Y-50805875D02*
X150112666Y-50805875D01*
X150112666Y-50805875D02*
X150017428Y-50758256D01*
X150017428Y-50758256D02*
X149969809Y-50710636D01*
X149969809Y-50710636D02*
X149922190Y-50615398D01*
X149922190Y-50615398D02*
X149922190Y-50329684D01*
X149922190Y-50329684D02*
X149969809Y-50234446D01*
X149969809Y-50234446D02*
X150017428Y-50186827D01*
X150017428Y-50186827D02*
X150112666Y-50139208D01*
X150112666Y-50139208D02*
X150303142Y-50139208D01*
X150303142Y-50139208D02*
X150398380Y-50186827D01*
X150874571Y-50805875D02*
X150874571Y-50139208D01*
X150874571Y-49805875D02*
X150826952Y-49853494D01*
X150826952Y-49853494D02*
X150874571Y-49901113D01*
X150874571Y-49901113D02*
X150922190Y-49853494D01*
X150922190Y-49853494D02*
X150874571Y-49805875D01*
X150874571Y-49805875D02*
X150874571Y-49901113D01*
X151207904Y-50139208D02*
X151588856Y-50139208D01*
X151350761Y-49805875D02*
X151350761Y-50663017D01*
X151350761Y-50663017D02*
X151398380Y-50758256D01*
X151398380Y-50758256D02*
X151493618Y-50805875D01*
X151493618Y-50805875D02*
X151588856Y-50805875D01*
X152350761Y-50805875D02*
X152350761Y-50282065D01*
X152350761Y-50282065D02*
X152303142Y-50186827D01*
X152303142Y-50186827D02*
X152207904Y-50139208D01*
X152207904Y-50139208D02*
X152017428Y-50139208D01*
X152017428Y-50139208D02*
X151922190Y-50186827D01*
X152350761Y-50758256D02*
X152255523Y-50805875D01*
X152255523Y-50805875D02*
X152017428Y-50805875D01*
X152017428Y-50805875D02*
X151922190Y-50758256D01*
X151922190Y-50758256D02*
X151874571Y-50663017D01*
X151874571Y-50663017D02*
X151874571Y-50567779D01*
X151874571Y-50567779D02*
X151922190Y-50472541D01*
X151922190Y-50472541D02*
X152017428Y-50424922D01*
X152017428Y-50424922D02*
X152255523Y-50424922D01*
X152255523Y-50424922D02*
X152350761Y-50377303D01*
X152969809Y-50805875D02*
X152874571Y-50758256D01*
X152874571Y-50758256D02*
X152826952Y-50663017D01*
X152826952Y-50663017D02*
X152826952Y-49805875D01*
X154065048Y-50758256D02*
X154207905Y-50805875D01*
X154207905Y-50805875D02*
X154446000Y-50805875D01*
X154446000Y-50805875D02*
X154541238Y-50758256D01*
X154541238Y-50758256D02*
X154588857Y-50710636D01*
X154588857Y-50710636D02*
X154636476Y-50615398D01*
X154636476Y-50615398D02*
X154636476Y-50520160D01*
X154636476Y-50520160D02*
X154588857Y-50424922D01*
X154588857Y-50424922D02*
X154541238Y-50377303D01*
X154541238Y-50377303D02*
X154446000Y-50329684D01*
X154446000Y-50329684D02*
X154255524Y-50282065D01*
X154255524Y-50282065D02*
X154160286Y-50234446D01*
X154160286Y-50234446D02*
X154112667Y-50186827D01*
X154112667Y-50186827D02*
X154065048Y-50091589D01*
X154065048Y-50091589D02*
X154065048Y-49996351D01*
X154065048Y-49996351D02*
X154112667Y-49901113D01*
X154112667Y-49901113D02*
X154160286Y-49853494D01*
X154160286Y-49853494D02*
X154255524Y-49805875D01*
X154255524Y-49805875D02*
X154493619Y-49805875D01*
X154493619Y-49805875D02*
X154636476Y-49853494D01*
X155446000Y-50758256D02*
X155350762Y-50805875D01*
X155350762Y-50805875D02*
X155160286Y-50805875D01*
X155160286Y-50805875D02*
X155065048Y-50758256D01*
X155065048Y-50758256D02*
X155017429Y-50663017D01*
X155017429Y-50663017D02*
X155017429Y-50282065D01*
X155017429Y-50282065D02*
X155065048Y-50186827D01*
X155065048Y-50186827D02*
X155160286Y-50139208D01*
X155160286Y-50139208D02*
X155350762Y-50139208D01*
X155350762Y-50139208D02*
X155446000Y-50186827D01*
X155446000Y-50186827D02*
X155493619Y-50282065D01*
X155493619Y-50282065D02*
X155493619Y-50377303D01*
X155493619Y-50377303D02*
X155017429Y-50472541D01*
X155922191Y-50805875D02*
X155922191Y-50139208D01*
X155922191Y-50329684D02*
X155969810Y-50234446D01*
X155969810Y-50234446D02*
X156017429Y-50186827D01*
X156017429Y-50186827D02*
X156112667Y-50139208D01*
X156112667Y-50139208D02*
X156207905Y-50139208D01*
X156446001Y-50139208D02*
X156684096Y-50805875D01*
X156684096Y-50805875D02*
X156922191Y-50139208D01*
X157303144Y-50805875D02*
X157303144Y-50139208D01*
X157303144Y-49805875D02*
X157255525Y-49853494D01*
X157255525Y-49853494D02*
X157303144Y-49901113D01*
X157303144Y-49901113D02*
X157350763Y-49853494D01*
X157350763Y-49853494D02*
X157303144Y-49805875D01*
X157303144Y-49805875D02*
X157303144Y-49901113D01*
X158207905Y-50758256D02*
X158112667Y-50805875D01*
X158112667Y-50805875D02*
X157922191Y-50805875D01*
X157922191Y-50805875D02*
X157826953Y-50758256D01*
X157826953Y-50758256D02*
X157779334Y-50710636D01*
X157779334Y-50710636D02*
X157731715Y-50615398D01*
X157731715Y-50615398D02*
X157731715Y-50329684D01*
X157731715Y-50329684D02*
X157779334Y-50234446D01*
X157779334Y-50234446D02*
X157826953Y-50186827D01*
X157826953Y-50186827D02*
X157922191Y-50139208D01*
X157922191Y-50139208D02*
X158112667Y-50139208D01*
X158112667Y-50139208D02*
X158207905Y-50186827D01*
X159017429Y-50758256D02*
X158922191Y-50805875D01*
X158922191Y-50805875D02*
X158731715Y-50805875D01*
X158731715Y-50805875D02*
X158636477Y-50758256D01*
X158636477Y-50758256D02*
X158588858Y-50663017D01*
X158588858Y-50663017D02*
X158588858Y-50282065D01*
X158588858Y-50282065D02*
X158636477Y-50186827D01*
X158636477Y-50186827D02*
X158731715Y-50139208D01*
X158731715Y-50139208D02*
X158922191Y-50139208D01*
X158922191Y-50139208D02*
X159017429Y-50186827D01*
X159017429Y-50186827D02*
X159065048Y-50282065D01*
X159065048Y-50282065D02*
X159065048Y-50377303D01*
X159065048Y-50377303D02*
X158588858Y-50472541D01*
X159446001Y-50758256D02*
X159541239Y-50805875D01*
X159541239Y-50805875D02*
X159731715Y-50805875D01*
X159731715Y-50805875D02*
X159826953Y-50758256D01*
X159826953Y-50758256D02*
X159874572Y-50663017D01*
X159874572Y-50663017D02*
X159874572Y-50615398D01*
X159874572Y-50615398D02*
X159826953Y-50520160D01*
X159826953Y-50520160D02*
X159731715Y-50472541D01*
X159731715Y-50472541D02*
X159588858Y-50472541D01*
X159588858Y-50472541D02*
X159493620Y-50424922D01*
X159493620Y-50424922D02*
X159446001Y-50329684D01*
X159446001Y-50329684D02*
X159446001Y-50282065D01*
X159446001Y-50282065D02*
X159493620Y-50186827D01*
X159493620Y-50186827D02*
X159588858Y-50139208D01*
X159588858Y-50139208D02*
X159731715Y-50139208D01*
X159731715Y-50139208D02*
X159826953Y-50186827D01*
X160350763Y-50758256D02*
X160350763Y-50805875D01*
X160350763Y-50805875D02*
X160303144Y-50901113D01*
X160303144Y-50901113D02*
X160255525Y-50948732D01*
X162017429Y-50805875D02*
X161541239Y-50805875D01*
X161541239Y-50805875D02*
X161541239Y-49805875D01*
X162826953Y-50805875D02*
X162350763Y-50805875D01*
X162350763Y-50805875D02*
X162350763Y-49805875D01*
X163731715Y-50710636D02*
X163684096Y-50758256D01*
X163684096Y-50758256D02*
X163541239Y-50805875D01*
X163541239Y-50805875D02*
X163446001Y-50805875D01*
X163446001Y-50805875D02*
X163303144Y-50758256D01*
X163303144Y-50758256D02*
X163207906Y-50663017D01*
X163207906Y-50663017D02*
X163160287Y-50567779D01*
X163160287Y-50567779D02*
X163112668Y-50377303D01*
X163112668Y-50377303D02*
X163112668Y-50234446D01*
X163112668Y-50234446D02*
X163160287Y-50043970D01*
X163160287Y-50043970D02*
X163207906Y-49948732D01*
X163207906Y-49948732D02*
X163303144Y-49853494D01*
X163303144Y-49853494D02*
X163446001Y-49805875D01*
X163446001Y-49805875D02*
X163541239Y-49805875D01*
X163541239Y-49805875D02*
X163684096Y-49853494D01*
X163684096Y-49853494D02*
X163731715Y-49901113D01*
X145326953Y-51749152D02*
X145517429Y-52415819D01*
X145517429Y-52415819D02*
X145707905Y-51939628D01*
X145707905Y-51939628D02*
X145898381Y-52415819D01*
X145898381Y-52415819D02*
X146088857Y-51749152D01*
X146374572Y-51749152D02*
X146565048Y-52415819D01*
X146565048Y-52415819D02*
X146755524Y-51939628D01*
X146755524Y-51939628D02*
X146946000Y-52415819D01*
X146946000Y-52415819D02*
X147136476Y-51749152D01*
X147422191Y-51749152D02*
X147612667Y-52415819D01*
X147612667Y-52415819D02*
X147803143Y-51939628D01*
X147803143Y-51939628D02*
X147993619Y-52415819D01*
X147993619Y-52415819D02*
X148184095Y-51749152D01*
X148565048Y-52320580D02*
X148612667Y-52368200D01*
X148612667Y-52368200D02*
X148565048Y-52415819D01*
X148565048Y-52415819D02*
X148517429Y-52368200D01*
X148517429Y-52368200D02*
X148565048Y-52320580D01*
X148565048Y-52320580D02*
X148565048Y-52415819D01*
X149469809Y-52368200D02*
X149374571Y-52415819D01*
X149374571Y-52415819D02*
X149184095Y-52415819D01*
X149184095Y-52415819D02*
X149088857Y-52368200D01*
X149088857Y-52368200D02*
X149041238Y-52320580D01*
X149041238Y-52320580D02*
X148993619Y-52225342D01*
X148993619Y-52225342D02*
X148993619Y-51939628D01*
X148993619Y-51939628D02*
X149041238Y-51844390D01*
X149041238Y-51844390D02*
X149088857Y-51796771D01*
X149088857Y-51796771D02*
X149184095Y-51749152D01*
X149184095Y-51749152D02*
X149374571Y-51749152D01*
X149374571Y-51749152D02*
X149469809Y-51796771D01*
X150326952Y-51749152D02*
X150326952Y-52415819D01*
X149898381Y-51749152D02*
X149898381Y-52272961D01*
X149898381Y-52272961D02*
X149946000Y-52368200D01*
X149946000Y-52368200D02*
X150041238Y-52415819D01*
X150041238Y-52415819D02*
X150184095Y-52415819D01*
X150184095Y-52415819D02*
X150279333Y-52368200D01*
X150279333Y-52368200D02*
X150326952Y-52320580D01*
X150755524Y-52368200D02*
X150850762Y-52415819D01*
X150850762Y-52415819D02*
X151041238Y-52415819D01*
X151041238Y-52415819D02*
X151136476Y-52368200D01*
X151136476Y-52368200D02*
X151184095Y-52272961D01*
X151184095Y-52272961D02*
X151184095Y-52225342D01*
X151184095Y-52225342D02*
X151136476Y-52130104D01*
X151136476Y-52130104D02*
X151041238Y-52082485D01*
X151041238Y-52082485D02*
X150898381Y-52082485D01*
X150898381Y-52082485D02*
X150803143Y-52034866D01*
X150803143Y-52034866D02*
X150755524Y-51939628D01*
X150755524Y-51939628D02*
X150755524Y-51892009D01*
X150755524Y-51892009D02*
X150803143Y-51796771D01*
X150803143Y-51796771D02*
X150898381Y-51749152D01*
X150898381Y-51749152D02*
X151041238Y-51749152D01*
X151041238Y-51749152D02*
X151136476Y-51796771D01*
X151469810Y-51749152D02*
X151850762Y-51749152D01*
X151612667Y-51415819D02*
X151612667Y-52272961D01*
X151612667Y-52272961D02*
X151660286Y-52368200D01*
X151660286Y-52368200D02*
X151755524Y-52415819D01*
X151755524Y-52415819D02*
X151850762Y-52415819D01*
X152326953Y-52415819D02*
X152231715Y-52368200D01*
X152231715Y-52368200D02*
X152184096Y-52320580D01*
X152184096Y-52320580D02*
X152136477Y-52225342D01*
X152136477Y-52225342D02*
X152136477Y-51939628D01*
X152136477Y-51939628D02*
X152184096Y-51844390D01*
X152184096Y-51844390D02*
X152231715Y-51796771D01*
X152231715Y-51796771D02*
X152326953Y-51749152D01*
X152326953Y-51749152D02*
X152469810Y-51749152D01*
X152469810Y-51749152D02*
X152565048Y-51796771D01*
X152565048Y-51796771D02*
X152612667Y-51844390D01*
X152612667Y-51844390D02*
X152660286Y-51939628D01*
X152660286Y-51939628D02*
X152660286Y-52225342D01*
X152660286Y-52225342D02*
X152612667Y-52320580D01*
X152612667Y-52320580D02*
X152565048Y-52368200D01*
X152565048Y-52368200D02*
X152469810Y-52415819D01*
X152469810Y-52415819D02*
X152326953Y-52415819D01*
X153088858Y-52415819D02*
X153088858Y-51749152D01*
X153088858Y-51844390D02*
X153136477Y-51796771D01*
X153136477Y-51796771D02*
X153231715Y-51749152D01*
X153231715Y-51749152D02*
X153374572Y-51749152D01*
X153374572Y-51749152D02*
X153469810Y-51796771D01*
X153469810Y-51796771D02*
X153517429Y-51892009D01*
X153517429Y-51892009D02*
X153517429Y-52415819D01*
X153517429Y-51892009D02*
X153565048Y-51796771D01*
X153565048Y-51796771D02*
X153660286Y-51749152D01*
X153660286Y-51749152D02*
X153803143Y-51749152D01*
X153803143Y-51749152D02*
X153898382Y-51796771D01*
X153898382Y-51796771D02*
X153946001Y-51892009D01*
X153946001Y-51892009D02*
X153946001Y-52415819D01*
X154422191Y-52034866D02*
X155184096Y-52034866D01*
X156088857Y-52415819D02*
X156088857Y-51415819D01*
X156088857Y-52368200D02*
X155993619Y-52415819D01*
X155993619Y-52415819D02*
X155803143Y-52415819D01*
X155803143Y-52415819D02*
X155707905Y-52368200D01*
X155707905Y-52368200D02*
X155660286Y-52320580D01*
X155660286Y-52320580D02*
X155612667Y-52225342D01*
X155612667Y-52225342D02*
X155612667Y-51939628D01*
X155612667Y-51939628D02*
X155660286Y-51844390D01*
X155660286Y-51844390D02*
X155707905Y-51796771D01*
X155707905Y-51796771D02*
X155803143Y-51749152D01*
X155803143Y-51749152D02*
X155993619Y-51749152D01*
X155993619Y-51749152D02*
X156088857Y-51796771D01*
X156517429Y-52368200D02*
X156612667Y-52415819D01*
X156612667Y-52415819D02*
X156803143Y-52415819D01*
X156803143Y-52415819D02*
X156898381Y-52368200D01*
X156898381Y-52368200D02*
X156946000Y-52272961D01*
X156946000Y-52272961D02*
X156946000Y-52225342D01*
X156946000Y-52225342D02*
X156898381Y-52130104D01*
X156898381Y-52130104D02*
X156803143Y-52082485D01*
X156803143Y-52082485D02*
X156660286Y-52082485D01*
X156660286Y-52082485D02*
X156565048Y-52034866D01*
X156565048Y-52034866D02*
X156517429Y-51939628D01*
X156517429Y-51939628D02*
X156517429Y-51892009D01*
X156517429Y-51892009D02*
X156565048Y-51796771D01*
X156565048Y-51796771D02*
X156660286Y-51749152D01*
X156660286Y-51749152D02*
X156803143Y-51749152D01*
X156803143Y-51749152D02*
X156898381Y-51796771D01*
X157374572Y-52320580D02*
X157422191Y-52368200D01*
X157422191Y-52368200D02*
X157374572Y-52415819D01*
X157374572Y-52415819D02*
X157326953Y-52368200D01*
X157326953Y-52368200D02*
X157374572Y-52320580D01*
X157374572Y-52320580D02*
X157374572Y-52415819D01*
X158279333Y-52368200D02*
X158184095Y-52415819D01*
X158184095Y-52415819D02*
X157993619Y-52415819D01*
X157993619Y-52415819D02*
X157898381Y-52368200D01*
X157898381Y-52368200D02*
X157850762Y-52320580D01*
X157850762Y-52320580D02*
X157803143Y-52225342D01*
X157803143Y-52225342D02*
X157803143Y-51939628D01*
X157803143Y-51939628D02*
X157850762Y-51844390D01*
X157850762Y-51844390D02*
X157898381Y-51796771D01*
X157898381Y-51796771D02*
X157993619Y-51749152D01*
X157993619Y-51749152D02*
X158184095Y-51749152D01*
X158184095Y-51749152D02*
X158279333Y-51796771D01*
X158850762Y-52415819D02*
X158755524Y-52368200D01*
X158755524Y-52368200D02*
X158707905Y-52320580D01*
X158707905Y-52320580D02*
X158660286Y-52225342D01*
X158660286Y-52225342D02*
X158660286Y-51939628D01*
X158660286Y-51939628D02*
X158707905Y-51844390D01*
X158707905Y-51844390D02*
X158755524Y-51796771D01*
X158755524Y-51796771D02*
X158850762Y-51749152D01*
X158850762Y-51749152D02*
X158993619Y-51749152D01*
X158993619Y-51749152D02*
X159088857Y-51796771D01*
X159088857Y-51796771D02*
X159136476Y-51844390D01*
X159136476Y-51844390D02*
X159184095Y-51939628D01*
X159184095Y-51939628D02*
X159184095Y-52225342D01*
X159184095Y-52225342D02*
X159136476Y-52320580D01*
X159136476Y-52320580D02*
X159088857Y-52368200D01*
X159088857Y-52368200D02*
X158993619Y-52415819D01*
X158993619Y-52415819D02*
X158850762Y-52415819D01*
X159612667Y-52415819D02*
X159612667Y-51749152D01*
X159612667Y-51844390D02*
X159660286Y-51796771D01*
X159660286Y-51796771D02*
X159755524Y-51749152D01*
X159755524Y-51749152D02*
X159898381Y-51749152D01*
X159898381Y-51749152D02*
X159993619Y-51796771D01*
X159993619Y-51796771D02*
X160041238Y-51892009D01*
X160041238Y-51892009D02*
X160041238Y-52415819D01*
X160041238Y-51892009D02*
X160088857Y-51796771D01*
X160088857Y-51796771D02*
X160184095Y-51749152D01*
X160184095Y-51749152D02*
X160326952Y-51749152D01*
X160326952Y-51749152D02*
X160422191Y-51796771D01*
X160422191Y-51796771D02*
X160469810Y-51892009D01*
X160469810Y-51892009D02*
X160469810Y-52415819D01*
X117977505Y-108968200D02*
X118120362Y-109015819D01*
X118120362Y-109015819D02*
X118358457Y-109015819D01*
X118358457Y-109015819D02*
X118453695Y-108968200D01*
X118453695Y-108968200D02*
X118501314Y-108920580D01*
X118501314Y-108920580D02*
X118548933Y-108825342D01*
X118548933Y-108825342D02*
X118548933Y-108730104D01*
X118548933Y-108730104D02*
X118501314Y-108634866D01*
X118501314Y-108634866D02*
X118453695Y-108587247D01*
X118453695Y-108587247D02*
X118358457Y-108539628D01*
X118358457Y-108539628D02*
X118167981Y-108492009D01*
X118167981Y-108492009D02*
X118072743Y-108444390D01*
X118072743Y-108444390D02*
X118025124Y-108396771D01*
X118025124Y-108396771D02*
X117977505Y-108301533D01*
X117977505Y-108301533D02*
X117977505Y-108206295D01*
X117977505Y-108206295D02*
X118025124Y-108111057D01*
X118025124Y-108111057D02*
X118072743Y-108063438D01*
X118072743Y-108063438D02*
X118167981Y-108015819D01*
X118167981Y-108015819D02*
X118406076Y-108015819D01*
X118406076Y-108015819D02*
X118548933Y-108063438D01*
X118834648Y-108349152D02*
X119215600Y-108349152D01*
X118977505Y-108015819D02*
X118977505Y-108872961D01*
X118977505Y-108872961D02*
X119025124Y-108968200D01*
X119025124Y-108968200D02*
X119120362Y-109015819D01*
X119120362Y-109015819D02*
X119215600Y-109015819D01*
X119977505Y-109015819D02*
X119977505Y-108492009D01*
X119977505Y-108492009D02*
X119929886Y-108396771D01*
X119929886Y-108396771D02*
X119834648Y-108349152D01*
X119834648Y-108349152D02*
X119644172Y-108349152D01*
X119644172Y-108349152D02*
X119548934Y-108396771D01*
X119977505Y-108968200D02*
X119882267Y-109015819D01*
X119882267Y-109015819D02*
X119644172Y-109015819D01*
X119644172Y-109015819D02*
X119548934Y-108968200D01*
X119548934Y-108968200D02*
X119501315Y-108872961D01*
X119501315Y-108872961D02*
X119501315Y-108777723D01*
X119501315Y-108777723D02*
X119548934Y-108682485D01*
X119548934Y-108682485D02*
X119644172Y-108634866D01*
X119644172Y-108634866D02*
X119882267Y-108634866D01*
X119882267Y-108634866D02*
X119977505Y-108587247D01*
X120310839Y-108349152D02*
X120691791Y-108349152D01*
X120453696Y-108015819D02*
X120453696Y-108872961D01*
X120453696Y-108872961D02*
X120501315Y-108968200D01*
X120501315Y-108968200D02*
X120596553Y-109015819D01*
X120596553Y-109015819D02*
X120691791Y-109015819D01*
X121453696Y-108349152D02*
X121453696Y-109015819D01*
X121025125Y-108349152D02*
X121025125Y-108872961D01*
X121025125Y-108872961D02*
X121072744Y-108968200D01*
X121072744Y-108968200D02*
X121167982Y-109015819D01*
X121167982Y-109015819D02*
X121310839Y-109015819D01*
X121310839Y-109015819D02*
X121406077Y-108968200D01*
X121406077Y-108968200D02*
X121453696Y-108920580D01*
X121882268Y-108968200D02*
X121977506Y-109015819D01*
X121977506Y-109015819D02*
X122167982Y-109015819D01*
X122167982Y-109015819D02*
X122263220Y-108968200D01*
X122263220Y-108968200D02*
X122310839Y-108872961D01*
X122310839Y-108872961D02*
X122310839Y-108825342D01*
X122310839Y-108825342D02*
X122263220Y-108730104D01*
X122263220Y-108730104D02*
X122167982Y-108682485D01*
X122167982Y-108682485D02*
X122025125Y-108682485D01*
X122025125Y-108682485D02*
X121929887Y-108634866D01*
X121929887Y-108634866D02*
X121882268Y-108539628D01*
X121882268Y-108539628D02*
X121882268Y-108492009D01*
X121882268Y-108492009D02*
X121929887Y-108396771D01*
X121929887Y-108396771D02*
X122025125Y-108349152D01*
X122025125Y-108349152D02*
X122167982Y-108349152D01*
X122167982Y-108349152D02*
X122263220Y-108396771D01*
X125153494Y-142893619D02*
X125105875Y-142988857D01*
X125105875Y-142988857D02*
X125105875Y-143131714D01*
X125105875Y-143131714D02*
X125153494Y-143274571D01*
X125153494Y-143274571D02*
X125248732Y-143369809D01*
X125248732Y-143369809D02*
X125343970Y-143417428D01*
X125343970Y-143417428D02*
X125534446Y-143465047D01*
X125534446Y-143465047D02*
X125677303Y-143465047D01*
X125677303Y-143465047D02*
X125867779Y-143417428D01*
X125867779Y-143417428D02*
X125963017Y-143369809D01*
X125963017Y-143369809D02*
X126058256Y-143274571D01*
X126058256Y-143274571D02*
X126105875Y-143131714D01*
X126105875Y-143131714D02*
X126105875Y-143036476D01*
X126105875Y-143036476D02*
X126058256Y-142893619D01*
X126058256Y-142893619D02*
X126010636Y-142846000D01*
X126010636Y-142846000D02*
X125677303Y-142846000D01*
X125677303Y-142846000D02*
X125677303Y-143036476D01*
X126105875Y-142417428D02*
X125105875Y-142417428D01*
X125105875Y-142417428D02*
X125105875Y-142036476D01*
X125105875Y-142036476D02*
X125153494Y-141941238D01*
X125153494Y-141941238D02*
X125201113Y-141893619D01*
X125201113Y-141893619D02*
X125296351Y-141846000D01*
X125296351Y-141846000D02*
X125439208Y-141846000D01*
X125439208Y-141846000D02*
X125534446Y-141893619D01*
X125534446Y-141893619D02*
X125582065Y-141941238D01*
X125582065Y-141941238D02*
X125629684Y-142036476D01*
X125629684Y-142036476D02*
X125629684Y-142417428D01*
X126058256Y-141465047D02*
X126105875Y-141322190D01*
X126105875Y-141322190D02*
X126105875Y-141084095D01*
X126105875Y-141084095D02*
X126058256Y-140988857D01*
X126058256Y-140988857D02*
X126010636Y-140941238D01*
X126010636Y-140941238D02*
X125915398Y-140893619D01*
X125915398Y-140893619D02*
X125820160Y-140893619D01*
X125820160Y-140893619D02*
X125724922Y-140941238D01*
X125724922Y-140941238D02*
X125677303Y-140988857D01*
X125677303Y-140988857D02*
X125629684Y-141084095D01*
X125629684Y-141084095D02*
X125582065Y-141274571D01*
X125582065Y-141274571D02*
X125534446Y-141369809D01*
X125534446Y-141369809D02*
X125486827Y-141417428D01*
X125486827Y-141417428D02*
X125391589Y-141465047D01*
X125391589Y-141465047D02*
X125296351Y-141465047D01*
X125296351Y-141465047D02*
X125201113Y-141417428D01*
X125201113Y-141417428D02*
X125153494Y-141369809D01*
X125153494Y-141369809D02*
X125105875Y-141274571D01*
X125105875Y-141274571D02*
X125105875Y-141036476D01*
X125105875Y-141036476D02*
X125153494Y-140893619D01*
X125820160Y-139750761D02*
X125820160Y-139274571D01*
X126105875Y-139845999D02*
X125105875Y-139512666D01*
X125105875Y-139512666D02*
X126105875Y-139179333D01*
X125439208Y-138845999D02*
X126105875Y-138845999D01*
X125534446Y-138845999D02*
X125486827Y-138798380D01*
X125486827Y-138798380D02*
X125439208Y-138703142D01*
X125439208Y-138703142D02*
X125439208Y-138560285D01*
X125439208Y-138560285D02*
X125486827Y-138465047D01*
X125486827Y-138465047D02*
X125582065Y-138417428D01*
X125582065Y-138417428D02*
X126105875Y-138417428D01*
X125439208Y-138084094D02*
X125439208Y-137703142D01*
X125105875Y-137941237D02*
X125963017Y-137941237D01*
X125963017Y-137941237D02*
X126058256Y-137893618D01*
X126058256Y-137893618D02*
X126105875Y-137798380D01*
X126105875Y-137798380D02*
X126105875Y-137703142D01*
X126058256Y-136988856D02*
X126105875Y-137084094D01*
X126105875Y-137084094D02*
X126105875Y-137274570D01*
X126105875Y-137274570D02*
X126058256Y-137369808D01*
X126058256Y-137369808D02*
X125963017Y-137417427D01*
X125963017Y-137417427D02*
X125582065Y-137417427D01*
X125582065Y-137417427D02*
X125486827Y-137369808D01*
X125486827Y-137369808D02*
X125439208Y-137274570D01*
X125439208Y-137274570D02*
X125439208Y-137084094D01*
X125439208Y-137084094D02*
X125486827Y-136988856D01*
X125486827Y-136988856D02*
X125582065Y-136941237D01*
X125582065Y-136941237D02*
X125677303Y-136941237D01*
X125677303Y-136941237D02*
X125772541Y-137417427D01*
X125439208Y-136512665D02*
X126105875Y-136512665D01*
X125534446Y-136512665D02*
X125486827Y-136465046D01*
X125486827Y-136465046D02*
X125439208Y-136369808D01*
X125439208Y-136369808D02*
X125439208Y-136226951D01*
X125439208Y-136226951D02*
X125486827Y-136131713D01*
X125486827Y-136131713D02*
X125582065Y-136084094D01*
X125582065Y-136084094D02*
X126105875Y-136084094D01*
X125439208Y-135607903D02*
X126105875Y-135607903D01*
X125534446Y-135607903D02*
X125486827Y-135560284D01*
X125486827Y-135560284D02*
X125439208Y-135465046D01*
X125439208Y-135465046D02*
X125439208Y-135322189D01*
X125439208Y-135322189D02*
X125486827Y-135226951D01*
X125486827Y-135226951D02*
X125582065Y-135179332D01*
X125582065Y-135179332D02*
X126105875Y-135179332D01*
X126105875Y-134274570D02*
X125582065Y-134274570D01*
X125582065Y-134274570D02*
X125486827Y-134322189D01*
X125486827Y-134322189D02*
X125439208Y-134417427D01*
X125439208Y-134417427D02*
X125439208Y-134607903D01*
X125439208Y-134607903D02*
X125486827Y-134703141D01*
X126058256Y-134274570D02*
X126105875Y-134369808D01*
X126105875Y-134369808D02*
X126105875Y-134607903D01*
X126105875Y-134607903D02*
X126058256Y-134703141D01*
X126058256Y-134703141D02*
X125963017Y-134750760D01*
X125963017Y-134750760D02*
X125867779Y-134750760D01*
X125867779Y-134750760D02*
X125772541Y-134703141D01*
X125772541Y-134703141D02*
X125724922Y-134607903D01*
X125724922Y-134607903D02*
X125724922Y-134369808D01*
X125724922Y-134369808D02*
X125677303Y-134274570D01*
X127715819Y-142441237D02*
X126715819Y-142441237D01*
X126715819Y-142441237D02*
X127715819Y-141869809D01*
X127715819Y-141869809D02*
X126715819Y-141869809D01*
X126715819Y-141203142D02*
X126715819Y-141012666D01*
X126715819Y-141012666D02*
X126763438Y-140917428D01*
X126763438Y-140917428D02*
X126858676Y-140822190D01*
X126858676Y-140822190D02*
X127049152Y-140774571D01*
X127049152Y-140774571D02*
X127382485Y-140774571D01*
X127382485Y-140774571D02*
X127572961Y-140822190D01*
X127572961Y-140822190D02*
X127668200Y-140917428D01*
X127668200Y-140917428D02*
X127715819Y-141012666D01*
X127715819Y-141012666D02*
X127715819Y-141203142D01*
X127715819Y-141203142D02*
X127668200Y-141298380D01*
X127668200Y-141298380D02*
X127572961Y-141393618D01*
X127572961Y-141393618D02*
X127382485Y-141441237D01*
X127382485Y-141441237D02*
X127049152Y-141441237D01*
X127049152Y-141441237D02*
X126858676Y-141393618D01*
X126858676Y-141393618D02*
X126763438Y-141298380D01*
X126763438Y-141298380D02*
X126715819Y-141203142D01*
X127620580Y-139012666D02*
X127668200Y-139060285D01*
X127668200Y-139060285D02*
X127715819Y-139203142D01*
X127715819Y-139203142D02*
X127715819Y-139298380D01*
X127715819Y-139298380D02*
X127668200Y-139441237D01*
X127668200Y-139441237D02*
X127572961Y-139536475D01*
X127572961Y-139536475D02*
X127477723Y-139584094D01*
X127477723Y-139584094D02*
X127287247Y-139631713D01*
X127287247Y-139631713D02*
X127144390Y-139631713D01*
X127144390Y-139631713D02*
X126953914Y-139584094D01*
X126953914Y-139584094D02*
X126858676Y-139536475D01*
X126858676Y-139536475D02*
X126763438Y-139441237D01*
X126763438Y-139441237D02*
X126715819Y-139298380D01*
X126715819Y-139298380D02*
X126715819Y-139203142D01*
X126715819Y-139203142D02*
X126763438Y-139060285D01*
X126763438Y-139060285D02*
X126811057Y-139012666D01*
X126715819Y-138393618D02*
X126715819Y-138203142D01*
X126715819Y-138203142D02*
X126763438Y-138107904D01*
X126763438Y-138107904D02*
X126858676Y-138012666D01*
X126858676Y-138012666D02*
X127049152Y-137965047D01*
X127049152Y-137965047D02*
X127382485Y-137965047D01*
X127382485Y-137965047D02*
X127572961Y-138012666D01*
X127572961Y-138012666D02*
X127668200Y-138107904D01*
X127668200Y-138107904D02*
X127715819Y-138203142D01*
X127715819Y-138203142D02*
X127715819Y-138393618D01*
X127715819Y-138393618D02*
X127668200Y-138488856D01*
X127668200Y-138488856D02*
X127572961Y-138584094D01*
X127572961Y-138584094D02*
X127382485Y-138631713D01*
X127382485Y-138631713D02*
X127049152Y-138631713D01*
X127049152Y-138631713D02*
X126858676Y-138584094D01*
X126858676Y-138584094D02*
X126763438Y-138488856D01*
X126763438Y-138488856D02*
X126715819Y-138393618D01*
X126715819Y-137679332D02*
X127715819Y-137345999D01*
X127715819Y-137345999D02*
X126715819Y-137012666D01*
X127192009Y-136679332D02*
X127192009Y-136345999D01*
X127715819Y-136203142D02*
X127715819Y-136679332D01*
X127715819Y-136679332D02*
X126715819Y-136679332D01*
X126715819Y-136679332D02*
X126715819Y-136203142D01*
X127715819Y-135203142D02*
X127239628Y-135536475D01*
X127715819Y-135774570D02*
X126715819Y-135774570D01*
X126715819Y-135774570D02*
X126715819Y-135393618D01*
X126715819Y-135393618D02*
X126763438Y-135298380D01*
X126763438Y-135298380D02*
X126811057Y-135250761D01*
X126811057Y-135250761D02*
X126906295Y-135203142D01*
X126906295Y-135203142D02*
X127049152Y-135203142D01*
X127049152Y-135203142D02*
X127144390Y-135250761D01*
X127144390Y-135250761D02*
X127192009Y-135298380D01*
X127192009Y-135298380D02*
X127239628Y-135393618D01*
X127239628Y-135393618D02*
X127239628Y-135774570D01*
X119110840Y-110515819D02*
X119777506Y-111515819D01*
X119777506Y-110515819D02*
X119110840Y-111515819D01*
X120158459Y-111515819D02*
X120158459Y-110849152D01*
X120158459Y-110944390D02*
X120206078Y-110896771D01*
X120206078Y-110896771D02*
X120301316Y-110849152D01*
X120301316Y-110849152D02*
X120444173Y-110849152D01*
X120444173Y-110849152D02*
X120539411Y-110896771D01*
X120539411Y-110896771D02*
X120587030Y-110992009D01*
X120587030Y-110992009D02*
X120587030Y-111515819D01*
X120587030Y-110992009D02*
X120634649Y-110896771D01*
X120634649Y-110896771D02*
X120729887Y-110849152D01*
X120729887Y-110849152D02*
X120872744Y-110849152D01*
X120872744Y-110849152D02*
X120967983Y-110896771D01*
X120967983Y-110896771D02*
X121015602Y-110992009D01*
X121015602Y-110992009D02*
X121015602Y-111515819D01*
X121491792Y-111515819D02*
X121491792Y-110849152D01*
X121491792Y-110515819D02*
X121444173Y-110563438D01*
X121444173Y-110563438D02*
X121491792Y-110611057D01*
X121491792Y-110611057D02*
X121539411Y-110563438D01*
X121539411Y-110563438D02*
X121491792Y-110515819D01*
X121491792Y-110515819D02*
X121491792Y-110611057D01*
X121825125Y-110849152D02*
X122206077Y-110849152D01*
X121967982Y-110515819D02*
X121967982Y-111372961D01*
X121967982Y-111372961D02*
X122015601Y-111468200D01*
X122015601Y-111468200D02*
X122110839Y-111515819D01*
X122110839Y-111515819D02*
X122206077Y-111515819D01*
X149796779Y-104169819D02*
X149796779Y-103169819D01*
X149796779Y-103169819D02*
X150177731Y-103169819D01*
X150177731Y-103169819D02*
X150272969Y-103217438D01*
X150272969Y-103217438D02*
X150320588Y-103265057D01*
X150320588Y-103265057D02*
X150368207Y-103360295D01*
X150368207Y-103360295D02*
X150368207Y-103503152D01*
X150368207Y-103503152D02*
X150320588Y-103598390D01*
X150320588Y-103598390D02*
X150272969Y-103646009D01*
X150272969Y-103646009D02*
X150177731Y-103693628D01*
X150177731Y-103693628D02*
X149796779Y-103693628D01*
X150796779Y-104169819D02*
X150796779Y-103503152D01*
X150796779Y-103693628D02*
X150844398Y-103598390D01*
X150844398Y-103598390D02*
X150892017Y-103550771D01*
X150892017Y-103550771D02*
X150987255Y-103503152D01*
X150987255Y-103503152D02*
X151082493Y-103503152D01*
X151558684Y-104169819D02*
X151463446Y-104122200D01*
X151463446Y-104122200D02*
X151415827Y-104074580D01*
X151415827Y-104074580D02*
X151368208Y-103979342D01*
X151368208Y-103979342D02*
X151368208Y-103693628D01*
X151368208Y-103693628D02*
X151415827Y-103598390D01*
X151415827Y-103598390D02*
X151463446Y-103550771D01*
X151463446Y-103550771D02*
X151558684Y-103503152D01*
X151558684Y-103503152D02*
X151701541Y-103503152D01*
X151701541Y-103503152D02*
X151796779Y-103550771D01*
X151796779Y-103550771D02*
X151844398Y-103598390D01*
X151844398Y-103598390D02*
X151892017Y-103693628D01*
X151892017Y-103693628D02*
X151892017Y-103979342D01*
X151892017Y-103979342D02*
X151844398Y-104074580D01*
X151844398Y-104074580D02*
X151796779Y-104122200D01*
X151796779Y-104122200D02*
X151701541Y-104169819D01*
X151701541Y-104169819D02*
X151558684Y-104169819D01*
X152749160Y-103503152D02*
X152749160Y-104312676D01*
X152749160Y-104312676D02*
X152701541Y-104407914D01*
X152701541Y-104407914D02*
X152653922Y-104455533D01*
X152653922Y-104455533D02*
X152558684Y-104503152D01*
X152558684Y-104503152D02*
X152415827Y-104503152D01*
X152415827Y-104503152D02*
X152320589Y-104455533D01*
X152749160Y-104122200D02*
X152653922Y-104169819D01*
X152653922Y-104169819D02*
X152463446Y-104169819D01*
X152463446Y-104169819D02*
X152368208Y-104122200D01*
X152368208Y-104122200D02*
X152320589Y-104074580D01*
X152320589Y-104074580D02*
X152272970Y-103979342D01*
X152272970Y-103979342D02*
X152272970Y-103693628D01*
X152272970Y-103693628D02*
X152320589Y-103598390D01*
X152320589Y-103598390D02*
X152368208Y-103550771D01*
X152368208Y-103550771D02*
X152463446Y-103503152D01*
X152463446Y-103503152D02*
X152653922Y-103503152D01*
X152653922Y-103503152D02*
X152749160Y-103550771D01*
X153225351Y-104169819D02*
X153225351Y-103503152D01*
X153225351Y-103693628D02*
X153272970Y-103598390D01*
X153272970Y-103598390D02*
X153320589Y-103550771D01*
X153320589Y-103550771D02*
X153415827Y-103503152D01*
X153415827Y-103503152D02*
X153511065Y-103503152D01*
X154272970Y-104169819D02*
X154272970Y-103646009D01*
X154272970Y-103646009D02*
X154225351Y-103550771D01*
X154225351Y-103550771D02*
X154130113Y-103503152D01*
X154130113Y-103503152D02*
X153939637Y-103503152D01*
X153939637Y-103503152D02*
X153844399Y-103550771D01*
X154272970Y-104122200D02*
X154177732Y-104169819D01*
X154177732Y-104169819D02*
X153939637Y-104169819D01*
X153939637Y-104169819D02*
X153844399Y-104122200D01*
X153844399Y-104122200D02*
X153796780Y-104026961D01*
X153796780Y-104026961D02*
X153796780Y-103931723D01*
X153796780Y-103931723D02*
X153844399Y-103836485D01*
X153844399Y-103836485D02*
X153939637Y-103788866D01*
X153939637Y-103788866D02*
X154177732Y-103788866D01*
X154177732Y-103788866D02*
X154272970Y-103741247D01*
X154749161Y-104169819D02*
X154749161Y-103503152D01*
X154749161Y-103598390D02*
X154796780Y-103550771D01*
X154796780Y-103550771D02*
X154892018Y-103503152D01*
X154892018Y-103503152D02*
X155034875Y-103503152D01*
X155034875Y-103503152D02*
X155130113Y-103550771D01*
X155130113Y-103550771D02*
X155177732Y-103646009D01*
X155177732Y-103646009D02*
X155177732Y-104169819D01*
X155177732Y-103646009D02*
X155225351Y-103550771D01*
X155225351Y-103550771D02*
X155320589Y-103503152D01*
X155320589Y-103503152D02*
X155463446Y-103503152D01*
X155463446Y-103503152D02*
X155558685Y-103550771D01*
X155558685Y-103550771D02*
X155606304Y-103646009D01*
X155606304Y-103646009D02*
X155606304Y-104169819D01*
X161203445Y-127765057D02*
X161108207Y-127717438D01*
X161108207Y-127717438D02*
X161012969Y-127622200D01*
X161012969Y-127622200D02*
X160870112Y-127479342D01*
X160870112Y-127479342D02*
X160774874Y-127431723D01*
X160774874Y-127431723D02*
X160679636Y-127431723D01*
X160727255Y-127669819D02*
X160632017Y-127622200D01*
X160632017Y-127622200D02*
X160536779Y-127526961D01*
X160536779Y-127526961D02*
X160489160Y-127336485D01*
X160489160Y-127336485D02*
X160489160Y-127003152D01*
X160489160Y-127003152D02*
X160536779Y-126812676D01*
X160536779Y-126812676D02*
X160632017Y-126717438D01*
X160632017Y-126717438D02*
X160727255Y-126669819D01*
X160727255Y-126669819D02*
X160917731Y-126669819D01*
X160917731Y-126669819D02*
X161012969Y-126717438D01*
X161012969Y-126717438D02*
X161108207Y-126812676D01*
X161108207Y-126812676D02*
X161155826Y-127003152D01*
X161155826Y-127003152D02*
X161155826Y-127336485D01*
X161155826Y-127336485D02*
X161108207Y-127526961D01*
X161108207Y-127526961D02*
X161012969Y-127622200D01*
X161012969Y-127622200D02*
X160917731Y-127669819D01*
X160917731Y-127669819D02*
X160727255Y-127669819D01*
X161489160Y-127003152D02*
X161679636Y-127669819D01*
X161679636Y-127669819D02*
X161870112Y-127193628D01*
X161870112Y-127193628D02*
X162060588Y-127669819D01*
X162060588Y-127669819D02*
X162251064Y-127003152D01*
X162632017Y-127669819D02*
X162632017Y-127003152D01*
X162632017Y-126669819D02*
X162584398Y-126717438D01*
X162584398Y-126717438D02*
X162632017Y-126765057D01*
X162632017Y-126765057D02*
X162679636Y-126717438D01*
X162679636Y-126717438D02*
X162632017Y-126669819D01*
X162632017Y-126669819D02*
X162632017Y-126765057D01*
X163108207Y-127669819D02*
X163108207Y-127003152D01*
X163108207Y-126669819D02*
X163060588Y-126717438D01*
X163060588Y-126717438D02*
X163108207Y-126765057D01*
X163108207Y-126765057D02*
X163155826Y-126717438D01*
X163155826Y-126717438D02*
X163108207Y-126669819D01*
X163108207Y-126669819D02*
X163108207Y-126765057D01*
X164012968Y-127622200D02*
X163917730Y-127669819D01*
X163917730Y-127669819D02*
X163727254Y-127669819D01*
X163727254Y-127669819D02*
X163632016Y-127622200D01*
X163632016Y-127622200D02*
X163584397Y-127574580D01*
X163584397Y-127574580D02*
X163536778Y-127479342D01*
X163536778Y-127479342D02*
X163536778Y-127193628D01*
X163536778Y-127193628D02*
X163584397Y-127098390D01*
X163584397Y-127098390D02*
X163632016Y-127050771D01*
X163632016Y-127050771D02*
X163727254Y-127003152D01*
X163727254Y-127003152D02*
X163917730Y-127003152D01*
X163917730Y-127003152D02*
X164012968Y-127050771D01*
X152036779Y-87415819D02*
X152036779Y-86415819D01*
X152036779Y-86415819D02*
X152417731Y-86415819D01*
X152417731Y-86415819D02*
X152512969Y-86463438D01*
X152512969Y-86463438D02*
X152560588Y-86511057D01*
X152560588Y-86511057D02*
X152608207Y-86606295D01*
X152608207Y-86606295D02*
X152608207Y-86749152D01*
X152608207Y-86749152D02*
X152560588Y-86844390D01*
X152560588Y-86844390D02*
X152512969Y-86892009D01*
X152512969Y-86892009D02*
X152417731Y-86939628D01*
X152417731Y-86939628D02*
X152036779Y-86939628D01*
X153179636Y-87415819D02*
X153084398Y-87368200D01*
X153084398Y-87368200D02*
X153036779Y-87320580D01*
X153036779Y-87320580D02*
X152989160Y-87225342D01*
X152989160Y-87225342D02*
X152989160Y-86939628D01*
X152989160Y-86939628D02*
X153036779Y-86844390D01*
X153036779Y-86844390D02*
X153084398Y-86796771D01*
X153084398Y-86796771D02*
X153179636Y-86749152D01*
X153179636Y-86749152D02*
X153322493Y-86749152D01*
X153322493Y-86749152D02*
X153417731Y-86796771D01*
X153417731Y-86796771D02*
X153465350Y-86844390D01*
X153465350Y-86844390D02*
X153512969Y-86939628D01*
X153512969Y-86939628D02*
X153512969Y-87225342D01*
X153512969Y-87225342D02*
X153465350Y-87320580D01*
X153465350Y-87320580D02*
X153417731Y-87368200D01*
X153417731Y-87368200D02*
X153322493Y-87415819D01*
X153322493Y-87415819D02*
X153179636Y-87415819D01*
X153846303Y-86749152D02*
X154036779Y-87415819D01*
X154036779Y-87415819D02*
X154227255Y-86939628D01*
X154227255Y-86939628D02*
X154417731Y-87415819D01*
X154417731Y-87415819D02*
X154608207Y-86749152D01*
X155370112Y-87368200D02*
X155274874Y-87415819D01*
X155274874Y-87415819D02*
X155084398Y-87415819D01*
X155084398Y-87415819D02*
X154989160Y-87368200D01*
X154989160Y-87368200D02*
X154941541Y-87272961D01*
X154941541Y-87272961D02*
X154941541Y-86892009D01*
X154941541Y-86892009D02*
X154989160Y-86796771D01*
X154989160Y-86796771D02*
X155084398Y-86749152D01*
X155084398Y-86749152D02*
X155274874Y-86749152D01*
X155274874Y-86749152D02*
X155370112Y-86796771D01*
X155370112Y-86796771D02*
X155417731Y-86892009D01*
X155417731Y-86892009D02*
X155417731Y-86987247D01*
X155417731Y-86987247D02*
X154941541Y-87082485D01*
X155846303Y-87415819D02*
X155846303Y-86749152D01*
X155846303Y-86939628D02*
X155893922Y-86844390D01*
X155893922Y-86844390D02*
X155941541Y-86796771D01*
X155941541Y-86796771D02*
X156036779Y-86749152D01*
X156036779Y-86749152D02*
X156132017Y-86749152D01*
X159582779Y-115915819D02*
X159582779Y-114915819D01*
X160630397Y-115820580D02*
X160582778Y-115868200D01*
X160582778Y-115868200D02*
X160439921Y-115915819D01*
X160439921Y-115915819D02*
X160344683Y-115915819D01*
X160344683Y-115915819D02*
X160201826Y-115868200D01*
X160201826Y-115868200D02*
X160106588Y-115772961D01*
X160106588Y-115772961D02*
X160058969Y-115677723D01*
X160058969Y-115677723D02*
X160011350Y-115487247D01*
X160011350Y-115487247D02*
X160011350Y-115344390D01*
X160011350Y-115344390D02*
X160058969Y-115153914D01*
X160058969Y-115153914D02*
X160106588Y-115058676D01*
X160106588Y-115058676D02*
X160201826Y-114963438D01*
X160201826Y-114963438D02*
X160344683Y-114915819D01*
X160344683Y-114915819D02*
X160439921Y-114915819D01*
X160439921Y-114915819D02*
X160582778Y-114963438D01*
X160582778Y-114963438D02*
X160630397Y-115011057D01*
X161011350Y-115868200D02*
X161154207Y-115915819D01*
X161154207Y-115915819D02*
X161392302Y-115915819D01*
X161392302Y-115915819D02*
X161487540Y-115868200D01*
X161487540Y-115868200D02*
X161535159Y-115820580D01*
X161535159Y-115820580D02*
X161582778Y-115725342D01*
X161582778Y-115725342D02*
X161582778Y-115630104D01*
X161582778Y-115630104D02*
X161535159Y-115534866D01*
X161535159Y-115534866D02*
X161487540Y-115487247D01*
X161487540Y-115487247D02*
X161392302Y-115439628D01*
X161392302Y-115439628D02*
X161201826Y-115392009D01*
X161201826Y-115392009D02*
X161106588Y-115344390D01*
X161106588Y-115344390D02*
X161058969Y-115296771D01*
X161058969Y-115296771D02*
X161011350Y-115201533D01*
X161011350Y-115201533D02*
X161011350Y-115106295D01*
X161011350Y-115106295D02*
X161058969Y-115011057D01*
X161058969Y-115011057D02*
X161106588Y-114963438D01*
X161106588Y-114963438D02*
X161201826Y-114915819D01*
X161201826Y-114915819D02*
X161439921Y-114915819D01*
X161439921Y-114915819D02*
X161582778Y-114963438D01*
X162011350Y-115915819D02*
X162011350Y-114915819D01*
X162011350Y-114915819D02*
X162392302Y-114915819D01*
X162392302Y-114915819D02*
X162487540Y-114963438D01*
X162487540Y-114963438D02*
X162535159Y-115011057D01*
X162535159Y-115011057D02*
X162582778Y-115106295D01*
X162582778Y-115106295D02*
X162582778Y-115249152D01*
X162582778Y-115249152D02*
X162535159Y-115344390D01*
X162535159Y-115344390D02*
X162487540Y-115392009D01*
X162487540Y-115392009D02*
X162392302Y-115439628D01*
X162392302Y-115439628D02*
X162011350Y-115439628D01*
X152006177Y-131181412D02*
X152006177Y-130175979D01*
X152006177Y-130175979D02*
X152389199Y-130175979D01*
X152389199Y-130175979D02*
X152484955Y-130223857D01*
X152484955Y-130223857D02*
X152532833Y-130271735D01*
X152532833Y-130271735D02*
X152580710Y-130367490D01*
X152580710Y-130367490D02*
X152580710Y-130511124D01*
X152580710Y-130511124D02*
X152532833Y-130606879D01*
X152532833Y-130606879D02*
X152484955Y-130654757D01*
X152484955Y-130654757D02*
X152389199Y-130702635D01*
X152389199Y-130702635D02*
X152006177Y-130702635D01*
X152915855Y-130175979D02*
X153586143Y-130175979D01*
X153586143Y-130175979D02*
X152915855Y-131181412D01*
X152915855Y-131181412D02*
X153586143Y-131181412D01*
X154495821Y-131181412D02*
X153921288Y-131181412D01*
X154208554Y-131181412D02*
X154208554Y-130175979D01*
X154208554Y-130175979D02*
X154112799Y-130319613D01*
X154112799Y-130319613D02*
X154017043Y-130415368D01*
X154017043Y-130415368D02*
X153921288Y-130463246D01*
X144797527Y-138946429D02*
X145562432Y-138946429D01*
X145179979Y-139328881D02*
X145179979Y-138563977D01*
X159060701Y-138945568D02*
X159824598Y-138945568D01*
X152857142Y-96600819D02*
X152523809Y-96124628D01*
X152285714Y-96600819D02*
X152285714Y-95600819D01*
X152285714Y-95600819D02*
X152666666Y-95600819D01*
X152666666Y-95600819D02*
X152761904Y-95648438D01*
X152761904Y-95648438D02*
X152809523Y-95696057D01*
X152809523Y-95696057D02*
X152857142Y-95791295D01*
X152857142Y-95791295D02*
X152857142Y-95934152D01*
X152857142Y-95934152D02*
X152809523Y-96029390D01*
X152809523Y-96029390D02*
X152761904Y-96077009D01*
X152761904Y-96077009D02*
X152666666Y-96124628D01*
X152666666Y-96124628D02*
X152285714Y-96124628D01*
X153809523Y-96600819D02*
X153238095Y-96600819D01*
X153523809Y-96600819D02*
X153523809Y-95600819D01*
X153523809Y-95600819D02*
X153428571Y-95743676D01*
X153428571Y-95743676D02*
X153333333Y-95838914D01*
X153333333Y-95838914D02*
X153238095Y-95886533D01*
X154761904Y-96600819D02*
X154190476Y-96600819D01*
X154476190Y-96600819D02*
X154476190Y-95600819D01*
X154476190Y-95600819D02*
X154380952Y-95743676D01*
X154380952Y-95743676D02*
X154285714Y-95838914D01*
X154285714Y-95838914D02*
X154190476Y-95886533D01*
X118115104Y-142465047D02*
X118115104Y-141988857D01*
X118400819Y-142560285D02*
X117400819Y-142226952D01*
X117400819Y-142226952D02*
X118400819Y-141893619D01*
X118400819Y-141560285D02*
X117400819Y-141560285D01*
X117400819Y-141560285D02*
X118400819Y-140988857D01*
X118400819Y-140988857D02*
X117400819Y-140988857D01*
X117400819Y-140655523D02*
X117400819Y-140084095D01*
X118400819Y-140369809D02*
X117400819Y-140369809D01*
X118400819Y-139226952D02*
X118400819Y-139798380D01*
X118400819Y-139512666D02*
X117400819Y-139512666D01*
X117400819Y-139512666D02*
X117543676Y-139607904D01*
X117543676Y-139607904D02*
X117638914Y-139703142D01*
X117638914Y-139703142D02*
X117686533Y-139798380D01*
X122353142Y-106500819D02*
X122019809Y-106024628D01*
X121781714Y-106500819D02*
X121781714Y-105500819D01*
X121781714Y-105500819D02*
X122162666Y-105500819D01*
X122162666Y-105500819D02*
X122257904Y-105548438D01*
X122257904Y-105548438D02*
X122305523Y-105596057D01*
X122305523Y-105596057D02*
X122353142Y-105691295D01*
X122353142Y-105691295D02*
X122353142Y-105834152D01*
X122353142Y-105834152D02*
X122305523Y-105929390D01*
X122305523Y-105929390D02*
X122257904Y-105977009D01*
X122257904Y-105977009D02*
X122162666Y-106024628D01*
X122162666Y-106024628D02*
X121781714Y-106024628D01*
X123305523Y-106500819D02*
X122734095Y-106500819D01*
X123019809Y-106500819D02*
X123019809Y-105500819D01*
X123019809Y-105500819D02*
X122924571Y-105643676D01*
X122924571Y-105643676D02*
X122829333Y-105738914D01*
X122829333Y-105738914D02*
X122734095Y-105786533D01*
X124162666Y-105834152D02*
X124162666Y-106500819D01*
X123924571Y-105453200D02*
X123686476Y-106167485D01*
X123686476Y-106167485D02*
X124305523Y-106167485D01*
X159833333Y-98854152D02*
X159500000Y-98377961D01*
X159261905Y-98854152D02*
X159261905Y-97854152D01*
X159261905Y-97854152D02*
X159642857Y-97854152D01*
X159642857Y-97854152D02*
X159738095Y-97901771D01*
X159738095Y-97901771D02*
X159785714Y-97949390D01*
X159785714Y-97949390D02*
X159833333Y-98044628D01*
X159833333Y-98044628D02*
X159833333Y-98187485D01*
X159833333Y-98187485D02*
X159785714Y-98282723D01*
X159785714Y-98282723D02*
X159738095Y-98330342D01*
X159738095Y-98330342D02*
X159642857Y-98377961D01*
X159642857Y-98377961D02*
X159261905Y-98377961D01*
X160309524Y-98854152D02*
X160500000Y-98854152D01*
X160500000Y-98854152D02*
X160595238Y-98806533D01*
X160595238Y-98806533D02*
X160642857Y-98758913D01*
X160642857Y-98758913D02*
X160738095Y-98616056D01*
X160738095Y-98616056D02*
X160785714Y-98425580D01*
X160785714Y-98425580D02*
X160785714Y-98044628D01*
X160785714Y-98044628D02*
X160738095Y-97949390D01*
X160738095Y-97949390D02*
X160690476Y-97901771D01*
X160690476Y-97901771D02*
X160595238Y-97854152D01*
X160595238Y-97854152D02*
X160404762Y-97854152D01*
X160404762Y-97854152D02*
X160309524Y-97901771D01*
X160309524Y-97901771D02*
X160261905Y-97949390D01*
X160261905Y-97949390D02*
X160214286Y-98044628D01*
X160214286Y-98044628D02*
X160214286Y-98282723D01*
X160214286Y-98282723D02*
X160261905Y-98377961D01*
X160261905Y-98377961D02*
X160309524Y-98425580D01*
X160309524Y-98425580D02*
X160404762Y-98473199D01*
X160404762Y-98473199D02*
X160595238Y-98473199D01*
X160595238Y-98473199D02*
X160690476Y-98425580D01*
X160690476Y-98425580D02*
X160738095Y-98377961D01*
X160738095Y-98377961D02*
X160785714Y-98282723D01*
X133153142Y-127100819D02*
X132819809Y-126624628D01*
X132581714Y-127100819D02*
X132581714Y-126100819D01*
X132581714Y-126100819D02*
X132962666Y-126100819D01*
X132962666Y-126100819D02*
X133057904Y-126148438D01*
X133057904Y-126148438D02*
X133105523Y-126196057D01*
X133105523Y-126196057D02*
X133153142Y-126291295D01*
X133153142Y-126291295D02*
X133153142Y-126434152D01*
X133153142Y-126434152D02*
X133105523Y-126529390D01*
X133105523Y-126529390D02*
X133057904Y-126577009D01*
X133057904Y-126577009D02*
X132962666Y-126624628D01*
X132962666Y-126624628D02*
X132581714Y-126624628D01*
X133534095Y-126196057D02*
X133581714Y-126148438D01*
X133581714Y-126148438D02*
X133676952Y-126100819D01*
X133676952Y-126100819D02*
X133915047Y-126100819D01*
X133915047Y-126100819D02*
X134010285Y-126148438D01*
X134010285Y-126148438D02*
X134057904Y-126196057D01*
X134057904Y-126196057D02*
X134105523Y-126291295D01*
X134105523Y-126291295D02*
X134105523Y-126386533D01*
X134105523Y-126386533D02*
X134057904Y-126529390D01*
X134057904Y-126529390D02*
X133486476Y-127100819D01*
X133486476Y-127100819D02*
X134105523Y-127100819D01*
X134724571Y-126100819D02*
X134819809Y-126100819D01*
X134819809Y-126100819D02*
X134915047Y-126148438D01*
X134915047Y-126148438D02*
X134962666Y-126196057D01*
X134962666Y-126196057D02*
X135010285Y-126291295D01*
X135010285Y-126291295D02*
X135057904Y-126481771D01*
X135057904Y-126481771D02*
X135057904Y-126719866D01*
X135057904Y-126719866D02*
X135010285Y-126910342D01*
X135010285Y-126910342D02*
X134962666Y-127005580D01*
X134962666Y-127005580D02*
X134915047Y-127053200D01*
X134915047Y-127053200D02*
X134819809Y-127100819D01*
X134819809Y-127100819D02*
X134724571Y-127100819D01*
X134724571Y-127100819D02*
X134629333Y-127053200D01*
X134629333Y-127053200D02*
X134581714Y-127005580D01*
X134581714Y-127005580D02*
X134534095Y-126910342D01*
X134534095Y-126910342D02*
X134486476Y-126719866D01*
X134486476Y-126719866D02*
X134486476Y-126481771D01*
X134486476Y-126481771D02*
X134534095Y-126291295D01*
X134534095Y-126291295D02*
X134581714Y-126196057D01*
X134581714Y-126196057D02*
X134629333Y-126148438D01*
X134629333Y-126148438D02*
X134724571Y-126100819D01*
X133157142Y-122059580D02*
X133109523Y-122107200D01*
X133109523Y-122107200D02*
X132966666Y-122154819D01*
X132966666Y-122154819D02*
X132871428Y-122154819D01*
X132871428Y-122154819D02*
X132728571Y-122107200D01*
X132728571Y-122107200D02*
X132633333Y-122011961D01*
X132633333Y-122011961D02*
X132585714Y-121916723D01*
X132585714Y-121916723D02*
X132538095Y-121726247D01*
X132538095Y-121726247D02*
X132538095Y-121583390D01*
X132538095Y-121583390D02*
X132585714Y-121392914D01*
X132585714Y-121392914D02*
X132633333Y-121297676D01*
X132633333Y-121297676D02*
X132728571Y-121202438D01*
X132728571Y-121202438D02*
X132871428Y-121154819D01*
X132871428Y-121154819D02*
X132966666Y-121154819D01*
X132966666Y-121154819D02*
X133109523Y-121202438D01*
X133109523Y-121202438D02*
X133157142Y-121250057D01*
X134109523Y-122154819D02*
X133538095Y-122154819D01*
X133823809Y-122154819D02*
X133823809Y-121154819D01*
X133823809Y-121154819D02*
X133728571Y-121297676D01*
X133728571Y-121297676D02*
X133633333Y-121392914D01*
X133633333Y-121392914D02*
X133538095Y-121440533D01*
X135014285Y-121154819D02*
X134538095Y-121154819D01*
X134538095Y-121154819D02*
X134490476Y-121631009D01*
X134490476Y-121631009D02*
X134538095Y-121583390D01*
X134538095Y-121583390D02*
X134633333Y-121535771D01*
X134633333Y-121535771D02*
X134871428Y-121535771D01*
X134871428Y-121535771D02*
X134966666Y-121583390D01*
X134966666Y-121583390D02*
X135014285Y-121631009D01*
X135014285Y-121631009D02*
X135061904Y-121726247D01*
X135061904Y-121726247D02*
X135061904Y-121964342D01*
X135061904Y-121964342D02*
X135014285Y-122059580D01*
X135014285Y-122059580D02*
X134966666Y-122107200D01*
X134966666Y-122107200D02*
X134871428Y-122154819D01*
X134871428Y-122154819D02*
X134633333Y-122154819D01*
X134633333Y-122154819D02*
X134538095Y-122107200D01*
X134538095Y-122107200D02*
X134490476Y-122059580D01*
X142703142Y-143905580D02*
X142655523Y-143953200D01*
X142655523Y-143953200D02*
X142512666Y-144000819D01*
X142512666Y-144000819D02*
X142417428Y-144000819D01*
X142417428Y-144000819D02*
X142274571Y-143953200D01*
X142274571Y-143953200D02*
X142179333Y-143857961D01*
X142179333Y-143857961D02*
X142131714Y-143762723D01*
X142131714Y-143762723D02*
X142084095Y-143572247D01*
X142084095Y-143572247D02*
X142084095Y-143429390D01*
X142084095Y-143429390D02*
X142131714Y-143238914D01*
X142131714Y-143238914D02*
X142179333Y-143143676D01*
X142179333Y-143143676D02*
X142274571Y-143048438D01*
X142274571Y-143048438D02*
X142417428Y-143000819D01*
X142417428Y-143000819D02*
X142512666Y-143000819D01*
X142512666Y-143000819D02*
X142655523Y-143048438D01*
X142655523Y-143048438D02*
X142703142Y-143096057D01*
X143655523Y-144000819D02*
X143084095Y-144000819D01*
X143369809Y-144000819D02*
X143369809Y-143000819D01*
X143369809Y-143000819D02*
X143274571Y-143143676D01*
X143274571Y-143143676D02*
X143179333Y-143238914D01*
X143179333Y-143238914D02*
X143084095Y-143286533D01*
X144274571Y-143000819D02*
X144369809Y-143000819D01*
X144369809Y-143000819D02*
X144465047Y-143048438D01*
X144465047Y-143048438D02*
X144512666Y-143096057D01*
X144512666Y-143096057D02*
X144560285Y-143191295D01*
X144560285Y-143191295D02*
X144607904Y-143381771D01*
X144607904Y-143381771D02*
X144607904Y-143619866D01*
X144607904Y-143619866D02*
X144560285Y-143810342D01*
X144560285Y-143810342D02*
X144512666Y-143905580D01*
X144512666Y-143905580D02*
X144465047Y-143953200D01*
X144465047Y-143953200D02*
X144369809Y-144000819D01*
X144369809Y-144000819D02*
X144274571Y-144000819D01*
X144274571Y-144000819D02*
X144179333Y-143953200D01*
X144179333Y-143953200D02*
X144131714Y-143905580D01*
X144131714Y-143905580D02*
X144084095Y-143810342D01*
X144084095Y-143810342D02*
X144036476Y-143619866D01*
X144036476Y-143619866D02*
X144036476Y-143381771D01*
X144036476Y-143381771D02*
X144084095Y-143191295D01*
X144084095Y-143191295D02*
X144131714Y-143096057D01*
X144131714Y-143096057D02*
X144179333Y-143048438D01*
X144179333Y-143048438D02*
X144274571Y-143000819D01*
X126361905Y-111500819D02*
X126361905Y-110500819D01*
X126361905Y-110500819D02*
X126600000Y-110500819D01*
X126600000Y-110500819D02*
X126742857Y-110548438D01*
X126742857Y-110548438D02*
X126838095Y-110643676D01*
X126838095Y-110643676D02*
X126885714Y-110738914D01*
X126885714Y-110738914D02*
X126933333Y-110929390D01*
X126933333Y-110929390D02*
X126933333Y-111072247D01*
X126933333Y-111072247D02*
X126885714Y-111262723D01*
X126885714Y-111262723D02*
X126838095Y-111357961D01*
X126838095Y-111357961D02*
X126742857Y-111453200D01*
X126742857Y-111453200D02*
X126600000Y-111500819D01*
X126600000Y-111500819D02*
X126361905Y-111500819D01*
X127314286Y-110596057D02*
X127361905Y-110548438D01*
X127361905Y-110548438D02*
X127457143Y-110500819D01*
X127457143Y-110500819D02*
X127695238Y-110500819D01*
X127695238Y-110500819D02*
X127790476Y-110548438D01*
X127790476Y-110548438D02*
X127838095Y-110596057D01*
X127838095Y-110596057D02*
X127885714Y-110691295D01*
X127885714Y-110691295D02*
X127885714Y-110786533D01*
X127885714Y-110786533D02*
X127838095Y-110929390D01*
X127838095Y-110929390D02*
X127266667Y-111500819D01*
X127266667Y-111500819D02*
X127885714Y-111500819D01*
X133303142Y-132149293D02*
X132969809Y-131673102D01*
X132731714Y-132149293D02*
X132731714Y-131149293D01*
X132731714Y-131149293D02*
X133112666Y-131149293D01*
X133112666Y-131149293D02*
X133207904Y-131196912D01*
X133207904Y-131196912D02*
X133255523Y-131244531D01*
X133255523Y-131244531D02*
X133303142Y-131339769D01*
X133303142Y-131339769D02*
X133303142Y-131482626D01*
X133303142Y-131482626D02*
X133255523Y-131577864D01*
X133255523Y-131577864D02*
X133207904Y-131625483D01*
X133207904Y-131625483D02*
X133112666Y-131673102D01*
X133112666Y-131673102D02*
X132731714Y-131673102D01*
X134255523Y-132149293D02*
X133684095Y-132149293D01*
X133969809Y-132149293D02*
X133969809Y-131149293D01*
X133969809Y-131149293D02*
X133874571Y-131292150D01*
X133874571Y-131292150D02*
X133779333Y-131387388D01*
X133779333Y-131387388D02*
X133684095Y-131435007D01*
X134826952Y-131577864D02*
X134731714Y-131530245D01*
X134731714Y-131530245D02*
X134684095Y-131482626D01*
X134684095Y-131482626D02*
X134636476Y-131387388D01*
X134636476Y-131387388D02*
X134636476Y-131339769D01*
X134636476Y-131339769D02*
X134684095Y-131244531D01*
X134684095Y-131244531D02*
X134731714Y-131196912D01*
X134731714Y-131196912D02*
X134826952Y-131149293D01*
X134826952Y-131149293D02*
X135017428Y-131149293D01*
X135017428Y-131149293D02*
X135112666Y-131196912D01*
X135112666Y-131196912D02*
X135160285Y-131244531D01*
X135160285Y-131244531D02*
X135207904Y-131339769D01*
X135207904Y-131339769D02*
X135207904Y-131387388D01*
X135207904Y-131387388D02*
X135160285Y-131482626D01*
X135160285Y-131482626D02*
X135112666Y-131530245D01*
X135112666Y-131530245D02*
X135017428Y-131577864D01*
X135017428Y-131577864D02*
X134826952Y-131577864D01*
X134826952Y-131577864D02*
X134731714Y-131625483D01*
X134731714Y-131625483D02*
X134684095Y-131673102D01*
X134684095Y-131673102D02*
X134636476Y-131768340D01*
X134636476Y-131768340D02*
X134636476Y-131958816D01*
X134636476Y-131958816D02*
X134684095Y-132054054D01*
X134684095Y-132054054D02*
X134731714Y-132101674D01*
X134731714Y-132101674D02*
X134826952Y-132149293D01*
X134826952Y-132149293D02*
X135017428Y-132149293D01*
X135017428Y-132149293D02*
X135112666Y-132101674D01*
X135112666Y-132101674D02*
X135160285Y-132054054D01*
X135160285Y-132054054D02*
X135207904Y-131958816D01*
X135207904Y-131958816D02*
X135207904Y-131768340D01*
X135207904Y-131768340D02*
X135160285Y-131673102D01*
X135160285Y-131673102D02*
X135112666Y-131625483D01*
X135112666Y-131625483D02*
X135017428Y-131577864D01*
X140705580Y-51538857D02*
X140753200Y-51586476D01*
X140753200Y-51586476D02*
X140800819Y-51729333D01*
X140800819Y-51729333D02*
X140800819Y-51824571D01*
X140800819Y-51824571D02*
X140753200Y-51967428D01*
X140753200Y-51967428D02*
X140657961Y-52062666D01*
X140657961Y-52062666D02*
X140562723Y-52110285D01*
X140562723Y-52110285D02*
X140372247Y-52157904D01*
X140372247Y-52157904D02*
X140229390Y-52157904D01*
X140229390Y-52157904D02*
X140038914Y-52110285D01*
X140038914Y-52110285D02*
X139943676Y-52062666D01*
X139943676Y-52062666D02*
X139848438Y-51967428D01*
X139848438Y-51967428D02*
X139800819Y-51824571D01*
X139800819Y-51824571D02*
X139800819Y-51729333D01*
X139800819Y-51729333D02*
X139848438Y-51586476D01*
X139848438Y-51586476D02*
X139896057Y-51538857D01*
X139896057Y-51157904D02*
X139848438Y-51110285D01*
X139848438Y-51110285D02*
X139800819Y-51015047D01*
X139800819Y-51015047D02*
X139800819Y-50776952D01*
X139800819Y-50776952D02*
X139848438Y-50681714D01*
X139848438Y-50681714D02*
X139896057Y-50634095D01*
X139896057Y-50634095D02*
X139991295Y-50586476D01*
X139991295Y-50586476D02*
X140086533Y-50586476D01*
X140086533Y-50586476D02*
X140229390Y-50634095D01*
X140229390Y-50634095D02*
X140800819Y-51205523D01*
X140800819Y-51205523D02*
X140800819Y-50586476D01*
X140800819Y-49634095D02*
X140800819Y-50205523D01*
X140800819Y-49919809D02*
X139800819Y-49919809D01*
X139800819Y-49919809D02*
X139943676Y-50015047D01*
X139943676Y-50015047D02*
X140038914Y-50110285D01*
X140038914Y-50110285D02*
X140086533Y-50205523D01*
X146057142Y-96498913D02*
X146009523Y-96546533D01*
X146009523Y-96546533D02*
X145866666Y-96594152D01*
X145866666Y-96594152D02*
X145771428Y-96594152D01*
X145771428Y-96594152D02*
X145628571Y-96546533D01*
X145628571Y-96546533D02*
X145533333Y-96451294D01*
X145533333Y-96451294D02*
X145485714Y-96356056D01*
X145485714Y-96356056D02*
X145438095Y-96165580D01*
X145438095Y-96165580D02*
X145438095Y-96022723D01*
X145438095Y-96022723D02*
X145485714Y-95832247D01*
X145485714Y-95832247D02*
X145533333Y-95737009D01*
X145533333Y-95737009D02*
X145628571Y-95641771D01*
X145628571Y-95641771D02*
X145771428Y-95594152D01*
X145771428Y-95594152D02*
X145866666Y-95594152D01*
X145866666Y-95594152D02*
X146009523Y-95641771D01*
X146009523Y-95641771D02*
X146057142Y-95689390D01*
X147009523Y-96594152D02*
X146438095Y-96594152D01*
X146723809Y-96594152D02*
X146723809Y-95594152D01*
X146723809Y-95594152D02*
X146628571Y-95737009D01*
X146628571Y-95737009D02*
X146533333Y-95832247D01*
X146533333Y-95832247D02*
X146438095Y-95879866D01*
X147580952Y-96022723D02*
X147485714Y-95975104D01*
X147485714Y-95975104D02*
X147438095Y-95927485D01*
X147438095Y-95927485D02*
X147390476Y-95832247D01*
X147390476Y-95832247D02*
X147390476Y-95784628D01*
X147390476Y-95784628D02*
X147438095Y-95689390D01*
X147438095Y-95689390D02*
X147485714Y-95641771D01*
X147485714Y-95641771D02*
X147580952Y-95594152D01*
X147580952Y-95594152D02*
X147771428Y-95594152D01*
X147771428Y-95594152D02*
X147866666Y-95641771D01*
X147866666Y-95641771D02*
X147914285Y-95689390D01*
X147914285Y-95689390D02*
X147961904Y-95784628D01*
X147961904Y-95784628D02*
X147961904Y-95832247D01*
X147961904Y-95832247D02*
X147914285Y-95927485D01*
X147914285Y-95927485D02*
X147866666Y-95975104D01*
X147866666Y-95975104D02*
X147771428Y-96022723D01*
X147771428Y-96022723D02*
X147580952Y-96022723D01*
X147580952Y-96022723D02*
X147485714Y-96070342D01*
X147485714Y-96070342D02*
X147438095Y-96117961D01*
X147438095Y-96117961D02*
X147390476Y-96213199D01*
X147390476Y-96213199D02*
X147390476Y-96403675D01*
X147390476Y-96403675D02*
X147438095Y-96498913D01*
X147438095Y-96498913D02*
X147485714Y-96546533D01*
X147485714Y-96546533D02*
X147580952Y-96594152D01*
X147580952Y-96594152D02*
X147771428Y-96594152D01*
X147771428Y-96594152D02*
X147866666Y-96546533D01*
X147866666Y-96546533D02*
X147914285Y-96498913D01*
X147914285Y-96498913D02*
X147961904Y-96403675D01*
X147961904Y-96403675D02*
X147961904Y-96213199D01*
X147961904Y-96213199D02*
X147914285Y-96117961D01*
X147914285Y-96117961D02*
X147866666Y-96070342D01*
X147866666Y-96070342D02*
X147771428Y-96022723D01*
X142033333Y-77545580D02*
X141985714Y-77593200D01*
X141985714Y-77593200D02*
X141842857Y-77640819D01*
X141842857Y-77640819D02*
X141747619Y-77640819D01*
X141747619Y-77640819D02*
X141604762Y-77593200D01*
X141604762Y-77593200D02*
X141509524Y-77497961D01*
X141509524Y-77497961D02*
X141461905Y-77402723D01*
X141461905Y-77402723D02*
X141414286Y-77212247D01*
X141414286Y-77212247D02*
X141414286Y-77069390D01*
X141414286Y-77069390D02*
X141461905Y-76878914D01*
X141461905Y-76878914D02*
X141509524Y-76783676D01*
X141509524Y-76783676D02*
X141604762Y-76688438D01*
X141604762Y-76688438D02*
X141747619Y-76640819D01*
X141747619Y-76640819D02*
X141842857Y-76640819D01*
X141842857Y-76640819D02*
X141985714Y-76688438D01*
X141985714Y-76688438D02*
X142033333Y-76736057D01*
X142366667Y-76640819D02*
X142985714Y-76640819D01*
X142985714Y-76640819D02*
X142652381Y-77021771D01*
X142652381Y-77021771D02*
X142795238Y-77021771D01*
X142795238Y-77021771D02*
X142890476Y-77069390D01*
X142890476Y-77069390D02*
X142938095Y-77117009D01*
X142938095Y-77117009D02*
X142985714Y-77212247D01*
X142985714Y-77212247D02*
X142985714Y-77450342D01*
X142985714Y-77450342D02*
X142938095Y-77545580D01*
X142938095Y-77545580D02*
X142890476Y-77593200D01*
X142890476Y-77593200D02*
X142795238Y-77640819D01*
X142795238Y-77640819D02*
X142509524Y-77640819D01*
X142509524Y-77640819D02*
X142414286Y-77593200D01*
X142414286Y-77593200D02*
X142366667Y-77545580D01*
X152857142Y-92054819D02*
X152523809Y-91578628D01*
X152285714Y-92054819D02*
X152285714Y-91054819D01*
X152285714Y-91054819D02*
X152666666Y-91054819D01*
X152666666Y-91054819D02*
X152761904Y-91102438D01*
X152761904Y-91102438D02*
X152809523Y-91150057D01*
X152809523Y-91150057D02*
X152857142Y-91245295D01*
X152857142Y-91245295D02*
X152857142Y-91388152D01*
X152857142Y-91388152D02*
X152809523Y-91483390D01*
X152809523Y-91483390D02*
X152761904Y-91531009D01*
X152761904Y-91531009D02*
X152666666Y-91578628D01*
X152666666Y-91578628D02*
X152285714Y-91578628D01*
X153809523Y-92054819D02*
X153238095Y-92054819D01*
X153523809Y-92054819D02*
X153523809Y-91054819D01*
X153523809Y-91054819D02*
X153428571Y-91197676D01*
X153428571Y-91197676D02*
X153333333Y-91292914D01*
X153333333Y-91292914D02*
X153238095Y-91340533D01*
X154190476Y-91150057D02*
X154238095Y-91102438D01*
X154238095Y-91102438D02*
X154333333Y-91054819D01*
X154333333Y-91054819D02*
X154571428Y-91054819D01*
X154571428Y-91054819D02*
X154666666Y-91102438D01*
X154666666Y-91102438D02*
X154714285Y-91150057D01*
X154714285Y-91150057D02*
X154761904Y-91245295D01*
X154761904Y-91245295D02*
X154761904Y-91340533D01*
X154761904Y-91340533D02*
X154714285Y-91483390D01*
X154714285Y-91483390D02*
X154142857Y-92054819D01*
X154142857Y-92054819D02*
X154761904Y-92054819D01*
X159154333Y-134025819D02*
X158821000Y-133549628D01*
X158582905Y-134025819D02*
X158582905Y-133025819D01*
X158582905Y-133025819D02*
X158963857Y-133025819D01*
X158963857Y-133025819D02*
X159059095Y-133073438D01*
X159059095Y-133073438D02*
X159106714Y-133121057D01*
X159106714Y-133121057D02*
X159154333Y-133216295D01*
X159154333Y-133216295D02*
X159154333Y-133359152D01*
X159154333Y-133359152D02*
X159106714Y-133454390D01*
X159106714Y-133454390D02*
X159059095Y-133502009D01*
X159059095Y-133502009D02*
X158963857Y-133549628D01*
X158963857Y-133549628D02*
X158582905Y-133549628D01*
X159487667Y-133025819D02*
X160154333Y-133025819D01*
X160154333Y-133025819D02*
X159725762Y-134025819D01*
X144152287Y-124444531D02*
X144057049Y-124396912D01*
X144057049Y-124396912D02*
X143961811Y-124301674D01*
X143961811Y-124301674D02*
X143818954Y-124158816D01*
X143818954Y-124158816D02*
X143723716Y-124111197D01*
X143723716Y-124111197D02*
X143628478Y-124111197D01*
X143676097Y-124349293D02*
X143580859Y-124301674D01*
X143580859Y-124301674D02*
X143485621Y-124206435D01*
X143485621Y-124206435D02*
X143438002Y-124015959D01*
X143438002Y-124015959D02*
X143438002Y-123682626D01*
X143438002Y-123682626D02*
X143485621Y-123492150D01*
X143485621Y-123492150D02*
X143580859Y-123396912D01*
X143580859Y-123396912D02*
X143676097Y-123349293D01*
X143676097Y-123349293D02*
X143866573Y-123349293D01*
X143866573Y-123349293D02*
X143961811Y-123396912D01*
X143961811Y-123396912D02*
X144057049Y-123492150D01*
X144057049Y-123492150D02*
X144104668Y-123682626D01*
X144104668Y-123682626D02*
X144104668Y-124015959D01*
X144104668Y-124015959D02*
X144057049Y-124206435D01*
X144057049Y-124206435D02*
X143961811Y-124301674D01*
X143961811Y-124301674D02*
X143866573Y-124349293D01*
X143866573Y-124349293D02*
X143676097Y-124349293D01*
X145009430Y-123349293D02*
X144533240Y-123349293D01*
X144533240Y-123349293D02*
X144485621Y-123825483D01*
X144485621Y-123825483D02*
X144533240Y-123777864D01*
X144533240Y-123777864D02*
X144628478Y-123730245D01*
X144628478Y-123730245D02*
X144866573Y-123730245D01*
X144866573Y-123730245D02*
X144961811Y-123777864D01*
X144961811Y-123777864D02*
X145009430Y-123825483D01*
X145009430Y-123825483D02*
X145057049Y-123920721D01*
X145057049Y-123920721D02*
X145057049Y-124158816D01*
X145057049Y-124158816D02*
X145009430Y-124254054D01*
X145009430Y-124254054D02*
X144961811Y-124301674D01*
X144961811Y-124301674D02*
X144866573Y-124349293D01*
X144866573Y-124349293D02*
X144628478Y-124349293D01*
X144628478Y-124349293D02*
X144533240Y-124301674D01*
X144533240Y-124301674D02*
X144485621Y-124254054D01*
X148184095Y-117050819D02*
X148184095Y-117860342D01*
X148184095Y-117860342D02*
X148231714Y-117955580D01*
X148231714Y-117955580D02*
X148279333Y-118003200D01*
X148279333Y-118003200D02*
X148374571Y-118050819D01*
X148374571Y-118050819D02*
X148565047Y-118050819D01*
X148565047Y-118050819D02*
X148660285Y-118003200D01*
X148660285Y-118003200D02*
X148707904Y-117955580D01*
X148707904Y-117955580D02*
X148755523Y-117860342D01*
X148755523Y-117860342D02*
X148755523Y-117050819D01*
X149136476Y-117050819D02*
X149755523Y-117050819D01*
X149755523Y-117050819D02*
X149422190Y-117431771D01*
X149422190Y-117431771D02*
X149565047Y-117431771D01*
X149565047Y-117431771D02*
X149660285Y-117479390D01*
X149660285Y-117479390D02*
X149707904Y-117527009D01*
X149707904Y-117527009D02*
X149755523Y-117622247D01*
X149755523Y-117622247D02*
X149755523Y-117860342D01*
X149755523Y-117860342D02*
X149707904Y-117955580D01*
X149707904Y-117955580D02*
X149660285Y-118003200D01*
X149660285Y-118003200D02*
X149565047Y-118050819D01*
X149565047Y-118050819D02*
X149279333Y-118050819D01*
X149279333Y-118050819D02*
X149184095Y-118003200D01*
X149184095Y-118003200D02*
X149136476Y-117955580D01*
X133203142Y-129849293D02*
X132869809Y-129373102D01*
X132631714Y-129849293D02*
X132631714Y-128849293D01*
X132631714Y-128849293D02*
X133012666Y-128849293D01*
X133012666Y-128849293D02*
X133107904Y-128896912D01*
X133107904Y-128896912D02*
X133155523Y-128944531D01*
X133155523Y-128944531D02*
X133203142Y-129039769D01*
X133203142Y-129039769D02*
X133203142Y-129182626D01*
X133203142Y-129182626D02*
X133155523Y-129277864D01*
X133155523Y-129277864D02*
X133107904Y-129325483D01*
X133107904Y-129325483D02*
X133012666Y-129373102D01*
X133012666Y-129373102D02*
X132631714Y-129373102D01*
X134155523Y-129849293D02*
X133584095Y-129849293D01*
X133869809Y-129849293D02*
X133869809Y-128849293D01*
X133869809Y-128849293D02*
X133774571Y-128992150D01*
X133774571Y-128992150D02*
X133679333Y-129087388D01*
X133679333Y-129087388D02*
X133584095Y-129135007D01*
X134631714Y-129849293D02*
X134822190Y-129849293D01*
X134822190Y-129849293D02*
X134917428Y-129801674D01*
X134917428Y-129801674D02*
X134965047Y-129754054D01*
X134965047Y-129754054D02*
X135060285Y-129611197D01*
X135060285Y-129611197D02*
X135107904Y-129420721D01*
X135107904Y-129420721D02*
X135107904Y-129039769D01*
X135107904Y-129039769D02*
X135060285Y-128944531D01*
X135060285Y-128944531D02*
X135012666Y-128896912D01*
X135012666Y-128896912D02*
X134917428Y-128849293D01*
X134917428Y-128849293D02*
X134726952Y-128849293D01*
X134726952Y-128849293D02*
X134631714Y-128896912D01*
X134631714Y-128896912D02*
X134584095Y-128944531D01*
X134584095Y-128944531D02*
X134536476Y-129039769D01*
X134536476Y-129039769D02*
X134536476Y-129277864D01*
X134536476Y-129277864D02*
X134584095Y-129373102D01*
X134584095Y-129373102D02*
X134631714Y-129420721D01*
X134631714Y-129420721D02*
X134726952Y-129468340D01*
X134726952Y-129468340D02*
X134917428Y-129468340D01*
X134917428Y-129468340D02*
X135012666Y-129420721D01*
X135012666Y-129420721D02*
X135060285Y-129373102D01*
X135060285Y-129373102D02*
X135107904Y-129277864D01*
X142229333Y-74045580D02*
X142181714Y-74093200D01*
X142181714Y-74093200D02*
X142038857Y-74140819D01*
X142038857Y-74140819D02*
X141943619Y-74140819D01*
X141943619Y-74140819D02*
X141800762Y-74093200D01*
X141800762Y-74093200D02*
X141705524Y-73997961D01*
X141705524Y-73997961D02*
X141657905Y-73902723D01*
X141657905Y-73902723D02*
X141610286Y-73712247D01*
X141610286Y-73712247D02*
X141610286Y-73569390D01*
X141610286Y-73569390D02*
X141657905Y-73378914D01*
X141657905Y-73378914D02*
X141705524Y-73283676D01*
X141705524Y-73283676D02*
X141800762Y-73188438D01*
X141800762Y-73188438D02*
X141943619Y-73140819D01*
X141943619Y-73140819D02*
X142038857Y-73140819D01*
X142038857Y-73140819D02*
X142181714Y-73188438D01*
X142181714Y-73188438D02*
X142229333Y-73236057D01*
X143181714Y-74140819D02*
X142610286Y-74140819D01*
X142896000Y-74140819D02*
X142896000Y-73140819D01*
X142896000Y-73140819D02*
X142800762Y-73283676D01*
X142800762Y-73283676D02*
X142705524Y-73378914D01*
X142705524Y-73378914D02*
X142610286Y-73426533D01*
X132400819Y-143307904D02*
X133210342Y-143307904D01*
X133210342Y-143307904D02*
X133305580Y-143260285D01*
X133305580Y-143260285D02*
X133353200Y-143212666D01*
X133353200Y-143212666D02*
X133400819Y-143117428D01*
X133400819Y-143117428D02*
X133400819Y-142926952D01*
X133400819Y-142926952D02*
X133353200Y-142831714D01*
X133353200Y-142831714D02*
X133305580Y-142784095D01*
X133305580Y-142784095D02*
X133210342Y-142736476D01*
X133210342Y-142736476D02*
X132400819Y-142736476D01*
X132496057Y-142307904D02*
X132448438Y-142260285D01*
X132448438Y-142260285D02*
X132400819Y-142165047D01*
X132400819Y-142165047D02*
X132400819Y-141926952D01*
X132400819Y-141926952D02*
X132448438Y-141831714D01*
X132448438Y-141831714D02*
X132496057Y-141784095D01*
X132496057Y-141784095D02*
X132591295Y-141736476D01*
X132591295Y-141736476D02*
X132686533Y-141736476D01*
X132686533Y-141736476D02*
X132829390Y-141784095D01*
X132829390Y-141784095D02*
X133400819Y-142355523D01*
X133400819Y-142355523D02*
X133400819Y-141736476D01*
X159833333Y-94258913D02*
X159785714Y-94306533D01*
X159785714Y-94306533D02*
X159642857Y-94354152D01*
X159642857Y-94354152D02*
X159547619Y-94354152D01*
X159547619Y-94354152D02*
X159404762Y-94306533D01*
X159404762Y-94306533D02*
X159309524Y-94211294D01*
X159309524Y-94211294D02*
X159261905Y-94116056D01*
X159261905Y-94116056D02*
X159214286Y-93925580D01*
X159214286Y-93925580D02*
X159214286Y-93782723D01*
X159214286Y-93782723D02*
X159261905Y-93592247D01*
X159261905Y-93592247D02*
X159309524Y-93497009D01*
X159309524Y-93497009D02*
X159404762Y-93401771D01*
X159404762Y-93401771D02*
X159547619Y-93354152D01*
X159547619Y-93354152D02*
X159642857Y-93354152D01*
X159642857Y-93354152D02*
X159785714Y-93401771D01*
X159785714Y-93401771D02*
X159833333Y-93449390D01*
X160214286Y-93449390D02*
X160261905Y-93401771D01*
X160261905Y-93401771D02*
X160357143Y-93354152D01*
X160357143Y-93354152D02*
X160595238Y-93354152D01*
X160595238Y-93354152D02*
X160690476Y-93401771D01*
X160690476Y-93401771D02*
X160738095Y-93449390D01*
X160738095Y-93449390D02*
X160785714Y-93544628D01*
X160785714Y-93544628D02*
X160785714Y-93639866D01*
X160785714Y-93639866D02*
X160738095Y-93782723D01*
X160738095Y-93782723D02*
X160166667Y-94354152D01*
X160166667Y-94354152D02*
X160785714Y-94354152D01*
X148644819Y-100833333D02*
X149359104Y-100833333D01*
X149359104Y-100833333D02*
X149501961Y-100880952D01*
X149501961Y-100880952D02*
X149597200Y-100976190D01*
X149597200Y-100976190D02*
X149644819Y-101119047D01*
X149644819Y-101119047D02*
X149644819Y-101214285D01*
X148740057Y-100404761D02*
X148692438Y-100357142D01*
X148692438Y-100357142D02*
X148644819Y-100261904D01*
X148644819Y-100261904D02*
X148644819Y-100023809D01*
X148644819Y-100023809D02*
X148692438Y-99928571D01*
X148692438Y-99928571D02*
X148740057Y-99880952D01*
X148740057Y-99880952D02*
X148835295Y-99833333D01*
X148835295Y-99833333D02*
X148930533Y-99833333D01*
X148930533Y-99833333D02*
X149073390Y-99880952D01*
X149073390Y-99880952D02*
X149644819Y-100452380D01*
X149644819Y-100452380D02*
X149644819Y-99833333D01*
X123203142Y-113705580D02*
X123155523Y-113753200D01*
X123155523Y-113753200D02*
X123012666Y-113800819D01*
X123012666Y-113800819D02*
X122917428Y-113800819D01*
X122917428Y-113800819D02*
X122774571Y-113753200D01*
X122774571Y-113753200D02*
X122679333Y-113657961D01*
X122679333Y-113657961D02*
X122631714Y-113562723D01*
X122631714Y-113562723D02*
X122584095Y-113372247D01*
X122584095Y-113372247D02*
X122584095Y-113229390D01*
X122584095Y-113229390D02*
X122631714Y-113038914D01*
X122631714Y-113038914D02*
X122679333Y-112943676D01*
X122679333Y-112943676D02*
X122774571Y-112848438D01*
X122774571Y-112848438D02*
X122917428Y-112800819D01*
X122917428Y-112800819D02*
X123012666Y-112800819D01*
X123012666Y-112800819D02*
X123155523Y-112848438D01*
X123155523Y-112848438D02*
X123203142Y-112896057D01*
X124155523Y-113800819D02*
X123584095Y-113800819D01*
X123869809Y-113800819D02*
X123869809Y-112800819D01*
X123869809Y-112800819D02*
X123774571Y-112943676D01*
X123774571Y-112943676D02*
X123679333Y-113038914D01*
X123679333Y-113038914D02*
X123584095Y-113086533D01*
X125012666Y-113134152D02*
X125012666Y-113800819D01*
X124774571Y-112753200D02*
X124536476Y-113467485D01*
X124536476Y-113467485D02*
X125155523Y-113467485D01*
X146057142Y-92070819D02*
X145723809Y-91594628D01*
X145485714Y-92070819D02*
X145485714Y-91070819D01*
X145485714Y-91070819D02*
X145866666Y-91070819D01*
X145866666Y-91070819D02*
X145961904Y-91118438D01*
X145961904Y-91118438D02*
X146009523Y-91166057D01*
X146009523Y-91166057D02*
X146057142Y-91261295D01*
X146057142Y-91261295D02*
X146057142Y-91404152D01*
X146057142Y-91404152D02*
X146009523Y-91499390D01*
X146009523Y-91499390D02*
X145961904Y-91547009D01*
X145961904Y-91547009D02*
X145866666Y-91594628D01*
X145866666Y-91594628D02*
X145485714Y-91594628D01*
X147009523Y-92070819D02*
X146438095Y-92070819D01*
X146723809Y-92070819D02*
X146723809Y-91070819D01*
X146723809Y-91070819D02*
X146628571Y-91213676D01*
X146628571Y-91213676D02*
X146533333Y-91308914D01*
X146533333Y-91308914D02*
X146438095Y-91356533D01*
X147628571Y-91070819D02*
X147723809Y-91070819D01*
X147723809Y-91070819D02*
X147819047Y-91118438D01*
X147819047Y-91118438D02*
X147866666Y-91166057D01*
X147866666Y-91166057D02*
X147914285Y-91261295D01*
X147914285Y-91261295D02*
X147961904Y-91451771D01*
X147961904Y-91451771D02*
X147961904Y-91689866D01*
X147961904Y-91689866D02*
X147914285Y-91880342D01*
X147914285Y-91880342D02*
X147866666Y-91975580D01*
X147866666Y-91975580D02*
X147819047Y-92023200D01*
X147819047Y-92023200D02*
X147723809Y-92070819D01*
X147723809Y-92070819D02*
X147628571Y-92070819D01*
X147628571Y-92070819D02*
X147533333Y-92023200D01*
X147533333Y-92023200D02*
X147485714Y-91975580D01*
X147485714Y-91975580D02*
X147438095Y-91880342D01*
X147438095Y-91880342D02*
X147390476Y-91689866D01*
X147390476Y-91689866D02*
X147390476Y-91451771D01*
X147390476Y-91451771D02*
X147438095Y-91261295D01*
X147438095Y-91261295D02*
X147485714Y-91166057D01*
X147485714Y-91166057D02*
X147533333Y-91118438D01*
X147533333Y-91118438D02*
X147628571Y-91070819D01*
X145388319Y-125712666D02*
X144912128Y-126045999D01*
X145388319Y-126284094D02*
X144388319Y-126284094D01*
X144388319Y-126284094D02*
X144388319Y-125903142D01*
X144388319Y-125903142D02*
X144435938Y-125807904D01*
X144435938Y-125807904D02*
X144483557Y-125760285D01*
X144483557Y-125760285D02*
X144578795Y-125712666D01*
X144578795Y-125712666D02*
X144721652Y-125712666D01*
X144721652Y-125712666D02*
X144816890Y-125760285D01*
X144816890Y-125760285D02*
X144864509Y-125807904D01*
X144864509Y-125807904D02*
X144912128Y-125903142D01*
X144912128Y-125903142D02*
X144912128Y-126284094D01*
X144388319Y-124807904D02*
X144388319Y-125284094D01*
X144388319Y-125284094D02*
X144864509Y-125331713D01*
X144864509Y-125331713D02*
X144816890Y-125284094D01*
X144816890Y-125284094D02*
X144769271Y-125188856D01*
X144769271Y-125188856D02*
X144769271Y-124950761D01*
X144769271Y-124950761D02*
X144816890Y-124855523D01*
X144816890Y-124855523D02*
X144864509Y-124807904D01*
X144864509Y-124807904D02*
X144959747Y-124760285D01*
X144959747Y-124760285D02*
X145197842Y-124760285D01*
X145197842Y-124760285D02*
X145293080Y-124807904D01*
X145293080Y-124807904D02*
X145340700Y-124855523D01*
X145340700Y-124855523D02*
X145388319Y-124950761D01*
X145388319Y-124950761D02*
X145388319Y-125188856D01*
X145388319Y-125188856D02*
X145340700Y-125284094D01*
X145340700Y-125284094D02*
X145293080Y-125331713D01*
X118003142Y-113705580D02*
X117955523Y-113753200D01*
X117955523Y-113753200D02*
X117812666Y-113800819D01*
X117812666Y-113800819D02*
X117717428Y-113800819D01*
X117717428Y-113800819D02*
X117574571Y-113753200D01*
X117574571Y-113753200D02*
X117479333Y-113657961D01*
X117479333Y-113657961D02*
X117431714Y-113562723D01*
X117431714Y-113562723D02*
X117384095Y-113372247D01*
X117384095Y-113372247D02*
X117384095Y-113229390D01*
X117384095Y-113229390D02*
X117431714Y-113038914D01*
X117431714Y-113038914D02*
X117479333Y-112943676D01*
X117479333Y-112943676D02*
X117574571Y-112848438D01*
X117574571Y-112848438D02*
X117717428Y-112800819D01*
X117717428Y-112800819D02*
X117812666Y-112800819D01*
X117812666Y-112800819D02*
X117955523Y-112848438D01*
X117955523Y-112848438D02*
X118003142Y-112896057D01*
X118955523Y-113800819D02*
X118384095Y-113800819D01*
X118669809Y-113800819D02*
X118669809Y-112800819D01*
X118669809Y-112800819D02*
X118574571Y-112943676D01*
X118574571Y-112943676D02*
X118479333Y-113038914D01*
X118479333Y-113038914D02*
X118384095Y-113086533D01*
X119431714Y-113800819D02*
X119622190Y-113800819D01*
X119622190Y-113800819D02*
X119717428Y-113753200D01*
X119717428Y-113753200D02*
X119765047Y-113705580D01*
X119765047Y-113705580D02*
X119860285Y-113562723D01*
X119860285Y-113562723D02*
X119907904Y-113372247D01*
X119907904Y-113372247D02*
X119907904Y-112991295D01*
X119907904Y-112991295D02*
X119860285Y-112896057D01*
X119860285Y-112896057D02*
X119812666Y-112848438D01*
X119812666Y-112848438D02*
X119717428Y-112800819D01*
X119717428Y-112800819D02*
X119526952Y-112800819D01*
X119526952Y-112800819D02*
X119431714Y-112848438D01*
X119431714Y-112848438D02*
X119384095Y-112896057D01*
X119384095Y-112896057D02*
X119336476Y-112991295D01*
X119336476Y-112991295D02*
X119336476Y-113229390D01*
X119336476Y-113229390D02*
X119384095Y-113324628D01*
X119384095Y-113324628D02*
X119431714Y-113372247D01*
X119431714Y-113372247D02*
X119526952Y-113419866D01*
X119526952Y-113419866D02*
X119717428Y-113419866D01*
X119717428Y-113419866D02*
X119812666Y-113372247D01*
X119812666Y-113372247D02*
X119860285Y-113324628D01*
X119860285Y-113324628D02*
X119907904Y-113229390D01*
X142179333Y-79845580D02*
X142131714Y-79893200D01*
X142131714Y-79893200D02*
X141988857Y-79940819D01*
X141988857Y-79940819D02*
X141893619Y-79940819D01*
X141893619Y-79940819D02*
X141750762Y-79893200D01*
X141750762Y-79893200D02*
X141655524Y-79797961D01*
X141655524Y-79797961D02*
X141607905Y-79702723D01*
X141607905Y-79702723D02*
X141560286Y-79512247D01*
X141560286Y-79512247D02*
X141560286Y-79369390D01*
X141560286Y-79369390D02*
X141607905Y-79178914D01*
X141607905Y-79178914D02*
X141655524Y-79083676D01*
X141655524Y-79083676D02*
X141750762Y-78988438D01*
X141750762Y-78988438D02*
X141893619Y-78940819D01*
X141893619Y-78940819D02*
X141988857Y-78940819D01*
X141988857Y-78940819D02*
X142131714Y-78988438D01*
X142131714Y-78988438D02*
X142179333Y-79036057D01*
X142750762Y-79369390D02*
X142655524Y-79321771D01*
X142655524Y-79321771D02*
X142607905Y-79274152D01*
X142607905Y-79274152D02*
X142560286Y-79178914D01*
X142560286Y-79178914D02*
X142560286Y-79131295D01*
X142560286Y-79131295D02*
X142607905Y-79036057D01*
X142607905Y-79036057D02*
X142655524Y-78988438D01*
X142655524Y-78988438D02*
X142750762Y-78940819D01*
X142750762Y-78940819D02*
X142941238Y-78940819D01*
X142941238Y-78940819D02*
X143036476Y-78988438D01*
X143036476Y-78988438D02*
X143084095Y-79036057D01*
X143084095Y-79036057D02*
X143131714Y-79131295D01*
X143131714Y-79131295D02*
X143131714Y-79178914D01*
X143131714Y-79178914D02*
X143084095Y-79274152D01*
X143084095Y-79274152D02*
X143036476Y-79321771D01*
X143036476Y-79321771D02*
X142941238Y-79369390D01*
X142941238Y-79369390D02*
X142750762Y-79369390D01*
X142750762Y-79369390D02*
X142655524Y-79417009D01*
X142655524Y-79417009D02*
X142607905Y-79464628D01*
X142607905Y-79464628D02*
X142560286Y-79559866D01*
X142560286Y-79559866D02*
X142560286Y-79750342D01*
X142560286Y-79750342D02*
X142607905Y-79845580D01*
X142607905Y-79845580D02*
X142655524Y-79893200D01*
X142655524Y-79893200D02*
X142750762Y-79940819D01*
X142750762Y-79940819D02*
X142941238Y-79940819D01*
X142941238Y-79940819D02*
X143036476Y-79893200D01*
X143036476Y-79893200D02*
X143084095Y-79845580D01*
X143084095Y-79845580D02*
X143131714Y-79750342D01*
X143131714Y-79750342D02*
X143131714Y-79559866D01*
X143131714Y-79559866D02*
X143084095Y-79464628D01*
X143084095Y-79464628D02*
X143036476Y-79417009D01*
X143036476Y-79417009D02*
X142941238Y-79369390D01*
X133150761Y-119096057D02*
X133055523Y-119048438D01*
X133055523Y-119048438D02*
X132960285Y-118953200D01*
X132960285Y-118953200D02*
X132817428Y-118810342D01*
X132817428Y-118810342D02*
X132722190Y-118762723D01*
X132722190Y-118762723D02*
X132626952Y-118762723D01*
X132674571Y-119000819D02*
X132579333Y-118953200D01*
X132579333Y-118953200D02*
X132484095Y-118857961D01*
X132484095Y-118857961D02*
X132436476Y-118667485D01*
X132436476Y-118667485D02*
X132436476Y-118334152D01*
X132436476Y-118334152D02*
X132484095Y-118143676D01*
X132484095Y-118143676D02*
X132579333Y-118048438D01*
X132579333Y-118048438D02*
X132674571Y-118000819D01*
X132674571Y-118000819D02*
X132865047Y-118000819D01*
X132865047Y-118000819D02*
X132960285Y-118048438D01*
X132960285Y-118048438D02*
X133055523Y-118143676D01*
X133055523Y-118143676D02*
X133103142Y-118334152D01*
X133103142Y-118334152D02*
X133103142Y-118667485D01*
X133103142Y-118667485D02*
X133055523Y-118857961D01*
X133055523Y-118857961D02*
X132960285Y-118953200D01*
X132960285Y-118953200D02*
X132865047Y-119000819D01*
X132865047Y-119000819D02*
X132674571Y-119000819D01*
X133436476Y-118000819D02*
X134055523Y-118000819D01*
X134055523Y-118000819D02*
X133722190Y-118381771D01*
X133722190Y-118381771D02*
X133865047Y-118381771D01*
X133865047Y-118381771D02*
X133960285Y-118429390D01*
X133960285Y-118429390D02*
X134007904Y-118477009D01*
X134007904Y-118477009D02*
X134055523Y-118572247D01*
X134055523Y-118572247D02*
X134055523Y-118810342D01*
X134055523Y-118810342D02*
X134007904Y-118905580D01*
X134007904Y-118905580D02*
X133960285Y-118953200D01*
X133960285Y-118953200D02*
X133865047Y-119000819D01*
X133865047Y-119000819D02*
X133579333Y-119000819D01*
X133579333Y-119000819D02*
X133484095Y-118953200D01*
X133484095Y-118953200D02*
X133436476Y-118905580D01*
X161628142Y-138099330D02*
X161580523Y-138146950D01*
X161580523Y-138146950D02*
X161437666Y-138194569D01*
X161437666Y-138194569D02*
X161342428Y-138194569D01*
X161342428Y-138194569D02*
X161199571Y-138146950D01*
X161199571Y-138146950D02*
X161104333Y-138051711D01*
X161104333Y-138051711D02*
X161056714Y-137956473D01*
X161056714Y-137956473D02*
X161009095Y-137765997D01*
X161009095Y-137765997D02*
X161009095Y-137623140D01*
X161009095Y-137623140D02*
X161056714Y-137432664D01*
X161056714Y-137432664D02*
X161104333Y-137337426D01*
X161104333Y-137337426D02*
X161199571Y-137242188D01*
X161199571Y-137242188D02*
X161342428Y-137194569D01*
X161342428Y-137194569D02*
X161437666Y-137194569D01*
X161437666Y-137194569D02*
X161580523Y-137242188D01*
X161580523Y-137242188D02*
X161628142Y-137289807D01*
X162580523Y-138194569D02*
X162009095Y-138194569D01*
X162294809Y-138194569D02*
X162294809Y-137194569D01*
X162294809Y-137194569D02*
X162199571Y-137337426D01*
X162199571Y-137337426D02*
X162104333Y-137432664D01*
X162104333Y-137432664D02*
X162009095Y-137480283D01*
X162913857Y-137194569D02*
X163532904Y-137194569D01*
X163532904Y-137194569D02*
X163199571Y-137575521D01*
X163199571Y-137575521D02*
X163342428Y-137575521D01*
X163342428Y-137575521D02*
X163437666Y-137623140D01*
X163437666Y-137623140D02*
X163485285Y-137670759D01*
X163485285Y-137670759D02*
X163532904Y-137765997D01*
X163532904Y-137765997D02*
X163532904Y-138004092D01*
X163532904Y-138004092D02*
X163485285Y-138099330D01*
X163485285Y-138099330D02*
X163437666Y-138146950D01*
X163437666Y-138146950D02*
X163342428Y-138194569D01*
X163342428Y-138194569D02*
X163056714Y-138194569D01*
X163056714Y-138194569D02*
X162961476Y-138146950D01*
X162961476Y-138146950D02*
X162913857Y-138099330D01*
X136138095Y-101154819D02*
X136138095Y-101964342D01*
X136138095Y-101964342D02*
X136185714Y-102059580D01*
X136185714Y-102059580D02*
X136233333Y-102107200D01*
X136233333Y-102107200D02*
X136328571Y-102154819D01*
X136328571Y-102154819D02*
X136519047Y-102154819D01*
X136519047Y-102154819D02*
X136614285Y-102107200D01*
X136614285Y-102107200D02*
X136661904Y-102059580D01*
X136661904Y-102059580D02*
X136709523Y-101964342D01*
X136709523Y-101964342D02*
X136709523Y-101154819D01*
X137661904Y-101154819D02*
X137185714Y-101154819D01*
X137185714Y-101154819D02*
X137138095Y-101631009D01*
X137138095Y-101631009D02*
X137185714Y-101583390D01*
X137185714Y-101583390D02*
X137280952Y-101535771D01*
X137280952Y-101535771D02*
X137519047Y-101535771D01*
X137519047Y-101535771D02*
X137614285Y-101583390D01*
X137614285Y-101583390D02*
X137661904Y-101631009D01*
X137661904Y-101631009D02*
X137709523Y-101726247D01*
X137709523Y-101726247D02*
X137709523Y-101964342D01*
X137709523Y-101964342D02*
X137661904Y-102059580D01*
X137661904Y-102059580D02*
X137614285Y-102107200D01*
X137614285Y-102107200D02*
X137519047Y-102154819D01*
X137519047Y-102154819D02*
X137280952Y-102154819D01*
X137280952Y-102154819D02*
X137185714Y-102107200D01*
X137185714Y-102107200D02*
X137138095Y-102059580D01*
X140407200Y-99266666D02*
X140454819Y-99123809D01*
X140454819Y-99123809D02*
X140454819Y-98885714D01*
X140454819Y-98885714D02*
X140407200Y-98790476D01*
X140407200Y-98790476D02*
X140359580Y-98742857D01*
X140359580Y-98742857D02*
X140264342Y-98695238D01*
X140264342Y-98695238D02*
X140169104Y-98695238D01*
X140169104Y-98695238D02*
X140073866Y-98742857D01*
X140073866Y-98742857D02*
X140026247Y-98790476D01*
X140026247Y-98790476D02*
X139978628Y-98885714D01*
X139978628Y-98885714D02*
X139931009Y-99076190D01*
X139931009Y-99076190D02*
X139883390Y-99171428D01*
X139883390Y-99171428D02*
X139835771Y-99219047D01*
X139835771Y-99219047D02*
X139740533Y-99266666D01*
X139740533Y-99266666D02*
X139645295Y-99266666D01*
X139645295Y-99266666D02*
X139550057Y-99219047D01*
X139550057Y-99219047D02*
X139502438Y-99171428D01*
X139502438Y-99171428D02*
X139454819Y-99076190D01*
X139454819Y-99076190D02*
X139454819Y-98838095D01*
X139454819Y-98838095D02*
X139502438Y-98695238D01*
X140169104Y-98314285D02*
X140169104Y-97838095D01*
X140454819Y-98409523D02*
X139454819Y-98076190D01*
X139454819Y-98076190D02*
X140454819Y-97742857D01*
X139883390Y-97266666D02*
X139835771Y-97361904D01*
X139835771Y-97361904D02*
X139788152Y-97409523D01*
X139788152Y-97409523D02*
X139692914Y-97457142D01*
X139692914Y-97457142D02*
X139645295Y-97457142D01*
X139645295Y-97457142D02*
X139550057Y-97409523D01*
X139550057Y-97409523D02*
X139502438Y-97361904D01*
X139502438Y-97361904D02*
X139454819Y-97266666D01*
X139454819Y-97266666D02*
X139454819Y-97076190D01*
X139454819Y-97076190D02*
X139502438Y-96980952D01*
X139502438Y-96980952D02*
X139550057Y-96933333D01*
X139550057Y-96933333D02*
X139645295Y-96885714D01*
X139645295Y-96885714D02*
X139692914Y-96885714D01*
X139692914Y-96885714D02*
X139788152Y-96933333D01*
X139788152Y-96933333D02*
X139835771Y-96980952D01*
X139835771Y-96980952D02*
X139883390Y-97076190D01*
X139883390Y-97076190D02*
X139883390Y-97266666D01*
X139883390Y-97266666D02*
X139931009Y-97361904D01*
X139931009Y-97361904D02*
X139978628Y-97409523D01*
X139978628Y-97409523D02*
X140073866Y-97457142D01*
X140073866Y-97457142D02*
X140264342Y-97457142D01*
X140264342Y-97457142D02*
X140359580Y-97409523D01*
X140359580Y-97409523D02*
X140407200Y-97361904D01*
X140407200Y-97361904D02*
X140454819Y-97266666D01*
X140454819Y-97266666D02*
X140454819Y-97076190D01*
X140454819Y-97076190D02*
X140407200Y-96980952D01*
X140407200Y-96980952D02*
X140359580Y-96933333D01*
X140359580Y-96933333D02*
X140264342Y-96885714D01*
X140264342Y-96885714D02*
X140073866Y-96885714D01*
X140073866Y-96885714D02*
X139978628Y-96933333D01*
X139978628Y-96933333D02*
X139931009Y-96980952D01*
X139931009Y-96980952D02*
X139883390Y-97076190D01*
X140454819Y-95933333D02*
X140454819Y-96504761D01*
X140454819Y-96219047D02*
X139454819Y-96219047D01*
X139454819Y-96219047D02*
X139597676Y-96314285D01*
X139597676Y-96314285D02*
X139692914Y-96409523D01*
X139692914Y-96409523D02*
X139740533Y-96504761D01*
X139883390Y-95361904D02*
X139835771Y-95457142D01*
X139835771Y-95457142D02*
X139788152Y-95504761D01*
X139788152Y-95504761D02*
X139692914Y-95552380D01*
X139692914Y-95552380D02*
X139645295Y-95552380D01*
X139645295Y-95552380D02*
X139550057Y-95504761D01*
X139550057Y-95504761D02*
X139502438Y-95457142D01*
X139502438Y-95457142D02*
X139454819Y-95361904D01*
X139454819Y-95361904D02*
X139454819Y-95171428D01*
X139454819Y-95171428D02*
X139502438Y-95076190D01*
X139502438Y-95076190D02*
X139550057Y-95028571D01*
X139550057Y-95028571D02*
X139645295Y-94980952D01*
X139645295Y-94980952D02*
X139692914Y-94980952D01*
X139692914Y-94980952D02*
X139788152Y-95028571D01*
X139788152Y-95028571D02*
X139835771Y-95076190D01*
X139835771Y-95076190D02*
X139883390Y-95171428D01*
X139883390Y-95171428D02*
X139883390Y-95361904D01*
X139883390Y-95361904D02*
X139931009Y-95457142D01*
X139931009Y-95457142D02*
X139978628Y-95504761D01*
X139978628Y-95504761D02*
X140073866Y-95552380D01*
X140073866Y-95552380D02*
X140264342Y-95552380D01*
X140264342Y-95552380D02*
X140359580Y-95504761D01*
X140359580Y-95504761D02*
X140407200Y-95457142D01*
X140407200Y-95457142D02*
X140454819Y-95361904D01*
X140454819Y-95361904D02*
X140454819Y-95171428D01*
X140454819Y-95171428D02*
X140407200Y-95076190D01*
X140407200Y-95076190D02*
X140359580Y-95028571D01*
X140359580Y-95028571D02*
X140264342Y-94980952D01*
X140264342Y-94980952D02*
X140073866Y-94980952D01*
X140073866Y-94980952D02*
X139978628Y-95028571D01*
X139978628Y-95028571D02*
X139931009Y-95076190D01*
X139931009Y-95076190D02*
X139883390Y-95171428D01*
X140407200Y-94599999D02*
X140454819Y-94457142D01*
X140454819Y-94457142D02*
X140454819Y-94219047D01*
X140454819Y-94219047D02*
X140407200Y-94123809D01*
X140407200Y-94123809D02*
X140359580Y-94076190D01*
X140359580Y-94076190D02*
X140264342Y-94028571D01*
X140264342Y-94028571D02*
X140169104Y-94028571D01*
X140169104Y-94028571D02*
X140073866Y-94076190D01*
X140073866Y-94076190D02*
X140026247Y-94123809D01*
X140026247Y-94123809D02*
X139978628Y-94219047D01*
X139978628Y-94219047D02*
X139931009Y-94409523D01*
X139931009Y-94409523D02*
X139883390Y-94504761D01*
X139883390Y-94504761D02*
X139835771Y-94552380D01*
X139835771Y-94552380D02*
X139740533Y-94599999D01*
X139740533Y-94599999D02*
X139645295Y-94599999D01*
X139645295Y-94599999D02*
X139550057Y-94552380D01*
X139550057Y-94552380D02*
X139502438Y-94504761D01*
X139502438Y-94504761D02*
X139454819Y-94409523D01*
X139454819Y-94409523D02*
X139454819Y-94171428D01*
X139454819Y-94171428D02*
X139502438Y-94028571D01*
X140073866Y-93599999D02*
X140073866Y-92838095D01*
X139454819Y-92504761D02*
X140454819Y-92171428D01*
X140454819Y-92171428D02*
X139454819Y-91838095D01*
X159933333Y-92054152D02*
X159600000Y-91577961D01*
X159361905Y-92054152D02*
X159361905Y-91054152D01*
X159361905Y-91054152D02*
X159742857Y-91054152D01*
X159742857Y-91054152D02*
X159838095Y-91101771D01*
X159838095Y-91101771D02*
X159885714Y-91149390D01*
X159885714Y-91149390D02*
X159933333Y-91244628D01*
X159933333Y-91244628D02*
X159933333Y-91387485D01*
X159933333Y-91387485D02*
X159885714Y-91482723D01*
X159885714Y-91482723D02*
X159838095Y-91530342D01*
X159838095Y-91530342D02*
X159742857Y-91577961D01*
X159742857Y-91577961D02*
X159361905Y-91577961D01*
X160885714Y-92054152D02*
X160314286Y-92054152D01*
X160600000Y-92054152D02*
X160600000Y-91054152D01*
X160600000Y-91054152D02*
X160504762Y-91197009D01*
X160504762Y-91197009D02*
X160409524Y-91292247D01*
X160409524Y-91292247D02*
X160314286Y-91339866D01*
X142703142Y-141305580D02*
X142655523Y-141353200D01*
X142655523Y-141353200D02*
X142512666Y-141400819D01*
X142512666Y-141400819D02*
X142417428Y-141400819D01*
X142417428Y-141400819D02*
X142274571Y-141353200D01*
X142274571Y-141353200D02*
X142179333Y-141257961D01*
X142179333Y-141257961D02*
X142131714Y-141162723D01*
X142131714Y-141162723D02*
X142084095Y-140972247D01*
X142084095Y-140972247D02*
X142084095Y-140829390D01*
X142084095Y-140829390D02*
X142131714Y-140638914D01*
X142131714Y-140638914D02*
X142179333Y-140543676D01*
X142179333Y-140543676D02*
X142274571Y-140448438D01*
X142274571Y-140448438D02*
X142417428Y-140400819D01*
X142417428Y-140400819D02*
X142512666Y-140400819D01*
X142512666Y-140400819D02*
X142655523Y-140448438D01*
X142655523Y-140448438D02*
X142703142Y-140496057D01*
X143655523Y-141400819D02*
X143084095Y-141400819D01*
X143369809Y-141400819D02*
X143369809Y-140400819D01*
X143369809Y-140400819D02*
X143274571Y-140543676D01*
X143274571Y-140543676D02*
X143179333Y-140638914D01*
X143179333Y-140638914D02*
X143084095Y-140686533D01*
X144607904Y-141400819D02*
X144036476Y-141400819D01*
X144322190Y-141400819D02*
X144322190Y-140400819D01*
X144322190Y-140400819D02*
X144226952Y-140543676D01*
X144226952Y-140543676D02*
X144131714Y-140638914D01*
X144131714Y-140638914D02*
X144036476Y-140686533D01*
X129950819Y-124157904D02*
X130760342Y-124157904D01*
X130760342Y-124157904D02*
X130855580Y-124110285D01*
X130855580Y-124110285D02*
X130903200Y-124062666D01*
X130903200Y-124062666D02*
X130950819Y-123967428D01*
X130950819Y-123967428D02*
X130950819Y-123776952D01*
X130950819Y-123776952D02*
X130903200Y-123681714D01*
X130903200Y-123681714D02*
X130855580Y-123634095D01*
X130855580Y-123634095D02*
X130760342Y-123586476D01*
X130760342Y-123586476D02*
X129950819Y-123586476D01*
X130284152Y-122681714D02*
X130950819Y-122681714D01*
X129903200Y-122919809D02*
X130617485Y-123157904D01*
X130617485Y-123157904D02*
X130617485Y-122538857D01*
X136249754Y-59685456D02*
X135913037Y-60022174D01*
X135913037Y-60022174D02*
X135205930Y-59315067D01*
X135812022Y-58843662D02*
X135812022Y-58776319D01*
X135812022Y-58776319D02*
X135845693Y-58675303D01*
X135845693Y-58675303D02*
X136014052Y-58506945D01*
X136014052Y-58506945D02*
X136115067Y-58473273D01*
X136115067Y-58473273D02*
X136182411Y-58473273D01*
X136182411Y-58473273D02*
X136283426Y-58506945D01*
X136283426Y-58506945D02*
X136350770Y-58574288D01*
X136350770Y-58574288D02*
X136418113Y-58708975D01*
X136418113Y-58708975D02*
X136418113Y-59517097D01*
X136418113Y-59517097D02*
X136855846Y-59079364D01*
X127703142Y-113800819D02*
X127369809Y-113324628D01*
X127131714Y-113800819D02*
X127131714Y-112800819D01*
X127131714Y-112800819D02*
X127512666Y-112800819D01*
X127512666Y-112800819D02*
X127607904Y-112848438D01*
X127607904Y-112848438D02*
X127655523Y-112896057D01*
X127655523Y-112896057D02*
X127703142Y-112991295D01*
X127703142Y-112991295D02*
X127703142Y-113134152D01*
X127703142Y-113134152D02*
X127655523Y-113229390D01*
X127655523Y-113229390D02*
X127607904Y-113277009D01*
X127607904Y-113277009D02*
X127512666Y-113324628D01*
X127512666Y-113324628D02*
X127131714Y-113324628D01*
X128655523Y-113800819D02*
X128084095Y-113800819D01*
X128369809Y-113800819D02*
X128369809Y-112800819D01*
X128369809Y-112800819D02*
X128274571Y-112943676D01*
X128274571Y-112943676D02*
X128179333Y-113038914D01*
X128179333Y-113038914D02*
X128084095Y-113086533D01*
X128988857Y-112800819D02*
X129655523Y-112800819D01*
X129655523Y-112800819D02*
X129226952Y-113800819D01*
X133605580Y-51538857D02*
X133653200Y-51586476D01*
X133653200Y-51586476D02*
X133700819Y-51729333D01*
X133700819Y-51729333D02*
X133700819Y-51824571D01*
X133700819Y-51824571D02*
X133653200Y-51967428D01*
X133653200Y-51967428D02*
X133557961Y-52062666D01*
X133557961Y-52062666D02*
X133462723Y-52110285D01*
X133462723Y-52110285D02*
X133272247Y-52157904D01*
X133272247Y-52157904D02*
X133129390Y-52157904D01*
X133129390Y-52157904D02*
X132938914Y-52110285D01*
X132938914Y-52110285D02*
X132843676Y-52062666D01*
X132843676Y-52062666D02*
X132748438Y-51967428D01*
X132748438Y-51967428D02*
X132700819Y-51824571D01*
X132700819Y-51824571D02*
X132700819Y-51729333D01*
X132700819Y-51729333D02*
X132748438Y-51586476D01*
X132748438Y-51586476D02*
X132796057Y-51538857D01*
X132796057Y-51157904D02*
X132748438Y-51110285D01*
X132748438Y-51110285D02*
X132700819Y-51015047D01*
X132700819Y-51015047D02*
X132700819Y-50776952D01*
X132700819Y-50776952D02*
X132748438Y-50681714D01*
X132748438Y-50681714D02*
X132796057Y-50634095D01*
X132796057Y-50634095D02*
X132891295Y-50586476D01*
X132891295Y-50586476D02*
X132986533Y-50586476D01*
X132986533Y-50586476D02*
X133129390Y-50634095D01*
X133129390Y-50634095D02*
X133700819Y-51205523D01*
X133700819Y-51205523D02*
X133700819Y-50586476D01*
X132700819Y-50253142D02*
X132700819Y-49634095D01*
X132700819Y-49634095D02*
X133081771Y-49967428D01*
X133081771Y-49967428D02*
X133081771Y-49824571D01*
X133081771Y-49824571D02*
X133129390Y-49729333D01*
X133129390Y-49729333D02*
X133177009Y-49681714D01*
X133177009Y-49681714D02*
X133272247Y-49634095D01*
X133272247Y-49634095D02*
X133510342Y-49634095D01*
X133510342Y-49634095D02*
X133605580Y-49681714D01*
X133605580Y-49681714D02*
X133653200Y-49729333D01*
X133653200Y-49729333D02*
X133700819Y-49824571D01*
X133700819Y-49824571D02*
X133700819Y-50110285D01*
X133700819Y-50110285D02*
X133653200Y-50205523D01*
X133653200Y-50205523D02*
X133605580Y-50253142D01*
X140679333Y-116950819D02*
X140346000Y-116474628D01*
X140107905Y-116950819D02*
X140107905Y-115950819D01*
X140107905Y-115950819D02*
X140488857Y-115950819D01*
X140488857Y-115950819D02*
X140584095Y-115998438D01*
X140584095Y-115998438D02*
X140631714Y-116046057D01*
X140631714Y-116046057D02*
X140679333Y-116141295D01*
X140679333Y-116141295D02*
X140679333Y-116284152D01*
X140679333Y-116284152D02*
X140631714Y-116379390D01*
X140631714Y-116379390D02*
X140584095Y-116427009D01*
X140584095Y-116427009D02*
X140488857Y-116474628D01*
X140488857Y-116474628D02*
X140107905Y-116474628D01*
X141250762Y-116379390D02*
X141155524Y-116331771D01*
X141155524Y-116331771D02*
X141107905Y-116284152D01*
X141107905Y-116284152D02*
X141060286Y-116188914D01*
X141060286Y-116188914D02*
X141060286Y-116141295D01*
X141060286Y-116141295D02*
X141107905Y-116046057D01*
X141107905Y-116046057D02*
X141155524Y-115998438D01*
X141155524Y-115998438D02*
X141250762Y-115950819D01*
X141250762Y-115950819D02*
X141441238Y-115950819D01*
X141441238Y-115950819D02*
X141536476Y-115998438D01*
X141536476Y-115998438D02*
X141584095Y-116046057D01*
X141584095Y-116046057D02*
X141631714Y-116141295D01*
X141631714Y-116141295D02*
X141631714Y-116188914D01*
X141631714Y-116188914D02*
X141584095Y-116284152D01*
X141584095Y-116284152D02*
X141536476Y-116331771D01*
X141536476Y-116331771D02*
X141441238Y-116379390D01*
X141441238Y-116379390D02*
X141250762Y-116379390D01*
X141250762Y-116379390D02*
X141155524Y-116427009D01*
X141155524Y-116427009D02*
X141107905Y-116474628D01*
X141107905Y-116474628D02*
X141060286Y-116569866D01*
X141060286Y-116569866D02*
X141060286Y-116760342D01*
X141060286Y-116760342D02*
X141107905Y-116855580D01*
X141107905Y-116855580D02*
X141155524Y-116903200D01*
X141155524Y-116903200D02*
X141250762Y-116950819D01*
X141250762Y-116950819D02*
X141441238Y-116950819D01*
X141441238Y-116950819D02*
X141536476Y-116903200D01*
X141536476Y-116903200D02*
X141584095Y-116855580D01*
X141584095Y-116855580D02*
X141631714Y-116760342D01*
X141631714Y-116760342D02*
X141631714Y-116569866D01*
X141631714Y-116569866D02*
X141584095Y-116474628D01*
X141584095Y-116474628D02*
X141536476Y-116427009D01*
X141536476Y-116427009D02*
X141441238Y-116379390D01*
X129705580Y-51588857D02*
X129753200Y-51636476D01*
X129753200Y-51636476D02*
X129800819Y-51779333D01*
X129800819Y-51779333D02*
X129800819Y-51874571D01*
X129800819Y-51874571D02*
X129753200Y-52017428D01*
X129753200Y-52017428D02*
X129657961Y-52112666D01*
X129657961Y-52112666D02*
X129562723Y-52160285D01*
X129562723Y-52160285D02*
X129372247Y-52207904D01*
X129372247Y-52207904D02*
X129229390Y-52207904D01*
X129229390Y-52207904D02*
X129038914Y-52160285D01*
X129038914Y-52160285D02*
X128943676Y-52112666D01*
X128943676Y-52112666D02*
X128848438Y-52017428D01*
X128848438Y-52017428D02*
X128800819Y-51874571D01*
X128800819Y-51874571D02*
X128800819Y-51779333D01*
X128800819Y-51779333D02*
X128848438Y-51636476D01*
X128848438Y-51636476D02*
X128896057Y-51588857D01*
X128896057Y-51207904D02*
X128848438Y-51160285D01*
X128848438Y-51160285D02*
X128800819Y-51065047D01*
X128800819Y-51065047D02*
X128800819Y-50826952D01*
X128800819Y-50826952D02*
X128848438Y-50731714D01*
X128848438Y-50731714D02*
X128896057Y-50684095D01*
X128896057Y-50684095D02*
X128991295Y-50636476D01*
X128991295Y-50636476D02*
X129086533Y-50636476D01*
X129086533Y-50636476D02*
X129229390Y-50684095D01*
X129229390Y-50684095D02*
X129800819Y-51255523D01*
X129800819Y-51255523D02*
X129800819Y-50636476D01*
X129134152Y-49779333D02*
X129800819Y-49779333D01*
X128753200Y-50017428D02*
X129467485Y-50255523D01*
X129467485Y-50255523D02*
X129467485Y-49636476D01*
X133579333Y-111400819D02*
X133246000Y-110924628D01*
X133007905Y-111400819D02*
X133007905Y-110400819D01*
X133007905Y-110400819D02*
X133388857Y-110400819D01*
X133388857Y-110400819D02*
X133484095Y-110448438D01*
X133484095Y-110448438D02*
X133531714Y-110496057D01*
X133531714Y-110496057D02*
X133579333Y-110591295D01*
X133579333Y-110591295D02*
X133579333Y-110734152D01*
X133579333Y-110734152D02*
X133531714Y-110829390D01*
X133531714Y-110829390D02*
X133484095Y-110877009D01*
X133484095Y-110877009D02*
X133388857Y-110924628D01*
X133388857Y-110924628D02*
X133007905Y-110924628D01*
X133912667Y-110400819D02*
X134531714Y-110400819D01*
X134531714Y-110400819D02*
X134198381Y-110781771D01*
X134198381Y-110781771D02*
X134341238Y-110781771D01*
X134341238Y-110781771D02*
X134436476Y-110829390D01*
X134436476Y-110829390D02*
X134484095Y-110877009D01*
X134484095Y-110877009D02*
X134531714Y-110972247D01*
X134531714Y-110972247D02*
X134531714Y-111210342D01*
X134531714Y-111210342D02*
X134484095Y-111305580D01*
X134484095Y-111305580D02*
X134436476Y-111353200D01*
X134436476Y-111353200D02*
X134341238Y-111400819D01*
X134341238Y-111400819D02*
X134055524Y-111400819D01*
X134055524Y-111400819D02*
X133960286Y-111353200D01*
X133960286Y-111353200D02*
X133912667Y-111305580D01*
X159833333Y-96554152D02*
X159500000Y-96077961D01*
X159261905Y-96554152D02*
X159261905Y-95554152D01*
X159261905Y-95554152D02*
X159642857Y-95554152D01*
X159642857Y-95554152D02*
X159738095Y-95601771D01*
X159738095Y-95601771D02*
X159785714Y-95649390D01*
X159785714Y-95649390D02*
X159833333Y-95744628D01*
X159833333Y-95744628D02*
X159833333Y-95887485D01*
X159833333Y-95887485D02*
X159785714Y-95982723D01*
X159785714Y-95982723D02*
X159738095Y-96030342D01*
X159738095Y-96030342D02*
X159642857Y-96077961D01*
X159642857Y-96077961D02*
X159261905Y-96077961D01*
X160214286Y-95649390D02*
X160261905Y-95601771D01*
X160261905Y-95601771D02*
X160357143Y-95554152D01*
X160357143Y-95554152D02*
X160595238Y-95554152D01*
X160595238Y-95554152D02*
X160690476Y-95601771D01*
X160690476Y-95601771D02*
X160738095Y-95649390D01*
X160738095Y-95649390D02*
X160785714Y-95744628D01*
X160785714Y-95744628D02*
X160785714Y-95839866D01*
X160785714Y-95839866D02*
X160738095Y-95982723D01*
X160738095Y-95982723D02*
X160166667Y-96554152D01*
X160166667Y-96554152D02*
X160785714Y-96554152D01*
X145757142Y-87500819D02*
X145423809Y-87024628D01*
X145185714Y-87500819D02*
X145185714Y-86500819D01*
X145185714Y-86500819D02*
X145566666Y-86500819D01*
X145566666Y-86500819D02*
X145661904Y-86548438D01*
X145661904Y-86548438D02*
X145709523Y-86596057D01*
X145709523Y-86596057D02*
X145757142Y-86691295D01*
X145757142Y-86691295D02*
X145757142Y-86834152D01*
X145757142Y-86834152D02*
X145709523Y-86929390D01*
X145709523Y-86929390D02*
X145661904Y-86977009D01*
X145661904Y-86977009D02*
X145566666Y-87024628D01*
X145566666Y-87024628D02*
X145185714Y-87024628D01*
X146709523Y-87500819D02*
X146138095Y-87500819D01*
X146423809Y-87500819D02*
X146423809Y-86500819D01*
X146423809Y-86500819D02*
X146328571Y-86643676D01*
X146328571Y-86643676D02*
X146233333Y-86738914D01*
X146233333Y-86738914D02*
X146138095Y-86786533D01*
X147566666Y-86500819D02*
X147376190Y-86500819D01*
X147376190Y-86500819D02*
X147280952Y-86548438D01*
X147280952Y-86548438D02*
X147233333Y-86596057D01*
X147233333Y-86596057D02*
X147138095Y-86738914D01*
X147138095Y-86738914D02*
X147090476Y-86929390D01*
X147090476Y-86929390D02*
X147090476Y-87310342D01*
X147090476Y-87310342D02*
X147138095Y-87405580D01*
X147138095Y-87405580D02*
X147185714Y-87453200D01*
X147185714Y-87453200D02*
X147280952Y-87500819D01*
X147280952Y-87500819D02*
X147471428Y-87500819D01*
X147471428Y-87500819D02*
X147566666Y-87453200D01*
X147566666Y-87453200D02*
X147614285Y-87405580D01*
X147614285Y-87405580D02*
X147661904Y-87310342D01*
X147661904Y-87310342D02*
X147661904Y-87072247D01*
X147661904Y-87072247D02*
X147614285Y-86977009D01*
X147614285Y-86977009D02*
X147566666Y-86929390D01*
X147566666Y-86929390D02*
X147471428Y-86881771D01*
X147471428Y-86881771D02*
X147280952Y-86881771D01*
X147280952Y-86881771D02*
X147185714Y-86929390D01*
X147185714Y-86929390D02*
X147138095Y-86977009D01*
X147138095Y-86977009D02*
X147090476Y-87072247D01*
X142703142Y-138705580D02*
X142655523Y-138753200D01*
X142655523Y-138753200D02*
X142512666Y-138800819D01*
X142512666Y-138800819D02*
X142417428Y-138800819D01*
X142417428Y-138800819D02*
X142274571Y-138753200D01*
X142274571Y-138753200D02*
X142179333Y-138657961D01*
X142179333Y-138657961D02*
X142131714Y-138562723D01*
X142131714Y-138562723D02*
X142084095Y-138372247D01*
X142084095Y-138372247D02*
X142084095Y-138229390D01*
X142084095Y-138229390D02*
X142131714Y-138038914D01*
X142131714Y-138038914D02*
X142179333Y-137943676D01*
X142179333Y-137943676D02*
X142274571Y-137848438D01*
X142274571Y-137848438D02*
X142417428Y-137800819D01*
X142417428Y-137800819D02*
X142512666Y-137800819D01*
X142512666Y-137800819D02*
X142655523Y-137848438D01*
X142655523Y-137848438D02*
X142703142Y-137896057D01*
X143655523Y-138800819D02*
X143084095Y-138800819D01*
X143369809Y-138800819D02*
X143369809Y-137800819D01*
X143369809Y-137800819D02*
X143274571Y-137943676D01*
X143274571Y-137943676D02*
X143179333Y-138038914D01*
X143179333Y-138038914D02*
X143084095Y-138086533D01*
X144036476Y-137896057D02*
X144084095Y-137848438D01*
X144084095Y-137848438D02*
X144179333Y-137800819D01*
X144179333Y-137800819D02*
X144417428Y-137800819D01*
X144417428Y-137800819D02*
X144512666Y-137848438D01*
X144512666Y-137848438D02*
X144560285Y-137896057D01*
X144560285Y-137896057D02*
X144607904Y-137991295D01*
X144607904Y-137991295D02*
X144607904Y-138086533D01*
X144607904Y-138086533D02*
X144560285Y-138229390D01*
X144560285Y-138229390D02*
X143988857Y-138800819D01*
X143988857Y-138800819D02*
X144607904Y-138800819D01*
X155853142Y-109093080D02*
X155805523Y-109140700D01*
X155805523Y-109140700D02*
X155662666Y-109188319D01*
X155662666Y-109188319D02*
X155567428Y-109188319D01*
X155567428Y-109188319D02*
X155424571Y-109140700D01*
X155424571Y-109140700D02*
X155329333Y-109045461D01*
X155329333Y-109045461D02*
X155281714Y-108950223D01*
X155281714Y-108950223D02*
X155234095Y-108759747D01*
X155234095Y-108759747D02*
X155234095Y-108616890D01*
X155234095Y-108616890D02*
X155281714Y-108426414D01*
X155281714Y-108426414D02*
X155329333Y-108331176D01*
X155329333Y-108331176D02*
X155424571Y-108235938D01*
X155424571Y-108235938D02*
X155567428Y-108188319D01*
X155567428Y-108188319D02*
X155662666Y-108188319D01*
X155662666Y-108188319D02*
X155805523Y-108235938D01*
X155805523Y-108235938D02*
X155853142Y-108283557D01*
X156234095Y-108283557D02*
X156281714Y-108235938D01*
X156281714Y-108235938D02*
X156376952Y-108188319D01*
X156376952Y-108188319D02*
X156615047Y-108188319D01*
X156615047Y-108188319D02*
X156710285Y-108235938D01*
X156710285Y-108235938D02*
X156757904Y-108283557D01*
X156757904Y-108283557D02*
X156805523Y-108378795D01*
X156805523Y-108378795D02*
X156805523Y-108474033D01*
X156805523Y-108474033D02*
X156757904Y-108616890D01*
X156757904Y-108616890D02*
X156186476Y-109188319D01*
X156186476Y-109188319D02*
X156805523Y-109188319D01*
X157710285Y-108188319D02*
X157234095Y-108188319D01*
X157234095Y-108188319D02*
X157186476Y-108664509D01*
X157186476Y-108664509D02*
X157234095Y-108616890D01*
X157234095Y-108616890D02*
X157329333Y-108569271D01*
X157329333Y-108569271D02*
X157567428Y-108569271D01*
X157567428Y-108569271D02*
X157662666Y-108616890D01*
X157662666Y-108616890D02*
X157710285Y-108664509D01*
X157710285Y-108664509D02*
X157757904Y-108759747D01*
X157757904Y-108759747D02*
X157757904Y-108997842D01*
X157757904Y-108997842D02*
X157710285Y-109093080D01*
X157710285Y-109093080D02*
X157662666Y-109140700D01*
X157662666Y-109140700D02*
X157567428Y-109188319D01*
X157567428Y-109188319D02*
X157329333Y-109188319D01*
X157329333Y-109188319D02*
X157234095Y-109140700D01*
X157234095Y-109140700D02*
X157186476Y-109093080D01*
X132863261Y-104089807D02*
X132768023Y-104042188D01*
X132768023Y-104042188D02*
X132672785Y-103946950D01*
X132672785Y-103946950D02*
X132529928Y-103804092D01*
X132529928Y-103804092D02*
X132434690Y-103756473D01*
X132434690Y-103756473D02*
X132339452Y-103756473D01*
X132387071Y-103994569D02*
X132291833Y-103946950D01*
X132291833Y-103946950D02*
X132196595Y-103851711D01*
X132196595Y-103851711D02*
X132148976Y-103661235D01*
X132148976Y-103661235D02*
X132148976Y-103327902D01*
X132148976Y-103327902D02*
X132196595Y-103137426D01*
X132196595Y-103137426D02*
X132291833Y-103042188D01*
X132291833Y-103042188D02*
X132387071Y-102994569D01*
X132387071Y-102994569D02*
X132577547Y-102994569D01*
X132577547Y-102994569D02*
X132672785Y-103042188D01*
X132672785Y-103042188D02*
X132768023Y-103137426D01*
X132768023Y-103137426D02*
X132815642Y-103327902D01*
X132815642Y-103327902D02*
X132815642Y-103661235D01*
X132815642Y-103661235D02*
X132768023Y-103851711D01*
X132768023Y-103851711D02*
X132672785Y-103946950D01*
X132672785Y-103946950D02*
X132577547Y-103994569D01*
X132577547Y-103994569D02*
X132387071Y-103994569D01*
X133196595Y-103089807D02*
X133244214Y-103042188D01*
X133244214Y-103042188D02*
X133339452Y-102994569D01*
X133339452Y-102994569D02*
X133577547Y-102994569D01*
X133577547Y-102994569D02*
X133672785Y-103042188D01*
X133672785Y-103042188D02*
X133720404Y-103089807D01*
X133720404Y-103089807D02*
X133768023Y-103185045D01*
X133768023Y-103185045D02*
X133768023Y-103280283D01*
X133768023Y-103280283D02*
X133720404Y-103423140D01*
X133720404Y-103423140D02*
X133148976Y-103994569D01*
X133148976Y-103994569D02*
X133768023Y-103994569D01*
X162534095Y-85640819D02*
X162534095Y-86450342D01*
X162534095Y-86450342D02*
X162581714Y-86545580D01*
X162581714Y-86545580D02*
X162629333Y-86593200D01*
X162629333Y-86593200D02*
X162724571Y-86640819D01*
X162724571Y-86640819D02*
X162915047Y-86640819D01*
X162915047Y-86640819D02*
X163010285Y-86593200D01*
X163010285Y-86593200D02*
X163057904Y-86545580D01*
X163057904Y-86545580D02*
X163105523Y-86450342D01*
X163105523Y-86450342D02*
X163105523Y-85640819D01*
X164105523Y-86640819D02*
X163534095Y-86640819D01*
X163819809Y-86640819D02*
X163819809Y-85640819D01*
X163819809Y-85640819D02*
X163724571Y-85783676D01*
X163724571Y-85783676D02*
X163629333Y-85878914D01*
X163629333Y-85878914D02*
X163534095Y-85926533D01*
X132279333Y-138605580D02*
X132231714Y-138653200D01*
X132231714Y-138653200D02*
X132088857Y-138700819D01*
X132088857Y-138700819D02*
X131993619Y-138700819D01*
X131993619Y-138700819D02*
X131850762Y-138653200D01*
X131850762Y-138653200D02*
X131755524Y-138557961D01*
X131755524Y-138557961D02*
X131707905Y-138462723D01*
X131707905Y-138462723D02*
X131660286Y-138272247D01*
X131660286Y-138272247D02*
X131660286Y-138129390D01*
X131660286Y-138129390D02*
X131707905Y-137938914D01*
X131707905Y-137938914D02*
X131755524Y-137843676D01*
X131755524Y-137843676D02*
X131850762Y-137748438D01*
X131850762Y-137748438D02*
X131993619Y-137700819D01*
X131993619Y-137700819D02*
X132088857Y-137700819D01*
X132088857Y-137700819D02*
X132231714Y-137748438D01*
X132231714Y-137748438D02*
X132279333Y-137796057D01*
X132755524Y-138700819D02*
X132946000Y-138700819D01*
X132946000Y-138700819D02*
X133041238Y-138653200D01*
X133041238Y-138653200D02*
X133088857Y-138605580D01*
X133088857Y-138605580D02*
X133184095Y-138462723D01*
X133184095Y-138462723D02*
X133231714Y-138272247D01*
X133231714Y-138272247D02*
X133231714Y-137891295D01*
X133231714Y-137891295D02*
X133184095Y-137796057D01*
X133184095Y-137796057D02*
X133136476Y-137748438D01*
X133136476Y-137748438D02*
X133041238Y-137700819D01*
X133041238Y-137700819D02*
X132850762Y-137700819D01*
X132850762Y-137700819D02*
X132755524Y-137748438D01*
X132755524Y-137748438D02*
X132707905Y-137796057D01*
X132707905Y-137796057D02*
X132660286Y-137891295D01*
X132660286Y-137891295D02*
X132660286Y-138129390D01*
X132660286Y-138129390D02*
X132707905Y-138224628D01*
X132707905Y-138224628D02*
X132755524Y-138272247D01*
X132755524Y-138272247D02*
X132850762Y-138319866D01*
X132850762Y-138319866D02*
X133041238Y-138319866D01*
X133041238Y-138319866D02*
X133136476Y-138272247D01*
X133136476Y-138272247D02*
X133184095Y-138224628D01*
X133184095Y-138224628D02*
X133231714Y-138129390D01*
X152757142Y-94355580D02*
X152709523Y-94403200D01*
X152709523Y-94403200D02*
X152566666Y-94450819D01*
X152566666Y-94450819D02*
X152471428Y-94450819D01*
X152471428Y-94450819D02*
X152328571Y-94403200D01*
X152328571Y-94403200D02*
X152233333Y-94307961D01*
X152233333Y-94307961D02*
X152185714Y-94212723D01*
X152185714Y-94212723D02*
X152138095Y-94022247D01*
X152138095Y-94022247D02*
X152138095Y-93879390D01*
X152138095Y-93879390D02*
X152185714Y-93688914D01*
X152185714Y-93688914D02*
X152233333Y-93593676D01*
X152233333Y-93593676D02*
X152328571Y-93498438D01*
X152328571Y-93498438D02*
X152471428Y-93450819D01*
X152471428Y-93450819D02*
X152566666Y-93450819D01*
X152566666Y-93450819D02*
X152709523Y-93498438D01*
X152709523Y-93498438D02*
X152757142Y-93546057D01*
X153709523Y-94450819D02*
X153138095Y-94450819D01*
X153423809Y-94450819D02*
X153423809Y-93450819D01*
X153423809Y-93450819D02*
X153328571Y-93593676D01*
X153328571Y-93593676D02*
X153233333Y-93688914D01*
X153233333Y-93688914D02*
X153138095Y-93736533D01*
X154042857Y-93450819D02*
X154709523Y-93450819D01*
X154709523Y-93450819D02*
X154280952Y-94450819D01*
X133103142Y-125000819D02*
X132769809Y-124524628D01*
X132531714Y-125000819D02*
X132531714Y-124000819D01*
X132531714Y-124000819D02*
X132912666Y-124000819D01*
X132912666Y-124000819D02*
X133007904Y-124048438D01*
X133007904Y-124048438D02*
X133055523Y-124096057D01*
X133055523Y-124096057D02*
X133103142Y-124191295D01*
X133103142Y-124191295D02*
X133103142Y-124334152D01*
X133103142Y-124334152D02*
X133055523Y-124429390D01*
X133055523Y-124429390D02*
X133007904Y-124477009D01*
X133007904Y-124477009D02*
X132912666Y-124524628D01*
X132912666Y-124524628D02*
X132531714Y-124524628D01*
X133484095Y-124096057D02*
X133531714Y-124048438D01*
X133531714Y-124048438D02*
X133626952Y-124000819D01*
X133626952Y-124000819D02*
X133865047Y-124000819D01*
X133865047Y-124000819D02*
X133960285Y-124048438D01*
X133960285Y-124048438D02*
X134007904Y-124096057D01*
X134007904Y-124096057D02*
X134055523Y-124191295D01*
X134055523Y-124191295D02*
X134055523Y-124286533D01*
X134055523Y-124286533D02*
X134007904Y-124429390D01*
X134007904Y-124429390D02*
X133436476Y-125000819D01*
X133436476Y-125000819D02*
X134055523Y-125000819D01*
X135007904Y-125000819D02*
X134436476Y-125000819D01*
X134722190Y-125000819D02*
X134722190Y-124000819D01*
X134722190Y-124000819D02*
X134626952Y-124143676D01*
X134626952Y-124143676D02*
X134531714Y-124238914D01*
X134531714Y-124238914D02*
X134436476Y-124286533D01*
X138206542Y-59849754D02*
X137869824Y-59513037D01*
X137869824Y-59513037D02*
X138576931Y-58805930D01*
X138812634Y-60455846D02*
X138408573Y-60051785D01*
X138610603Y-60253815D02*
X139317710Y-59546709D01*
X139317710Y-59546709D02*
X139149351Y-59580380D01*
X139149351Y-59580380D02*
X139014664Y-59580380D01*
X139014664Y-59580380D02*
X138913649Y-59546709D01*
X122186952Y-57255104D02*
X122663142Y-57255104D01*
X122091714Y-57540819D02*
X122425047Y-56540819D01*
X122425047Y-56540819D02*
X122758380Y-57540819D01*
X123091714Y-57540819D02*
X123091714Y-56540819D01*
X123091714Y-56540819D02*
X123663142Y-57540819D01*
X123663142Y-57540819D02*
X123663142Y-56540819D01*
X123996476Y-56540819D02*
X124567904Y-56540819D01*
X124282190Y-57540819D02*
X124282190Y-56540819D01*
X124853619Y-56636057D02*
X124901238Y-56588438D01*
X124901238Y-56588438D02*
X124996476Y-56540819D01*
X124996476Y-56540819D02*
X125234571Y-56540819D01*
X125234571Y-56540819D02*
X125329809Y-56588438D01*
X125329809Y-56588438D02*
X125377428Y-56636057D01*
X125377428Y-56636057D02*
X125425047Y-56731295D01*
X125425047Y-56731295D02*
X125425047Y-56826533D01*
X125425047Y-56826533D02*
X125377428Y-56969390D01*
X125377428Y-56969390D02*
X124806000Y-57540819D01*
X124806000Y-57540819D02*
X125425047Y-57540819D01*
X137569809Y-116424628D02*
X137569809Y-116900819D01*
X137236476Y-115900819D02*
X137569809Y-116424628D01*
X137569809Y-116424628D02*
X137903142Y-115900819D01*
X138760285Y-116900819D02*
X138188857Y-116900819D01*
X138474571Y-116900819D02*
X138474571Y-115900819D01*
X138474571Y-115900819D02*
X138379333Y-116043676D01*
X138379333Y-116043676D02*
X138284095Y-116138914D01*
X138284095Y-116138914D02*
X138188857Y-116186533D01*
X136450819Y-115336476D02*
X136450819Y-115907904D01*
X136450819Y-115622190D02*
X135450819Y-115622190D01*
X135450819Y-115622190D02*
X135593676Y-115717428D01*
X135593676Y-115717428D02*
X135688914Y-115812666D01*
X135688914Y-115812666D02*
X135736533Y-115907904D01*
X135450819Y-114479333D02*
X135450819Y-114669809D01*
X135450819Y-114669809D02*
X135498438Y-114765047D01*
X135498438Y-114765047D02*
X135546057Y-114812666D01*
X135546057Y-114812666D02*
X135688914Y-114907904D01*
X135688914Y-114907904D02*
X135879390Y-114955523D01*
X135879390Y-114955523D02*
X136260342Y-114955523D01*
X136260342Y-114955523D02*
X136355580Y-114907904D01*
X136355580Y-114907904D02*
X136403200Y-114860285D01*
X136403200Y-114860285D02*
X136450819Y-114765047D01*
X136450819Y-114765047D02*
X136450819Y-114574571D01*
X136450819Y-114574571D02*
X136403200Y-114479333D01*
X136403200Y-114479333D02*
X136355580Y-114431714D01*
X136355580Y-114431714D02*
X136260342Y-114384095D01*
X136260342Y-114384095D02*
X136022247Y-114384095D01*
X136022247Y-114384095D02*
X135927009Y-114431714D01*
X135927009Y-114431714D02*
X135879390Y-114479333D01*
X135879390Y-114479333D02*
X135831771Y-114574571D01*
X135831771Y-114574571D02*
X135831771Y-114765047D01*
X135831771Y-114765047D02*
X135879390Y-114860285D01*
X135879390Y-114860285D02*
X135927009Y-114907904D01*
X135927009Y-114907904D02*
X136022247Y-114955523D01*
X136450819Y-113955523D02*
X135450819Y-113955523D01*
X135450819Y-113955523D02*
X136165104Y-113622190D01*
X136165104Y-113622190D02*
X135450819Y-113288857D01*
X135450819Y-113288857D02*
X136450819Y-113288857D01*
X136450819Y-112812666D02*
X135450819Y-112812666D01*
X135927009Y-112812666D02*
X135927009Y-112241238D01*
X136450819Y-112241238D02*
X135450819Y-112241238D01*
X135784152Y-111860285D02*
X135784152Y-111336476D01*
X135784152Y-111336476D02*
X136450819Y-111860285D01*
X136450819Y-111860285D02*
X136450819Y-111336476D01*
X129710527Y-58945770D02*
X129373809Y-58609053D01*
X129373809Y-58609053D02*
X130080916Y-57901946D01*
X130585993Y-58407022D02*
X131023725Y-58844755D01*
X131023725Y-58844755D02*
X130518649Y-58878427D01*
X130518649Y-58878427D02*
X130619664Y-58979442D01*
X130619664Y-58979442D02*
X130653336Y-59080457D01*
X130653336Y-59080457D02*
X130653336Y-59147801D01*
X130653336Y-59147801D02*
X130619664Y-59248816D01*
X130619664Y-59248816D02*
X130451306Y-59417175D01*
X130451306Y-59417175D02*
X130350290Y-59450847D01*
X130350290Y-59450847D02*
X130282947Y-59450847D01*
X130282947Y-59450847D02*
X130181932Y-59417175D01*
X130181932Y-59417175D02*
X129979901Y-59215144D01*
X129979901Y-59215144D02*
X129946229Y-59114129D01*
X129946229Y-59114129D02*
X129946229Y-59046786D01*
X162912666Y-54800819D02*
X162912666Y-55515104D01*
X162912666Y-55515104D02*
X162865047Y-55657961D01*
X162865047Y-55657961D02*
X162769809Y-55753200D01*
X162769809Y-55753200D02*
X162626952Y-55800819D01*
X162626952Y-55800819D02*
X162531714Y-55800819D01*
X163912666Y-55800819D02*
X163341238Y-55800819D01*
X163626952Y-55800819D02*
X163626952Y-54800819D01*
X163626952Y-54800819D02*
X163531714Y-54943676D01*
X163531714Y-54943676D02*
X163436476Y-55038914D01*
X163436476Y-55038914D02*
X163341238Y-55086533D01*
X125679333Y-62005580D02*
X125631714Y-62053200D01*
X125631714Y-62053200D02*
X125488857Y-62100819D01*
X125488857Y-62100819D02*
X125393619Y-62100819D01*
X125393619Y-62100819D02*
X125250762Y-62053200D01*
X125250762Y-62053200D02*
X125155524Y-61957961D01*
X125155524Y-61957961D02*
X125107905Y-61862723D01*
X125107905Y-61862723D02*
X125060286Y-61672247D01*
X125060286Y-61672247D02*
X125060286Y-61529390D01*
X125060286Y-61529390D02*
X125107905Y-61338914D01*
X125107905Y-61338914D02*
X125155524Y-61243676D01*
X125155524Y-61243676D02*
X125250762Y-61148438D01*
X125250762Y-61148438D02*
X125393619Y-61100819D01*
X125393619Y-61100819D02*
X125488857Y-61100819D01*
X125488857Y-61100819D02*
X125631714Y-61148438D01*
X125631714Y-61148438D02*
X125679333Y-61196057D01*
X126536476Y-61434152D02*
X126536476Y-62100819D01*
X126298381Y-61053200D02*
X126060286Y-61767485D01*
X126060286Y-61767485D02*
X126679333Y-61767485D01*
X149933333Y-131959580D02*
X149885714Y-132007200D01*
X149885714Y-132007200D02*
X149742857Y-132054819D01*
X149742857Y-132054819D02*
X149647619Y-132054819D01*
X149647619Y-132054819D02*
X149504762Y-132007200D01*
X149504762Y-132007200D02*
X149409524Y-131911961D01*
X149409524Y-131911961D02*
X149361905Y-131816723D01*
X149361905Y-131816723D02*
X149314286Y-131626247D01*
X149314286Y-131626247D02*
X149314286Y-131483390D01*
X149314286Y-131483390D02*
X149361905Y-131292914D01*
X149361905Y-131292914D02*
X149409524Y-131197676D01*
X149409524Y-131197676D02*
X149504762Y-131102438D01*
X149504762Y-131102438D02*
X149647619Y-131054819D01*
X149647619Y-131054819D02*
X149742857Y-131054819D01*
X149742857Y-131054819D02*
X149885714Y-131102438D01*
X149885714Y-131102438D02*
X149933333Y-131150057D01*
X150266667Y-131054819D02*
X150933333Y-131054819D01*
X150933333Y-131054819D02*
X150504762Y-132054819D01*
X133579333Y-109100819D02*
X133246000Y-108624628D01*
X133007905Y-109100819D02*
X133007905Y-108100819D01*
X133007905Y-108100819D02*
X133388857Y-108100819D01*
X133388857Y-108100819D02*
X133484095Y-108148438D01*
X133484095Y-108148438D02*
X133531714Y-108196057D01*
X133531714Y-108196057D02*
X133579333Y-108291295D01*
X133579333Y-108291295D02*
X133579333Y-108434152D01*
X133579333Y-108434152D02*
X133531714Y-108529390D01*
X133531714Y-108529390D02*
X133484095Y-108577009D01*
X133484095Y-108577009D02*
X133388857Y-108624628D01*
X133388857Y-108624628D02*
X133007905Y-108624628D01*
X134436476Y-108434152D02*
X134436476Y-109100819D01*
X134198381Y-108053200D02*
X133960286Y-108767485D01*
X133960286Y-108767485D02*
X134579333Y-108767485D01*
X162012666Y-103720819D02*
X162012666Y-104435104D01*
X162012666Y-104435104D02*
X161965047Y-104577961D01*
X161965047Y-104577961D02*
X161869809Y-104673200D01*
X161869809Y-104673200D02*
X161726952Y-104720819D01*
X161726952Y-104720819D02*
X161631714Y-104720819D01*
X162917428Y-104054152D02*
X162917428Y-104720819D01*
X162679333Y-103673200D02*
X162441238Y-104387485D01*
X162441238Y-104387485D02*
X163060285Y-104387485D01*
X126361905Y-109100819D02*
X126361905Y-108100819D01*
X126361905Y-108100819D02*
X126600000Y-108100819D01*
X126600000Y-108100819D02*
X126742857Y-108148438D01*
X126742857Y-108148438D02*
X126838095Y-108243676D01*
X126838095Y-108243676D02*
X126885714Y-108338914D01*
X126885714Y-108338914D02*
X126933333Y-108529390D01*
X126933333Y-108529390D02*
X126933333Y-108672247D01*
X126933333Y-108672247D02*
X126885714Y-108862723D01*
X126885714Y-108862723D02*
X126838095Y-108957961D01*
X126838095Y-108957961D02*
X126742857Y-109053200D01*
X126742857Y-109053200D02*
X126600000Y-109100819D01*
X126600000Y-109100819D02*
X126361905Y-109100819D01*
X127266667Y-108100819D02*
X127885714Y-108100819D01*
X127885714Y-108100819D02*
X127552381Y-108481771D01*
X127552381Y-108481771D02*
X127695238Y-108481771D01*
X127695238Y-108481771D02*
X127790476Y-108529390D01*
X127790476Y-108529390D02*
X127838095Y-108577009D01*
X127838095Y-108577009D02*
X127885714Y-108672247D01*
X127885714Y-108672247D02*
X127885714Y-108910342D01*
X127885714Y-108910342D02*
X127838095Y-109005580D01*
X127838095Y-109005580D02*
X127790476Y-109053200D01*
X127790476Y-109053200D02*
X127695238Y-109100819D01*
X127695238Y-109100819D02*
X127409524Y-109100819D01*
X127409524Y-109100819D02*
X127314286Y-109053200D01*
X127314286Y-109053200D02*
X127266667Y-109005580D01*
X159700819Y-142207904D02*
X160510342Y-142207904D01*
X160510342Y-142207904D02*
X160605580Y-142160285D01*
X160605580Y-142160285D02*
X160653200Y-142112666D01*
X160653200Y-142112666D02*
X160700819Y-142017428D01*
X160700819Y-142017428D02*
X160700819Y-141826952D01*
X160700819Y-141826952D02*
X160653200Y-141731714D01*
X160653200Y-141731714D02*
X160605580Y-141684095D01*
X160605580Y-141684095D02*
X160510342Y-141636476D01*
X160510342Y-141636476D02*
X159700819Y-141636476D01*
X159700819Y-140731714D02*
X159700819Y-140922190D01*
X159700819Y-140922190D02*
X159748438Y-141017428D01*
X159748438Y-141017428D02*
X159796057Y-141065047D01*
X159796057Y-141065047D02*
X159938914Y-141160285D01*
X159938914Y-141160285D02*
X160129390Y-141207904D01*
X160129390Y-141207904D02*
X160510342Y-141207904D01*
X160510342Y-141207904D02*
X160605580Y-141160285D01*
X160605580Y-141160285D02*
X160653200Y-141112666D01*
X160653200Y-141112666D02*
X160700819Y-141017428D01*
X160700819Y-141017428D02*
X160700819Y-140826952D01*
X160700819Y-140826952D02*
X160653200Y-140731714D01*
X160653200Y-140731714D02*
X160605580Y-140684095D01*
X160605580Y-140684095D02*
X160510342Y-140636476D01*
X160510342Y-140636476D02*
X160272247Y-140636476D01*
X160272247Y-140636476D02*
X160177009Y-140684095D01*
X160177009Y-140684095D02*
X160129390Y-140731714D01*
X160129390Y-140731714D02*
X160081771Y-140826952D01*
X160081771Y-140826952D02*
X160081771Y-141017428D01*
X160081771Y-141017428D02*
X160129390Y-141112666D01*
X160129390Y-141112666D02*
X160177009Y-141160285D01*
X160177009Y-141160285D02*
X160272247Y-141207904D01*
X156333333Y-115059580D02*
X156285714Y-115107200D01*
X156285714Y-115107200D02*
X156142857Y-115154819D01*
X156142857Y-115154819D02*
X156047619Y-115154819D01*
X156047619Y-115154819D02*
X155904762Y-115107200D01*
X155904762Y-115107200D02*
X155809524Y-115011961D01*
X155809524Y-115011961D02*
X155761905Y-114916723D01*
X155761905Y-114916723D02*
X155714286Y-114726247D01*
X155714286Y-114726247D02*
X155714286Y-114583390D01*
X155714286Y-114583390D02*
X155761905Y-114392914D01*
X155761905Y-114392914D02*
X155809524Y-114297676D01*
X155809524Y-114297676D02*
X155904762Y-114202438D01*
X155904762Y-114202438D02*
X156047619Y-114154819D01*
X156047619Y-114154819D02*
X156142857Y-114154819D01*
X156142857Y-114154819D02*
X156285714Y-114202438D01*
X156285714Y-114202438D02*
X156333333Y-114250057D01*
X157238095Y-114154819D02*
X156761905Y-114154819D01*
X156761905Y-114154819D02*
X156714286Y-114631009D01*
X156714286Y-114631009D02*
X156761905Y-114583390D01*
X156761905Y-114583390D02*
X156857143Y-114535771D01*
X156857143Y-114535771D02*
X157095238Y-114535771D01*
X157095238Y-114535771D02*
X157190476Y-114583390D01*
X157190476Y-114583390D02*
X157238095Y-114631009D01*
X157238095Y-114631009D02*
X157285714Y-114726247D01*
X157285714Y-114726247D02*
X157285714Y-114964342D01*
X157285714Y-114964342D02*
X157238095Y-115059580D01*
X157238095Y-115059580D02*
X157190476Y-115107200D01*
X157190476Y-115107200D02*
X157095238Y-115154819D01*
X157095238Y-115154819D02*
X156857143Y-115154819D01*
X156857143Y-115154819D02*
X156761905Y-115107200D01*
X156761905Y-115107200D02*
X156714286Y-115059580D01*
X146057142Y-94377486D02*
X145723809Y-93901295D01*
X145485714Y-94377486D02*
X145485714Y-93377486D01*
X145485714Y-93377486D02*
X145866666Y-93377486D01*
X145866666Y-93377486D02*
X145961904Y-93425105D01*
X145961904Y-93425105D02*
X146009523Y-93472724D01*
X146009523Y-93472724D02*
X146057142Y-93567962D01*
X146057142Y-93567962D02*
X146057142Y-93710819D01*
X146057142Y-93710819D02*
X146009523Y-93806057D01*
X146009523Y-93806057D02*
X145961904Y-93853676D01*
X145961904Y-93853676D02*
X145866666Y-93901295D01*
X145866666Y-93901295D02*
X145485714Y-93901295D01*
X147009523Y-94377486D02*
X146438095Y-94377486D01*
X146723809Y-94377486D02*
X146723809Y-93377486D01*
X146723809Y-93377486D02*
X146628571Y-93520343D01*
X146628571Y-93520343D02*
X146533333Y-93615581D01*
X146533333Y-93615581D02*
X146438095Y-93663200D01*
X147342857Y-93377486D02*
X147961904Y-93377486D01*
X147961904Y-93377486D02*
X147628571Y-93758438D01*
X147628571Y-93758438D02*
X147771428Y-93758438D01*
X147771428Y-93758438D02*
X147866666Y-93806057D01*
X147866666Y-93806057D02*
X147914285Y-93853676D01*
X147914285Y-93853676D02*
X147961904Y-93948914D01*
X147961904Y-93948914D02*
X147961904Y-94187009D01*
X147961904Y-94187009D02*
X147914285Y-94282247D01*
X147914285Y-94282247D02*
X147866666Y-94329867D01*
X147866666Y-94329867D02*
X147771428Y-94377486D01*
X147771428Y-94377486D02*
X147485714Y-94377486D01*
X147485714Y-94377486D02*
X147390476Y-94329867D01*
X147390476Y-94329867D02*
X147342857Y-94282247D01*
X159154333Y-131725819D02*
X158821000Y-131249628D01*
X158582905Y-131725819D02*
X158582905Y-130725819D01*
X158582905Y-130725819D02*
X158963857Y-130725819D01*
X158963857Y-130725819D02*
X159059095Y-130773438D01*
X159059095Y-130773438D02*
X159106714Y-130821057D01*
X159106714Y-130821057D02*
X159154333Y-130916295D01*
X159154333Y-130916295D02*
X159154333Y-131059152D01*
X159154333Y-131059152D02*
X159106714Y-131154390D01*
X159106714Y-131154390D02*
X159059095Y-131202009D01*
X159059095Y-131202009D02*
X158963857Y-131249628D01*
X158963857Y-131249628D02*
X158582905Y-131249628D01*
X160011476Y-130725819D02*
X159821000Y-130725819D01*
X159821000Y-130725819D02*
X159725762Y-130773438D01*
X159725762Y-130773438D02*
X159678143Y-130821057D01*
X159678143Y-130821057D02*
X159582905Y-130963914D01*
X159582905Y-130963914D02*
X159535286Y-131154390D01*
X159535286Y-131154390D02*
X159535286Y-131535342D01*
X159535286Y-131535342D02*
X159582905Y-131630580D01*
X159582905Y-131630580D02*
X159630524Y-131678200D01*
X159630524Y-131678200D02*
X159725762Y-131725819D01*
X159725762Y-131725819D02*
X159916238Y-131725819D01*
X159916238Y-131725819D02*
X160011476Y-131678200D01*
X160011476Y-131678200D02*
X160059095Y-131630580D01*
X160059095Y-131630580D02*
X160106714Y-131535342D01*
X160106714Y-131535342D02*
X160106714Y-131297247D01*
X160106714Y-131297247D02*
X160059095Y-131202009D01*
X160059095Y-131202009D02*
X160011476Y-131154390D01*
X160011476Y-131154390D02*
X159916238Y-131106771D01*
X159916238Y-131106771D02*
X159725762Y-131106771D01*
X159725762Y-131106771D02*
X159630524Y-131154390D01*
X159630524Y-131154390D02*
X159582905Y-131202009D01*
X159582905Y-131202009D02*
X159535286Y-131297247D01*
X122203142Y-103900819D02*
X121869809Y-103424628D01*
X121631714Y-103900819D02*
X121631714Y-102900819D01*
X121631714Y-102900819D02*
X122012666Y-102900819D01*
X122012666Y-102900819D02*
X122107904Y-102948438D01*
X122107904Y-102948438D02*
X122155523Y-102996057D01*
X122155523Y-102996057D02*
X122203142Y-103091295D01*
X122203142Y-103091295D02*
X122203142Y-103234152D01*
X122203142Y-103234152D02*
X122155523Y-103329390D01*
X122155523Y-103329390D02*
X122107904Y-103377009D01*
X122107904Y-103377009D02*
X122012666Y-103424628D01*
X122012666Y-103424628D02*
X121631714Y-103424628D01*
X123155523Y-103900819D02*
X122584095Y-103900819D01*
X122869809Y-103900819D02*
X122869809Y-102900819D01*
X122869809Y-102900819D02*
X122774571Y-103043676D01*
X122774571Y-103043676D02*
X122679333Y-103138914D01*
X122679333Y-103138914D02*
X122584095Y-103186533D01*
X124060285Y-102900819D02*
X123584095Y-102900819D01*
X123584095Y-102900819D02*
X123536476Y-103377009D01*
X123536476Y-103377009D02*
X123584095Y-103329390D01*
X123584095Y-103329390D02*
X123679333Y-103281771D01*
X123679333Y-103281771D02*
X123917428Y-103281771D01*
X123917428Y-103281771D02*
X124012666Y-103329390D01*
X124012666Y-103329390D02*
X124060285Y-103377009D01*
X124060285Y-103377009D02*
X124107904Y-103472247D01*
X124107904Y-103472247D02*
X124107904Y-103710342D01*
X124107904Y-103710342D02*
X124060285Y-103805580D01*
X124060285Y-103805580D02*
X124012666Y-103853200D01*
X124012666Y-103853200D02*
X123917428Y-103900819D01*
X123917428Y-103900819D02*
X123679333Y-103900819D01*
X123679333Y-103900819D02*
X123584095Y-103853200D01*
X123584095Y-103853200D02*
X123536476Y-103805580D01*
X139633333Y-108159580D02*
X139585714Y-108207200D01*
X139585714Y-108207200D02*
X139442857Y-108254819D01*
X139442857Y-108254819D02*
X139347619Y-108254819D01*
X139347619Y-108254819D02*
X139204762Y-108207200D01*
X139204762Y-108207200D02*
X139109524Y-108111961D01*
X139109524Y-108111961D02*
X139061905Y-108016723D01*
X139061905Y-108016723D02*
X139014286Y-107826247D01*
X139014286Y-107826247D02*
X139014286Y-107683390D01*
X139014286Y-107683390D02*
X139061905Y-107492914D01*
X139061905Y-107492914D02*
X139109524Y-107397676D01*
X139109524Y-107397676D02*
X139204762Y-107302438D01*
X139204762Y-107302438D02*
X139347619Y-107254819D01*
X139347619Y-107254819D02*
X139442857Y-107254819D01*
X139442857Y-107254819D02*
X139585714Y-107302438D01*
X139585714Y-107302438D02*
X139633333Y-107350057D01*
X140490476Y-107254819D02*
X140300000Y-107254819D01*
X140300000Y-107254819D02*
X140204762Y-107302438D01*
X140204762Y-107302438D02*
X140157143Y-107350057D01*
X140157143Y-107350057D02*
X140061905Y-107492914D01*
X140061905Y-107492914D02*
X140014286Y-107683390D01*
X140014286Y-107683390D02*
X140014286Y-108064342D01*
X140014286Y-108064342D02*
X140061905Y-108159580D01*
X140061905Y-108159580D02*
X140109524Y-108207200D01*
X140109524Y-108207200D02*
X140204762Y-108254819D01*
X140204762Y-108254819D02*
X140395238Y-108254819D01*
X140395238Y-108254819D02*
X140490476Y-108207200D01*
X140490476Y-108207200D02*
X140538095Y-108159580D01*
X140538095Y-108159580D02*
X140585714Y-108064342D01*
X140585714Y-108064342D02*
X140585714Y-107826247D01*
X140585714Y-107826247D02*
X140538095Y-107731009D01*
X140538095Y-107731009D02*
X140490476Y-107683390D01*
X140490476Y-107683390D02*
X140395238Y-107635771D01*
X140395238Y-107635771D02*
X140204762Y-107635771D01*
X140204762Y-107635771D02*
X140109524Y-107683390D01*
X140109524Y-107683390D02*
X140061905Y-107731009D01*
X140061905Y-107731009D02*
X140014286Y-107826247D01*
X151107905Y-129700819D02*
X151107905Y-128700819D01*
X151107905Y-128700819D02*
X151346000Y-128700819D01*
X151346000Y-128700819D02*
X151488857Y-128748438D01*
X151488857Y-128748438D02*
X151584095Y-128843676D01*
X151584095Y-128843676D02*
X151631714Y-128938914D01*
X151631714Y-128938914D02*
X151679333Y-129129390D01*
X151679333Y-129129390D02*
X151679333Y-129272247D01*
X151679333Y-129272247D02*
X151631714Y-129462723D01*
X151631714Y-129462723D02*
X151584095Y-129557961D01*
X151584095Y-129557961D02*
X151488857Y-129653200D01*
X151488857Y-129653200D02*
X151346000Y-129700819D01*
X151346000Y-129700819D02*
X151107905Y-129700819D01*
X152536476Y-129034152D02*
X152536476Y-129700819D01*
X152298381Y-128653200D02*
X152060286Y-129367485D01*
X152060286Y-129367485D02*
X152679333Y-129367485D01*
X144961905Y-62454819D02*
X144961905Y-61454819D01*
X144961905Y-61454819D02*
X145200000Y-61454819D01*
X145200000Y-61454819D02*
X145342857Y-61502438D01*
X145342857Y-61502438D02*
X145438095Y-61597676D01*
X145438095Y-61597676D02*
X145485714Y-61692914D01*
X145485714Y-61692914D02*
X145533333Y-61883390D01*
X145533333Y-61883390D02*
X145533333Y-62026247D01*
X145533333Y-62026247D02*
X145485714Y-62216723D01*
X145485714Y-62216723D02*
X145438095Y-62311961D01*
X145438095Y-62311961D02*
X145342857Y-62407200D01*
X145342857Y-62407200D02*
X145200000Y-62454819D01*
X145200000Y-62454819D02*
X144961905Y-62454819D01*
X146485714Y-62454819D02*
X145914286Y-62454819D01*
X146200000Y-62454819D02*
X146200000Y-61454819D01*
X146200000Y-61454819D02*
X146104762Y-61597676D01*
X146104762Y-61597676D02*
X146009524Y-61692914D01*
X146009524Y-61692914D02*
X145914286Y-61740533D01*
X143902287Y-129443005D02*
X143807049Y-129395386D01*
X143807049Y-129395386D02*
X143711811Y-129300148D01*
X143711811Y-129300148D02*
X143568954Y-129157290D01*
X143568954Y-129157290D02*
X143473716Y-129109671D01*
X143473716Y-129109671D02*
X143378478Y-129109671D01*
X143426097Y-129347767D02*
X143330859Y-129300148D01*
X143330859Y-129300148D02*
X143235621Y-129204909D01*
X143235621Y-129204909D02*
X143188002Y-129014433D01*
X143188002Y-129014433D02*
X143188002Y-128681100D01*
X143188002Y-128681100D02*
X143235621Y-128490624D01*
X143235621Y-128490624D02*
X143330859Y-128395386D01*
X143330859Y-128395386D02*
X143426097Y-128347767D01*
X143426097Y-128347767D02*
X143616573Y-128347767D01*
X143616573Y-128347767D02*
X143711811Y-128395386D01*
X143711811Y-128395386D02*
X143807049Y-128490624D01*
X143807049Y-128490624D02*
X143854668Y-128681100D01*
X143854668Y-128681100D02*
X143854668Y-129014433D01*
X143854668Y-129014433D02*
X143807049Y-129204909D01*
X143807049Y-129204909D02*
X143711811Y-129300148D01*
X143711811Y-129300148D02*
X143616573Y-129347767D01*
X143616573Y-129347767D02*
X143426097Y-129347767D01*
X144711811Y-128681100D02*
X144711811Y-129347767D01*
X144473716Y-128300148D02*
X144235621Y-129014433D01*
X144235621Y-129014433D02*
X144854668Y-129014433D01*
X156003142Y-119805580D02*
X155955523Y-119853200D01*
X155955523Y-119853200D02*
X155812666Y-119900819D01*
X155812666Y-119900819D02*
X155717428Y-119900819D01*
X155717428Y-119900819D02*
X155574571Y-119853200D01*
X155574571Y-119853200D02*
X155479333Y-119757961D01*
X155479333Y-119757961D02*
X155431714Y-119662723D01*
X155431714Y-119662723D02*
X155384095Y-119472247D01*
X155384095Y-119472247D02*
X155384095Y-119329390D01*
X155384095Y-119329390D02*
X155431714Y-119138914D01*
X155431714Y-119138914D02*
X155479333Y-119043676D01*
X155479333Y-119043676D02*
X155574571Y-118948438D01*
X155574571Y-118948438D02*
X155717428Y-118900819D01*
X155717428Y-118900819D02*
X155812666Y-118900819D01*
X155812666Y-118900819D02*
X155955523Y-118948438D01*
X155955523Y-118948438D02*
X156003142Y-118996057D01*
X156955523Y-119900819D02*
X156384095Y-119900819D01*
X156669809Y-119900819D02*
X156669809Y-118900819D01*
X156669809Y-118900819D02*
X156574571Y-119043676D01*
X156574571Y-119043676D02*
X156479333Y-119138914D01*
X156479333Y-119138914D02*
X156384095Y-119186533D01*
X157812666Y-118900819D02*
X157622190Y-118900819D01*
X157622190Y-118900819D02*
X157526952Y-118948438D01*
X157526952Y-118948438D02*
X157479333Y-118996057D01*
X157479333Y-118996057D02*
X157384095Y-119138914D01*
X157384095Y-119138914D02*
X157336476Y-119329390D01*
X157336476Y-119329390D02*
X157336476Y-119710342D01*
X157336476Y-119710342D02*
X157384095Y-119805580D01*
X157384095Y-119805580D02*
X157431714Y-119853200D01*
X157431714Y-119853200D02*
X157526952Y-119900819D01*
X157526952Y-119900819D02*
X157717428Y-119900819D01*
X157717428Y-119900819D02*
X157812666Y-119853200D01*
X157812666Y-119853200D02*
X157860285Y-119805580D01*
X157860285Y-119805580D02*
X157907904Y-119710342D01*
X157907904Y-119710342D02*
X157907904Y-119472247D01*
X157907904Y-119472247D02*
X157860285Y-119377009D01*
X157860285Y-119377009D02*
X157812666Y-119329390D01*
X157812666Y-119329390D02*
X157717428Y-119281771D01*
X157717428Y-119281771D02*
X157526952Y-119281771D01*
X157526952Y-119281771D02*
X157431714Y-119329390D01*
X157431714Y-119329390D02*
X157384095Y-119377009D01*
X157384095Y-119377009D02*
X157336476Y-119472247D01*
X137605580Y-51588857D02*
X137653200Y-51636476D01*
X137653200Y-51636476D02*
X137700819Y-51779333D01*
X137700819Y-51779333D02*
X137700819Y-51874571D01*
X137700819Y-51874571D02*
X137653200Y-52017428D01*
X137653200Y-52017428D02*
X137557961Y-52112666D01*
X137557961Y-52112666D02*
X137462723Y-52160285D01*
X137462723Y-52160285D02*
X137272247Y-52207904D01*
X137272247Y-52207904D02*
X137129390Y-52207904D01*
X137129390Y-52207904D02*
X136938914Y-52160285D01*
X136938914Y-52160285D02*
X136843676Y-52112666D01*
X136843676Y-52112666D02*
X136748438Y-52017428D01*
X136748438Y-52017428D02*
X136700819Y-51874571D01*
X136700819Y-51874571D02*
X136700819Y-51779333D01*
X136700819Y-51779333D02*
X136748438Y-51636476D01*
X136748438Y-51636476D02*
X136796057Y-51588857D01*
X136796057Y-51207904D02*
X136748438Y-51160285D01*
X136748438Y-51160285D02*
X136700819Y-51065047D01*
X136700819Y-51065047D02*
X136700819Y-50826952D01*
X136700819Y-50826952D02*
X136748438Y-50731714D01*
X136748438Y-50731714D02*
X136796057Y-50684095D01*
X136796057Y-50684095D02*
X136891295Y-50636476D01*
X136891295Y-50636476D02*
X136986533Y-50636476D01*
X136986533Y-50636476D02*
X137129390Y-50684095D01*
X137129390Y-50684095D02*
X137700819Y-51255523D01*
X137700819Y-51255523D02*
X137700819Y-50636476D01*
X136796057Y-50255523D02*
X136748438Y-50207904D01*
X136748438Y-50207904D02*
X136700819Y-50112666D01*
X136700819Y-50112666D02*
X136700819Y-49874571D01*
X136700819Y-49874571D02*
X136748438Y-49779333D01*
X136748438Y-49779333D02*
X136796057Y-49731714D01*
X136796057Y-49731714D02*
X136891295Y-49684095D01*
X136891295Y-49684095D02*
X136986533Y-49684095D01*
X136986533Y-49684095D02*
X137129390Y-49731714D01*
X137129390Y-49731714D02*
X137700819Y-50303142D01*
X137700819Y-50303142D02*
X137700819Y-49684095D01*
X151788261Y-124196057D02*
X151693023Y-124148438D01*
X151693023Y-124148438D02*
X151597785Y-124053200D01*
X151597785Y-124053200D02*
X151454928Y-123910342D01*
X151454928Y-123910342D02*
X151359690Y-123862723D01*
X151359690Y-123862723D02*
X151264452Y-123862723D01*
X151312071Y-124100819D02*
X151216833Y-124053200D01*
X151216833Y-124053200D02*
X151121595Y-123957961D01*
X151121595Y-123957961D02*
X151073976Y-123767485D01*
X151073976Y-123767485D02*
X151073976Y-123434152D01*
X151073976Y-123434152D02*
X151121595Y-123243676D01*
X151121595Y-123243676D02*
X151216833Y-123148438D01*
X151216833Y-123148438D02*
X151312071Y-123100819D01*
X151312071Y-123100819D02*
X151502547Y-123100819D01*
X151502547Y-123100819D02*
X151597785Y-123148438D01*
X151597785Y-123148438D02*
X151693023Y-123243676D01*
X151693023Y-123243676D02*
X151740642Y-123434152D01*
X151740642Y-123434152D02*
X151740642Y-123767485D01*
X151740642Y-123767485D02*
X151693023Y-123957961D01*
X151693023Y-123957961D02*
X151597785Y-124053200D01*
X151597785Y-124053200D02*
X151502547Y-124100819D01*
X151502547Y-124100819D02*
X151312071Y-124100819D01*
X152693023Y-124100819D02*
X152121595Y-124100819D01*
X152407309Y-124100819D02*
X152407309Y-123100819D01*
X152407309Y-123100819D02*
X152312071Y-123243676D01*
X152312071Y-123243676D02*
X152216833Y-123338914D01*
X152216833Y-123338914D02*
X152121595Y-123386533D01*
X158666666Y-125654819D02*
X158666666Y-126369104D01*
X158666666Y-126369104D02*
X158619047Y-126511961D01*
X158619047Y-126511961D02*
X158523809Y-126607200D01*
X158523809Y-126607200D02*
X158380952Y-126654819D01*
X158380952Y-126654819D02*
X158285714Y-126654819D01*
X159047619Y-125654819D02*
X159666666Y-125654819D01*
X159666666Y-125654819D02*
X159333333Y-126035771D01*
X159333333Y-126035771D02*
X159476190Y-126035771D01*
X159476190Y-126035771D02*
X159571428Y-126083390D01*
X159571428Y-126083390D02*
X159619047Y-126131009D01*
X159619047Y-126131009D02*
X159666666Y-126226247D01*
X159666666Y-126226247D02*
X159666666Y-126464342D01*
X159666666Y-126464342D02*
X159619047Y-126559580D01*
X159619047Y-126559580D02*
X159571428Y-126607200D01*
X159571428Y-126607200D02*
X159476190Y-126654819D01*
X159476190Y-126654819D02*
X159190476Y-126654819D01*
X159190476Y-126654819D02*
X159095238Y-126607200D01*
X159095238Y-126607200D02*
X159047619Y-126559580D01*
X120503142Y-118805580D02*
X120455523Y-118853200D01*
X120455523Y-118853200D02*
X120312666Y-118900819D01*
X120312666Y-118900819D02*
X120217428Y-118900819D01*
X120217428Y-118900819D02*
X120074571Y-118853200D01*
X120074571Y-118853200D02*
X119979333Y-118757961D01*
X119979333Y-118757961D02*
X119931714Y-118662723D01*
X119931714Y-118662723D02*
X119884095Y-118472247D01*
X119884095Y-118472247D02*
X119884095Y-118329390D01*
X119884095Y-118329390D02*
X119931714Y-118138914D01*
X119931714Y-118138914D02*
X119979333Y-118043676D01*
X119979333Y-118043676D02*
X120074571Y-117948438D01*
X120074571Y-117948438D02*
X120217428Y-117900819D01*
X120217428Y-117900819D02*
X120312666Y-117900819D01*
X120312666Y-117900819D02*
X120455523Y-117948438D01*
X120455523Y-117948438D02*
X120503142Y-117996057D01*
X120884095Y-117996057D02*
X120931714Y-117948438D01*
X120931714Y-117948438D02*
X121026952Y-117900819D01*
X121026952Y-117900819D02*
X121265047Y-117900819D01*
X121265047Y-117900819D02*
X121360285Y-117948438D01*
X121360285Y-117948438D02*
X121407904Y-117996057D01*
X121407904Y-117996057D02*
X121455523Y-118091295D01*
X121455523Y-118091295D02*
X121455523Y-118186533D01*
X121455523Y-118186533D02*
X121407904Y-118329390D01*
X121407904Y-118329390D02*
X120836476Y-118900819D01*
X120836476Y-118900819D02*
X121455523Y-118900819D01*
X122074571Y-117900819D02*
X122169809Y-117900819D01*
X122169809Y-117900819D02*
X122265047Y-117948438D01*
X122265047Y-117948438D02*
X122312666Y-117996057D01*
X122312666Y-117996057D02*
X122360285Y-118091295D01*
X122360285Y-118091295D02*
X122407904Y-118281771D01*
X122407904Y-118281771D02*
X122407904Y-118519866D01*
X122407904Y-118519866D02*
X122360285Y-118710342D01*
X122360285Y-118710342D02*
X122312666Y-118805580D01*
X122312666Y-118805580D02*
X122265047Y-118853200D01*
X122265047Y-118853200D02*
X122169809Y-118900819D01*
X122169809Y-118900819D02*
X122074571Y-118900819D01*
X122074571Y-118900819D02*
X121979333Y-118853200D01*
X121979333Y-118853200D02*
X121931714Y-118805580D01*
X121931714Y-118805580D02*
X121884095Y-118710342D01*
X121884095Y-118710342D02*
X121836476Y-118519866D01*
X121836476Y-118519866D02*
X121836476Y-118281771D01*
X121836476Y-118281771D02*
X121884095Y-118091295D01*
X121884095Y-118091295D02*
X121931714Y-117996057D01*
X121931714Y-117996057D02*
X121979333Y-117948438D01*
X121979333Y-117948438D02*
X122074571Y-117900819D01*
D13*
%TO.C,PZ1*%
X158850000Y-138300000D02*
G75*
G02*
X146850000Y-138300000I-6000000J0D01*
G01*
X146850000Y-138300000D02*
G75*
G02*
X158850000Y-138300000I6000000J0D01*
G01*
D14*
%TO.C,R11*%
X156823064Y-95411000D02*
X156368936Y-95411000D01*
X156823064Y-96881000D02*
X156368936Y-96881000D01*
D10*
%TO.C,ANT1*%
X119146000Y-135346000D02*
X122146000Y-135346000D01*
X119146000Y-145346000D02*
X119146000Y-135346000D01*
X122146000Y-135346000D02*
X122146000Y-145346000D01*
X122146000Y-145346000D02*
X119146000Y-145346000D01*
D14*
%TO.C,R14*%
X126018936Y-105311000D02*
X126473064Y-105311000D01*
X126018936Y-106781000D02*
X126473064Y-106781000D01*
%TO.C,R9*%
X162418936Y-97664333D02*
X162873064Y-97664333D01*
X162418936Y-99134333D02*
X162873064Y-99134333D01*
%TO.C,R20*%
X136818936Y-125911000D02*
X137273064Y-125911000D01*
X136818936Y-127381000D02*
X137273064Y-127381000D01*
%TO.C,C15*%
X137361252Y-121065000D02*
X136838748Y-121065000D01*
X137361252Y-122535000D02*
X136838748Y-122535000D01*
%TO.C,C10*%
X140284748Y-142811000D02*
X140807252Y-142811000D01*
X140284748Y-144281000D02*
X140807252Y-144281000D01*
%TO.C,D2*%
X122715000Y-110086000D02*
X122715000Y-112006000D01*
X122715000Y-112006000D02*
X125400000Y-112006000D01*
X125400000Y-110086000D02*
X122715000Y-110086000D01*
%TO.C,R18*%
X136818936Y-130811000D02*
X137273064Y-130811000D01*
X136818936Y-132281000D02*
X137273064Y-132281000D01*
%TO.C,C21*%
X139611000Y-53884748D02*
X139611000Y-54407252D01*
X141081000Y-53884748D02*
X141081000Y-54407252D01*
%TO.C,C18*%
X150107252Y-95404333D02*
X149584748Y-95404333D01*
X150107252Y-96874333D02*
X149584748Y-96874333D01*
%TO.C,C3*%
X145357252Y-76351000D02*
X144834748Y-76351000D01*
X145357252Y-77821000D02*
X144834748Y-77821000D01*
%TO.C,R12*%
X156368936Y-90911000D02*
X156823064Y-90911000D01*
X156368936Y-92381000D02*
X156823064Y-92381000D01*
%TO.C,R7*%
X162093936Y-132836000D02*
X162548064Y-132836000D01*
X162093936Y-134306000D02*
X162548064Y-134306000D01*
%TO.C,Q5*%
X142060026Y-123836000D02*
X141410026Y-123836000D01*
X142060026Y-123836000D02*
X142710026Y-123836000D01*
X142060026Y-126956000D02*
X141410026Y-126956000D01*
X142060026Y-126956000D02*
X142710026Y-126956000D01*
X140897526Y-123886000D02*
X140657526Y-123556000D01*
X141137526Y-123556000D01*
X140897526Y-123886000D01*
G36*
X140897526Y-123886000D02*
G01*
X140657526Y-123556000D01*
X141137526Y-123556000D01*
X140897526Y-123886000D01*
G37*
D12*
%TO.C,U3*%
X144721000Y-107521000D02*
X144721000Y-107746000D01*
X144721000Y-107521000D02*
X145046000Y-107521000D01*
X144721000Y-114771000D02*
X144721000Y-114446000D01*
X144721000Y-114771000D02*
X145046000Y-114771000D01*
X151971000Y-107521000D02*
X151646000Y-107521000D01*
X151971000Y-107521000D02*
X151971000Y-107846000D01*
X151971000Y-114771000D02*
X151646000Y-114771000D01*
X151971000Y-114771000D02*
X151971000Y-114446000D01*
D14*
X143956000Y-107806000D02*
X143616000Y-107336000D01*
X144296000Y-107336000D01*
X143956000Y-107806000D01*
G36*
X143956000Y-107806000D02*
G01*
X143616000Y-107336000D01*
X144296000Y-107336000D01*
X143956000Y-107806000D01*
G37*
%TO.C,R19*%
X137273064Y-128662526D02*
X136818936Y-128662526D01*
X137273064Y-130132526D02*
X136818936Y-130132526D01*
%TO.C,C1*%
X145357252Y-72651000D02*
X144834748Y-72651000D01*
X145357252Y-74121000D02*
X144834748Y-74121000D01*
%TO.C,U2*%
X135746000Y-141036000D02*
X134946000Y-141036000D01*
X135746000Y-141036000D02*
X136546000Y-141036000D01*
X135746000Y-144156000D02*
X134946000Y-144156000D01*
X135746000Y-144156000D02*
X136546000Y-144156000D01*
X134446000Y-141086000D02*
X134206000Y-140756000D01*
X134686000Y-140756000D01*
X134446000Y-141086000D01*
G36*
X134446000Y-141086000D02*
G01*
X134206000Y-140756000D01*
X134686000Y-140756000D01*
X134446000Y-141086000D01*
G37*
%TO.C,C2*%
X162384748Y-93111000D02*
X162907252Y-93111000D01*
X162384748Y-94581000D02*
X162907252Y-94581000D01*
%TO.C,J2*%
X150190000Y-101830000D02*
X150190000Y-100500000D01*
X151520000Y-101830000D02*
X150190000Y-101830000D01*
X152790000Y-99170000D02*
X157930000Y-99170000D01*
X152790000Y-101830000D02*
X152790000Y-99170000D01*
X152790000Y-101830000D02*
X157930000Y-101830000D01*
X157930000Y-101830000D02*
X157930000Y-99170000D01*
%TO.C,C14*%
X123211000Y-116119752D02*
X123211000Y-115597248D01*
X124681000Y-116119752D02*
X124681000Y-115597248D01*
%TO.C,R10*%
X150073064Y-90881000D02*
X149618936Y-90881000D01*
X150073064Y-92351000D02*
X149618936Y-92351000D01*
%TO.C,R5*%
X145848500Y-125773064D02*
X145848500Y-125318936D01*
X147318500Y-125773064D02*
X147318500Y-125318936D01*
%TO.C,C19*%
X118111000Y-116107252D02*
X118111000Y-115584748D01*
X119581000Y-116107252D02*
X119581000Y-115584748D01*
%TO.C,C8*%
X145357252Y-78751000D02*
X144834748Y-78751000D01*
X145357252Y-80221000D02*
X144834748Y-80221000D01*
%TO.C,Q3*%
X132271000Y-114348500D02*
X131621000Y-114348500D01*
X132271000Y-114348500D02*
X132921000Y-114348500D01*
X132271000Y-117468500D02*
X131621000Y-117468500D01*
X132271000Y-117468500D02*
X132921000Y-117468500D01*
X131108500Y-114398500D02*
X130868500Y-114068500D01*
X131348500Y-114068500D01*
X131108500Y-114398500D01*
G36*
X131108500Y-114398500D02*
G01*
X130868500Y-114068500D01*
X131348500Y-114068500D01*
X131108500Y-114398500D01*
G37*
%TO.C,C13*%
X162059748Y-135136000D02*
X162582252Y-135136000D01*
X162059748Y-136606000D02*
X162582252Y-136606000D01*
D10*
%TO.C,U5*%
X118046000Y-63146000D02*
X138846000Y-63146000D01*
X118046000Y-100246000D02*
X118046000Y-63146000D01*
X138746000Y-100246000D02*
X118046000Y-100246000D01*
X138846000Y-63146000D02*
X138846000Y-100246000D01*
D15*
X120271000Y-101846000D02*
G75*
G02*
X119821000Y-101846000I-225000J0D01*
G01*
X119821000Y-101846000D02*
G75*
G02*
X120271000Y-101846000I225000J0D01*
G01*
D14*
%TO.C,R1*%
X162418936Y-90834333D02*
X162873064Y-90834333D01*
X162418936Y-92304333D02*
X162873064Y-92304333D01*
%TO.C,C11*%
X140284748Y-140161000D02*
X140807252Y-140161000D01*
X140284748Y-141631000D02*
X140807252Y-141631000D01*
D10*
%TO.C,U4*%
X118446000Y-120346000D02*
X118946000Y-120346000D01*
X118446000Y-130046000D02*
X118446000Y-120346000D01*
X118946000Y-130046000D02*
X118446000Y-130046000D01*
X128946000Y-120346000D02*
X129446000Y-120346000D01*
X129446000Y-120346000D02*
X129446000Y-130046000D01*
X129446000Y-130046000D02*
X128946000Y-130046000D01*
D15*
X130671000Y-121346000D02*
G75*
G02*
X130221000Y-121346000I-225000J0D01*
G01*
X130221000Y-121346000D02*
G75*
G02*
X130671000Y-121346000I225000J0D01*
G01*
D14*
%TO.C,L2*%
X135132596Y-56967445D02*
X134567445Y-57532596D01*
X135924555Y-57759404D02*
X135359404Y-58324555D01*
%TO.C,R17*%
X127711000Y-116085564D02*
X127711000Y-115631436D01*
X129181000Y-116085564D02*
X129181000Y-115631436D01*
%TO.C,C23*%
X132511000Y-53884748D02*
X132511000Y-54407252D01*
X133981000Y-53884748D02*
X133981000Y-54407252D01*
%TO.C,R8*%
X140161000Y-113618936D02*
X140161000Y-114073064D01*
X141631000Y-113618936D02*
X141631000Y-114073064D01*
%TO.C,C24*%
X128611000Y-53884748D02*
X128611000Y-54407252D01*
X130081000Y-53884748D02*
X130081000Y-54407252D01*
%TO.C,R3*%
X131173064Y-110311000D02*
X130718936Y-110311000D01*
X131173064Y-111781000D02*
X130718936Y-111781000D01*
%TO.C,R2*%
X162873064Y-95387666D02*
X162418936Y-95387666D01*
X162873064Y-96857666D02*
X162418936Y-96857666D01*
%TO.C,R16*%
X150073064Y-86311000D02*
X149618936Y-86311000D01*
X150073064Y-87781000D02*
X149618936Y-87781000D01*
%TO.C,C12*%
X140284748Y-137511000D02*
X140807252Y-137511000D01*
X140284748Y-138981000D02*
X140807252Y-138981000D01*
%TO.C,C25*%
X156184748Y-109861000D02*
X156707252Y-109861000D01*
X156184748Y-111331000D02*
X156707252Y-111331000D01*
%TO.C,Q2*%
X131308500Y-103386000D02*
X130658500Y-103386000D01*
X131308500Y-103386000D02*
X131958500Y-103386000D01*
X131308500Y-106506000D02*
X130658500Y-106506000D01*
X131308500Y-106506000D02*
X131958500Y-106506000D01*
X130146000Y-103436000D02*
X129906000Y-103106000D01*
X130386000Y-103106000D01*
X130146000Y-103436000D01*
G36*
X130146000Y-103436000D02*
G01*
X129906000Y-103106000D01*
X130386000Y-103106000D01*
X130146000Y-103436000D01*
G37*
%TO.C,U1*%
X153821000Y-74146000D02*
X153821000Y-75956000D01*
X153821000Y-84546000D02*
X153821000Y-82736000D01*
X155186000Y-74146000D02*
X153821000Y-74146000D01*
X155186000Y-84546000D02*
X153821000Y-84546000D01*
X150996000Y-75996000D02*
X150656000Y-75526000D01*
X151336000Y-75526000D01*
X150996000Y-75996000D01*
G36*
X150996000Y-75996000D02*
G01*
X150656000Y-75526000D01*
X151336000Y-75526000D01*
X150996000Y-75996000D01*
G37*
%TO.C,C9*%
X134984748Y-137511000D02*
X135507252Y-137511000D01*
X134984748Y-138981000D02*
X135507252Y-138981000D01*
%TO.C,C17*%
X156334748Y-93211000D02*
X156857252Y-93211000D01*
X156334748Y-94681000D02*
X156857252Y-94681000D01*
%TO.C,R21*%
X137273064Y-123661000D02*
X136818936Y-123661000D01*
X137273064Y-125131000D02*
X136818936Y-125131000D01*
%TO.C,L1*%
X139132596Y-58324555D02*
X138567445Y-57759404D01*
X139924555Y-57532596D02*
X139359404Y-56967445D01*
%TO.C,ANT2*%
X118240800Y-52646000D02*
X118240800Y-50646000D01*
X120746000Y-48140800D02*
X122746000Y-48140800D01*
X122746000Y-55151200D02*
X120746000Y-55151200D01*
X125251200Y-50646000D02*
X125251200Y-52646000D01*
%TO.C,Y1*%
X136946000Y-111846000D02*
X138946000Y-111846000D01*
X136946000Y-112646000D02*
X136946000Y-111846000D01*
X136946000Y-115446000D02*
X136946000Y-114446000D01*
X136946000Y-115646000D02*
X138946000Y-115646000D01*
X138946000Y-111846000D02*
X139346000Y-111846000D01*
X138946000Y-115446000D02*
X136946000Y-115446000D01*
X138946000Y-115446000D02*
X139346000Y-115446000D01*
X138946000Y-115646000D02*
X139346000Y-115646000D01*
X139346000Y-111846000D02*
X139346000Y-112646000D01*
X139346000Y-114446000D02*
X139346000Y-115446000D01*
X139346000Y-114446000D02*
X139746000Y-114446000D01*
%TO.C,L3*%
X131132596Y-58324555D02*
X130567445Y-57759404D01*
X131924555Y-57532596D02*
X131359404Y-56967445D01*
%TO.C,J1*%
X150236000Y-57286000D02*
X150236000Y-66406000D01*
X152546000Y-57286000D02*
X150236000Y-57286000D01*
X152546000Y-66406000D02*
X150236000Y-66406000D01*
X158546000Y-57286000D02*
X155546000Y-57286000D01*
X158546000Y-66406000D02*
X155546000Y-66406000D01*
X159966000Y-69106000D02*
X161306000Y-69106000D01*
X161306000Y-69106000D02*
X161306000Y-67206000D01*
X161846000Y-57286000D02*
X161846000Y-66406000D01*
X161846000Y-58846000D02*
X157046000Y-58846000D01*
X161846000Y-64846000D02*
X157046000Y-64846000D01*
X165156000Y-57286000D02*
X161546000Y-57286000D01*
X165156000Y-57286000D02*
X165156000Y-66406000D01*
X165156000Y-66406000D02*
X161546000Y-66406000D01*
X157046000Y-64846000D02*
G75*
G02*
X157046000Y-58846000I0J3000000D01*
G01*
%TO.C,C4*%
X122284748Y-60811000D02*
X122807252Y-60811000D01*
X122284748Y-62281000D02*
X122807252Y-62281000D01*
%TO.C,C7*%
X146938748Y-130965000D02*
X147461252Y-130965000D01*
X146938748Y-132435000D02*
X147461252Y-132435000D01*
%TO.C,R4*%
X131173064Y-107911000D02*
X130718936Y-107911000D01*
X131173064Y-109381000D02*
X130718936Y-109381000D01*
%TO.C,J4*%
X159816000Y-113576000D02*
X159816000Y-105836000D01*
X162416000Y-110976000D02*
X162416000Y-113576000D01*
X162416000Y-113576000D02*
X159816000Y-113576000D01*
X165016000Y-105836000D02*
X159816000Y-105836000D01*
X165016000Y-110976000D02*
X162416000Y-110976000D01*
X165016000Y-110976000D02*
X165016000Y-105836000D01*
X165016000Y-112246000D02*
X165016000Y-113576000D01*
X165016000Y-113576000D02*
X163686000Y-113576000D01*
%TO.C,D3*%
X122715000Y-107686000D02*
X122715000Y-109606000D01*
X122715000Y-109606000D02*
X125400000Y-109606000D01*
X125400000Y-107686000D02*
X122715000Y-107686000D01*
D10*
%TO.C,U6*%
X161096000Y-142996000D02*
X161096000Y-142846000D01*
X161096000Y-143006000D02*
X161246000Y-143006000D01*
X163646000Y-140296000D02*
X163796000Y-140296000D01*
X163796000Y-140296000D02*
X163796000Y-140446000D01*
X163796000Y-142996000D02*
X163646000Y-142996000D01*
X163796000Y-142996000D02*
X163796000Y-142846000D01*
D14*
X161096000Y-140296000D02*
X160736000Y-140296000D01*
X161096000Y-139936000D01*
X161096000Y-140296000D01*
G36*
X161096000Y-140296000D02*
G01*
X160736000Y-140296000D01*
X161096000Y-139936000D01*
X161096000Y-140296000D01*
G37*
%TO.C,C5*%
X156184748Y-112261000D02*
X156707252Y-112261000D01*
X156184748Y-113731000D02*
X156707252Y-113731000D01*
%TO.C,R13*%
X149618936Y-93187667D02*
X150073064Y-93187667D01*
X149618936Y-94657667D02*
X150073064Y-94657667D01*
%TO.C,R6*%
X162093936Y-130536000D02*
X162548064Y-130536000D01*
X162093936Y-132006000D02*
X162548064Y-132006000D01*
%TO.C,R15*%
X126018936Y-102611000D02*
X126473064Y-102611000D01*
X126018936Y-104081000D02*
X126473064Y-104081000D01*
%TO.C,C6*%
X140107252Y-108861000D02*
X139584748Y-108861000D01*
X140107252Y-110331000D02*
X139584748Y-110331000D01*
%TO.C,D4*%
X145523500Y-128246000D02*
X145523500Y-130246000D01*
X145523500Y-128246000D02*
X149533500Y-128246000D01*
X145523500Y-130246000D02*
X149533500Y-130246000D01*
%TO.C,D1*%
X144196000Y-70056000D02*
X144196000Y-64546000D01*
X144196000Y-70056000D02*
X147496000Y-70056000D01*
X147496000Y-70056000D02*
X147496000Y-64546000D01*
%TO.C,Q4*%
X142060026Y-128787526D02*
X141410026Y-128787526D01*
X142060026Y-128787526D02*
X142710026Y-128787526D01*
X142060026Y-131907526D02*
X141410026Y-131907526D01*
X142060026Y-131907526D02*
X142710026Y-131907526D01*
X140897526Y-128837526D02*
X140657526Y-128507526D01*
X141137526Y-128507526D01*
X140897526Y-128837526D01*
G36*
X140897526Y-128837526D02*
G01*
X140657526Y-128507526D01*
X141137526Y-128507526D01*
X140897526Y-128837526D01*
G37*
%TO.C,C16*%
X156807252Y-120611000D02*
X156284748Y-120611000D01*
X156807252Y-122081000D02*
X156284748Y-122081000D01*
%TO.C,C22*%
X136511000Y-53884748D02*
X136511000Y-54407252D01*
X137981000Y-53884748D02*
X137981000Y-54407252D01*
%TO.C,Q1*%
X150046000Y-123986000D02*
X149396000Y-123986000D01*
X150046000Y-123986000D02*
X150696000Y-123986000D01*
X150046000Y-127106000D02*
X149396000Y-127106000D01*
X150046000Y-127106000D02*
X150696000Y-127106000D01*
X148883500Y-124036000D02*
X148643500Y-123706000D01*
X149123500Y-123706000D01*
X148883500Y-124036000D01*
G36*
X148883500Y-124036000D02*
G01*
X148643500Y-123706000D01*
X149123500Y-123706000D01*
X148883500Y-124036000D01*
G37*
%TO.C,J3*%
X160186000Y-119336000D02*
X160186000Y-120386000D01*
X160186000Y-124506000D02*
X159196000Y-124506000D01*
X160186000Y-125556000D02*
X160186000Y-124506000D01*
X162686000Y-119336000D02*
X160186000Y-119336000D01*
X162686000Y-125556000D02*
X160186000Y-125556000D01*
X164656000Y-124386000D02*
X164656000Y-120506000D01*
%TO.C,C20*%
X120611000Y-116119752D02*
X120611000Y-115597248D01*
X122081000Y-116119752D02*
X122081000Y-115597248D01*
%TD*%
M02*
