%TF.GenerationSoftware,KiCad,Pcbnew,9.0.4*%
%TF.CreationDate,2025-08-21T19:00:16-05:00*%
%TF.ProjectId,ptFlex,7074466c-6578-42e6-9b69-6361645f7063,rev?*%
%TF.SameCoordinates,Original*%
%TF.FileFunction,Soldermask,Top*%
%TF.FilePolarity,Negative*%
%FSLAX46Y46*%
G04 Gerber Fmt 4.6, Leading zero omitted, Abs format (unit mm)*
G04 Created by KiCad (PCBNEW 9.0.4) date 2025-08-21 19:00:16*
%MOMM*%
%LPD*%
G01*
G04 APERTURE LIST*
G04 Aperture macros list*
%AMRoundRect*
0 Rectangle with rounded corners*
0 $1 Rounding radius*
0 $2 $3 $4 $5 $6 $7 $8 $9 X,Y pos of 4 corners*
0 Add a 4 corners polygon primitive as box body*
4,1,4,$2,$3,$4,$5,$6,$7,$8,$9,$2,$3,0*
0 Add four circle primitives for the rounded corners*
1,1,$1+$1,$2,$3*
1,1,$1+$1,$4,$5*
1,1,$1+$1,$6,$7*
1,1,$1+$1,$8,$9*
0 Add four rect primitives between the rounded corners*
20,1,$1+$1,$2,$3,$4,$5,0*
20,1,$1+$1,$4,$5,$6,$7,0*
20,1,$1+$1,$6,$7,$8,$9,0*
20,1,$1+$1,$8,$9,$2,$3,0*%
G04 Aperture macros list end*
%ADD10RoundRect,0.250000X0.262500X0.450000X-0.262500X0.450000X-0.262500X-0.450000X0.262500X-0.450000X0*%
%ADD11RoundRect,0.375000X0.625000X-0.375000X0.625000X0.375000X-0.625000X0.375000X-0.625000X-0.375000X0*%
%ADD12RoundRect,0.250000X-0.262500X-0.450000X0.262500X-0.450000X0.262500X0.450000X-0.262500X0.450000X0*%
%ADD13RoundRect,0.250000X0.250000X0.475000X-0.250000X0.475000X-0.250000X-0.475000X0.250000X-0.475000X0*%
%ADD14RoundRect,0.250000X-0.250000X-0.475000X0.250000X-0.475000X0.250000X0.475000X-0.250000X0.475000X0*%
%ADD15RoundRect,0.243750X-0.243750X-0.456250X0.243750X-0.456250X0.243750X0.456250X-0.243750X0.456250X0*%
%ADD16RoundRect,0.250000X-0.475000X0.250000X-0.475000X-0.250000X0.475000X-0.250000X0.475000X0.250000X0*%
%ADD17RoundRect,0.150000X-0.587500X-0.150000X0.587500X-0.150000X0.587500X0.150000X-0.587500X0.150000X0*%
%ADD18RoundRect,0.137500X-0.600000X-0.137500X0.600000X-0.137500X0.600000X0.137500X-0.600000X0.137500X0*%
%ADD19RoundRect,0.137500X-0.137500X-0.600000X0.137500X-0.600000X0.137500X0.600000X-0.137500X0.600000X0*%
%ADD20RoundRect,0.150000X-0.512500X-0.150000X0.512500X-0.150000X0.512500X0.150000X-0.512500X0.150000X0*%
%ADD21R,1.700000X1.700000*%
%ADD22C,1.700000*%
%ADD23RoundRect,0.250000X0.475000X-0.250000X0.475000X0.250000X-0.475000X0.250000X-0.475000X-0.250000X0*%
%ADD24RoundRect,0.250000X0.450000X-0.262500X0.450000X0.262500X-0.450000X0.262500X-0.450000X-0.262500X0*%
%ADD25RoundRect,0.115000X1.135000X1.035000X-1.135000X1.035000X-1.135000X-1.035000X1.135000X-1.035000X0*%
%ADD26RoundRect,0.115000X1.035000X1.135000X-1.035000X1.135000X-1.035000X-1.135000X1.035000X-1.135000X0*%
%ADD27RoundRect,0.270000X3.480000X0.630000X-3.480000X0.630000X-3.480000X-0.630000X3.480000X-0.630000X0*%
%ADD28RoundRect,0.270000X2.980000X0.630000X-2.980000X0.630000X-2.980000X-0.630000X2.980000X-0.630000X0*%
%ADD29RoundRect,0.750000X1.750000X2.250000X-1.750000X2.250000X-1.750000X-2.250000X1.750000X-2.250000X0*%
%ADD30RoundRect,0.080000X0.320000X-0.820000X0.320000X0.820000X-0.320000X0.820000X-0.320000X-0.820000X0*%
%ADD31RoundRect,0.218750X-0.114905X0.424264X-0.424264X0.114905X0.114905X-0.424264X0.424264X-0.114905X0*%
%ADD32RoundRect,0.250000X-0.450000X0.262500X-0.450000X-0.262500X0.450000X-0.262500X0.450000X0.262500X0*%
%ADD33C,1.612000*%
%ADD34RoundRect,0.250000X-2.050000X-0.300000X2.050000X-0.300000X2.050000X0.300000X-2.050000X0.300000X0*%
%ADD35RoundRect,0.250002X-4.449998X-5.149998X4.449998X-5.149998X4.449998X5.149998X-4.449998X5.149998X0*%
%ADD36RoundRect,0.218750X0.424264X0.114905X0.114905X0.424264X-0.424264X-0.114905X-0.114905X-0.424264X0*%
%ADD37C,2.340000*%
%ADD38C,2.740000*%
%ADD39R,1.900000X0.400000*%
%ADD40O,1.500000X2.000000*%
%ADD41C,2.000000*%
%ADD42R,2.000000X3.000000*%
%ADD43R,0.350000X0.500000*%
%ADD44RoundRect,0.225000X-0.225000X-0.375000X0.225000X-0.375000X0.225000X0.375000X-0.225000X0.375000X0*%
%ADD45RoundRect,0.250000X0.650000X-1.000000X0.650000X1.000000X-0.650000X1.000000X-0.650000X-1.000000X0*%
%ADD46RoundRect,0.150000X0.625000X-0.150000X0.625000X0.150000X-0.625000X0.150000X-0.625000X-0.150000X0*%
%ADD47RoundRect,0.250000X0.650000X-0.350000X0.650000X0.350000X-0.650000X0.350000X-0.650000X-0.350000X0*%
G04 APERTURE END LIST*
D10*
%TO.C,R11*%
X157508500Y-96146000D03*
X155683500Y-96146000D03*
%TD*%
D11*
%TO.C,ANT1*%
X120646000Y-136346000D03*
X120646000Y-144346000D03*
%TD*%
D12*
%TO.C,R14*%
X142487500Y-96100000D03*
X144312500Y-96100000D03*
%TD*%
%TO.C,R9*%
X161733500Y-98399333D03*
X163558500Y-98399333D03*
%TD*%
%TO.C,R20*%
X136133500Y-126646000D03*
X137958500Y-126646000D03*
%TD*%
D13*
%TO.C,C15*%
X138050000Y-121800000D03*
X136150000Y-121800000D03*
%TD*%
D14*
%TO.C,C10*%
X139596000Y-143546000D03*
X141496000Y-143546000D03*
%TD*%
D15*
%TO.C,D2*%
X123462500Y-111046000D03*
X125337500Y-111046000D03*
%TD*%
D12*
%TO.C,R18*%
X136133500Y-131546000D03*
X137958500Y-131546000D03*
%TD*%
D16*
%TO.C,C21*%
X140300000Y-60400000D03*
X140300000Y-62300000D03*
%TD*%
D13*
%TO.C,C18*%
X150796000Y-96139333D03*
X148896000Y-96139333D03*
%TD*%
%TO.C,C3*%
X145975000Y-81665000D03*
X144075000Y-81665000D03*
%TD*%
D12*
%TO.C,R12*%
X155683500Y-91646000D03*
X157508500Y-91646000D03*
%TD*%
%TO.C,R7*%
X161408500Y-133571000D03*
X163233500Y-133571000D03*
%TD*%
D17*
%TO.C,Q5*%
X141122526Y-124446000D03*
X141122526Y-126346000D03*
X142997526Y-125396000D03*
%TD*%
D18*
%TO.C,U3*%
X144183500Y-108346000D03*
X144183500Y-109146000D03*
X144183500Y-109946000D03*
X144183500Y-110746000D03*
X144183500Y-111546000D03*
X144183500Y-112346000D03*
X144183500Y-113146000D03*
X144183500Y-113946000D03*
D19*
X145546000Y-115308500D03*
X146346000Y-115308500D03*
X147146000Y-115308500D03*
X147946000Y-115308500D03*
X148746000Y-115308500D03*
X149546000Y-115308500D03*
X150346000Y-115308500D03*
X151146000Y-115308500D03*
D18*
X152508500Y-113946000D03*
X152508500Y-113146000D03*
X152508500Y-112346000D03*
X152508500Y-111546000D03*
X152508500Y-110746000D03*
X152508500Y-109946000D03*
X152508500Y-109146000D03*
X152508500Y-108346000D03*
D19*
X151146000Y-106983500D03*
X150346000Y-106983500D03*
X149546000Y-106983500D03*
X148746000Y-106983500D03*
X147946000Y-106983500D03*
X147146000Y-106983500D03*
X146346000Y-106983500D03*
X145546000Y-106983500D03*
%TD*%
D10*
%TO.C,R19*%
X137958500Y-129397526D03*
X136133500Y-129397526D03*
%TD*%
D13*
%TO.C,C1*%
X145975000Y-77965000D03*
X144075000Y-77965000D03*
%TD*%
D20*
%TO.C,U2*%
X134608500Y-141646000D03*
X134608500Y-142596000D03*
X134608500Y-143546000D03*
X136883500Y-143546000D03*
X136883500Y-141646000D03*
%TD*%
D14*
%TO.C,C2*%
X161696000Y-93846000D03*
X163596000Y-93846000D03*
%TD*%
D21*
%TO.C,J2*%
X148260000Y-100500000D03*
D22*
X150800000Y-100500000D03*
X153340000Y-100500000D03*
%TD*%
D23*
%TO.C,C14*%
X123946000Y-116808500D03*
X123946000Y-114908500D03*
%TD*%
D10*
%TO.C,R10*%
X150758500Y-91616000D03*
X148933500Y-91616000D03*
%TD*%
D24*
%TO.C,R5*%
X146583500Y-126458500D03*
X146583500Y-124633500D03*
%TD*%
D23*
%TO.C,C19*%
X118846000Y-116796000D03*
X118846000Y-114896000D03*
%TD*%
D13*
%TO.C,C8*%
X145975000Y-84065000D03*
X144075000Y-84065000D03*
%TD*%
D17*
%TO.C,Q3*%
X131333500Y-114958500D03*
X131333500Y-116858500D03*
X133208500Y-115908500D03*
%TD*%
D14*
%TO.C,C13*%
X161371000Y-135871000D03*
X163271000Y-135871000D03*
%TD*%
D25*
%TO.C,U5*%
X119500000Y-100300000D03*
X119500000Y-95900000D03*
X119500000Y-91500000D03*
X119500000Y-87100000D03*
X119500000Y-82700000D03*
X119500000Y-78300000D03*
X119500000Y-73900000D03*
D26*
X121500000Y-70000000D03*
X126133334Y-70000000D03*
X130766667Y-70000000D03*
X135400000Y-70000000D03*
D25*
X137300000Y-73900000D03*
X137300000Y-78300000D03*
X137300000Y-82700000D03*
X137300000Y-87100000D03*
X137300000Y-91500000D03*
X137300000Y-95900000D03*
X137300000Y-100300000D03*
D27*
X134750000Y-104350000D03*
D28*
X121500000Y-104350000D03*
D29*
X127400000Y-76100000D03*
%TD*%
D12*
%TO.C,R1*%
X161733500Y-91569333D03*
X163558500Y-91569333D03*
%TD*%
D14*
%TO.C,C11*%
X139596000Y-140896000D03*
X141496000Y-140896000D03*
%TD*%
D30*
%TO.C,U4*%
X128346000Y-120346000D03*
X127246000Y-120346000D03*
X126146000Y-120346000D03*
X125046000Y-120346000D03*
X123946000Y-120346000D03*
X122846000Y-120346000D03*
X121746000Y-120346000D03*
X120646000Y-120346000D03*
X119546000Y-120346000D03*
X119546000Y-130046000D03*
X120646000Y-130046000D03*
X121746000Y-130046000D03*
X122846000Y-130046000D03*
X123946000Y-130046000D03*
X125046000Y-130046000D03*
X126146000Y-130046000D03*
X127246000Y-130046000D03*
X128346000Y-130046000D03*
%TD*%
D31*
%TO.C,L2*%
X135951301Y-64098699D03*
X134448699Y-65601301D03*
%TD*%
D24*
%TO.C,R17*%
X128446000Y-116771000D03*
X128446000Y-114946000D03*
%TD*%
D16*
%TO.C,C23*%
X133200000Y-60400000D03*
X133200000Y-62300000D03*
%TD*%
D32*
%TO.C,R8*%
X140896000Y-112933500D03*
X140896000Y-114758500D03*
%TD*%
D16*
%TO.C,C24*%
X129300000Y-60400000D03*
X129300000Y-62300000D03*
%TD*%
D10*
%TO.C,R3*%
X131858500Y-111046000D03*
X130033500Y-111046000D03*
%TD*%
%TO.C,R2*%
X163558500Y-96122666D03*
X161733500Y-96122666D03*
%TD*%
%TO.C,R16*%
X144462500Y-89600000D03*
X142637500Y-89600000D03*
%TD*%
D14*
%TO.C,C12*%
X139596000Y-138246000D03*
X141496000Y-138246000D03*
%TD*%
%TO.C,C25*%
X154650000Y-110700000D03*
X156550000Y-110700000D03*
%TD*%
D17*
%TO.C,Q2*%
X140762500Y-99850000D03*
X140762500Y-101750000D03*
X142637500Y-100800000D03*
%TD*%
D33*
%TO.C,PZ1*%
X156050000Y-138300000D03*
X149550000Y-138300000D03*
%TD*%
D34*
%TO.C,U1*%
X150925000Y-81385000D03*
X150925000Y-83925000D03*
D35*
X160075000Y-83925000D03*
D34*
X150925000Y-86465000D03*
%TD*%
D14*
%TO.C,C9*%
X134296000Y-138246000D03*
X136196000Y-138246000D03*
%TD*%
%TO.C,C17*%
X155646000Y-93946000D03*
X157546000Y-93946000D03*
%TD*%
D10*
%TO.C,R21*%
X137958500Y-124396000D03*
X136133500Y-124396000D03*
%TD*%
D36*
%TO.C,L1*%
X139951301Y-65601301D03*
X138448699Y-64098699D03*
%TD*%
D37*
%TO.C,ANT2*%
X122140000Y-62460000D03*
D38*
X119600000Y-65000000D03*
X124680000Y-65000000D03*
X119600000Y-59920000D03*
X124680000Y-59920000D03*
%TD*%
D39*
%TO.C,Y1*%
X138146000Y-114846000D03*
X138146000Y-113646000D03*
X138146000Y-112446000D03*
%TD*%
D36*
%TO.C,L3*%
X131951301Y-65601301D03*
X130448699Y-64098699D03*
%TD*%
D40*
%TO.C,J1*%
X160300000Y-69600000D03*
D41*
X155900000Y-69600000D03*
D42*
X160400000Y-75100000D03*
X154400000Y-75100000D03*
X154400000Y-64100000D03*
X160400000Y-64100000D03*
%TD*%
D16*
%TO.C,C4*%
X141700000Y-71850000D03*
X141700000Y-73750000D03*
%TD*%
D14*
%TO.C,C7*%
X146250000Y-131700000D03*
X148150000Y-131700000D03*
%TD*%
D10*
%TO.C,R4*%
X131858500Y-108646000D03*
X130033500Y-108646000D03*
%TD*%
D21*
%TO.C,J4*%
X163200000Y-112240000D03*
D22*
X160660000Y-112240000D03*
X163200000Y-109700000D03*
X160660000Y-109700000D03*
X163200000Y-107160000D03*
X160660000Y-107160000D03*
%TD*%
D15*
%TO.C,D3*%
X123462500Y-108646000D03*
X125337500Y-108646000D03*
%TD*%
D43*
%TO.C,U6*%
X161471000Y-140621000D03*
X162121000Y-140621000D03*
X162771000Y-140621000D03*
X163421000Y-140621000D03*
X163421000Y-142671000D03*
X162771000Y-142671000D03*
X162121000Y-142671000D03*
X161471000Y-142671000D03*
%TD*%
D14*
%TO.C,C5*%
X154650000Y-113100000D03*
X156550000Y-113100000D03*
%TD*%
D12*
%TO.C,R13*%
X148933500Y-93922667D03*
X150758500Y-93922667D03*
%TD*%
%TO.C,R6*%
X161408500Y-131271000D03*
X163233500Y-131271000D03*
%TD*%
%TO.C,R15*%
X142487500Y-93900000D03*
X144312500Y-93900000D03*
%TD*%
D13*
%TO.C,C6*%
X140796000Y-109596000D03*
X138896000Y-109596000D03*
%TD*%
D44*
%TO.C,D4*%
X146233500Y-129246000D03*
X149533500Y-129246000D03*
%TD*%
D45*
%TO.C,D1*%
X145300000Y-73100000D03*
X145300000Y-69100000D03*
%TD*%
D17*
%TO.C,Q4*%
X141122526Y-129397526D03*
X141122526Y-131297526D03*
X142997526Y-130347526D03*
%TD*%
D16*
%TO.C,C16*%
X156500000Y-125150000D03*
X156500000Y-127050000D03*
%TD*%
%TO.C,C22*%
X137200000Y-60400000D03*
X137200000Y-62300000D03*
%TD*%
D17*
%TO.C,Q1*%
X149108500Y-124596000D03*
X149108500Y-126496000D03*
X150983500Y-125546000D03*
%TD*%
D46*
%TO.C,J3*%
X160200000Y-126200000D03*
X160200000Y-125200000D03*
X160200000Y-124200000D03*
X160200000Y-123200000D03*
D47*
X164075000Y-127500000D03*
X164075000Y-121900000D03*
%TD*%
D23*
%TO.C,C20*%
X121346000Y-116808500D03*
X121346000Y-114908500D03*
%TD*%
M02*
