%TF.GenerationSoftware,KiCad,Pcbnew,9.0.0*%
%TF.CreationDate,2025-06-23T20:21:27-05:00*%
%TF.ProjectId,ptFlex,7074466c-6578-42e6-9b69-6361645f7063,rev?*%
%TF.SameCoordinates,Original*%
%TF.FileFunction,Soldermask,Top*%
%TF.FilePolarity,Negative*%
%FSLAX46Y46*%
G04 Gerber Fmt 4.6, Leading zero omitted, Abs format (unit mm)*
G04 Created by KiCad (PCBNEW 9.0.0) date 2025-06-23 20:21:27*
%MOMM*%
%LPD*%
G01*
G04 APERTURE LIST*
G04 Aperture macros list*
%AMRoundRect*
0 Rectangle with rounded corners*
0 $1 Rounding radius*
0 $2 $3 $4 $5 $6 $7 $8 $9 X,Y pos of 4 corners*
0 Add a 4 corners polygon primitive as box body*
4,1,4,$2,$3,$4,$5,$6,$7,$8,$9,$2,$3,0*
0 Add four circle primitives for the rounded corners*
1,1,$1+$1,$2,$3*
1,1,$1+$1,$4,$5*
1,1,$1+$1,$6,$7*
1,1,$1+$1,$8,$9*
0 Add four rect primitives between the rounded corners*
20,1,$1+$1,$2,$3,$4,$5,0*
20,1,$1+$1,$4,$5,$6,$7,0*
20,1,$1+$1,$6,$7,$8,$9,0*
20,1,$1+$1,$8,$9,$2,$3,0*%
G04 Aperture macros list end*
%ADD10C,1.612000*%
%ADD11RoundRect,0.250000X0.262500X0.450000X-0.262500X0.450000X-0.262500X-0.450000X0.262500X-0.450000X0*%
%ADD12RoundRect,0.375000X0.625000X-0.375000X0.625000X0.375000X-0.625000X0.375000X-0.625000X-0.375000X0*%
%ADD13RoundRect,0.250000X-0.262500X-0.450000X0.262500X-0.450000X0.262500X0.450000X-0.262500X0.450000X0*%
%ADD14RoundRect,0.250000X0.250000X0.475000X-0.250000X0.475000X-0.250000X-0.475000X0.250000X-0.475000X0*%
%ADD15RoundRect,0.250000X-0.250000X-0.475000X0.250000X-0.475000X0.250000X0.475000X-0.250000X0.475000X0*%
%ADD16RoundRect,0.243750X-0.243750X-0.456250X0.243750X-0.456250X0.243750X0.456250X-0.243750X0.456250X0*%
%ADD17RoundRect,0.250000X-0.475000X0.250000X-0.475000X-0.250000X0.475000X-0.250000X0.475000X0.250000X0*%
%ADD18RoundRect,0.150000X-0.587500X-0.150000X0.587500X-0.150000X0.587500X0.150000X-0.587500X0.150000X0*%
%ADD19R,1.600000X0.550000*%
%ADD20R,0.550000X1.600000*%
%ADD21RoundRect,0.150000X-0.512500X-0.150000X0.512500X-0.150000X0.512500X0.150000X-0.512500X0.150000X0*%
%ADD22R,1.700000X1.700000*%
%ADD23O,1.700000X1.700000*%
%ADD24RoundRect,0.250000X0.475000X-0.250000X0.475000X0.250000X-0.475000X0.250000X-0.475000X-0.250000X0*%
%ADD25RoundRect,0.250000X0.450000X-0.262500X0.450000X0.262500X-0.450000X0.262500X-0.450000X-0.262500X0*%
%ADD26RoundRect,0.115000X1.135000X1.035000X-1.135000X1.035000X-1.135000X-1.035000X1.135000X-1.035000X0*%
%ADD27RoundRect,0.115000X1.035000X1.135000X-1.035000X1.135000X-1.035000X-1.135000X1.035000X-1.135000X0*%
%ADD28RoundRect,0.270000X3.480000X0.630000X-3.480000X0.630000X-3.480000X-0.630000X3.480000X-0.630000X0*%
%ADD29RoundRect,0.270000X2.980000X0.630000X-2.980000X0.630000X-2.980000X-0.630000X2.980000X-0.630000X0*%
%ADD30RoundRect,0.750000X1.750000X2.250000X-1.750000X2.250000X-1.750000X-2.250000X1.750000X-2.250000X0*%
%ADD31RoundRect,0.080000X0.320000X-0.820000X0.320000X0.820000X-0.320000X0.820000X-0.320000X-0.820000X0*%
%ADD32RoundRect,0.218750X-0.114905X0.424264X-0.424264X0.114905X0.114905X-0.424264X0.424264X-0.114905X0*%
%ADD33RoundRect,0.250000X-0.450000X0.262500X-0.450000X-0.262500X0.450000X-0.262500X0.450000X0.262500X0*%
%ADD34RoundRect,0.250000X-2.050000X-0.300000X2.050000X-0.300000X2.050000X0.300000X-2.050000X0.300000X0*%
%ADD35RoundRect,0.250002X-4.449998X-5.149998X4.449998X-5.149998X4.449998X5.149998X-4.449998X5.149998X0*%
%ADD36RoundRect,0.218750X0.424264X0.114905X0.114905X0.424264X-0.424264X-0.114905X-0.114905X-0.424264X0*%
%ADD37C,2.240000*%
%ADD38C,2.740000*%
%ADD39R,1.900000X0.400000*%
%ADD40O,1.500000X2.000000*%
%ADD41C,2.000000*%
%ADD42R,2.000000X3.000000*%
%ADD43R,0.350000X0.500000*%
%ADD44RoundRect,0.225000X-0.225000X-0.375000X0.225000X-0.375000X0.225000X0.375000X-0.225000X0.375000X0*%
%ADD45RoundRect,0.250000X0.650000X-1.000000X0.650000X1.000000X-0.650000X1.000000X-0.650000X-1.000000X0*%
%ADD46RoundRect,0.150000X0.625000X-0.150000X0.625000X0.150000X-0.625000X0.150000X-0.625000X-0.150000X0*%
%ADD47RoundRect,0.250000X0.650000X-0.350000X0.650000X0.350000X-0.650000X0.350000X-0.650000X-0.350000X0*%
G04 APERTURE END LIST*
D10*
%TO.C,PZ1*%
X149600000Y-138300000D03*
X156100000Y-138300000D03*
%TD*%
D11*
%TO.C,R11*%
X157508500Y-96146000D03*
X155683500Y-96146000D03*
%TD*%
D12*
%TO.C,ANT1*%
X120646000Y-136346000D03*
X120646000Y-144346000D03*
%TD*%
D13*
%TO.C,R14*%
X125333500Y-106046000D03*
X127158500Y-106046000D03*
%TD*%
%TO.C,R9*%
X161733500Y-98399333D03*
X163558500Y-98399333D03*
%TD*%
%TO.C,R20*%
X136133500Y-126646000D03*
X137958500Y-126646000D03*
%TD*%
D14*
%TO.C,C15*%
X138050000Y-121800000D03*
X136150000Y-121800000D03*
%TD*%
D15*
%TO.C,C10*%
X139596000Y-143546000D03*
X141496000Y-143546000D03*
%TD*%
D16*
%TO.C,D2*%
X123462500Y-111046000D03*
X125337500Y-111046000D03*
%TD*%
D13*
%TO.C,R18*%
X136133500Y-131546000D03*
X137958500Y-131546000D03*
%TD*%
D17*
%TO.C,C21*%
X140346000Y-53196000D03*
X140346000Y-55096000D03*
%TD*%
D14*
%TO.C,C18*%
X150796000Y-96139333D03*
X148896000Y-96139333D03*
%TD*%
%TO.C,C3*%
X146046000Y-77086000D03*
X144146000Y-77086000D03*
%TD*%
D13*
%TO.C,R12*%
X155683500Y-91646000D03*
X157508500Y-91646000D03*
%TD*%
%TO.C,R7*%
X161408500Y-133571000D03*
X163233500Y-133571000D03*
%TD*%
D18*
%TO.C,Q5*%
X141122526Y-124446000D03*
X141122526Y-126346000D03*
X142997526Y-125396000D03*
%TD*%
D19*
%TO.C,U3*%
X144096000Y-108346000D03*
X144096000Y-109146000D03*
X144096000Y-109946000D03*
X144096000Y-110746000D03*
X144096000Y-111546000D03*
X144096000Y-112346000D03*
X144096000Y-113146000D03*
X144096000Y-113946000D03*
D20*
X145546000Y-115396000D03*
X146346000Y-115396000D03*
X147146000Y-115396000D03*
X147946000Y-115396000D03*
X148746000Y-115396000D03*
X149546000Y-115396000D03*
X150346000Y-115396000D03*
X151146000Y-115396000D03*
D19*
X152596000Y-113946000D03*
X152596000Y-113146000D03*
X152596000Y-112346000D03*
X152596000Y-111546000D03*
X152596000Y-110746000D03*
X152596000Y-109946000D03*
X152596000Y-109146000D03*
X152596000Y-108346000D03*
D20*
X151146000Y-106896000D03*
X150346000Y-106896000D03*
X149546000Y-106896000D03*
X148746000Y-106896000D03*
X147946000Y-106896000D03*
X147146000Y-106896000D03*
X146346000Y-106896000D03*
X145546000Y-106896000D03*
%TD*%
D11*
%TO.C,R19*%
X137958500Y-129397526D03*
X136133500Y-129397526D03*
%TD*%
D14*
%TO.C,C1*%
X146046000Y-73386000D03*
X144146000Y-73386000D03*
%TD*%
D21*
%TO.C,U2*%
X134608500Y-141646000D03*
X134608500Y-142596000D03*
X134608500Y-143546000D03*
X136883500Y-143546000D03*
X136883500Y-141646000D03*
%TD*%
D15*
%TO.C,C2*%
X161696000Y-93846000D03*
X163596000Y-93846000D03*
%TD*%
D22*
%TO.C,J2*%
X151520000Y-100500000D03*
D23*
X154060000Y-100500000D03*
X156600000Y-100500000D03*
%TD*%
D24*
%TO.C,C14*%
X123946000Y-116808500D03*
X123946000Y-114908500D03*
%TD*%
D11*
%TO.C,R10*%
X150758500Y-91616000D03*
X148933500Y-91616000D03*
%TD*%
D25*
%TO.C,R5*%
X146583500Y-126458500D03*
X146583500Y-124633500D03*
%TD*%
D24*
%TO.C,C19*%
X118846000Y-116796000D03*
X118846000Y-114896000D03*
%TD*%
D14*
%TO.C,C8*%
X146046000Y-79486000D03*
X144146000Y-79486000D03*
%TD*%
D18*
%TO.C,Q3*%
X131333500Y-114958500D03*
X131333500Y-116858500D03*
X133208500Y-115908500D03*
%TD*%
D15*
%TO.C,C13*%
X161371000Y-135871000D03*
X163271000Y-135871000D03*
%TD*%
D26*
%TO.C,U5*%
X119546000Y-94946000D03*
X119546000Y-90546000D03*
X119546000Y-86146000D03*
X119546000Y-81746000D03*
X119546000Y-77346000D03*
X119546000Y-72946000D03*
X119546000Y-68546000D03*
D27*
X121546000Y-64646000D03*
X126179334Y-64646000D03*
X130812667Y-64646000D03*
X135446000Y-64646000D03*
D26*
X137346000Y-68546000D03*
X137346000Y-72946000D03*
X137346000Y-77346000D03*
X137346000Y-81746000D03*
X137346000Y-86146000D03*
X137346000Y-90546000D03*
X137346000Y-94946000D03*
D28*
X134796000Y-98996000D03*
D29*
X121546000Y-98996000D03*
D30*
X127446000Y-70746000D03*
%TD*%
D13*
%TO.C,R1*%
X161733500Y-91569333D03*
X163558500Y-91569333D03*
%TD*%
D15*
%TO.C,C11*%
X139596000Y-140896000D03*
X141496000Y-140896000D03*
%TD*%
D31*
%TO.C,U4*%
X128346000Y-120346000D03*
X127246000Y-120346000D03*
X126146000Y-120346000D03*
X125046000Y-120346000D03*
X123946000Y-120346000D03*
X122846000Y-120346000D03*
X121746000Y-120346000D03*
X120646000Y-120346000D03*
X119546000Y-120346000D03*
X119546000Y-130046000D03*
X120646000Y-130046000D03*
X121746000Y-130046000D03*
X122846000Y-130046000D03*
X123946000Y-130046000D03*
X125046000Y-130046000D03*
X126146000Y-130046000D03*
X127246000Y-130046000D03*
X128346000Y-130046000D03*
%TD*%
D32*
%TO.C,L2*%
X135997301Y-56894699D03*
X134494699Y-58397301D03*
%TD*%
D25*
%TO.C,R17*%
X128446000Y-116771000D03*
X128446000Y-114946000D03*
%TD*%
D17*
%TO.C,C23*%
X133246000Y-53196000D03*
X133246000Y-55096000D03*
%TD*%
D33*
%TO.C,R8*%
X140896000Y-112933500D03*
X140896000Y-114758500D03*
%TD*%
D17*
%TO.C,C24*%
X129346000Y-53196000D03*
X129346000Y-55096000D03*
%TD*%
D11*
%TO.C,R3*%
X131858500Y-111046000D03*
X130033500Y-111046000D03*
%TD*%
%TO.C,R2*%
X163558500Y-96122666D03*
X161733500Y-96122666D03*
%TD*%
%TO.C,R16*%
X150758500Y-87046000D03*
X148933500Y-87046000D03*
%TD*%
D15*
%TO.C,C12*%
X139596000Y-138246000D03*
X141496000Y-138246000D03*
%TD*%
%TO.C,C25*%
X155496000Y-110596000D03*
X157396000Y-110596000D03*
%TD*%
D18*
%TO.C,Q2*%
X130371000Y-103996000D03*
X130371000Y-105896000D03*
X132246000Y-104946000D03*
%TD*%
D34*
%TO.C,U1*%
X150996000Y-76806000D03*
X150996000Y-79346000D03*
D35*
X160146000Y-79346000D03*
D34*
X150996000Y-81886000D03*
%TD*%
D15*
%TO.C,C9*%
X134296000Y-138246000D03*
X136196000Y-138246000D03*
%TD*%
%TO.C,C17*%
X155646000Y-93946000D03*
X157546000Y-93946000D03*
%TD*%
D11*
%TO.C,R21*%
X137958500Y-124396000D03*
X136133500Y-124396000D03*
%TD*%
D36*
%TO.C,L1*%
X139997301Y-58397301D03*
X138494699Y-56894699D03*
%TD*%
D37*
%TO.C,ANT2*%
X121746000Y-51646000D03*
D38*
X119206000Y-54186000D03*
X124286000Y-54186000D03*
X119206000Y-49106000D03*
X124286000Y-49106000D03*
%TD*%
D39*
%TO.C,Y1*%
X138146000Y-114846000D03*
X138146000Y-113646000D03*
X138146000Y-112446000D03*
%TD*%
D36*
%TO.C,L3*%
X131997301Y-58397301D03*
X130494699Y-56894699D03*
%TD*%
D40*
%TO.C,J1*%
X159946000Y-61846000D03*
D41*
X155546000Y-61846000D03*
D42*
X160046000Y-67346000D03*
X154046000Y-67346000D03*
X154046000Y-56346000D03*
X160046000Y-56346000D03*
%TD*%
D15*
%TO.C,C4*%
X121596000Y-61546000D03*
X123496000Y-61546000D03*
%TD*%
%TO.C,C7*%
X146250000Y-131700000D03*
X148150000Y-131700000D03*
%TD*%
D11*
%TO.C,R4*%
X131858500Y-108646000D03*
X130033500Y-108646000D03*
%TD*%
D22*
%TO.C,J4*%
X163686000Y-112246000D03*
D23*
X161146000Y-112246000D03*
X163686000Y-109706000D03*
X161146000Y-109706000D03*
X163686000Y-107166000D03*
X161146000Y-107166000D03*
%TD*%
D16*
%TO.C,D3*%
X123462500Y-108646000D03*
X125337500Y-108646000D03*
%TD*%
D43*
%TO.C,U6*%
X161471000Y-140621000D03*
X162121000Y-140621000D03*
X162771000Y-140621000D03*
X163421000Y-140621000D03*
X163421000Y-142671000D03*
X162771000Y-142671000D03*
X162121000Y-142671000D03*
X161471000Y-142671000D03*
%TD*%
D15*
%TO.C,C5*%
X155496000Y-112996000D03*
X157396000Y-112996000D03*
%TD*%
D13*
%TO.C,R13*%
X148933500Y-93922667D03*
X150758500Y-93922667D03*
%TD*%
%TO.C,R6*%
X161408500Y-131271000D03*
X163233500Y-131271000D03*
%TD*%
%TO.C,R15*%
X125333500Y-103346000D03*
X127158500Y-103346000D03*
%TD*%
D14*
%TO.C,C6*%
X140796000Y-109596000D03*
X138896000Y-109596000D03*
%TD*%
D44*
%TO.C,D4*%
X146233500Y-129246000D03*
X149533500Y-129246000D03*
%TD*%
D45*
%TO.C,D1*%
X145846000Y-68546000D03*
X145846000Y-64546000D03*
%TD*%
D18*
%TO.C,Q4*%
X141122526Y-129397526D03*
X141122526Y-131297526D03*
X142997526Y-130347526D03*
%TD*%
D14*
%TO.C,C16*%
X157496000Y-121346000D03*
X155596000Y-121346000D03*
%TD*%
D17*
%TO.C,C22*%
X137246000Y-53196000D03*
X137246000Y-55096000D03*
%TD*%
D18*
%TO.C,Q1*%
X149108500Y-124596000D03*
X149108500Y-126496000D03*
X150983500Y-125546000D03*
%TD*%
D46*
%TO.C,J3*%
X159971000Y-123946000D03*
X159971000Y-122946000D03*
X159971000Y-121946000D03*
X159971000Y-120946000D03*
D47*
X163846000Y-125246000D03*
X163846000Y-119646000D03*
%TD*%
D24*
%TO.C,C20*%
X121346000Y-116808500D03*
X121346000Y-114908500D03*
%TD*%
M02*
